<svg xmlns="http://www.w3.org/2000/svg" viewBox="0 0 400 150"><defs><clipPath id="b"><path d="M-6.382-41.032h412.764v232.065H-6.382z" style="fill:none"/></clipPath><style>.d{fill:gray;mix-blend-mode:color-burn}.d,.e{opacity:.1}.g{opacity:.15}.e,.g{fill:#fff;mix-blend-mode:screen}</style></defs><g style="isolation:isolate"><g id="a" data-name="Layer 1" style="clip-path:url(#b)"><path d="M-6.382-41.033h412.764v232.066H-6.382z" style="fill:#bfbfbf"/><path d="M-131.262 67.286 63.993 374.483l191.116-121.492L43.564-79.745-147.511 41.721l16.249 25.564ZM84.95 130.5c18.754 35.522-35.45 69.979-59.654 37.922zm-32.517 14.729L22.606 164.19C3.853 128.67 58.055 94.214 82.26 126.268zm49.827 131.806c3.887-25.183 25.194-34.001 47.485-30.186zm2.693 4.231 70.97-45.116 27.725 43.611-15.903 10.109-17.804-28.007-61.769 39.266 17.803 28.007-15.903 10.109-27.722-43.613 22.603-14.369Zm29.084 42.747-3.578 2.274-15.113-23.774 52.802-33.566 15.113 23.774-49.225 31.292Zm70.487-140.685 43.411 68.28-39.803 25.303-30.416-47.844-21.663 13.771c-27.914-6.208-57.147 6.157-59.448 37.791l-21.429 13.622 30.413 47.846L65.786 367.4-35.942 207.351l56.744-36.072c27.708 37.497 90.836-2.633 68.642-43.636l56.744-36.072zM-43.06 48.418l47.475-30.18c-6.006 21.8-23.032 37.344-47.478 30.182zM2.61 13.445l-70.959 45.109-27.712-43.597 15.899-10.108 17.797 27.997L-.607-6.414-18.404-34.41l15.9-10.108L25.21-.922zm-29.075-42.731 3.577-2.274L-7.78-7.795l-52.793 33.559L-75.68 1.999zm-74.079 47.092 30.402 47.829 21.426-13.62c30.399 11.638 53.192-9.785 59.438-37.786L32.382.46 1.977-47.367l39.795-25.297L143.498 87.339l-56.744 36.072c-27.708-37.494-90.833 2.634-68.642 43.636l-56.744 36.072-101.707-160.015 39.795-25.297Z" class="d"/><path d="M387.292-12.907 265.464 186.878l124.302 75.787L521.705 46.238 397.429-29.533l-10.138 16.626Zm24.868 142.662c-15.172 20.895-50.426-.599-38.799-23.656zm-17.722-14.58-19.399-11.828c15.171-20.895 50.424.599 38.799 23.656zm-61.902 66.135c15.63-4.901 26.762 4.889 30.885 18.83zm-1.676 2.754 46.159 28.143-17.294 28.366-10.343-6.306 11.106-18.216-40.175-24.494-11.107 18.215-10.343-6.306 17.295-28.365zm-16.41 28.904-2.327-1.419 9.428-15.463 34.343 20.939-9.427 15.463zm101.155.754-27.075 44.413-25.888-15.784 18.972-31.119-14.09-8.591c-4.337-17.864-19.763-31.221-38.665-23.574l-13.937-8.498-18.974 31.117-25.888-15.784 63.472-104.088 36.906 22.502c-13.772 26.621 27.287 51.655 44.645 27.22l36.906 22.502-36.384 59.683Zm7.593-181.099 30.878 18.826c-14.28 2.72-28.077-2.693-30.88-18.828h.002Zm33.131 16.425-46.152-28.139 17.289-28.354 10.341 6.305-11.102 18.209 40.168 24.49 11.102-18.209 10.341 6.305-17.287 28.355-14.699-8.962Zm16.403-28.894 2.327 1.419-9.424 15.457-34.336-20.935L440.723.639l32.009 19.516ZM424.551-9.222l-18.967 31.106 13.935 8.496c1.909 20.839 20.734 27.91 38.659 23.571l14.088 8.589 18.965-31.108 25.883 15.781-63.446 104.073-36.906-22.502c13.77-26.621-27.287-51.653-44.645-27.22l-36.906-22.502 63.458-104.066 25.883 15.781ZM338.488-130.349l-233.514 15.065L113.2 12.101 366.145-4.245l-8.224-127.357zm-103.24 90.575c-25.803-.158-28.136-36.287-2.568-39.761zm1.934-20.089-1.284-19.88c25.802.158 28.134 36.285 2.568 39.761zm-89.548-10.406c12.906 8.65 11.172 21.591 2.044 31.65zm-3.218.21 3.055 47.304-33.153 2.141-.684-10.6 21.29-1.375-2.659-41.171-21.29 1.374-.684-10.6 33.153-2.14.973 15.066Zm-33.094 3.047-.154-2.385 18.073-1.167 2.273 35.194-18.072 1.167-2.119-32.81ZM168.131 5.55l-51.907 3.354-1.713-26.53 36.37-2.349-.932-14.439c12.234-12.215 14.463-30.041-2.559-39.624l-.922-14.283-36.37 2.347-1.713-26.53 121.661-7.849 2.442 37.822c-29.718 3.764-27.001 45.841 2.954 45.752l2.442 37.822zm153.288-87.036 2.043 31.644c-10.344-8.801-13.725-21.409-2.043-31.646zm5.298 32.026-3.054-47.296 33.141-2.139.684 10.598-21.282 1.374 2.658 41.164 21.282-1.375.684 10.598-33.141 2.141-.973-15.063Zm33.081-3.047.154 2.384-18.065 1.167-2.272-35.188 18.065-1.166zm-3.188-49.376-36.357 2.346.922 14.281c-16.058 12.001-11.188 29.043 2.558 39.618l.932 14.437 36.357-2.349 1.713 26.524L241.101.834l-2.442-37.821c29.716-3.765 26.999-45.84-2.954-45.752l-2.442-37.821 121.635-7.848 1.713 26.524Z" class="g"/><path d="m239.119 26.628-27.234 87.047 54.158 16.94 29.489-94.295-54.146-16.936zm22.859 51.609c-3.767 9.333-19.127 4.529-16.904-5.288zm-8.077-3.843-8.452-2.644c3.767-9.333 19.127-4.529 16.904 5.288zm-17.175 30.85c5.449-3.328 10.582-.675 13.456 4.209zm-.374 1.2 20.111 6.291-3.865 12.359-4.507-1.41 2.482-7.937-17.504-5.475-2.483 7.936-4.507-1.41 3.866-12.358 6.405 2.003Zm-3.48 12.479-1.014-.317 2.107-6.737 14.963 4.68-2.107 6.737zm38.327-9.255-6.051 19.35-11.279-3.528 4.24-13.558-6.139-1.92c-3.325-6.347-10.419-9.944-16.846-5.269l-6.072-1.899-4.241 13.558-11.279-3.528 14.189-45.351 16.08 5.03c-2.698 11.367 15.191 16.962 19.452 6.084l16.08 5.03-8.132 26.003Zm-14.207-69.206 13.453 4.208c-5.144 2.375-10.873 1.629-13.454-4.208Zm14.079 3.087-20.108-6.29 3.865-12.354 4.506 1.409-2.482 7.933 17.501 5.474 2.481-7.934 4.506 1.409-3.864 12.354-6.404-2.003Zm3.479-12.475 1.014.317-2.106 6.734-14.96-4.679 2.107-6.734 13.946 4.362Zm-20.993-6.566-4.24 13.553 6.072 1.899c2.687 7.701 10.474 8.6 16.844 5.269l6.138 1.92 4.239-13.553 11.277 3.527-14.18 45.343-16.08-5.03c2.697-11.366-15.191-16.962-19.452-6.084l-16.08-5.03 14.186-45.342z" class="d"/><path d="m61.756 40.779 47.201-51.784-32.22-29.364L25.616 15.73l32.213 29.358zm.823-43.354C68.23-7.852 77.368.475 72.636 6.59zm4.378 5.296 5.028 4.583c-5.651 5.277-14.788-3.05-10.057-9.165l5.028 4.583Zm21.966-15.912c-4.874.55-7.588-2.963-8.005-7.296zm.65-.714L77.608-24.809l6.701-7.353 2.681 2.443-4.303 4.722 10.413 9.49 4.303-4.721 2.681 2.443-6.701 7.352-3.811-3.473Zm6.471-7.562.603.55-3.653 4.008-8.902-8.113 3.653-4.008zm-29.692-5.987 10.491-11.512 6.71 6.116-7.351 8.066 3.652 3.328c.257 5.499 4.03 10.304 10.022 9.134l3.613 3.292 7.351-8.066 6.71 6.116-24.591 26.979-9.566-8.718C78.959.24 68.316-9.459 61.821-3.266l-9.566-8.718zM53.797 25.348l-8.004-7.294c4.353.015 8.1 2.392 8.004 7.295Zm-8.803-6.717 11.963 10.902-6.699 7.349-2.68-2.443 4.302-4.72-10.412-9.489-4.301 4.72-2.68-2.443 6.698-7.35 3.81 3.472Zm-6.469 7.559-.603-.55 3.651-4.006 8.9 8.111-3.651 4.006zm12.489 11.382 7.349-8.063-3.612-3.292c.627-6.234-4.504-9.386-10.021-9.132l-3.652-3.328-7.348 8.063-6.709-6.114 24.583-26.977 9.566 8.718c-5.565 7.04 5.077 16.739 11.572 10.546l9.566 8.718-24.586 26.974z" class="g"/><path d="m120.392 149.195 35.24 1.132.703-21.925-38.172-1.222-.703 21.92 2.933.094Zm16.856-13.856c3.866.437 3.667 6.655-.219 6.843zm-.596 3.406-.11 3.422c-3.866-.437-3.667-6.655.219-6.843l-.11 3.422Zm13.268 3.203c-1.803-1.685-1.347-3.871.175-5.447zm.486.015.261-8.142 5.003.16-.058 1.824-3.213-.103-.227 7.086 3.213.103-.058 1.824-5.003-.161.083-2.593Zm5.008.004-.013.41-2.727-.088.194-6.057 2.727.087-.181 5.647Zm-7.415-13.317 7.833.251-.146 4.566-5.489-.176-.08 2.485c-2.02 1.895-2.625 4.91-.219 6.82l-.079 2.458 5.489.176-.146 4.566-18.36-.59.209-6.51c4.513-.172 4.745-7.414.253-7.875l.209-6.51 10.527.337Zm-24.305 12.456.175-5.446c1.417 1.67 1.732 3.881-.175 5.447Zm-.307-5.563-.261 8.14-5.001-.161.058-1.824 3.212.103.227-7.085-3.212-.103.058-1.824 5.001.16-.083 2.593Zm-5.007-.005.013-.41 2.726.087-.194 6.056-2.726-.087zm-.272 8.499 5.487.176.079-2.458c2.59-1.798 2.119-4.791.219-6.819l.08-2.485-5.487-.176.146-4.565 18.356.588-.209 6.51c-4.513.172-4.745 7.414-.252 7.875l-.209 6.51-18.356-.59z" class="d"/><path d="m-17.543 97.574 34.468 41.151 25.601-21.446L5.184 72.708-20.412 94.15l2.868 3.425Zm32.83 5.076c3.427 4.832-3.834 10.915-7.991 6.694zm-4.47 2.78-3.995 3.347c-3.426-4.832 3.834-10.914 7.991-6.694zm9.825 18.31c.083-3.757 3.028-5.457 6.361-5.329zm.475.567 9.507-7.964 4.894 5.842-2.13 1.785-3.143-3.752-8.274 6.931 3.143 3.752-2.13 1.785-4.894-5.842 3.028-2.536Zm5.077 5.69-.479.401-2.668-3.185 7.073-5.925 2.668 3.185zm7.594-21.928 7.663 9.146-5.332 4.467-5.369-6.409-2.902 2.431c-4.201-.37-8.237 2.002-7.963 6.671l-2.87 2.405 5.369 6.409-5.332 4.467-17.958-21.44 7.601-6.368c4.774 4.948 13.23-2.136 9.195-7.703l7.601-6.368zM-5.011 93.116l6.36-5.327c-.458 3.303-2.648 5.904-6.36 5.328Zm6.003-5.994-9.505 7.963-4.892-5.84 2.13-1.784 3.142 3.75 8.273-6.93-3.142-3.75 2.13-1.784 4.892 5.84zm-5.074-5.687.479-.401 2.667 3.183-7.072 5.924-2.667-3.183zm-9.923 8.313 5.367 6.407 2.87-2.404c4.669 1.116 7.589-2.456 7.962-6.67l2.901-2.431-5.367-6.407 5.331-4.466L23.016 95.21l-7.601 6.368c-4.774-4.948-13.23 2.136-9.195 7.703l-7.601 6.368-17.954-21.435zM66.215 95.993l60.437 25.803 16.051-37.602-65.47-27.942-16.047 37.594zm38.646-12.663c6.419 3.374 1.867 14.039-5.01 11.737zm-3.337 5.513-2.505 5.868c-6.419-3.374-1.867-14.038 5.01-11.737l-2.505 5.868ZM122.4 103.38c-1.992-4.146.28-7.635 3.988-9.343zm.833.355 5.96-13.963 8.581 3.662-1.336 3.129-5.51-2.352-5.188 12.153 5.51 2.352-1.336 3.129-8.581-3.663 1.898-4.447Zm8.695 3.395-.3.704-4.677-1.997 4.435-10.389 4.678 1.997-4.134 9.685Zm-3.87-28.143 13.435 5.734-3.343 7.831-9.414-4.018-1.819 4.262c-4.79 1.926-7.88 6.752-4.993 11.696l-1.8 4.216 9.413 4.019-3.343 7.831-31.487-13.443 4.766-11.164c7.954 2.754 13.256-9.667 5.765-13.505l4.766-11.164zm-50.637 5.192 3.987-9.341c1.332 3.859.384 7.912-3.987 9.341m3.229-9.87L74.691 88.27l-8.577-3.662 1.335-3.128 5.508 2.351 5.187-12.151-5.508-2.351 1.335-3.128 8.578 3.661zm-8.692-3.394.3-.704 4.676 1.996L72.5 82.594l-4.676-1.996 4.133-9.683ZM65.737 85.49l9.41 4.017 1.799-4.215c5.714-1.371 6.921-6.888 4.992-11.695l1.819-4.262-9.41-4.016 3.342-7.83 31.482 13.437-4.766 11.164c-7.954-2.753-13.255 9.666-5.765 13.505l-4.766 11.164-31.481-13.44 3.342-7.83Z" class="g"/><path d="m139.665 24.767 60.437 25.803 16.051-37.602-65.47-27.942-16.047 37.594zm38.646-12.664c6.419 3.374 1.867 14.039-5.01 11.737zm-3.338 5.513-2.505 5.868c-6.419-3.374-1.867-14.038 5.01-11.737zm20.877 14.537c-1.992-4.146.28-7.635 3.988-9.343zm.833.355 5.96-13.963 8.581 3.662-1.336 3.129-5.51-2.352-5.188 12.153 5.51 2.352-1.336 3.129-8.581-3.663 1.898-4.447Zm8.695 3.395-.3.704-4.678-1.997 4.435-10.389 4.678 1.997zm-3.87-28.143 13.435 5.734-3.343 7.831-9.414-4.018-1.819 4.262c-4.79 1.926-7.88 6.752-4.993 11.696l-1.8 4.216 9.413 4.019-3.343 7.831-31.488-13.443 4.766-11.164c7.954 2.754 13.256-9.667 5.765-13.505L183.453.055zm-50.637 5.192 3.987-9.341c1.332 3.859.384 7.912-3.987 9.341m3.229-9.87-5.959 13.961-8.577-3.662 1.335-3.128 5.508 2.351L151.594.453l-5.508-2.351 1.335-3.128 8.578 3.661-1.898 4.446Zm-8.692-3.394.3-.704L150.384.98l-4.434 10.387-4.676-1.996zm-6.221 14.575 9.41 4.017 1.799-4.215c5.714-1.371 6.921-6.888 4.992-11.695l1.819-4.262-9.41-4.016 3.342-7.83L182.621-.301l-4.766 11.164c-7.954-2.753-13.255 9.666-5.765 13.505l-4.766 11.164-31.481-13.44 3.342-7.83Z" class="d"/><path d="m167.329 85.618.372 50.483 31.408-.234-.41-54.684-31.401.234zm20.777 23.333c-.407 5.556-9.314 5.623-9.803.073zm-4.907-.66-4.902.036c.407-5.556 9.314-5.622 9.803-.073zm-3.833 19.164c2.309-2.676 5.463-2.146 7.804-.058zm.006.696 11.663-.087.054 7.167-2.613.019-.034-4.603-10.151.076.034 4.603-2.613.019-.053-7.167 3.715-.028Zm.277 7.165-.588.004-.029-3.907 8.677-.065.029 3.907-8.09.06Zm18.634-11.361.084 11.222-6.541.049-.059-7.863-3.56.027c-2.826-2.783-7.173-3.478-9.77.073l-3.522.026.058 7.863-6.541.049-.194-26.301 9.325-.069c.501 6.447 10.876 6.37 11.281-.084l9.325-.069.113 15.08Zm-19.195-34.07 7.802-.058c-2.309 2.122-5.454 2.698-7.803.058Zm7.942-.754-11.661.087-.053-7.165 2.613-.019.034 4.601 10.149-.076-.034-4.601 2.613-.019.053 7.165-3.714.028Zm-.277-7.163.588-.004.029 3.906-8.676.065-.029-3.906zm-12.174.09.058 7.86 3.521-.026c2.719 3.604 6.975 2.761 9.768-.073l3.56-.027-.059-7.86 6.54-.049.197 26.296-9.325.069c-.501-6.447-10.875-6.369-11.281.084l-9.325.069-.194-26.296 6.54-.049Z" class="g"/><path d="M381.067 51.51c-.625-.27-1.464.311-1.967.741a7.5 7.5 0 0 0-.552-1.417.43.43 0 0 1-.04-.233c.016-.204-.175-.376-.197-.395l-.038-.033-6.999 2.953-.003.051c-.002.029-.011.286.146.417a.43.43 0 0 1 .139.191c.159.473.371.938.63 1.384-.659.06-1.66.256-1.903.892-.172.451.066.968.73 1.582 1.901 1.758 4.685 1.305 5.124 1.22.273.149.477.245.578.291q-.171.474.019.722c.178.23.526.215.614.207 1.019.348 1.313 1.769 1.424 2.305q.025.126.043.191c.043.152-.24.394-.513.627a4.6 4.6 0 0 0-.514.485q-.18.211-.325.404a.194.194 0 0 0 .231.295l4.167-1.758a.19.19 0 0 0 .117-.205.19.19 0 0 0-.167-.166 8 8 0 0 0-.516-.049c-.225-.015-.469.008-.706.03-.358.033-.728.067-.807-.07q-.035-.058-.107-.164c-.307-.454-1.119-1.655-.657-2.629.067-.057.321-.296.28-.584q-.044-.309-.504-.517c.038-.105.112-.317.196-.617.367-.255 2.634-1.933 2.702-4.522.024-.903-.18-1.435-.624-1.627Zm-1.836 1.281c.463-.436 1.258-.998 1.643-.832.229.099.346.512.328 1.165-.047 1.797-1.316 3.146-2.026 3.763.216-1.047.375-2.538.055-4.096m-3.776 5.666c-.938.078-2.79.045-4.109-1.175-.479-.443-.694-.815-.605-1.048.054-.14.211-.253.42-.341.374-.158.914-.237 1.322-.255.892 1.317 2.072 2.244 2.972 2.82Z" class="d"/><path d="M57.361 110.159c-.475-.488-1.472-.273-2.1-.067a7.5 7.5 0 0 0 .032-1.52.44.44 0 0 1 .052-.231c.092-.182-.018-.414-.031-.44l-.023-.046-7.597.054-.022.046c-.013.026-.119.26-.024.441q.063.12.056.23a7.5 7.5 0 0 0 .053 1.52c-.632-.197-1.632-.398-2.099.097-.332.351-.309.92.07 1.741 1.085 2.351 3.831 2.997 4.269 3.086.196.242.347.408.423.49q-.34.373-.259.674c.076.28.404.399.488.426.809.711.537 2.136.435 2.674a4 4 0 0 0-.034.193c-.018.157-.372.272-.713.384-.226.074-.46.15-.66.252a8 8 0 0 0-.455.249.19.19 0 0 0-.088.219c.024.086.1.143.189.142l4.522-.032a.19.19 0 0 0 .187-.145.19.19 0 0 0-.091-.217 8 8 0 0 0-.458-.242 5 5 0 0 0-.664-.242c-.343-.106-.698-.217-.719-.373a3 3 0 0 0-.036-.193c-.11-.537-.402-1.957.397-2.68.084-.027.409-.151.482-.432q.077-.302-.268-.671a9 9 0 0 0 .417-.496c.436-.095 3.173-.779 4.225-3.146.367-.826.382-1.395.045-1.742Zm-2.187.482c.595-.226 1.544-.441 1.836-.141.174.179.123.606-.142 1.202-.73 1.642-2.418 2.405-3.31 2.703.6-.885 1.317-2.202 1.616-3.765Zm-5.654 3.793c-.897-.286-2.595-1.024-3.348-2.656-.273-.592-.33-1.019-.159-1.2.103-.109.292-.153.519-.155.406-.003.935.13 1.319.269.321 1.558 1.057 2.865 1.669 3.741Z" class="e"/><path d="M425.272 260.563c-26.645 3.72-83.35-15.065-116.182-58.758-4.996-6.651-9.861-14.506-13.82-23.551-10.936-24.982-14.968-59.044 4.198-101.878 24.037-53.729 63.94-69.748 93.181-73.728 30.136-4.103 54.767 3.298 57.769 4.255 5.961 1.197 89.489 19.653 93.595 108.338 4.084 88.234-66.978 138.097-118.741 145.322M378.955 34.53a6.7 6.7 0 0 1-1.559.985c-10.607 4.726-18.1 9.989-25.406 17.63 4.324 9.672 9.527 21.808 12.567 28.948 17.122 1.787 35.343 1.494 52.298 5.221 6.928-10.659 14.521-20.885 22.803-30.533a50 50 0 0 1 2.502-2.728c-4.515-9.962-10.622-19.397-17.781-27.418q-19.055 3.552-38.111 7.101c-2.352.439-4.876.801-7.313.794m-15.341 60.356c-6.178 12.45-8.752 21.194-13.028 36.549a38 38 0 0 1-.532 1.79c7.68 17.521 15.018 36.889 26.889 51.606 11.673-.991 27.631-4.801 36.566-7.118 6.606-13.944 16.445-27.193 25.732-39.696l-25.136-38.282c-16.232-3.724-34.034-3.224-50.491-4.85Zm62.087 87.074c5.025 4.648 11.9 10.074 14.006 12.181a70.2 70.2 0 0 1 10.065 12.742c11.621-3.635 23.706-6.088 35.65-7.725 1.028-5.426 3.447-10.776 5.831-15.819l10.181-21.526c1.095-2.318 2.228-4.669 3.691-6.76-.01-.023-.025-.04-.035-.063-3.121-7.274-5.781-16.397-10.167-23.867l-42.245 14.384c-1.207.411-2.495.814-3.764.961-8.381 11.222-17.161 23.066-23.215 35.491Zm97.938-111.944a6.9 6.9 0 0 1-2.616 1.37c-7.047 1.949-13.519 5.937-20.035 9.51.231 9.547.77 27.753 1.732 38.974 5.964 8.287 9.422 18.641 13.274 27.965 6.058-2.01 13.383-3.175 18.03-3.862 1.374-8.841 1.916-18.277 1.45-28.337-.708-15.275-3.958-28.31-8.812-39.4-.943-2.155-1.967-4.209-3.023-6.22m-75.634-54.911c-.054-.018-1.373-.442-3.703-1.035a35.5 35.5 0 0 0-6.282 5.66c-.433.5-.862 1.01-1.295 1.514 6.987 8.36 13.021 18.14 17.475 28.248 3.581.222 7.254 1.324 10.615 2.638 10.895 4.264 21.113 10.218 30.238 17.534 7.243-3.732 14.296-7.837 22.073-10.331-25.37-35.949-67.928-43.971-68.523-44.076zm-39.014-5.102c4.186.521 8.399.603 12.618.404a137 137 0 0 0-12.618-.404m-94.967 56.498c1.486-1.417 3.151-2.683 4.795-3.915 5.885-4.414 11.796-7.669 17.703-11.18.138-.204.246-.408.417-.61 4.15-4.942 8.13-10.15 13.078-14.34 5.068-4.294 11.006-7.484 17.035-10.313-1.001-2.303-1.963-4.629-3.797-6.282.941-.466 1.896-.901 2.841-1.356-21.627 9.008-39.05 25.067-52.071 47.996Zm-19.061 74.947a85 85 0 0 0 12.203-14.38 7 7 0 0 1 1.119-1.269l.025-41.413c.002-2.55.034-5.164.418-7.678-.493 1.043-.982 2.09-1.459 3.158-10.462 23.383-13.551 43.916-12.307 61.582Zm56.075 87.572c.465-.36.982-.691 1.616-.944a339 339 0 0 0 11.8-5.017c.211-.729.462-1.455.69-2.133 2.32-6.892.93-14.389.562-21.649-.12-2.321.02-4.845.623-7.121-12.229-15.32-19.827-35.155-27.776-53.259a171 171 0 0 1-22.385-2.393 98.4 98.4 0 0 1-15.092 16.76c-1.398 1.234-2.883 1.652-4.284 1.546 3.553 17.263 11.151 31.236 19.134 41.859 9.764 12.998 22.085 23.805 35.113 32.35Zm53.965 22.272c.001-.103-.015-.206-.009-.311q.233-3.773.467-7.545a525 525 0 0 1-30.857-10.984c-.272.175-.537.357-.854.503a344 344 0 0 1-9.164 4.046c14.118 7.406 28.315 12.204 40.417 14.291m88.657-33.544c-.981 0-1.963-.183-2.832-.613-2.098-1.035-3.558-2.969-4.493-5.15-10.78 1.513-21.609 3.685-32.067 6.909a7 7 0 0 1-.772.673 710 710 0 0 1-35.309 25.532l-.457 7.373-.003.016c2.269.003 4.409-.116 6.363-.388 18.542-2.587 46.353-13.453 69.57-34.35Z" class="d"/><path d="M125.541 39.068c-.959 3.38-6.192 9.168-13.144 10.789a15.4 15.4 0 0 1-3.543.411c-3.562-.009-7.845-1.322-11.955-5.87-5.155-5.704-4.967-11.317-3.902-15.021 1.098-3.818 3.28-6.372 3.552-6.68.457-.649 7.064-9.66 17.879-5.477 10.76 4.161 12.975 15.281 11.112 21.848Zm-29.455-6.374a1 1 0 0 1 .036.238c.006 1.517.24 2.69.768 3.965 1.384-.007 3.108.01 4.122.023 1.116-1.952 2.041-4.145 3.38-5.975a37.5 37.5 0 0 1-2.448-4.334 6 6 0 0 1-.194-.443 14.3 14.3 0 0 0-4.214.68l-1.159 4.929a5 5 0 0 1-.29.916Zm6.405 5.013c1.162 1.394 2.072 2.163 3.682 3.483q.094.076.186.158c2.499.005 5.2.149 7.584-.495.497-1.447.882-3.555 1.076-4.745-1.318-1.524-2.383-3.398-3.388-5.167l-5.9.987c-1.3 1.744-2.179 3.898-3.24 5.779m13.678-2.832c.82-.356 1.831-.891 2.194-1.032a9.2 9.2 0 0 1 2.053-.532c.178-1.58.522-3.154.955-4.668-.594-.409-1.106-.98-1.583-1.53l-2.036-2.351c-.219-.253-.441-.512-.613-.797h-.009c-1.034-.01-2.264-.173-3.388-.042l-.507 5.807a2.4 2.4 0 0 1-.083.5c.9 1.593 1.852 3.266 3.018 4.645Zm-8.218-17.603a.9.9 0 0 1 .026.385c-.138.945-.003 1.928.081 2.896 1.153.475 3.357 1.37 4.749 1.847 1.305-.276 2.724-.144 4.042-.113.079-.83.326-1.767.488-2.358a18.4 18.4 0 0 0-3.31-1.666c-1.863-.72-3.592-1.019-5.173-1.023q-.46.001-.903.034Zm-10.548 6.146c-.005.006-.125.141-.319.388.074.362.188.715.345 1.049l.113.235c1.367-.395 2.854-.6 4.297-.6.215-.416.54-.797.875-1.13a15.2 15.2 0 0 1 3.689-2.69c-.064-1.062-.183-2.121-.072-3.182-5.633 1.138-8.834 5.801-8.878 5.867l-.05.064Zm-2.665 4.394a9.6 9.6 0 0 0 .713-1.487c-.243.452-.486.95-.713 1.487m1.748 14.326a7 7 0 0 1-.215-.779c-.218-.936-.295-1.814-.403-2.705-.017-.027-.036-.051-.051-.082-.372-.756-.785-1.506-1.025-2.319-.246-.832-.315-1.71-.335-2.579-.328-.002-.657-.009-.951.123q-.007-.206-.012-.411c-.063 3.059.938 5.988 2.992 8.752m7.953 6.227a11 11 0 0 0-1.076-2.216 1 1 0 0 1-.093-.201l-4.948-2.185a7 7 0 0 1-.896-.455q.147.17.301.341c2.243 2.482 4.535 3.933 6.711 4.716Zm13.42-2.087a1 1 0 0 1-.028-.243q.027-.837.022-1.675c-.076-.064-.149-.132-.219-.195-.701-.64-1.671-.869-2.558-1.208a3 3 0 0 1-.818-.45c-2.475.654-5.246.517-7.829.513a22 22 0 0 1-1.465 2.549 13 13 0 0 1 1.208 2.687.74.74 0 0 1-.041.593c2.25.485 4.321.313 6.011-.081 2.068-.482 4.009-1.385 5.716-2.492Zm5.506-5.276q-.018-.008-.038-.015l-.877-.453a69 69 0 0 1-2.939 3.109q.012.062.015.129.01.654 0 1.308c1.629-1.297 2.95-2.741 3.838-4.077Zm.662-12.363a.8.8 0 0 1-.223.306c-.234.196-.542.269-.852.266-.387 1.368-.698 2.777-.864 4.197a1 1 0 0 1 .04.128 93 93 0 0 1 1.191 5.565l.857.443.002.001q.181-.408.289-.781c.668-2.352.835-6.249-.44-10.124Z" class="e"/><path d="M324.233 12.643c-1.328 4.681-8.574 12.694-18.2 14.94-1.465.342-3.12.573-4.906.569-4.932-.013-10.863-1.831-16.553-8.128-7.138-7.898-6.878-15.67-5.403-20.8 1.52-5.287 4.542-8.823 4.919-9.25.633-.899 9.781-13.376 24.757-7.585 14.9 5.762 17.967 21.16 15.386 30.253Zm-40.785-8.827c.028.102.049.209.049.33.008 2.1.332 3.724 1.064 5.491 1.916-.01 4.304.015 5.708.032 1.545-2.703 2.826-5.74 4.68-8.274a52 52 0 0 1-3.389-6.001 9 9 0 0 1-.269-.613c-1.978.02-3.985.343-5.835.942l-1.605 6.825a7.2 7.2 0 0 1-.402 1.268Zm8.869 6.942c1.61 1.931 2.869 2.995 5.098 4.823q.13.105.257.219c3.46.007 7.2.206 10.502-.685.688-2.004 1.221-4.923 1.49-6.57-1.826-2.111-3.3-4.705-4.692-7.155l-8.169 1.367c-1.801 2.414-3.017 5.397-4.486 8.002Zm18.939-3.921c1.136-.493 2.535-1.234 3.038-1.429a12.7 12.7 0 0 1 2.843-.736c.246-2.188.722-4.367 1.323-6.463-.823-.566-1.532-1.357-2.192-2.119l-2.82-3.255c-.304-.35-.61-.709-.849-1.104l-.013.001c-1.431-.014-3.135-.24-4.691-.059l-.702 8.04c-.02.23-.047.472-.115.693 1.246 2.206 2.565 4.523 4.18 6.431Zm-11.38-24.375c.047.162.064.34.036.533-.192 1.308-.004 2.67.112 4.009 1.597.658 4.649 1.897 6.576 2.557 1.807-.382 3.772-.199 5.596-.156.109-1.149.451-2.446.676-3.266a25.6 25.6 0 0 0-4.584-2.307c-2.58-.997-4.974-1.411-7.163-1.416-.425-.001-.84.018-1.25.046Zm-14.605 8.51c-.007.008-.173.195-.441.537.102.501.26.99.478 1.453l.156.325a21.8 21.8 0 0 1 5.95-.831c.298-.576.748-1.104 1.211-1.564a21 21 0 0 1 5.108-3.725c-.089-1.471-.254-2.938-.099-4.407-7.8 1.576-12.233 8.033-12.294 8.124zm-3.691 6.084c.392-.655.713-1.346.987-2.059a25 25 0 0 0-.987 2.059m2.421 19.838a10 10 0 0 1-.298-1.079c-.301-1.296-.408-2.512-.558-3.745-.024-.038-.05-.071-.07-.113-.515-1.047-1.087-2.086-1.419-3.21-.341-1.152-.435-2.367-.464-3.572-.454-.002-.909-.013-1.317.17q-.01-.285-.017-.569c-.087 4.236 1.299 8.291 4.144 12.119Zm11.013 8.622a15.4 15.4 0 0 0-1.489-3.069 1.2 1.2 0 0 1-.128-.278l-6.852-3.026c-.422-.186-.852-.382-1.24-.629q.204.237.416.472c3.106 3.437 6.279 5.447 9.293 6.53m18.583-2.89a1.2 1.2 0 0 1-.038-.336q.037-1.16.031-2.319c-.105-.088-.207-.183-.303-.27-.971-.887-2.313-1.204-3.542-1.673a4.3 4.3 0 0 1-1.133-.623c-3.427.906-7.264.716-10.84.711a31 31 0 0 1-2.029 3.53 17.8 17.8 0 0 1 1.672 3.72c.102.321.063.598-.057.822 3.116.672 5.983.434 8.323-.112 2.863-.668 5.551-1.918 7.915-3.45Zm7.623-7.306q-.026-.01-.052-.021l-1.215-.628a95 95 0 0 1-4.069 4.305c.009.058.02.115.021.178q.014.906 0 1.812c2.256-1.796 4.085-3.795 5.314-5.646Zm.917-17.119a1.2 1.2 0 0 1-.308.424c-.324.272-.751.372-1.18.368-.536 1.894-.967 3.845-1.196 5.811q.034.087.055.177a128 128 0 0 1 1.649 7.706l1.187.613.002.002c.166-.375.302-.738.4-1.081.925-3.257 1.156-8.652-.609-14.019Z" class="d"/><path d="M259.339 164.991c-1.328 4.681-8.574 12.694-18.2 14.94-1.465.342-3.12.573-4.906.569-4.932-.013-10.863-1.831-16.553-8.128-7.138-7.898-6.878-15.67-5.403-20.8 1.52-5.287 4.542-8.823 4.919-9.25.633-.899 9.781-13.376 24.757-7.585 14.9 5.762 17.967 21.16 15.386 30.253Zm-40.785-8.826c.028.102.049.209.049.33.008 2.1.332 3.724 1.064 5.491 1.916-.01 4.304.015 5.708.032 1.545-2.703 2.826-5.74 4.68-8.274a52 52 0 0 1-3.389-6.001 9 9 0 0 1-.269-.613c-1.978.02-3.985.343-5.835.942l-1.605 6.825a7.2 7.2 0 0 1-.402 1.268Zm8.869 6.942c1.61 1.931 2.869 2.995 5.098 4.823q.13.105.257.219c3.46.007 7.2.206 10.502-.685.688-2.004 1.221-4.923 1.49-6.57-1.826-2.11-3.3-4.705-4.692-7.155l-8.169 1.367c-1.801 2.414-3.017 5.397-4.486 8.002Zm18.939-3.922c1.136-.493 2.535-1.234 3.038-1.429a12.7 12.7 0 0 1 2.843-.736c.246-2.188.722-4.367 1.323-6.463-.823-.566-1.532-1.357-2.192-2.119l-2.82-3.255c-.304-.35-.61-.709-.849-1.104l-.013.001c-1.431-.014-3.135-.24-4.691-.059l-.702 8.04c-.02.23-.047.472-.115.693 1.246 2.206 2.565 4.523 4.18 6.431Zm-11.38-24.375c.047.162.064.34.036.533-.192 1.308-.004 2.67.112 4.009 1.597.658 4.649 1.897 6.576 2.557 1.807-.382 3.772-.199 5.596-.156.109-1.149.451-2.446.676-3.266a25.6 25.6 0 0 0-4.584-2.307c-2.58-.997-4.974-1.411-7.163-1.416-.426-.001-.84.018-1.25.046Zm-14.605 8.51c-.007.008-.173.195-.441.537.102.501.26.99.478 1.453l.156.325a21.8 21.8 0 0 1 5.95-.831c.298-.576.748-1.104 1.211-1.564a21 21 0 0 1 5.108-3.725c-.089-1.471-.254-2.938-.099-4.407-7.8 1.576-12.233 8.033-12.294 8.124zm-3.691 6.085c.392-.655.713-1.346.987-2.059a25 25 0 0 0-.987 2.059m2.421 19.838a10 10 0 0 1-.298-1.079c-.301-1.296-.408-2.512-.558-3.745-.024-.038-.05-.071-.07-.113-.515-1.047-1.087-2.086-1.419-3.21-.341-1.152-.435-2.367-.464-3.572-.454-.002-.909-.013-1.317.17q-.01-.284-.017-.569c-.087 4.236 1.299 8.291 4.144 12.119Zm11.012 8.622a15.4 15.4 0 0 0-1.489-3.069 1.2 1.2 0 0 1-.128-.278l-6.852-3.026c-.422-.186-.852-.382-1.24-.629q.204.237.416.472c3.106 3.437 6.279 5.447 9.293 6.53m18.584-2.891a1.2 1.2 0 0 1-.038-.336q.037-1.16.031-2.319c-.105-.088-.207-.183-.303-.27-.971-.887-2.313-1.204-3.542-1.673a4.3 4.3 0 0 1-1.133-.623c-3.427.906-7.264.716-10.84.711a31 31 0 0 1-2.029 3.53 17.8 17.8 0 0 1 1.672 3.72c.102.321.063.598-.057.822 3.116.672 5.983.434 8.323-.112 2.863-.668 5.551-1.918 7.915-3.45Zm7.623-7.305q-.026-.01-.052-.021l-1.215-.628a95 95 0 0 1-4.069 4.305c.009.058.02.115.021.178q.014.906 0 1.812c2.256-1.796 4.085-3.795 5.314-5.646Zm.917-17.119a1.2 1.2 0 0 1-.308.424c-.324.272-.751.372-1.18.368-.536 1.894-.967 3.845-1.196 5.811q.034.087.055.177a128 128 0 0 1 1.649 7.706l1.187.613.002.002c.166-.375.302-.738.4-1.081.925-3.257 1.156-8.652-.609-14.019ZM111.019 149.828c-.762 2.684-4.916 7.278-10.435 8.565-.84.196-1.789.329-2.813.326-2.828-.007-6.228-1.05-9.491-4.66-4.092-4.528-3.943-8.984-3.098-11.925.871-3.031 2.604-5.058 2.82-5.303.363-.515 5.608-7.669 14.194-4.348 8.542 3.303 10.301 12.132 8.821 17.345Zm-23.384-5.06a.7.7 0 0 1 .028.189c.005 1.204.191 2.135.61 3.148 1.099-.006 2.468.008 3.272.019.886-1.55 1.62-3.291 2.683-4.744a30 30 0 0 1-1.943-3.441 5 5 0 0 1-.154-.352 11.3 11.3 0 0 0-3.345.54l-.92 3.913a4 4 0 0 1-.231.727Zm5.085 3.98c.923 1.107 1.645 1.717 2.923 2.765q.074.06.148.125c1.984.004 4.128.118 6.021-.393.394-1.149.7-2.822.854-3.767-1.047-1.21-1.892-2.698-2.69-4.102l-4.684.784c-1.032 1.384-1.73 3.094-2.572 4.588m10.859-2.249c.651-.282 1.454-.708 1.742-.819a7.3 7.3 0 0 1 1.63-.422c.141-1.255.414-2.504.758-3.706-.472-.324-.878-.778-1.257-1.215l-1.617-1.866a5 5 0 0 1-.487-.633h-.007c-.821-.008-1.798-.137-2.69-.034l-.402 4.61a2 2 0 0 1-.066.397c.714 1.265 1.471 2.593 2.396 3.687Zm-6.525-13.974a.7.7 0 0 1 .021.305c-.11.75-.002 1.531.064 2.299.915.377 2.665 1.088 3.77 1.466 1.036-.219 2.163-.114 3.209-.09.063-.659.259-1.403.388-1.872-.781-.5-1.654-.946-2.628-1.323-1.479-.572-2.852-.809-4.107-.812q-.365.001-.717.027m-8.374 4.879s-.099.112-.253.308c.059.287.149.568.274.833l.089.186a12.4 12.4 0 0 1 3.411-.476c.171-.33.429-.633.694-.897a12 12 0 0 1 2.928-2.136c-.051-.843-.146-1.684-.057-2.526-4.472.903-7.013 4.606-7.048 4.658l-.039.05Zm-2.116 3.488c.225-.375.409-.772.566-1.18-.193.359-.386.754-.566 1.18m1.388 11.374a6 6 0 0 1-.171-.619c-.173-.743-.234-1.44-.32-2.147-.014-.022-.028-.04-.04-.065-.295-.6-.623-1.196-.814-1.841-.195-.66-.25-1.357-.266-2.048-.26-.001-.521-.007-.755.098q-.006-.164-.01-.326c-.05 2.429.745 4.754 2.376 6.948m6.314 4.943a8.8 8.8 0 0 0-.854-1.759.8.8 0 0 1-.074-.159l-3.928-1.735a5 5 0 0 1-.711-.361q.117.136.239.271c1.781 1.971 3.6 3.123 5.328 3.744Zm10.655-1.657a.7.7 0 0 1-.022-.193q.021-.664.018-1.329c-.06-.05-.119-.105-.174-.155-.557-.508-1.326-.69-2.031-.959a2.5 2.5 0 0 1-.65-.357c-1.965.519-4.165.411-6.215.408a18 18 0 0 1-1.163 2.024c.4.672.722 1.386.959 2.133a.59.59 0 0 1-.033.471c1.786.385 3.43.249 4.772-.064 1.642-.383 3.182-1.1 4.538-1.978Zm4.37-4.189-.03-.012-.696-.36q-1.128 1.27-2.333 2.468.009.049.012.102.008.519 0 1.039c1.293-1.03 2.342-2.176 3.047-3.237m.526-9.814a.65.65 0 0 1-.177.243c-.186.156-.431.213-.677.211a21.5 21.5 0 0 0-.686 3.332 1 1 0 0 1 .032.101q.54 2.194.945 4.418l.68.352h.001q.144-.323.229-.62c.53-1.867.663-4.961-.349-8.038Z" class="e"/><path d="M189.337 66.903c-.762 2.684-4.916 7.278-10.435 8.565-.84.196-1.789.329-2.813.326-2.828-.007-6.228-1.05-9.491-4.66-4.092-4.528-3.943-8.984-3.098-11.925.871-3.031 2.604-5.058 2.82-5.303.363-.515 5.608-7.669 14.194-4.348 8.542 3.303 10.301 12.132 8.821 17.345Zm-23.384-5.06a.7.7 0 0 1 .028.189c.005 1.204.191 2.135.61 3.148 1.099-.006 2.468.008 3.272.019.886-1.55 1.62-3.291 2.683-4.744a30 30 0 0 1-1.943-3.441 5 5 0 0 1-.154-.352 11.3 11.3 0 0 0-3.345.54l-.92 3.913a4 4 0 0 1-.231.727Zm5.085 3.98c.923 1.107 1.645 1.717 2.923 2.765q.074.06.148.125c1.984.004 4.128.118 6.021-.393.394-1.149.7-2.822.854-3.767-1.047-1.21-1.892-2.698-2.69-4.102l-4.684.784c-1.032 1.384-1.73 3.094-2.572 4.588m10.859-2.248c.651-.282 1.454-.708 1.742-.819a7.3 7.3 0 0 1 1.63-.422c.141-1.255.414-2.504.758-3.706-.472-.325-.878-.778-1.257-1.215l-1.617-1.866a5 5 0 0 1-.487-.633h-.007c-.821-.008-1.798-.137-2.69-.034l-.402 4.61a2 2 0 0 1-.066.397c.714 1.265 1.471 2.593 2.396 3.687ZM175.372 49.6a.7.7 0 0 1 .021.305c-.11.75-.002 1.531.064 2.299.915.377 2.665 1.088 3.77 1.466 1.036-.219 2.163-.114 3.209-.09.063-.659.259-1.403.388-1.872-.781-.5-1.654-.946-2.628-1.323-1.479-.572-2.852-.809-4.107-.812q-.365.002-.717.027m-8.374 4.879s-.099.112-.253.308c.059.287.149.568.274.833l.089.186a12.4 12.4 0 0 1 3.411-.476c.171-.33.429-.633.694-.897a12 12 0 0 1 2.928-2.136c-.051-.843-.146-1.684-.057-2.526-4.472.903-7.013 4.606-7.048 4.658zm-2.116 3.488c.225-.375.409-.772.566-1.18-.193.359-.386.754-.566 1.18m1.388 11.374a6 6 0 0 1-.171-.619c-.173-.743-.234-1.44-.32-2.147-.014-.022-.028-.04-.04-.065-.295-.6-.623-1.196-.814-1.841-.195-.66-.25-1.357-.266-2.048-.26-.001-.521-.007-.755.098q-.006-.164-.01-.326c-.05 2.429.745 4.754 2.376 6.948m6.314 4.943a8.8 8.8 0 0 0-.854-1.759.8.8 0 0 1-.074-.159l-3.928-1.735a5 5 0 0 1-.711-.361q.117.135.239.271c1.781 1.971 3.6 3.123 5.328 3.744Zm10.655-1.657a.7.7 0 0 1-.022-.193q.021-.665.018-1.329c-.06-.05-.119-.105-.174-.155-.557-.508-1.326-.69-2.031-.959a2.5 2.5 0 0 1-.65-.357c-1.965.519-4.165.411-6.215.408a18 18 0 0 1-1.163 2.024c.4.672.722 1.386.959 2.133a.59.59 0 0 1-.033.471c1.786.385 3.43.249 4.772-.064 1.642-.383 3.182-1.1 4.538-1.978Zm4.37-4.188-.03-.012-.696-.36q-1.128 1.27-2.333 2.468.009.049.012.102.008.519 0 1.039c1.293-1.03 2.342-2.176 3.047-3.237m.526-9.815a.65.65 0 0 1-.177.243c-.186.156-.43.213-.677.211a21.5 21.5 0 0 0-.686 3.332 1 1 0 0 1 .032.101q.54 2.194.945 4.418l.68.352h.001q.144-.323.229-.62c.53-1.867.663-4.961-.349-8.038ZM36.324 51.733c-.762 2.684-4.916 7.278-10.435 8.565-.84.196-1.789.329-2.813.326-2.828-.007-6.228-1.05-9.491-4.66-4.092-4.528-3.943-8.984-3.098-11.925.871-3.031 2.604-5.058 2.82-5.303.363-.515 5.608-7.669 14.194-4.348 8.542 3.303 10.301 12.132 8.821 17.345Zm-23.383-5.06a.7.7 0 0 1 .028.189c.005 1.204.191 2.135.61 3.148 1.099-.006 2.468.008 3.272.019.886-1.55 1.62-3.291 2.683-4.744a30 30 0 0 1-1.943-3.441 5 5 0 0 1-.154-.351 11.3 11.3 0 0 0-3.345.54l-.92 3.913a4 4 0 0 1-.231.727m5.085 3.98c.923 1.107 1.645 1.717 2.923 2.765q.074.06.148.125c1.984.004 4.128.118 6.021-.393.394-1.149.7-2.822.854-3.767-1.047-1.21-1.892-2.698-2.69-4.102l-4.684.784c-1.032 1.384-1.73 3.094-2.572 4.588m10.858-2.248c.651-.282 1.454-.708 1.742-.819a7.3 7.3 0 0 1 1.63-.422c.141-1.255.414-2.504.758-3.706-.472-.325-.878-.778-1.257-1.215l-1.617-1.866a5 5 0 0 1-.487-.633h-.007c-.821-.008-1.798-.137-2.69-.034l-.402 4.61a2 2 0 0 1-.066.397c.714 1.265 1.471 2.593 2.396 3.687ZM22.36 34.43a.7.7 0 0 1 .021.305c-.11.75-.002 1.531.064 2.299.915.377 2.665 1.088 3.77 1.466 1.036-.219 2.163-.114 3.209-.09.063-.659.259-1.403.388-1.872-.781-.5-1.654-.946-2.628-1.323-1.479-.572-2.852-.809-4.107-.812q-.365.002-.717.027m-8.374 4.879s-.099.112-.253.308c.059.287.149.568.274.833l.089.186a12.4 12.4 0 0 1 3.411-.476c.171-.33.429-.633.694-.897a12 12 0 0 1 2.928-2.136c-.051-.843-.146-1.684-.057-2.526-4.472.903-7.013 4.606-7.048 4.658zm-2.116 3.488c.225-.375.409-.772.566-1.18-.193.359-.386.754-.566 1.18m1.388 11.374a6 6 0 0 1-.171-.619c-.173-.743-.234-1.44-.32-2.147-.014-.022-.028-.04-.04-.065-.295-.6-.623-1.196-.814-1.841-.195-.66-.25-1.357-.266-2.048-.26-.001-.521-.007-.755.098q-.006-.164-.01-.326c-.05 2.429.745 4.754 2.376 6.948m6.314 4.943a8.8 8.8 0 0 0-.854-1.759.8.8 0 0 1-.074-.159l-3.928-1.735a5 5 0 0 1-.711-.361q.116.136.239.271c1.781 1.971 3.6 3.123 5.328 3.744Zm10.654-1.657a.7.7 0 0 1-.022-.193q.021-.664.018-1.329c-.06-.05-.119-.105-.174-.155-.557-.508-1.326-.69-2.031-.959a2.5 2.5 0 0 1-.65-.357c-1.965.519-4.165.411-6.215.408a18 18 0 0 1-1.163 2.024c.4.672.722 1.386.959 2.133a.59.59 0 0 1-.033.471c1.786.385 3.43.249 4.772-.064 1.642-.383 3.182-1.1 4.538-1.978Zm4.371-4.188-.03-.012-.696-.36q-1.128 1.27-2.333 2.468.009.049.012.102.008.519 0 1.039c1.293-1.03 2.342-2.176 3.047-3.237m.526-9.815a.65.65 0 0 1-.177.243c-.186.156-.43.213-.677.211a21.5 21.5 0 0 0-.686 3.332 1 1 0 0 1 .032.101q.54 2.194.945 4.418l.68.352h.001q.144-.324.229-.62c.53-1.867.663-4.961-.349-8.038Z" class="d"/></g></g></svg>