<?xml version="1.0" encoding="UTF-8"?>
<svg id="a" data-name="Layer 1" xmlns="http://www.w3.org/2000/svg" viewBox="0 0 24 24">
  <defs>
    <style>
      .b {
        fill: #1748c3;
      }
    </style>
  </defs>
  <path class="b" d="M0,0v24h24.01V0H0ZM18.89,11.73c-.84.01-1.68.03-2.52.04v9.41h-3.92c-.03-3.15-.05-6.3-.08-9.45-.63-.01-1.25-.03-1.88-.04l-.08-3.24c.68-.03,1.36-.05,2.03-.08.03-1.03.05-2.06.08-3.09.02-.26.15-1.3,1.05-2.15.92-.86,2.01-.9,2.26-.9,1.13-.03,2.26-.05,3.39-.08v3.31c-.62.03-1.08.06-1.32.08-.75.04-1.12.07-1.32.26-.06.06-.2.22-.26,1.02-.03.37-.04.91.04,1.55.99,0,1.98.02,2.97.03-.15,1.1-.3,2.21-.45,3.31Z"/>
</svg>