<?xml version="1.0" encoding="UTF-8"?>
<svg id="a" data-name="Layer 1" xmlns="http://www.w3.org/2000/svg" viewBox="0 0 24 24">
  <defs>
    <style>
      .b {
        fill: #62a953;
      }

      .c {
        fill: #4285f4;
      }

      .d {
        fill: #f5bb0e;
      }

      .e {
        fill: #e44f35;
      }

      .f {
        fill: #c74320;
      }
    </style>
  </defs>
  <path class="c" d="M7.02,7.38v11.54h-2.85c-.78,0-1.42-.64-1.42-1.42V6.8c0-.95.77-1.73,1.73-1.73h.23c.41,0,.8.11,1.13.3.19.11.36.24.51.39.41.42.67.99.67,1.62Z"/>
  <path class="b" d="M21.26,6.8v10.7c0,.78-.64,1.42-1.42,1.42h-2.85V7.38c0-.7.31-1.33.8-1.75h0c.07-.06.14-.11.21-.16h0s0,0,0,0c.37-.25.81-.39,1.29-.39h.23c.95,0,1.73.77,1.73,1.73Z"/>
  <path class="e" d="M21.26,6.8v.3c-.2.94-.72,1.81-1.54,2.43l-2.73,2.09-4.94,3.77-.04.06-4.98-3.81-2.73-2.08c-.82-.63-1.34-1.5-1.54-2.44v-.31c0-.95.77-1.73,1.73-1.73h.23c.41,0,.8.11,1.13.3l.51.39,5.64,4.31,5.8-4.43h0s.21-.16.21-.16h0s0,0,0,0c.37-.25.81-.39,1.29-.39h.23c.95,0,1.73.77,1.73,1.73Z"/>
  <path class="f" d="M6.34,5.76c.23.18.46.35.69.53,0,1.79,0,3.58,0,5.36h-.01c-1.42-1.05-2.85-2.08-4.27-3.12v-1.73c0-.95.77-1.73,1.73-1.73h.23s.05,0,.07,0c.01,0,.03,0,.04,0,.01,0,.03,0,.04,0h0s.03,0,.04,0c.02,0,.03,0,.05,0,.01,0,.03,0,.04,0,.01,0,.02,0,.03,0,0,0,.01,0,.02,0,.03,0,.06.01.1.02.01,0,.03,0,.04,0,0,0,0,0,0,0,.01,0,.03,0,.04,0,.02,0,.03,0,.05.01.02,0,.03,0,.05.01,0,0,0,0,0,0,.01,0,.03,0,.04.01,0,0,.01,0,.02,0,.02,0,.03,0,.05.01.02,0,.03.01.05.02.01,0,.02,0,.04.01.03.01.05.02.08.03.03.01.05.02.07.03.01,0,.02.01.04.02.01,0,.02.01.04.02.01,0,.02.01.03.02.01,0,.02.01.04.02.01,0,.02.01.03.02.02.01.04.02.06.04.01,0,.03.02.04.03.17.11.3.23.38.31Z"/>
  <path class="d" d="M21.24,6.83v1.69c-1.41,1.04-2.83,2.07-4.24,3.1,0-1.8.01-3.59.02-5.39l.76-.58h0s.21-.16.21-.16h0s0,0,0,0c.37-.25.81-.39,1.29-.39h.23c.95,0,1.73.77,1.73,1.73Z"/>
</svg>