<?xml version="1.0" encoding="UTF-8"?>
<svg id="a" data-name="Layer 1" xmlns="http://www.w3.org/2000/svg" xmlns:xlink="http://www.w3.org/1999/xlink" viewBox="0 0 40 40">
  <defs>
    <style>
      .c {
        fill: #0076c0;
      }

      .d {
        fill: #fd0;
      }

      .e {
        fill: #034f78;
      }
    </style>
    <clipPath id="b">
      <path class="e" d="M25.39,25.38h0s0,0,0,0M25.24,25.1v.02c0,.08.01.13.02.16.01.03.02.05.03.05.02.02.04.03.05.03.01,0,.02,0,.04,0h.01s.05,0,.06,0c.02-.05.03-.13.03-.23h0s.01-.5.01-.5c-.06.04-.11.07-.14.1h0s-.05.05-.07.11c-.02.06-.04.14-.04.25h0M25.44,25.4h0s0,0,0,0M25.5,25.42h0M25.5,25.42h0M25.52,25.43h0M25.52,25.43h0M25.17,25.7c-.12,0-.23-.05-.32-.14-.1-.1-.15-.26-.15-.48,0-.28.08-.48.23-.61.15-.12.38-.25.69-.37l-.02,1.03c0,.15-.03.28-.07.38-.05.1-.15.16-.32.17-.01,0-.03,0-.04,0"/>
    </clipPath>
  </defs>
  <g>
    <path class="d" d="M2.76,9.31h34.49c1.5,0,2.71,1.21,2.71,2.71v15.96c0,1.5-1.21,2.71-2.71,2.71H2.75c-1.49,0-2.71-1.21-2.71-2.71v-15.96c0-1.49,1.21-2.71,2.71-2.71Z"/>
    <path class="c" d="M2.75,9.69h34.49c1.25,0,2.26,1.01,2.26,2.26v15.95c0,1.25-1.01,2.26-2.26,2.26H2.75c-1.25,0-2.26-1.01-2.26-2.26v-15.96c0-1.25,1.01-2.26,2.26-2.26Z"/>
  </g>
  <g>
    <path class="d" d="M7.82,17.32l-.03,1.62,1.69-.12c.08,0,.13,0,.16.03.03.02.05.08.05.17v.58c-.01.09-.03.14-.06.17-.03.03-.09.05-.18.06l-2.88.2c-.08,0-.14,0-.18-.02-.03-.02-.05-.08-.05-.17l.11-5.58c0-.07.01-.13.04-.18.03-.05.09-.08.2-.09l2.86-.2c.08,0,.14,0,.18.02.03.02.05.07.05.15v.58c-.01.11-.04.17-.09.2-.05.02-.1.04-.15.04l-1.68.12-.03,1.45,1.39-.1c.07,0,.12,0,.16.02.03.02.05.07.05.15v.58c-.01.13-.09.2-.23.21l-1.38.1"/>
    <path class="d" d="M10.38,13.42c0-.12.07-.18.2-.19l.92-.06c.13,0,.19.05.18.17l-.12,6.15c0,.14-.07.21-.19.22l-.91.06c-.06,0-.12,0-.15,0-.04,0-.05-.06-.05-.17l.13-6.17"/>
    <path class="d" d="M17.7,16.84l-.64.05c-.08,0-.14,0-.16-.02-.03-.02-.04-.07-.04-.15v-.51c.01-.08.03-.13.05-.16.03-.03.08-.04.15-.05l1.77-.13c.08,0,.14,0,.16.04.02.04.03.09.03.18l-.04,2.02c0,.24-.07.43-.2.58-.13.15-.34.3-.62.46-.29.16-.67.26-1.13.29-.43.03-.86-.03-1.28-.17-.42-.14-.75-.47-.99-.99-.24-.52-.35-1.11-.34-1.78.02-.93.27-1.72.75-2.35.48-.63,1.14-.98,1.96-1.04.63-.04,1.11.07,1.44.34.33.27.49.55.49.85,0,.18-.07.33-.19.45-.12.12-.27.19-.43.2-.16.01-.29-.02-.37-.09-.08-.07-.17-.19-.25-.34-.12-.18-.22-.32-.32-.4-.1-.08-.24-.12-.42-.11-.39.03-.68.26-.85.7-.17.44-.26.94-.28,1.5-.01.7.08,1.25.27,1.65.2.4.5.59.9.56.18-.01.31-.07.4-.16.09-.09.14-.27.14-.52l.02-.9"/>
    <path class="d" d="M22.87,17.98c0,.13-.01.24-.03.32-.02.08-.06.18-.14.28-.08.1-.24.21-.49.33-.25.11-.58.19-.99.22-.57.04-1-.03-1.3-.22-.3-.19-.44-.49-.43-.91.01-.5.2-.86.56-1.1.37-.24.91-.46,1.63-.68v-.44c.01-.19,0-.34-.05-.45-.04-.11-.15-.16-.32-.15-.14,0-.24.05-.3.13-.07.08-.12.19-.18.34-.06.15-.12.26-.18.34-.07.08-.19.13-.36.14-.18.01-.31-.03-.41-.13-.1-.1-.14-.23-.14-.37,0-.27.17-.52.48-.76.31-.24.76-.38,1.33-.42.19-.01.37-.01.52,0,.15.02.31.07.47.16.16.09.26.23.31.4.05.18.07.38.07.6l-.05,2.37M21.67,16.82c-.31.12-.54.25-.69.37-.15.12-.22.33-.23.6,0,.22.04.38.15.48.1.1.22.15.36.14.17-.01.28-.07.32-.17.05-.1.07-.23.07-.39l.02-1.03"/>
    <path class="d" d="M23.72,12.48c0-.12.07-.18.2-.19l.92-.07c.13,0,.19.05.19.17l-.12,6.15c0,.14-.07.21-.19.22l-.91.06c-.07,0-.12,0-.15,0-.04,0-.05-.06-.05-.17l.12-6.17"/>
    <path class="d" d="M25.78,12.34c0-.12.07-.18.2-.19l.92-.07c.13,0,.19.05.18.17l-.12,6.15c0,.14-.07.21-.19.22l-.91.06c-.07,0-.12,0-.15,0-.04,0-.05-.06-.05-.16l.12-6.17"/>
    <path class="d" d="M29.46,18.55c-.57.04-1.03-.13-1.39-.52-.36-.39-.53-.94-.51-1.67.02-.75.21-1.35.59-1.78.38-.43.85-.67,1.42-.71.62-.04,1.09.15,1.43.57.33.43.49.94.48,1.55-.01.72-.21,1.32-.57,1.79-.37.47-.85.72-1.45.76M29.53,14.67c-.2.01-.35.17-.45.46-.1.29-.15.63-.16,1,0,.4.03.76.13,1.07.1.31.25.45.46.44.21-.01.36-.18.46-.5.1-.32.15-.68.16-1.09,0-.42-.04-.75-.14-1.01-.1-.26-.25-.38-.45-.37"/>
    <path class="d" d="M2.11,24.39c0-.21.02-.34.04-.41.02-.07.11-.16.25-.27.14-.11.37-.21.68-.3.31-.09.58-.14.79-.15.35-.02.62,0,.8.08.18.08.35.17.49.29.11-.11.22-.2.34-.26.11-.07.26-.13.43-.18.17-.06.41-.1.71-.12.46-.03.81.06,1.05.28.24.22.35.57.34,1.07l-.06,2.9c0,.14-.06.21-.17.22l-.95.07c-.13.01-.19-.05-.19-.18l.06-2.84c0-.22-.02-.39-.07-.52-.05-.12-.18-.18-.4-.16-.1,0-.18.03-.23.05-.06.03-.12.08-.18.15-.06.07-.1.14-.11.23-.01.09-.02.19-.02.32l-.06,2.84c0,.13-.07.2-.19.21l-.9.06c-.08,0-.14,0-.17-.03-.03-.02-.05-.08-.05-.16l.06-2.85c0-.14,0-.27-.03-.37-.02-.11-.07-.19-.16-.24-.09-.05-.19-.08-.29-.07-.15.01-.27.06-.35.15-.08.09-.13.17-.15.24-.02.08-.03.18-.03.33l-.06,2.87c0,.14-.07.22-.21.23l-.9.06c-.13,0-.2-.05-.19-.18l.07-3.33"/>
    <path class="d" d="M11.93,26.31c0,.13-.01.24-.03.32-.01.08-.06.18-.14.28-.08.11-.24.22-.49.33-.25.11-.58.19-.99.21-.57.04-1-.03-1.3-.22-.3-.19-.44-.49-.43-.91.01-.5.2-.86.56-1.1.37-.24.91-.46,1.63-.68v-.45c.01-.19,0-.34-.05-.45-.04-.11-.15-.16-.32-.15-.14,0-.24.05-.3.13-.06.08-.12.19-.18.34-.05.15-.12.26-.18.34-.07.08-.19.13-.36.14-.18.01-.31-.03-.41-.13-.09-.1-.14-.23-.14-.37,0-.27.17-.52.48-.76.31-.24.76-.38,1.33-.42.19-.01.37-.01.52,0,.15.02.31.07.47.16.16.09.26.23.31.4.05.18.07.38.07.6l-.05,2.37M10.74,25.15c-.31.12-.54.25-.69.37-.15.12-.22.33-.23.6,0,.22.04.38.15.48.1.1.22.15.36.14.17-.01.28-.07.32-.17.05-.1.07-.23.07-.39l.02-1.03M10.68,22.36c-.08.07-.14.12-.17.13-.03.01-.07.02-.12.02-.08,0-.14-.01-.18-.06-.04-.04-.06-.1-.06-.17,0-.07.02-.13.07-.2.04-.06.07-.1.09-.12l.6-.75c.07-.07.12-.12.15-.15.04-.03.09-.05.16-.05.09,0,.17.02.22.09.06.07.08.15.08.25,0,.09-.01.15-.04.2-.03.04-.07.1-.13.17l-.68.64"/>
    <path class="d" d="M14.79,24.42c.25.11.47.26.65.44.18.18.26.45.26.82,0,.37-.13.71-.38,1-.24.3-.65.47-1.2.51-.53.04-.93-.05-1.2-.26-.27-.21-.4-.45-.4-.71,0-.16.06-.3.15-.42.1-.12.23-.18.38-.19.08,0,.17.01.25.05.08.04.16.11.25.22l.18.26c.07.1.13.17.2.2.06.04.13.05.21.05.1,0,.18-.05.26-.13.08-.08.12-.19.12-.32,0-.13-.03-.23-.09-.31-.06-.08-.24-.19-.54-.32l-.35-.15c-.24-.1-.45-.24-.63-.41-.17-.17-.26-.44-.25-.8,0-.29.11-.59.33-.9.21-.31.62-.48,1.23-.53.48-.03.83.04,1.06.22.23.18.34.39.34.63,0,.14-.05.26-.13.37-.08.11-.2.17-.36.18-.14,0-.24-.02-.31-.08-.07-.06-.14-.16-.21-.28-.07-.12-.13-.22-.2-.28-.06-.06-.15-.09-.26-.08-.11,0-.2.06-.27.14-.06.09-.1.19-.1.29,0,.17.04.29.14.37.1.08.24.15.43.23l.44.18"/>
    <path class="d" d="M21.65,24.12l-.64.04c-.08,0-.14,0-.16-.02-.03-.02-.04-.07-.04-.15v-.51c.01-.08.03-.13.05-.16.02-.03.08-.04.15-.05l1.77-.13c.08,0,.14,0,.16.04.02.04.03.1.03.18l-.04,2.02c0,.24-.07.43-.2.58-.13.15-.34.3-.62.46-.29.16-.66.25-1.13.29-.43.03-.86-.03-1.28-.17-.42-.14-.75-.47-.99-.99-.24-.52-.36-1.11-.34-1.78.02-.93.27-1.72.75-2.35.48-.63,1.14-.98,1.96-1.04.63-.04,1.11.07,1.44.34.33.27.49.55.49.85,0,.18-.07.33-.19.45-.12.12-.27.19-.43.2-.16.01-.29-.02-.37-.09-.08-.07-.17-.19-.25-.34-.12-.19-.22-.32-.32-.4-.1-.08-.24-.12-.42-.11-.39.03-.68.26-.85.7-.17.44-.26.94-.28,1.5-.01.7.08,1.25.28,1.65.2.4.5.59.9.56.18-.01.32-.06.4-.16.09-.09.14-.27.14-.52l.02-.9"/>
    <path class="d" d="M26.82,25.26c0,.13-.01.24-.03.32-.02.08-.06.18-.14.28-.08.11-.24.22-.5.33-.25.12-.58.19-.99.22-.57.04-1-.03-1.3-.22-.3-.19-.44-.49-.43-.9.01-.5.2-.86.56-1.1.36-.24.91-.46,1.63-.68v-.44c.01-.19,0-.34-.05-.45-.04-.11-.15-.16-.32-.15-.14,0-.24.05-.3.13-.07.08-.13.19-.18.34-.06.15-.12.26-.18.34-.07.08-.19.13-.36.14-.18.01-.31-.03-.41-.13-.1-.1-.14-.23-.14-.37,0-.27.17-.52.48-.76.31-.24.76-.38,1.33-.42.19-.01.37-.01.52,0,.16.02.31.07.47.16.16.09.26.22.31.4.05.18.07.37.07.6l-.05,2.37M25.62,24.1c-.31.12-.54.25-.69.37-.15.12-.22.33-.23.61,0,.22.04.37.15.48.1.1.22.15.36.14.17-.01.28-.07.32-.17.05-.1.07-.23.07-.38l.02-1.03"/>
    <path class="d" d="M27.67,19.76c0-.12.07-.18.2-.19l.92-.06c.13,0,.19.05.19.17l-.12,6.15c0,.14-.07.21-.19.22l-.91.06c-.07,0-.12,0-.15,0-.04,0-.05-.06-.05-.17l.12-6.17"/>
    <path class="d" d="M29.73,19.62c0-.12.07-.18.2-.19l.92-.06c.13,0,.19.05.19.17l-.12,6.15c0,.14-.07.21-.19.22l-.91.06c-.07,0-.12,0-.15,0-.04,0-.05-.06-.05-.17l.12-6.17"/>
    <path class="d" d="M33.41,25.83c-.57.04-1.03-.13-1.39-.52-.36-.39-.53-.94-.51-1.67.01-.75.21-1.34.59-1.78.38-.43.85-.67,1.42-.71.62-.04,1.1.15,1.43.57.33.43.49.94.48,1.55-.01.72-.2,1.32-.57,1.79-.37.47-.85.72-1.45.76M33.48,21.96c-.2.01-.35.17-.45.46-.1.29-.15.63-.16,1,0,.41.04.76.13,1.07.1.31.25.45.46.44.21-.01.36-.18.46-.5.1-.32.15-.68.16-1.09,0-.42-.04-.75-.14-1.01-.1-.26-.25-.38-.45-.37"/>
    <path class="e" d="M10.09,20.01h0s0,0,0,0M9.8,14.61h0M9.8,14.61h0M9.87,14.66h0M9.87,14.66h0M9.46,17.05h0M9.46,17.05h0M9.69,19.53h0M9.69,19.53h0M9.74,19.69h0M9.74,19.69h0M9.62,13.79s-.03,0-.05,0l-2.86.2c-.11,0-.18.04-.2.09-.03.05-.04.11-.04.18l-.11,5.58c0,.09.02.15.05.17.03.02.07.02.12.02.02,0,.03,0,.05,0l2.88-.2c.09,0,.15-.02.18-.06.03-.03.04-.09.04-.17v-.58c.01-.09,0-.15-.03-.17-.03-.02-.07-.03-.12-.03-.01,0-.03,0-.04,0l-1.69.12.03-1.62,1.38-.1c.14-.01.21-.08.22-.21v-.58c.01-.08,0-.14-.03-.15-.03-.01-.06-.02-.11-.02-.01,0-.03,0-.04,0l-1.39.1.03-1.45,1.68-.12s.1-.02.15-.04c.05-.02.08-.09.08-.2v-.58c.01-.08,0-.13-.04-.15-.03-.02-.07-.02-.13-.02M6.74,20.38s-.09,0-.13-.01c-.05,0-.1-.02-.15-.06h0s0,0,0,0c-.05-.03-.1-.07-.13-.11-.03-.04-.05-.08-.06-.12-.02-.08-.03-.14-.03-.2v-.02h0l.11-5.58c0-.11.02-.22.07-.32h0c.03-.05.06-.1.1-.14.04-.04.08-.06.13-.08.09-.04.16-.05.24-.06h0l2.86-.2h0s.05,0,.08,0c.04,0,.09,0,.13.01.05,0,.1.02.15.06h0s.09.07.12.11c0,0,.01.02.02.03l-.02,1.22s-.03.04-.04.05c-.04.04-.09.08-.14.11h0c-.08.04-.17.06-.27.07l-1.38.1-.02.79,1.02-.07h0s.04,0,.07,0c.08,0,.16,0,.27.06h0c.06.03.1.07.13.12.03.04.05.08.06.12.02.07.03.13.03.19v.02h0v.58c-.01.09-.04.2-.1.29-.06.1-.16.17-.25.2-.06.02-.12.03-.19.04h0l-1.08.08-.02.96,1.33-.09h0s.04,0,.06,0c.05,0,.09,0,.15.01.05.01.11.03.17.08h0s.08.07.11.11l-.02.88h0v.02c0,.07,0,.13.03.21,0,.01,0,.02.01.03-.02.05-.05.1-.09.15h0c-.07.08-.15.11-.21.13-.07.02-.13.03-.19.03h0l-2.87.2h0s-.05,0-.07,0"/>
    <path class="e" d="M10.26,13.43h0M11.57,19.45h0M11.57,19.45h0M11.6,19.54h0M11.6,19.54h0M11.52,13.16s-.02,0-.02,0l-.92.06c-.13,0-.2.07-.2.19l-.13,6.17c0,.1.02.16.05.17.02,0,.05,0,.09,0,.02,0,.04,0,.06,0l.91-.06c.13,0,.19-.08.19-.22l.12-6.15c0-.11-.05-.17-.16-.17M10.61,20.1c-.05,0-.11,0-.17-.02h0s0,0,0,0c-.08-.02-.15-.07-.19-.12-.03-.04-.05-.07-.07-.11,0-.01,0-.02-.01-.03-.03-.08-.03-.14-.03-.21v-.02h0l.02-.88.08-3.82.02-1.22v-.25c0-.09.03-.19.09-.28.06-.09.16-.16.25-.19.06-.02.12-.03.18-.04l.92-.07h.05c.08,0,.18.01.27.07.09.05.17.15.2.25.02.06.03.12.03.17h0s-.13,6.16-.13,6.16c0,.09-.02.18-.07.28-.05.09-.14.18-.24.22-.06.03-.13.04-.19.04l-.91.06s-.06,0-.09,0"/>
    <path class="e" d="M16.74,16.72h0s0,0,0,0h0M16.91,17.13h0s0,0,0,0M16.91,17.13h0,0M17.52,18.05h0M17.52,18.05h0M17.54,18.07h0M17.54,18.07h0M17.39,13.11c-.08,0-.17,0-.26,0-.82.06-1.48.4-1.96,1.04-.48.63-.73,1.42-.75,2.35-.01.67.1,1.26.34,1.78.24.52.57.85.99.99.35.12.7.18,1.05.18.07,0,.15,0,.23,0,.46-.03.84-.13,1.13-.29.29-.16.5-.31.62-.46.13-.15.2-.34.2-.58l.04-2.02c0-.09-.01-.15-.03-.18-.02-.03-.06-.05-.13-.05,0,0-.02,0-.03,0l-1.77.13c-.08,0-.13.02-.15.05-.02.03-.04.08-.04.16v.51c-.01.08,0,.13.03.15.02.02.06.02.11.02.01,0,.03,0,.05,0l.64-.05-.02.9c0,.26-.05.43-.14.52-.09.09-.23.14-.4.16-.03,0-.05,0-.08,0-.37,0-.64-.19-.82-.56-.2-.4-.29-.95-.27-1.65.01-.56.1-1.07.28-1.5.17-.44.45-.67.85-.7.03,0,.05,0,.07,0,.15,0,.27.04.35.11.1.08.2.22.32.4.08.15.17.27.25.34.07.06.17.1.31.1.02,0,.04,0,.06,0,.16-.01.31-.08.43-.2.12-.12.19-.27.19-.45,0-.3-.16-.58-.49-.85-.28-.23-.68-.35-1.18-.35M17.02,19.79c-.39,0-.78-.07-1.16-.2h0s0,0,0,0c-.26-.09-.49-.24-.69-.43-.2-.2-.36-.44-.49-.73-.25-.54-.37-1.15-.37-1.81,0-.04,0-.07,0-.11h0c.02-.99.29-1.85.82-2.54.27-.35.59-.63.96-.83.37-.2.79-.31,1.24-.34.1,0,.19-.01.28-.01.28,0,.53.03.77.1.23.07.44.17.62.32h0s0,0,0,0c.18.15.33.31.44.5.11.18.17.38.17.59v.02h0c0,.13-.03.25-.08.37-.05.11-.12.22-.21.31h0c-.17.17-.4.28-.64.3h0,0s-.06,0-.09,0c-.09,0-.18-.01-.27-.04-.09-.03-.18-.07-.25-.14h0c-.12-.11-.22-.25-.32-.42-.1-.16-.19-.28-.25-.32h0s-.01-.01-.03-.02c-.02,0-.05-.01-.1-.01h0s-.03,0-.05,0c-.14.01-.23.05-.32.12-.09.07-.17.19-.25.37h0c-.15.4-.24.86-.25,1.39,0,.04,0,.09,0,.13,0,.6.09,1.06.24,1.37h0c.07.15.15.24.24.29.08.05.17.08.29.08.02,0,.04,0,.06,0,.06,0,.11-.02.14-.03.03-.01.04-.02.05-.03h0s.01-.03.02-.06c.01-.05.03-.13.03-.24h0v-.55s-.27.02-.27.02h0s-.05,0-.07,0c-.04,0-.09,0-.14-.01-.05-.01-.11-.03-.18-.08-.05-.03-.08-.08-.1-.11-.02-.04-.04-.07-.04-.11-.02-.07-.02-.12-.02-.18v-.02s.01-.51.01-.51c0-.06,0-.11.02-.17.02-.06.04-.13.11-.2h0c.07-.07.14-.1.2-.12.06-.02.12-.03.17-.03h0l1.77-.13h0s.04,0,.06,0c.06,0,.12,0,.19.03.07.02.15.08.21.16h0c.04.07.06.13.07.19.01.06.02.11.02.16v.02h0s-.02,1.14-.02,1.14c-.11.23-.17.49-.17.77v.04c0,.18.03.35.08.51-.05.13-.11.25-.21.36h0s0,0,0,0c-.17.19-.41.36-.71.53h0c-.35.19-.77.29-1.27.33-.08,0-.17,0-.25,0h0"/>
    <path class="e" d="M23.38,18.37h0s0,0,0,0M23.18,18.79h0M21.54,15.46h0M21.47,15.53s-.08.12-.12.24c-.05.13-.11.25-.18.36.13-.05.26-.09.41-.14v-.21s0-.04,0-.04c0-.1,0-.18-.02-.23h0s-.05,0-.06.01h-.01M21.35,15.18c.14,0,.23.05.27.15.05.11.07.27.06.45v.44c-.73.22-1.27.44-1.64.68-.37.24-.55.6-.56,1.1,0,.42.14.72.43.91.25.15.58.23,1.01.23.09,0,.19,0,.29-.01.4-.03.74-.1.99-.22.25-.12.42-.23.49-.33.08-.1.12-.2.14-.28.01-.08.02-.19.03-.32l.05-2.37c0-.22-.02-.42-.07-.6-.05-.18-.15-.31-.31-.4-.16-.09-.32-.15-.47-.16-.09-.01-.18-.01-.28-.01-.08,0-.16,0-.24,0-.57.04-1.02.18-1.33.42-.31.24-.47.49-.48.76,0,.15.04.27.14.37.09.09.2.14.35.14.02,0,.04,0,.05,0,.17-.01.3-.06.36-.14.07-.08.13-.2.18-.34.05-.15.11-.26.18-.34.06-.08.17-.12.3-.13.02,0,.03,0,.05,0M21.15,19.48c-.47,0-.87-.08-1.19-.28-.19-.12-.35-.29-.44-.49-.02-.05-.05-.1-.06-.15-.05-.16-.08-.33-.08-.51v-.04c0-.28.06-.54.17-.77,0,0,0-.02.01-.03.12-.24.3-.43.53-.58h0s0,0,0,0c.09-.06.19-.12.3-.17-.09,0-.18-.02-.27-.05-.1-.04-.2-.1-.27-.18h0c-.07-.08-.13-.17-.17-.27-.04-.1-.06-.21-.06-.32v-.02h0s0,0,0,0c0-.2.07-.39.18-.56.11-.17.25-.32.43-.45.39-.29.89-.44,1.51-.48.09,0,.18,0,.26,0,.11,0,.22,0,.32.02h0c.21.02.41.09.6.2.11.06.21.15.29.25.08.1.14.22.17.35h0s0,0,0,0c.05.2.08.41.08.63,0,.02,0,.04,0,.06h0s-.05,2.37-.05,2.37h0c0,.14-.01.27-.03.38-.03.15-.1.29-.19.42-.07.1-.16.17-.26.24-.1.07-.22.13-.36.2-.31.14-.67.21-1.1.24-.11,0-.21.01-.31.01"/>
    <path class="e" d="M23.61,12.48h0s0,0,0,0M24.95,18.59h0M24.95,18.59h0M24.87,12.22s-.02,0-.03,0l-.92.07c-.13,0-.2.07-.2.19l-.12,6.17c0,.1.01.16.05.17.02,0,.05,0,.09,0,.02,0,.04,0,.06,0l.91-.06c.13,0,.19-.08.19-.22l.12-6.15c0-.11-.05-.17-.16-.17M23.95,19.16c-.05,0-.11,0-.17-.02h0c-.08-.02-.15-.07-.19-.12-.04-.05-.06-.1-.08-.14-.03-.08-.03-.14-.03-.21v-.02h0s.12-6.17.12-6.17h0s0,0,0,0c0-.09.02-.19.08-.28.06-.09.15-.16.25-.19.06-.02.12-.03.18-.04l.92-.06h.05c.08,0,.17.01.27.07.09.05.17.15.2.25.02.06.03.12.03.17h0s-.12,6.16-.12,6.16c0,.09-.02.18-.07.28-.05.1-.14.18-.24.22-.06.03-.13.04-.19.04l-.91.06s-.06,0-.09,0"/>
    <path class="e" d="M25.54,18.51h0s0,0,0,0M25.66,12.34h0s0,0,0,0M26.97,18.37h0M26.97,18.37h0M27,18.45h0M27,18.45h0M26.92,12.08s-.02,0-.02,0l-.92.07c-.13,0-.2.07-.2.19l-.12,6.17c0,.1.01.16.05.16.02,0,.05.01.09.01.02,0,.04,0,.06,0l.91-.06c.13,0,.19-.08.19-.22l.12-6.15c0-.11-.05-.17-.16-.17M26.01,19.02c-.06,0-.11,0-.17-.02h0c-.08-.02-.15-.07-.19-.12-.04-.05-.06-.1-.08-.14-.03-.08-.03-.14-.03-.21v-.02l.12-6.17c0-.09.02-.19.08-.28.06-.09.16-.16.25-.19.06-.02.12-.03.18-.04l.92-.06h.05c.08,0,.17.01.27.07.09.05.17.15.19.25.02.06.03.12.03.17h0s-.07,3.21-.07,3.21c-.07.28-.11.58-.12.91v.09c0,.28.03.54.08.79l-.02,1.17h0c0,.09-.02.19-.07.28-.05.09-.14.18-.24.22-.06.03-.13.04-.19.04l-.91.06s-.06,0-.08,0"/>
    <path class="e" d="M29.74,13.87c-.06,0-.11,0-.17,0-.56.04-1.04.28-1.42.71-.38.43-.58,1.02-.59,1.78-.01.73.16,1.28.51,1.67.32.35.73.53,1.23.53.05,0,.1,0,.16,0,.6-.04,1.08-.3,1.45-.76.37-.47.56-1.06.57-1.79.01-.6-.15-1.12-.48-1.55-.3-.39-.72-.58-1.26-.58M29.51,18.89c-.29,0-.56-.05-.81-.16-.25-.11-.47-.27-.66-.47h0s0,0,0,0c-.2-.22-.36-.49-.45-.8-.02-.07-.04-.15-.06-.22-.06-.24-.08-.5-.08-.79v-.09c0-.32.05-.63.12-.91.02-.07.04-.14.06-.2.11-.33.28-.63.5-.88.22-.24.46-.44.74-.58.28-.14.58-.22.9-.24.07,0,.13,0,.19,0h0c.31,0,.6.06.85.18.26.12.48.3.66.53h0c.37.47.55,1.05.55,1.68,0,.02,0,.05,0,.07h0s0,0,0,0c-.02.78-.22,1.45-.64,1.98-.21.27-.46.48-.74.63-.28.15-.6.24-.94.26l-.02-.33.02.33c-.06,0-.12,0-.18,0h0"/>
    <path class="e" d="M2.06,23.88h0s0,0,0,0h0M2.06,23.88h0M6.58,24.18h0M4.28,24.38h0M8.01,27.33h0M8.01,27.33h0M8.02,27.35h0M8.02,27.35h0M5.67,27.39h0M5.67,27.39h0M5.7,27.5h0M5.7,27.5h0M5.7,27.5h0M5.7,27.5h0M3.36,27.63h0M3.36,27.63h0M3.38,27.66h0M3.38,27.66h0M2.43,28.24c-.08,0-.18-.02-.28-.08-.1-.06-.17-.16-.19-.25-.02-.06-.03-.12-.03-.18h0s.07-3.34.07-3.34h.11s-.07,3.33-.07,3.33c0,.12.05.18.17.18,0,0,.02,0,.03,0l.9-.06c.14,0,.21-.09.21-.23l.06-2.87c0-.14.01-.25.03-.33.02-.08.07-.16.15-.24.08-.09.2-.14.35-.15.01,0,.02,0,.04,0,.09,0,.17.02.25.07.09.05.14.13.16.24.02.11.03.23.03.37l-.06,2.85c0,.09.01.14.05.16.03.02.07.03.13.03.01,0,.03,0,.05,0l.9-.06c.13,0,.19-.08.19-.21l.06-2.84c0-.13,0-.23.02-.32,0-.09.05-.16.11-.23.06-.07.12-.11.18-.15.06-.03.14-.05.23-.05.02,0,.05,0,.07,0,.17,0,.28.05.33.16.05.12.08.29.07.52l-.06,2.84c0,.12.05.18.16.18,0,0,.01,0,.02,0l.95-.07c.11,0,.16-.08.17-.22l.06-2.9c.01-.5-.1-.85-.34-1.07-.21-.19-.5-.28-.87-.28-.06,0-.11,0-.18,0-.3.02-.54.06-.71.12-.17.06-.32.12-.43.18-.12.06-.23.15-.34.26-.15-.12-.31-.22-.49-.29-.14-.06-.32-.08-.56-.08-.08,0-.16,0-.24,0-.22.02-.48.07-.79.15-.31.09-.54.19-.68.3-.14.11-.22.2-.25.27-.02.07-.04.21-.04.41h0s-.11,0-.11,0c0-.11,0-.2.02-.28,0-.08.02-.15.04-.23.04-.1.09-.17.15-.24.06-.06.13-.13.21-.19h0c.2-.16.46-.26.79-.36h0s0,0,0,0c.33-.09.61-.15.86-.17.09,0,.18-.01.27-.01.26,0,.48.03.68.11h0c.13.05.24.11.35.18.06-.05.13-.09.2-.13h0c.14-.08.3-.15.49-.21h0,0c.21-.07.47-.11.79-.13.07,0,.13,0,.2,0,.21,0,.41.03.6.09.18.06.35.15.49.28h0c.16.15.27.33.34.55.07.21.1.45.1.71,0,.02,0,.04,0,.07l-.03,1.28c-.08.2-.12.42-.12.65v.04c0,.2.03.38.09.56v.37c0,.08-.02.17-.07.26-.04.09-.13.18-.22.22-.07.03-.13.05-.19.05h.02s-.97.07-.97.07h-.04s0,0,0,0c-.08,0-.18-.02-.28-.08-.09-.06-.16-.16-.19-.25-.02-.06-.03-.12-.03-.17h0s.06-2.85.06-2.85v-.04c0-.13-.01-.24-.03-.3-.01,0-.03,0-.04,0h-.05c-.07,0-.11.02-.11.02h0s-.04.03-.09.07h0s-.02.03-.02.04h0c0,.07-.01.17-.02.29h0l-.06,2.84c0,.09-.02.18-.07.28-.05.09-.14.17-.24.21-.06.03-.13.04-.19.04l-.9.06h0s-.05,0-.07,0c-.05,0-.09,0-.15-.02-.05-.01-.11-.03-.17-.07h0s0,0,0,0c-.05-.03-.08-.07-.11-.11-.02-.04-.04-.08-.05-.11-.02-.07-.02-.13-.03-.19v-.02h0s.06-2.84.06-2.84h0v-.05c0-.1,0-.19-.02-.26h0s0,0,0,0v-.02s0,0,0,0h0s-.05-.02-.08-.02h-.02s0,0,0,0h0s-.08.01-.1.02c-.02,0-.03.02-.03.02h0c-.05.06-.07.09-.07.1h0s-.02.13-.02.26l-.06,2.87c0,.09-.02.19-.07.29-.05.1-.15.18-.25.22-.07.03-.13.04-.19.04h0s-.89.06-.89.06h-.05"/>
    <path class="e" d="M11.08,20.82h0s0,0,0,0M11.08,20.82h0M11.58,21.73h0M11.25,21.01s-.02,0-.03,0c-.07,0-.12.02-.16.05-.03.03-.09.08-.15.15l-.6.75s-.05.06-.09.12c-.04.06-.07.13-.07.2,0,.07.02.13.06.17.04.04.09.06.15.06,0,0,.01,0,.02,0,.05,0,.09-.01.12-.02.03-.01.08-.06.17-.13l.68-.64c.06-.07.1-.12.13-.17.03-.05.04-.11.04-.2,0-.1-.02-.19-.08-.25-.05-.06-.12-.09-.2-.09M10.61,23.79h0s0,0,0,0M10.54,23.86h0s0,0,0,0h0M10.42,24.1c-.05.14-.11.26-.18.36.13-.05.26-.09.4-.14v-.21s0-.04,0-.04c0-.1-.01-.18-.02-.24h0s-.05,0-.06.01h-.01s-.08.12-.12.25h0M10.42,23.51c.14,0,.23.05.28.15.04.11.06.26.06.45v.45c-.73.22-1.27.44-1.64.68-.37.24-.55.6-.56,1.1,0,.42.13.72.43.91.24.15.58.23,1.01.23.09,0,.19,0,.29-.01.4-.03.73-.1.99-.21.25-.11.42-.22.49-.33.08-.11.12-.2.14-.28.02-.08.03-.19.03-.32l.05-2.37c0-.22-.02-.42-.07-.6-.05-.18-.15-.31-.31-.4-.16-.09-.32-.15-.47-.16-.09,0-.18-.02-.28-.02-.08,0-.16,0-.24,0-.57.04-1.02.18-1.33.42-.31.24-.47.49-.48.76,0,.15.05.27.14.37.09.09.2.14.35.14.02,0,.04,0,.06,0,.18-.01.3-.06.36-.14.07-.08.13-.19.18-.34.05-.15.11-.26.18-.34.06-.08.17-.12.3-.13.02,0,.03,0,.05,0M10.21,27.81c-.47,0-.87-.08-1.18-.28h0s0,0,0,0c-.19-.12-.35-.29-.44-.49-.02-.04-.03-.07-.05-.11-.07-.17-.09-.36-.09-.56v-.04c0-.23.04-.45.12-.65.02-.05.04-.1.06-.14.12-.23.3-.43.53-.58h0s0,0,0,0c.09-.06.19-.12.3-.17-.09,0-.18-.02-.27-.05-.1-.04-.2-.1-.27-.18-.07-.08-.13-.17-.17-.27-.04-.1-.06-.21-.06-.31v-.02h0s0,0,0,0c0-.2.07-.39.17-.56.11-.17.26-.32.43-.45h0c.23-.17.5-.3.81-.38-.04-.08-.06-.18-.06-.26h0c0-.15.05-.28.12-.39h0s0,0,0,0c.02-.03.04-.06.06-.09.02-.02.03-.04.05-.06l.6-.75h0c.07-.09.13-.15.19-.2.12-.09.23-.11.34-.12h.05s0,0,0,0c.08,0,.17.02.25.05.08.04.15.09.2.16h0s0,0,0,0c.11.13.16.3.16.45v.02h0c0,.12-.02.23-.08.35h0c-.05.08-.1.15-.17.23h0s-.53.5-.53.5c.03,0,.07,0,.1,0h0c.21.02.41.1.6.21h0,0c.11.06.21.15.29.25.08.1.14.22.17.35h0c.06.19.08.4.08.63v.06h0l-.04,1.88c-.05.12-.08.25-.08.38h0v.02s0,.05,0,.08h-.26s.26,0,.26,0c0,.09.03.17.05.26,0,.04-.01.08-.02.12h0c-.03.16-.1.29-.19.42-.07.1-.16.17-.26.24-.1.07-.22.13-.36.19-.31.14-.67.21-1.1.24-.11,0-.21.01-.31.01"/>
    <path class="e" d="M13.25,25.29h0,0M15.78,26.91h0s0,0,0,0h0M12.92,27.19h0s0,0,0,0c0,0,0,0,0,0M14.4,23.54h-.01s-.02,0-.02,0h0s0,0,0,0h0s-.03.06-.04.1h0c0,.06,0,.08.01.09h0c.05.05.16.11.31.18-.04-.06-.09-.12-.13-.2h0s0,0,0,0c-.05-.09-.1-.16-.13-.19h0M15,24.43h0l.08-.19-.08.19M14.31,26.07h.01s0,0,0,0h0,0,.01s.03-.03.03-.03l.02-.03s.01-.03.01-.07h0s0,0,0,0h0c0-.07-.01-.08-.02-.1h-.01s-.04-.04-.08-.07c-.07-.04-.17-.09-.3-.15.02.02.03.04.04.05h0s.18.27.18.27h0c.05.07.09.11.1.11h0M13.09,25.61s-.02,0-.03,0c-.16.01-.28.08-.38.19-.1.12-.15.26-.15.42,0,.26.13.49.4.71.23.18.55.27.97.27.07,0,.15,0,.23,0,.56-.04.96-.21,1.2-.51.24-.3.37-.63.38-1,0-.37-.08-.64-.26-.82-.18-.18-.4-.33-.65-.44l-.44-.18c-.19-.07-.33-.15-.43-.23-.1-.08-.14-.2-.14-.37,0-.11.04-.21.1-.29.06-.09.15-.13.27-.14.01,0,.03,0,.04,0,.09,0,.17.03.22.08.06.06.13.15.2.28.07.12.14.22.21.28.06.05.15.08.26.08.02,0,.03,0,.05,0,.15-.01.27-.07.36-.18.09-.11.13-.23.13-.37,0-.24-.11-.45-.34-.63-.2-.15-.48-.23-.85-.23-.07,0-.14,0-.21,0-.61.04-1.02.22-1.23.53-.22.31-.33.61-.33.9,0,.36.08.63.25.8.17.17.38.31.63.41l.35.15c.3.13.48.24.54.32.06.08.1.18.09.31,0,.13-.04.24-.12.32-.08.08-.16.12-.26.13,0,0-.02,0-.03,0-.07,0-.13-.02-.18-.05-.06-.04-.13-.11-.2-.2l-.18-.26c-.08-.11-.16-.18-.25-.22-.07-.03-.14-.05-.21-.05M14.1,27.54c-.23,0-.45-.02-.65-.08-.2-.05-.38-.14-.53-.26h0c-.15-.13-.28-.27-.37-.42-.03-.06-.06-.12-.08-.19-.03-.08-.05-.17-.05-.26,0-.03,0-.05,0-.08v-.02h0c0-.13.03-.26.08-.38.04-.09.09-.17.15-.24h0c.07-.09.17-.17.27-.22.11-.05.22-.08.34-.09h0s.01,0,.02,0c-.14-.09-.27-.19-.39-.3h0s0,0,0,0c-.12-.12-.21-.28-.27-.44-.06-.17-.08-.35-.08-.55v-.05h0c0-.37.15-.73.39-1.08h0c.15-.21.36-.37.61-.48.25-.11.54-.17.87-.19.08,0,.16,0,.24,0,.21,0,.4.02.58.07.18.05.34.12.48.23.14.11.26.24.34.39.08.15.13.32.12.49v.02h0c0,.2-.07.4-.2.56h0c-.07.09-.16.17-.26.22-.1.05-.2.07-.3.08.18.11.35.23.5.38h0c.13.13.21.28.27.45.06.17.08.36.08.56v.05c0,.44-.17.86-.45,1.21h0c-.16.2-.37.35-.61.45-.24.1-.52.16-.82.18-.09,0-.17,0-.25,0"/>
    <path class="e" d="M22.95,20.49h0s0,0,0,0M20.83,23.11h0s0,0,0,0h0M22.48,26.74h0s0,0,0,0h0M21.48,25.34h0M21.48,25.34h0M21.34,20.39c-.08,0-.17,0-.26,0-.82.06-1.48.4-1.96,1.04-.48.63-.73,1.42-.75,2.35-.01.67.1,1.26.34,1.78.24.52.57.85.99.99.34.12.69.18,1.05.18.07,0,.15,0,.23,0,.47-.03.84-.13,1.13-.29.29-.16.5-.31.62-.46.13-.15.2-.34.2-.58l.04-2.02c0-.09,0-.15-.03-.18-.02-.03-.06-.05-.13-.05-.01,0-.02,0-.03,0l-1.77.13c-.08,0-.13.02-.15.05-.03.03-.04.08-.04.16v.51c-.01.08,0,.13.03.15.02.02.06.03.11.03.01,0,.03,0,.05,0l.64-.04-.02.9c0,.26-.05.43-.14.52-.09.09-.22.14-.4.16-.03,0-.05,0-.08,0-.37,0-.64-.19-.82-.56-.2-.4-.29-.95-.28-1.65.01-.56.1-1.07.28-1.5.17-.44.45-.67.85-.7.02,0,.05,0,.07,0,.15,0,.27.04.35.11.1.08.2.22.32.4.08.15.17.27.25.34.07.06.18.1.31.1.02,0,.04,0,.06,0,.16-.01.31-.08.43-.2.12-.12.18-.27.19-.45,0-.3-.16-.58-.49-.85-.28-.23-.68-.35-1.18-.35M20.97,27.07c-.39,0-.78-.07-1.16-.2-.26-.09-.49-.24-.69-.43-.2-.2-.36-.44-.49-.73-.25-.54-.37-1.15-.37-1.81,0-.04,0-.07,0-.11.02-.99.29-1.85.82-2.54.27-.35.59-.63.96-.83.37-.2.79-.31,1.24-.34.1,0,.19-.01.28-.01.28,0,.53.03.76.1.23.07.44.17.62.32h0c.18.15.33.31.44.5.11.18.17.38.17.59v.02h0c0,.13-.02.25-.07.37-.05.12-.12.22-.21.31-.17.17-.4.28-.64.3h0s-.06,0-.09,0c-.09,0-.18-.01-.27-.04-.09-.03-.18-.07-.25-.14-.12-.11-.22-.25-.32-.42-.1-.16-.2-.28-.25-.32h0s-.01,0-.03-.02c-.02,0-.05-.01-.1-.01h0s-.03,0-.05,0h0c-.14.01-.23.05-.32.12-.09.07-.17.19-.24.37h0c-.16.4-.24.86-.25,1.39,0,.04,0,.09,0,.13,0,.6.09,1.06.24,1.37h0s0,0,0,0c.07.15.15.24.23.3.08.05.17.08.3.08.02,0,.04,0,.06,0,.06,0,.11-.02.14-.03.03-.01.04-.02.05-.03h0s.01-.03.02-.06c.02-.05.03-.13.03-.24h0s.01-.55.01-.55l-.29.02h0s-.05,0-.07,0c-.04,0-.09,0-.14-.01-.05-.01-.11-.03-.18-.08h0s-.08-.08-.1-.11c-.02-.04-.03-.07-.04-.11-.02-.07-.02-.12-.02-.18v-.02h0v-.51c.01-.06.02-.11.03-.17.02-.06.04-.13.11-.2h0c.07-.07.14-.1.2-.12.06-.02.12-.03.17-.03h0l1.78-.12s.04,0,.06,0c.06,0,.12,0,.19.03.07.02.15.08.21.16h0,0c.04.07.06.13.07.19.01.06.02.11.02.16v.02h0s-.02,1.14-.02,1.14c-.11.23-.17.49-.17.77v.04c0,.18.02.35.08.51-.05.13-.12.25-.21.36h0c-.17.2-.41.36-.71.53h0c-.35.19-.77.29-1.26.33-.08,0-.17,0-.25,0h0"/>
    <path class="e" d="M26.27,21.41h0M23.57,22.91h0s0,0,0,0h0M25.49,22.74h0s0,0,0,0M25.42,22.81s-.08.12-.12.24c-.05.14-.11.26-.18.36.13-.05.26-.09.4-.14v-.21s0-.04,0-.04c0-.1,0-.18-.02-.23h0s-.07.01-.07.01h0M25.3,22.46c.14,0,.23.05.27.15.04.11.06.27.06.45v.44c-.73.22-1.27.44-1.64.68-.37.24-.55.6-.56,1.1,0,.42.14.72.43.9.25.15.58.23,1.01.23.09,0,.19,0,.29-.01.41-.03.74-.1.99-.22.26-.11.42-.22.5-.33.08-.1.12-.2.14-.28.02-.08.02-.19.03-.32l.05-2.37c0-.22-.02-.42-.07-.6-.05-.18-.15-.31-.31-.4-.16-.09-.32-.15-.47-.16-.09-.01-.18-.01-.28-.01-.08,0-.16,0-.24,0-.57.04-1.02.18-1.33.42-.31.24-.47.49-.48.76,0,.15.04.27.14.37.08.09.2.14.35.14.02,0,.04,0,.06,0,.17-.01.3-.06.36-.14.07-.08.13-.2.18-.34.05-.15.11-.26.18-.34.06-.08.16-.12.3-.13.02,0,.03,0,.05,0M25.1,26.76c-.47,0-.87-.08-1.19-.28-.19-.12-.34-.29-.44-.49-.02-.05-.05-.1-.06-.15-.06-.16-.08-.33-.08-.51v-.04c0-.28.06-.54.17-.77,0,0,0-.02.01-.02.12-.24.3-.43.53-.58.09-.06.19-.12.3-.17-.09,0-.18-.02-.27-.05-.1-.04-.2-.1-.27-.18h0c-.07-.08-.13-.17-.17-.27-.04-.1-.06-.21-.06-.32v-.02h0c0-.2.07-.39.17-.56.11-.17.25-.32.43-.45h0s0,0,0,0c.39-.29.9-.44,1.51-.48h0c.09,0,.18-.01.26-.01.11,0,.21,0,.32.02h0c.21.02.41.09.6.2.11.06.21.15.29.25.08.1.14.22.17.35h0s0,0,0,0c.05.19.08.4.08.63v.06h0s-.05,2.37-.05,2.37h-.33s.33,0,.33,0c0,.14-.01.27-.03.38h0s0,0,0,0c-.03.15-.1.29-.19.42h0c-.07.1-.16.17-.26.24-.1.07-.22.13-.36.19-.3.14-.67.21-1.1.24-.11,0-.21.01-.31.01"/>
    <path class="e" d="M27.99,26.44h0,0M27.99,26.44h0s0,0,0,0M28.88,25.85h0M28.88,25.85h0M28.9,25.88h0M28.9,25.88h0M28.82,19.5s-.02,0-.02,0l-.92.06c-.13.01-.2.07-.2.19l-.12,6.17c0,.1.01.16.05.17.02,0,.05,0,.09,0,.02,0,.04,0,.06,0l.91-.06c.12,0,.19-.08.19-.22l.12-6.15c0-.11-.05-.17-.16-.17M27.91,26.44c-.05,0-.11,0-.17-.02h0s0,0,0,0c-.08-.02-.15-.07-.19-.12-.04-.05-.06-.1-.08-.14-.03-.08-.03-.15-.03-.21v-.02s0,0,0,0l.12-6.17h0c0-.09.02-.19.08-.28.06-.09.15-.16.24-.19.06-.02.12-.03.18-.04l.92-.06h.05c.08,0,.17.01.27.07.09.05.17.15.19.25.02.06.03.12.03.17h0s-.12,6.16-.12,6.16c0,.09-.02.18-.07.28-.05.09-.14.18-.24.22-.06.03-.13.04-.19.04l-.91.06s-.06,0-.08,0"/>
    <path class="e" d="M31.58,19.54h0s0,0,0,0M29.62,19.62h0s0,0,0,0M30.92,25.65h0M30.92,25.65h0M30.95,25.73h0M30.95,25.73h0M30.87,19.36s-.01,0-.02,0l-.92.06c-.13,0-.2.07-.2.19l-.12,6.17c0,.1.01.16.05.17.02,0,.05,0,.09,0,.02,0,.04,0,.06,0l.91-.06c.13,0,.19-.08.19-.22l.12-6.15c0-.11-.05-.17-.16-.17M29.96,26.3c-.05,0-.11,0-.17-.02h0s0,0,0,0c-.08-.02-.15-.07-.19-.12-.04-.05-.06-.1-.08-.14-.03-.08-.03-.14-.03-.21v-.03s0,0,0,0l.12-6.17c0-.09.02-.19.08-.28.06-.09.15-.16.25-.19.06-.02.12-.03.18-.04l.92-.06h.05c.08,0,.17.01.27.07.09.05.17.15.19.25.02.06.03.12.03.17h0s-.06,3.21-.06,3.21c-.07.28-.11.58-.12.91h0s0,.06,0,.09c0,.28.03.54.08.79l-.02,1.18h0c0,.08-.02.18-.07.27-.05.09-.14.18-.24.22-.06.03-.13.04-.19.04l-.91.06h0s-.06,0-.09,0"/>
    <path class="e" d="M33.69,21.15c-.05,0-.11,0-.17,0-.56.04-1.03.27-1.42.71-.38.43-.58,1.02-.59,1.78-.02.72.15,1.28.51,1.67.32.35.73.53,1.23.53.05,0,.1,0,.16,0,.6-.04,1.08-.3,1.45-.76.37-.47.56-1.06.57-1.79.01-.6-.15-1.12-.48-1.55-.3-.39-.72-.58-1.26-.58M33.47,26.18c-.29,0-.56-.05-.81-.16-.25-.11-.47-.27-.66-.47-.2-.22-.36-.49-.45-.8-.02-.07-.04-.15-.06-.22-.06-.24-.08-.51-.08-.79,0-.03,0-.06,0-.09h0c0-.32.04-.63.12-.91.02-.07.04-.14.06-.2.11-.33.28-.63.5-.88h0c.21-.24.46-.44.74-.58.28-.14.58-.22.9-.24.06,0,.13,0,.19,0h0c.31,0,.6.06.85.18.26.12.48.3.66.53h0c.37.47.55,1.05.55,1.69,0,.02,0,.05,0,.07h0c-.01.78-.22,1.45-.64,1.98-.21.27-.46.48-.74.63-.28.15-.6.24-.94.26l-.02-.33.02.33c-.06,0-.12,0-.18,0h0"/>
    <path class="e" d="M10.47,25.79h0s-.05.05-.07.11c-.02.06-.04.14-.04.25v.02c0,.07,0,.13.02.16.01.03.02.05.03.05h0s.04.03.05.04c.01,0,.02,0,.04,0h.01,0,0s.05,0,.06,0c.02-.05.03-.13.03-.23v-.5s-.1.07-.13.1h0M10.56,26.45h0M10.62,26.47h0M10.62,26.47h0M10.64,26.48h0M10.64,26.48h0M10.28,26.75c-.12,0-.23-.05-.32-.14-.1-.1-.15-.26-.15-.48,0-.28.08-.48.23-.6.15-.12.38-.25.69-.37l-.02,1.03c0,.15-.03.28-.07.39-.05.1-.15.16-.32.17-.01,0-.02,0-.03,0"/>
    <path class="e" d="M21.53,17.86h0s0,0,0,0h0M21.44,18.1h0,0M21.34,18.05h0s.04.03.05.04c.01,0,.02,0,.04,0h.01,0s.05,0,.06,0c.02-.05.03-.13.03-.23v-.5c-.05.04-.1.07-.13.1h0s-.05.05-.07.11c-.02.06-.04.14-.04.25h0v.02c0,.08,0,.13.02.16.01.03.02.05.03.05h0M21.49,18.12h0s0,0,0,0h0M21.55,18.14h0M21.55,18.14h0M21.57,18.15h0M21.57,18.15h0M21.21,18.42c-.12,0-.23-.05-.32-.14-.1-.1-.15-.26-.15-.48,0-.28.08-.48.23-.6.15-.12.38-.25.69-.37l-.02,1.03c0,.15-.03.28-.07.39-.05.1-.15.16-.32.17-.01,0-.02,0-.03,0"/>
    <path class="e" d="M29.89,15.17h0M29.58,17.12h0s0,0,0,0M29.58,17.12h0M29.47,17.65c-.2,0-.34-.15-.43-.44-.09-.31-.14-.66-.13-1.07,0-.38.06-.71.16-1,.1-.29.25-.45.45-.46.01,0,.02,0,.03,0,.07,0,.13.02.19.05l.02.28h-.02s-.03.03-.03.03c-.03.03-.07.09-.11.21h0s0,0,0,0c-.09.25-.14.55-.14.9,0,.03,0,.06,0,.09,0,.34.04.63.12.88h0c.02.08.05.13.07.16.02.03.04.04.04.04h0s0,0,0,0h.02s.03-.03.03-.03c.03-.03.08-.11.11-.24h0c.09-.28.13-.62.14-1h0v-.09c0-.35-.04-.61-.12-.8h0c-.04-.09-.07-.14-.09-.15-.02-.01,0,0-.02-.01h0l-.02-.28c.09.06.17.16.23.31.1.26.15.6.14,1.01,0,.41-.06.78-.16,1.09-.1.32-.25.48-.46.5-.01,0-.02,0-.03,0"/>
    <path class="e" d="M25.39,25.38h0s0,0,0,0M25.24,25.1v.02c0,.08.01.13.02.16.01.03.02.05.03.05.02.02.04.03.05.03.01,0,.02,0,.04,0h.01s.05,0,.06,0c.02-.05.03-.13.03-.23h0s.01-.5.01-.5c-.06.04-.11.07-.14.1h0s-.05.05-.07.11c-.02.06-.04.14-.04.25h0M25.44,25.4h0s0,0,0,0M25.5,25.42h0M25.5,25.42h0M25.52,25.43h0M25.52,25.43h0M25.17,25.7c-.12,0-.23-.05-.32-.14-.1-.1-.15-.26-.15-.48,0-.28.08-.48.23-.61.15-.12.38-.25.69-.37l-.02,1.03c0,.15-.03.28-.07.38-.05.1-.15.16-.32.17-.01,0-.03,0-.04,0"/>
    <path class="e" d="M33.42,24.93c-.19,0-.34-.15-.43-.44-.09-.31-.14-.66-.13-1.07,0-.38.06-.71.16-1,.1-.29.25-.45.45-.46,0,0,.02,0,.03,0,.07,0,.13.02.19.05l.02.29h-.03s-.03.03-.03.03c-.03.03-.07.09-.11.21-.09.25-.14.55-.14.9,0,.03,0,.06,0,.09,0,.34.04.63.12.88h0c.02.08.05.13.07.16.02.03.03.04.04.04h0s0,0,0,0h.03s.03-.03.03-.03c.03-.03.08-.11.11-.24.09-.28.14-.62.14-1h0s0-.06,0-.09c0-.35-.05-.62-.12-.8h0c-.04-.09-.07-.14-.09-.15-.02-.01,0,0-.02-.01h0s-.02-.28-.02-.28c.09.06.17.16.23.32.1.26.15.59.14,1.01,0,.41-.06.78-.16,1.09-.1.32-.25.48-.46.5-.01,0-.02,0-.03,0"/>
    <path class="e" d="M37.38,24.35h0M37.09,24.5h0M37.08,24.56h0M37.08,24.56h0M37.56,24.96h0M36.25,25.59h0M36.88,25.93c-.25,0-.5-.1-.68-.28-.1-.1-.19-.22-.24-.35-.05-.13-.08-.27-.08-.42v-.03h0c0-.3.12-.59.33-.81.2-.22.47-.35.77-.37.03,0,.06,0,.09,0h0c.27,0,.52.1.7.29h0c.2.2.3.47.3.76v.03h0c0,.3-.12.58-.32.8-.2.22-.47.36-.77.38-.03,0-.05,0-.08,0h0"/>
    <path class="d" d="M36.86,25.62c-.23.02-.43-.06-.6-.21-.17-.16-.25-.36-.24-.62,0-.25.09-.47.26-.66.17-.18.37-.28.61-.3.25-.02.45.06.61.22.16.16.24.37.23.62,0,.25-.09.46-.26.65-.17.18-.38.28-.62.3M36.9,23.91c-.22.02-.41.11-.56.28-.16.17-.24.37-.24.59,0,.23.07.42.22.56.15.15.33.21.55.2.22-.02.41-.11.56-.27.15-.17.23-.36.24-.59,0-.23-.07-.41-.21-.56-.15-.15-.33-.21-.55-.2ZM36.89,24.15s.08,0,.12,0c.05,0,.09,0,.15.02.05.01.1.05.13.1.03.05.04.1.04.16,0,.08-.02.15-.07.19-.04.04-.09.07-.14.1.05.02.08.05.1.08.02.03.03.08.04.13,0,.06.02.12.03.18.01.06.03.11.05.16l-.26.02s-.03-.06-.03-.11c0-.04-.02-.1-.03-.19-.01-.08-.03-.14-.06-.16-.03-.02-.1-.03-.22-.02v.49s-.24.02-.24.02l.02-1.14.37-.03ZM36.73,24.62h.14c.07-.01.12-.03.16-.04.04-.02.06-.06.06-.12,0-.05-.01-.08-.04-.1-.03-.02-.07-.03-.15-.02h-.17s0,.28,0,.28Z"/>
  </g>
</svg>