<?xml version="1.0" encoding="UTF-8"?>
<svg id="a" data-name="Layer 1" xmlns="http://www.w3.org/2000/svg" viewBox="0 0 120 60">
  <defs>
    <style>
      .b {
        fill: #808183;
      }

      .c {
        fill: #a70b52;
      }
    </style>
  </defs>
  <path class="c" d="M28.57,4.18c14.34-.97,26.66,9.94,27.59,24.12s-9.87,26.58-24.1,27.55c-14.18.96-26.54-9.78-27.57-23.97C3.46,17.67,14.21,5.16,28.57,4.18ZM50.01,30.86c-.59,12.25-11.89,20.89-23.74,18.44-9.23-1.91-15.79-10.13-15.66-19.6.14-11.08,9.52-19.9,20.64-19.35v-1.96c-12.21-.57-22.49,9.21-22.61,21.36-.08,8.57,4.85,16.34,12.5,19.9,8.13,3.78,17.68,2.18,24.12-3.97,4.57-4.36,7.03-10.47,6.69-16.83h-15.28c-.02.71-.06,1.34.02,1.99l13.31.02ZM21.49,18.88c-1.73.43-2.62,2.18-2.17,3.77s2.08,2.49,3.64,2.11c1.64-.4,2.63-2.06,2.23-3.66s-2-2.65-3.71-2.22ZM36.56,39.12l-5.3.02v-20.27c-.72-.02-1.31-.05-1.98.02v22.22s7.33,0,7.33,0c0-.73.08-1.29-.04-1.98Z"/>
  <path class="b" d="M107.06,32.82l-5.17-.03v-4.53s11.25,0,11.25,0v14.45s-5.63-.01-5.63-.01l-.08-2.88c-1.79,3-5.39,3.74-8.57,3.53-3.47-.23-6.4-2.14-8.07-5.18-2.2-3.98-2.51-9.79-.99-14.04,1.18-3.31,3.67-5.8,7.02-6.91,2.7-.89,5.58-1,8.38-.43,3.16.65,6.61,2.75,7.45,6.05.2.7.32,1.38.42,2.13h-7.2c-.4-1.85-1.85-3.15-3.75-3.33s-3.65.67-4.65,2.31c-1.63,2.52-1.66,6.62-1.05,9.47s2.61,5.27,5.86,5.05c3.07-.21,4.64-2.6,4.79-5.65Z"/>
  <polygon class="b" points="87.56 37.12 87.56 42.71 69.06 42.7 69.06 17.13 75.86 17.13 75.85 37.12 87.56 37.12"/>
</svg>