<?xml version="1.0" encoding="UTF-8"?>
<svg id="a" data-name="Layer 1" xmlns="http://www.w3.org/2000/svg" viewBox="0 0 120 60">
  <defs>
    <style>
      .c {
        fill: #666;
      }

      .d {
        fill: red;
      }
    </style>
  </defs>
  <g id="b" data-name="LTC4kv">
    <g>
      <path class="c" d="M102.33,30.51l-.06-10.8c0-.46-1.89-.48-1.91-.01-.13,3.73-.11,7.22-.01,10.95.02.76,1.99.83,1.98-.15Z"/>
      <path class="c" d="M65.97,30.86c.47-2.36-.74-6.03,1.86-6.13,3.44-.14-.17,8.32,3.3,6.34.7-.4.41-5.21.09-6.23-.43-1.34-1.61-1.96-2.86-2.05-1.18-.09-2.42.23-3.16,1.61-.36-1-1.07-1.52-2.05-1.64-.88-.11-1.62.16-2.46.81-.05-.66-1.98-1.07-2.05-.43-.27,2.6-.19,5.14-.03,7.75.03.51,1.92.5,1.94-.18l.09-4.31c.02-1.02.82-1.66,1.65-1.7,2.68-.11,1.36,4.04,1.89,6.21.1.43,1.73.45,1.83-.05Z"/>
      <path class="c" d="M118.04,30.84c1.2-.69,1.4-2.11,1.03-3.06-.98-2.5-5.04-1-4.83-2.66,1.29-2.34,3.83,1.43,4.38-1.43-1.27-1.34-3.5-1.28-5.12-.56-1.04.46-1.43,1.41-1.35,2.39.24,3.07,5.18,1.6,4.99,3.27-.17,1.52-3.13.71-4.21-.06-.4-.03-1.18,1.08-.83,1.44,1.51,1.57,4.16,1.7,5.95.67Z"/>
      <path class="c" d="M78.67,23.45c-.19,1.7.13,2.99-.16,4.33-.27,1.2-1.35,1.78-2.37,1.62-2.49-.39-1.29-3.91-1.74-6.06-.14-.66-1.81-.67-1.87-.05-.31,2.98-.52,7.13,2.42,7.89,1.39.36,2.89-.01,3.76-1.25.1.91.33,1.3.96,1.3.76,0,1.09-.46,1.04-1.28-.14-2.23.14-4.34-.12-6.62-.08-.69-1.81-.71-1.9.11Z"/>
      <path class="c" d="M94.13,46.13c1.39-.89,1.77-2.37,1.59-3.81-.15-1.2-1.17-2.35-2.55-2.82l-4.13-1.41c-.44-.15-.8-.66-.72-.95.29-1.17,2.27-1.07,3.44-.59.54.22.42,1.26,1,1.74.55.45,2.05.32,2.59-.02.32-1.96-.95-3.82-2.77-4.4-1.67-.53-3.41-.54-5.01.14-1.44.61-2.27,1.92-2.24,3.34.1,4.72,7.86,3.57,7.47,5.88-.23,1.33-2.47,1.45-3.87.82-.59-.27-.72-1.11-1.15-1.99-.29-.6-2.18-.65-2.63-.13-.55,1.63.71,3.68,2.32,4.47,2.09,1.02,4.61,1.08,6.66-.25Z"/>
      <path class="c" d="M67.21,38.74l-5.65-.04c-.25-.78-.29-1.56.06-2.22,2.03-.18,3.98.21,6.12-.15.7-.12.7-2.38.04-2.42-3.24-.22-6.14-.07-9.34-.07v12.79c.86.21,2.41.45,2.78-.18.45-1.69-.05-3.32.2-4.95l5.88-.07c.15-.92.25-1.71-.08-2.7Z"/>
      <path class="c" d="M72.56,46.34l-.11-12.39c-1.09-.24-1.89-.28-2.86.02v12.65c1.07.23,2.13.5,2.96-.28Z"/>
      <path class="c" d="M83.43,41.43c.17-1.12.18-1.79-.06-2.61l-6.35-.12c-.14-.67-.35-1.71.12-2.14l6.56-.07c.34-.87.33-1.68.03-2.66h-9.74s0,12.94,0,12.94h10.06c.29-.96.28-1.76.02-2.67l-7.07-.07c-.15-.88-.15-1.64,0-2.51l6.43-.09Z"/>
      <path class="c" d="M103.48,46.35l.16-9.72,4.05-.13c.14-.91.17-1.66-.03-2.67h-11.03c-.24.99-.22,1.76-.03,2.67l4.01.07.15,10.09c.74.15,2.72.55,2.73-.32Z"/>
      <path class="d" d="M49.49,15.34C41.42,3.19,25.34-.24,13.13,7.41,1.01,15-3.15,31.05,4.45,43.62c7.89,13.04,24.62,16.75,37.14,8.78,12.45-7.93,16.15-24.62,7.9-37.06ZM44.66,25.59c.94.51,2.2-.2,3.04.31v3.95s-3.39.32-3.39.32l-.04,16.9h-5.77s-.05-14.81-.05-14.81c0-1.4-1.02-2.27-2.34-2.4-2.49-.25-4.47,1.48-4.48,4.04l-.07,13.13c-1.74.19-3.33.06-5.07.07l-.07-14.86c0-.81-.38-1.75-1.1-2.07-1.28-.57-2.63-.34-3.78.38-.96.6-1.91,1.89-1.91,3.37l-.06,13.34-5.22-.17v-21.5s5.29-.12,5.29-.12c0,.54-.07,1.04.22,1.16.32.13,5.81-4.13,10.54,1,2.53-2.47,5.55-2.92,8.79-2.08.29-1.37.09-2.44.25-3.57.64-4.4,4.85-4.79,8.29-4.1l-.02,4.58c-.94.03-1.89-.39-2.76.21-.64.44-.95,2.54-.27,2.91Z"/>
      <path class="c" d="M97.09,22.97c-1.5-.53-3.36-.37-4.34.99l-.15-4.22c-.02-.53-1.92-.54-1.94.01-.09,3.83-.11,7.39.02,11.16.01.43,1.44.37,1.69.09.2-.23.16-.6.39-1.02,1.01,1.74,2.99,1.61,4.52.97,1.47-.61,2.35-2.18,2.34-3.95,0-1.86-.85-3.44-2.54-4.03ZM95.41,29.43c-1.17.11-2.36-.67-2.55-2.01-.17-1.16.49-2.55,2.03-2.76,1.56-.21,2.59.92,2.65,2.17.07,1.3-.69,2.46-2.14,2.6Z"/>
      <path class="c" d="M89.66,27.55c.69-.92-.06-2.97-.83-3.75-.92-.94-2.27-1.28-3.75-1.14-1.98.19-3.41,1.62-3.7,3.26-.34,1.93.17,3.93,1.94,4.87,1.98,1.05,4.44.72,5.96-.64-.29-.64-.67-1.03-1.12-1.16-.4-.11-.79.25-1.39.39-1.49.36-3.11-.11-3.24-1.53,1.98-.4,4.18.32,6.13-.31ZM83.46,25.76s.91-1.59,2.22-1.59,2.27,1.59,2.27,1.59h-4.49Z"/>
      <path class="c" d="M110.49,23.8c-.91-.93-2.25-1.26-3.73-1.13-1.99.18-3.43,1.6-3.72,3.26-.34,1.93.15,3.94,1.95,4.88,1.79.92,4.19.85,5.74-.54.39-.35-.42-1-.67-1.18-.64-.45-3.76,1.86-4.97-1.17l6.23-.37c.68-.91-.07-2.96-.84-3.75ZM105.12,25.76s.91-1.59,2.22-1.59,2.27,1.59,2.27,1.59h-4.49Z"/>
      <path class="c" d="M114.03,33.99h-2.98s-5.13,12.65-5.13,12.65l3-.08,1.61-3.23,4.08.19,1.5,3.02,2.97-.03-5.07-12.52ZM111.32,40.36l1.18-2.54,1.21,2.54h-2.39Z"/>
    </g>
  </g>
</svg>