<?xml version="1.0" encoding="UTF-8"?>
<svg id="a" data-name="Layer 1" xmlns="http://www.w3.org/2000/svg" viewBox="0 0 80 40">
  <defs>
    <style>
      .b {
        fill-rule: evenodd;
      }
    </style>
  </defs>
  <path class="b" d="M43.78,19.59s-.76-.47-1.23-.65c0,0-1.46-.68-1.75-1,0,0-.57-.54-.24-1.16,0,0,.14-.41.74-.41,0,0,.78.04.78.69v.91h2.8v-1.33s.21-2.19-3.3-2.28c0,0-2.76-.18-3.56,1.31,0,0-.31.33-.31,1.49v.84s-.03.96.46,1.58c0,0,.28.41.96.86,0,0,1.39.75,2.23,1.18,0,0,.84.48.73,1.25,0,0-.07.79-.88.75,0,0-.75-.03-.75-.81v-.91h-2.98v1.32s-.08,2.52,3.75,2.52c0,0,3.66.07,3.83-2.58v-1.07s.13-1.63-1.29-2.48h0Z"/>
  <polygon class="b" points="29.45 14.67 28.51 20.54 28.29 20.54 27.39 14.72 22.72 14.72 22.48 25.36 25.25 25.36 25.29 17.34 25.5 17.34 26.97 25.36 29.89 25.36 31.34 17.35 31.53 17.35 31.6 25.36 34.38 25.36 34.08 14.67 29.45 14.67 29.45 14.67"/>
  <polygon class="b" points="12.96 14.71 11.12 25.35 14.1 25.35 15.19 17.1 15.44 17.1 16.53 25.35 19.51 25.35 17.67 14.71 12.96 14.71 12.96 14.71"/>
  <path class="b" d="M75.52,19.45v1.57h.76v1.68c0,.82-.7.84-.7.84-.86,0-.82-.78-.82-.78v-5.83c0-.6.76-.63.76-.63.73,0,.73.72.73.72v.89h2.81c.09-1.73-.25-2.15-.25-2.15-.7-1.56-3.33-1.48-3.33-1.48-4.05,0-3.6,3.11-3.6,3.11v5.63c.09,2.91,4.08,2.62,4.14,2.61,1.77-.2,2.31-.76,2.31-.76.49-.37.62-.87.62-.87.14-.3.18-1.24.18-1.24v-3.31h-3.61Z"/>
  <polygon class="b" points="66.22 21.18 66.1 21.18 63.25 14.67 59.84 14.67 59.84 25.36 62.61 25.36 62.45 18.86 62.57 18.86 65.52 25.36 68.83 25.36 68.83 14.67 66.02 14.67 66.22 21.18 66.22 21.18"/>
  <path class="b" d="M53.07,22.7s.04.88-.77.88c0,0-.86.05-.86-.86v-8.04h-3.05v7.98s-.31,3.02,3.95,3.02c0,0,3.7.04,3.7-2.88v-8.12h-2.97v8.02h0Z"/>
  <path class="b" d="M7.16,19.59s-.76-.47-1.23-.65c0,0-1.46-.67-1.75-1,0,0-.57-.54-.24-1.16,0,0,.14-.41.74-.41,0,0,.78.04.78.68v.91h2.8v-1.33s.21-2.19-3.3-2.28c0,0-.26-.02-.65,0,0,0-2.13.11-2.89,1.28,0,0-.01.02-.01.02,0,0-.31.33-.31,1.49v.84s-.03.96.46,1.58c0,0,.28.41.96.86,0,0,1.39.75,2.23,1.18,0,0,.84.48.73,1.25,0,0-.07.79-.88.75,0,0-.74-.03-.74-.81v-.91H.87v1.32s-.08,2.52,3.75,2.52c0,0,3.66.07,3.83-2.58v-1.07s.13-1.63-1.3-2.48h0Z"/>
</svg>