<?xml version="1.0" encoding="UTF-8"?>
<svg id="a" data-name="Layer 1" xmlns="http://www.w3.org/2000/svg" viewBox="0 0 80 40">
  <defs>
    <style>
      .c {
        fill: #0055b8;
      }
    </style>
  </defs>
  <g id="b" data-name="AzQK0M">
    <g>
      <path class="c" d="M41.96,28.13c-1.04.88-2.49,1.26-3.84,1.56-.83.18-1.69.02-2.55.07-.23-.18-.47-.25-.74-.29-1.75-.26-3.21-1.15-4.31-2.52h-7.6c-.11-.21-.04-.48.14-.71l2.3-13.76h3.61s-1.92,11.31-1.92,11.31l5.65.03c.46,1.47,1.63,2.51,3.16,2.8.81.15,1.63.17,2.44-.02,1.31-.24,2.36-1.29,2.39-2.65.01-.92-.68-1.58-1.49-1.84l-1.61-.51c-1.65-.52-3.32-.85-4.56-2.06-2.16-2.11-1.73-5.83.5-7.72,2.74-2.23,7.95-2.2,10.37.66h11.89c.18.27.02.62-.17.87l-.35,2.2-3.47.02-1.91,11.36h-3.5s1.9-11.37,1.9-11.37h-6.44c-.51-1.47-1.86-2.41-3.43-2.36-.84-.03-1.68.14-2.33.65-.73.62-1.17,1.56-.74,2.46.25.53.79.92,1.34,1.13,1.15.43,2.3.72,3.47,1.07,2.53.76,4.24,2.46,4.09,5.25-.09,1.73-.93,3.24-2.27,4.38Z"/>
      <path class="c" d="M76.13,20.93l1.67,6.1-3.61.02-1.47-5.61c-.8-.08-1.51-.05-2.34-.02l-.94,5.64-3.45-.04c-.39-.19.11-.66.15-.9l2.32-13.73,7.09.03c.35,0,.68.39,1.06.32,1.21.48,2,1.48,2.44,2.67.08.23.25.37.25.67l-.02,1.41c-.25.32-.32.69-.47,1.04-.5,1.13-1.32,1.99-2.68,2.39ZM75.61,17.25c.11-.46.06-.9-.19-1.27-.21-.31-.62-.51-1.08-.53-.98-.04-1.92-.02-2.96,0l-.47,3.01,3.2-.04c.77-.04,1.32-.38,1.5-1.17Z"/>
      <path class="c" d="M20.3,21.09h-5.08s-.44,2.73-.44,2.73h6.38s-.57,3.23-.57,3.23h-9.77c-.26-.32.06-.59.11-.92l2.33-13.74h9.56c.21.24.1.66-.12.89l-.43,2.27-6.1.02-.41,2.49,5.13.02-.57,3.02Z"/>
      <path class="c" d="M61,23.7l-4.16-.02-1.55,3.36-3.32.02c-.15-.35.1-.48.23-.76l6.67-13.9h3.72s2.51,13.63,2.51,13.63c.26.28.35.75.14,1.01h-3.66s-.59-3.34-.59-3.34ZM60.59,20.72l-.73-3.61-1.69,3.64c.91.02,1.57.08,2.42-.03Z"/>
      <path class="c" d="M5.85,27.03h-3.52s1.93-11.47,1.93-11.47l-3.48-.02c-.21-.4.13-.68.2-1.03l.4-2.14h10.35s-.5,3.16-.5,3.16l-3.43.02-1.93,11.46Z"/>
    </g>
  </g>
</svg>