<?xml version="1.0" encoding="UTF-8"?>
<svg id="a" data-name="Layer 1" xmlns="http://www.w3.org/2000/svg" viewBox="0 0 80 40">
  <defs>
    <style>
      .c {
        fill: #2596be;
      }
    </style>
  </defs>
  <g id="b" data-name="D1OSjm">
    <g>
      <path class="c" d="M.98,31.18v-14.16l5.01.03.02,1.77c.19-.17.3-.33.45-.5.72-.79,1.63-1.33,2.68-1.56,1.11-.24,2.25-.19,3.33.15,1.24.39,2.2,1.19,2.85,2.39.53-.93,1.26-1.62,2.2-2.08s1.88-.65,2.9-.6c1.4.03,2.75.44,3.53,1.66.72,1.14,1,2.51.98,3.86v9.02s-5,0-5,0v-7.56c0-.77-.14-1.48-.47-2.16-.4-.94-1.65-.97-2.48-.74-.5.14-.86.48-1.05.96-.33.72-.44,1.46-.45,2.26v7.24s-5.02,0-5.02,0v-7.52c0-.78-.14-1.49-.47-2.18-.39-.95-1.49-1.1-2.38-.92-.5.1-.89.41-1.11.86-.34.69-.49,1.41-.49,2.2v7.56s-5.03.03-5.03.03Z"/>
      <path class="c" d="M50.42,8.29v10.09c1.06-1.11,2.39-1.63,3.87-1.79,2.2-.1,4.07.52,5.56,2.16,1.36,1.5,2.05,3.38,2.04,5.4s-.72,3.86-2.07,5.32c-1.1,1.2-2.55,1.92-4.19,2.1-1.22.13-2.39,0-3.5-.52-.69-.33-1.23-.81-1.68-1.48l-.03,1.58h-5s-.02-22.86-.02-22.86h5.04ZM56.18,25.97c.91-1.41.62-3.55-.86-4.56-.95-.65-2.57-.65-3.56-.05-1.72,1.04-1.98,3.52-.76,4.93.39.44.86.75,1.44.89,1.37.33,2.91.07,3.74-1.21Z"/>
      <path class="c" d="M38,29.55c-.49.78-1.14,1.3-1.96,1.62-.94.37-1.92.49-2.92.43-1.77-.11-3.33-.88-4.51-2.17-1.35-1.48-2.06-3.35-2.05-5.36s.75-3.96,2.16-5.44c1.09-1.14,2.5-1.84,4.08-1.99,1.21-.12,2.39.03,3.5.53.66.29,1.21.69,1.7,1.25l.03-1.38h5.01s0,14.12,0,14.12h-5s-.04-1.6-.04-1.6ZM37.44,26.29c1.15-1.33.99-3.65-.49-4.79-.98-.76-2.71-.77-3.76-.11-1.48.94-1.85,3-1.02,4.43.43.74,1.11,1.24,1.95,1.4,1.19.23,2.49.03,3.32-.94Z"/>
      <path class="c" d="M73.95,26.81h4.82c-.33,1.48-1.16,2.76-2.48,3.55-2.17,1.29-4.76,1.56-7.2.98-1.14-.27-2.17-.74-3.1-1.44-1.17-.88-1.97-2.08-2.32-3.51s-.35-3.03,0-4.51c.64-2.67,2.85-4.55,5.49-5.09,1.49-.3,3.02-.28,4.5.07,2.3.54,4.01,2.11,4.8,4.31.4,1.11.58,2.55.51,3.75h-10.54c-.02,1.39.51,2.58,1.91,3.01,1.34.34,2.84.24,3.62-1.13ZM74.31,22.03c-.09-.46-.27-.8-.52-1.13-.98-1.16-2.59-1.34-3.92-.69-.71.36-1.22,1-1.36,1.83h5.8Z"/>
    </g>
  </g>
</svg>