<?xml version="1.0" encoding="UTF-8"?>
<svg id="a" data-name="Layer 1" xmlns="http://www.w3.org/2000/svg" viewBox="0 0 400 120">
  <defs>
    <style>
      .b {
        fill: #ffc100;
      }

      .c {
        fill: #e54a00;
      }

      .d {
        fill: #ed1c24;
      }

      .e {
        fill: #0054da;
      }

      .f {
        fill: #0009ba;
      }

      .g {
        fill: #fff;
      }

      .h {
        fill: #00a8f0;
      }

      .i {
        fill: #0a00ca;
      }
    </style>
  </defs>
  <rect class="f" x="-3.66" y="-1.1" width="407.31" height="122.2"/>
  <g>
    <rect class="d" x="126.29" y="21.98" width="40.33" height="12.47" rx="6.24" ry="6.24"/>
    <g>
      <g>
        <path class="c" d="M54.24,43.85c-1.23,0-2.44-.13-3.6-.39-1.39-.31-2.71-.79-3.94-1.42-1.23-.64-2.37-1.42-3.39-2.33-1.02-.92-1.92-1.96-2.68-3.09-.76-1.15-1.37-2.41-1.8-3.75-.44-1.35-.69-2.78-.74-4.26-.05-1.48.1-2.93.44-4.31.34-1.37.86-2.68,1.54-3.9.67-1.21,1.5-2.33,2.46-3.34.96-1,2.04-1.88,3.22-2.61,1.18-.72,2.46-1.31,3.82-1.74,1.36-.43,2.81-.68,4.3-.74.25-.01.51-.02.75-.02,1.41,0,2.78.17,4.08.51,1.51.39,2.96,1,4.3,1.79.4.22.73.52.96.9.38.62.36,1.4-.04,2.09-.01.02-.02.04-.03.05l-3.07,4.63s-.04.05-.06.08c-.28.36-.59.62-.93.78-.19.09-.4.13-.62.13-.33,0-.67-.1-1.04-.31-.02,0-.03-.02-.05-.03-.6-.38-1.25-.67-1.93-.86-.57-.17-1.19-.25-1.83-.25-.1,0-.21,0-.32,0-.95.04-1.82.25-2.58.62-.76.37-1.42.87-1.94,1.47-.53.6-.94,1.3-1.22,2.09-.28.78-.41,1.62-.38,2.49.03.87.21,1.7.55,2.44.34.76.79,1.42,1.36,1.96.57.55,1.25.98,2.04,1.29.7.27,1.47.41,2.3.41.11,0,.22,0,.32,0,.41-.02.83-.06,1.24-.14.15-.03.31-.06.47-.09l-.14-3.98c-.02-.57.15-1.1.5-1.51.24-.29.69-.64,1.44-.67l5.41-.22s.05,0,.07,0c.39,0,.78.12,1.18.37.57.36.91.95.93,1.63l.32,9.3c.02.47-.11,1.35-1.09,1.98-.66.47-1.4.89-2.2,1.24-.79.34-1.62.64-2.48.88-.85.24-1.73.42-2.6.56-.88.14-1.74.22-2.57.26-.25.01-.49.02-.74.02Z"/>
        <path class="c" d="M87.41,43.2c-.11,0-.22,0-.32-.02l-3.46-.38c-.38-.04-.7-.13-.98-.28,0,0,0,0,0,0-.31-.17-.56-.4-.76-.68,0,0,0,0,0,0-.12-.18-.22-.38-.3-.6-.47.27-.98.5-1.51.69-.57.2-1.19.35-1.82.44-.36.05-.73.08-1.11.08-.3,0-.6-.02-.9-.05-1.15-.13-2.26-.39-3.3-.79-1.04-.4-2.01-.92-2.88-1.54-.88-.63-1.68-1.36-2.37-2.19-.69-.83-1.28-1.74-1.75-2.71-.47-.98-.81-2.04-1.01-3.14-.2-1.1-.25-2.25-.15-3.42.16-1.76.65-3.38,1.46-4.82.8-1.42,1.83-2.65,3.07-3.63,1.23-.98,2.65-1.7,4.23-2.16,1.11-.32,2.28-.49,3.48-.49.49,0,.99.03,1.49.08.81.09,1.57.26,2.26.52.69.26,1.32.58,1.89.95.55.37,1.05.79,1.49,1.26.1-.19.19-.36.27-.51.17-.32.37-.56.59-.73.26-.21.56-.33.9-.37.09,0,.18-.01.28-.01.15,0,.31,0,.5.03l2.62.29c.2.02.41.07.65.14.35.11.66.31.91.59.28.27.48.59.59.94.12.34.16.72.12,1.11l-1.75,19.19c-.03.36-.13.71-.29,1.02,0,0,0,0,0,0-.19.36-.47.66-.81.85-.29.2-.61.32-.96.35-.12,0-.23.01-.34.01ZM77.2,25.77c-.42,0-.81.06-1.18.19-.51.17-.94.43-1.32.77-.38.35-.68.75-.91,1.24-.24.49-.37,1.01-.43,1.58-.05.59-.01,1.15.13,1.67.14.52.35.96.65,1.35.31.4.69.73,1.16,1,.47.27,1.02.44,1.63.51.19.02.39.03.57.03.43,0,.85-.06,1.25-.17.56-.16,1.07-.42,1.49-.75.42-.32.75-.71,1.01-1.19.26-.47.41-.97.46-1.54.05-.55,0-1.06-.17-1.58-.17-.54-.43-1.01-.79-1.45-.36-.44-.8-.8-1.32-1.1-.52-.29-1.1-.47-1.74-.54-.17-.02-.34-.03-.5-.03Z"/>
        <path class="c" d="M93.29,41.71c-.68,0-1.23-.21-1.61-.64-.39-.43-.6-1.01-.62-1.73l-.81-23.58c-.02-.62.14-1.2.46-1.66.47-.68,1.21-.85,1.75-.87l4-.16s.05,0,.07,0c.24,0,.49.05.74.16,0,0,0,0,0,0,.24.1.46.25.66.44.21.19.38.43.52.69.17.32.26.68.27,1.06l.81,23.58c.03.99-.37,1.58-.71,1.91-.43.4-.96.62-1.6.65l-3.79.16s-.1,0-.14,0Z"/>
        <path class="c" d="M106.08,42.84s-.07,0-.11,0l-4.75-.15c-.86-.03-1.51-.31-1.94-.85-.41-.51-.6-1.18-.58-2.01l.8-29.57c.02-.71.24-1.34.64-1.84.44-.55,1.08-.83,1.9-.83.04,0,.08,0,.12,0,0,0,5.02.16,5.02.16.29.01.59.09.88.24,0,0,0,0,0,0,.26.14.5.32.72.56.22.23.4.51.54.83.16.37.24.77.23,1.2l-.8,29.58c-.03,1.12-.52,1.75-.92,2.08-.48.4-1.07.6-1.75.6Z"/>
        <path class="c" d="M119.37,41.24c-.89,0-1.77-.09-2.62-.28-1.01-.22-1.98-.57-2.86-1.02-.89-.46-1.72-1.02-2.46-1.69-.74-.67-1.4-1.43-1.94-2.26-.55-.84-.99-1.76-1.31-2.75-.32-.99-.51-2.05-.54-3.14-.04-1.09.07-2.16.33-3.18.25-1.01.63-1.97,1.12-2.85.49-.87,1.08-1.68,1.78-2.41.69-.72,1.48-1.35,2.34-1.88.85-.52,1.79-.94,2.78-1.24.99-.31,2.05-.48,3.13-.53.18,0,.36-.01.54-.01,1.41,0,2.78.24,4.06.7,1.44.52,2.73,1.29,3.83,2.27,1.11.99,2.01,2.19,2.68,3.56.68,1.4,1.06,2.94,1.11,4.59.04,1.09-.07,2.16-.33,3.18-.25,1.01-.63,1.96-1.12,2.85-.49.88-1.09,1.69-1.78,2.42-.69.72-1.48,1.35-2.33,1.88-.85.53-1.78.95-2.77,1.25-.98.31-2.03.48-3.1.53-.18,0-.36.01-.54.01ZM119.52,25.82c-.06,0-.12,0-.18,0-.57.02-1.08.15-1.52.37-.44.22-.79.5-1.08.86-.3.36-.51.77-.67,1.24-.15.47-.22.96-.2,1.47.02.54.12,1.02.3,1.47.18.44.42.81.73,1.12.31.31.69.56,1.14.74.4.16.85.24,1.35.24.07,0,.14,0,.2,0,.55-.02,1.05-.14,1.47-.35.43-.21.77-.48,1.05-.82.28-.33.48-.72.62-1.17.15-.47.21-.98.19-1.51-.02-.53-.11-1.01-.3-1.47-.18-.45-.41-.84-.72-1.17-.3-.33-.66-.58-1.1-.76-.39-.16-.82-.25-1.3-.25Z"/>
      </g>
      <g>
        <path class="b" d="M52.35,42.28c-1.31,0-2.59-.13-3.82-.39-1.47-.31-2.88-.79-4.18-1.42-1.3-.64-2.51-1.42-3.6-2.33-1.09-.92-2.04-1.96-2.84-3.09-.81-1.15-1.45-2.41-1.91-3.75-.46-1.35-.73-2.78-.78-4.26-.05-1.48.1-2.93.47-4.31.36-1.37.91-2.68,1.63-3.9.72-1.21,1.59-2.33,2.61-3.34,1.01-1,2.17-1.88,3.42-2.61,1.25-.72,2.61-1.31,4.06-1.74,1.45-.43,2.99-.68,4.57-.74.27-.01.54-.02.8-.02,1.5,0,2.96.17,4.33.51,1.6.39,3.14,1,4.57,1.79.43.22.77.52,1.02.9.4.62.39,1.4-.05,2.09-.01.02-.02.04-.04.05l-3.26,4.63s-.04.05-.06.08c-.3.36-.63.62-.99.78-.2.09-.43.13-.66.13-.35,0-.71-.1-1.1-.31-.02,0-.03-.02-.05-.03-.64-.38-1.33-.67-2.05-.86-.61-.17-1.26-.25-1.94-.25-.11,0-.22,0-.34,0-1.01.04-1.93.25-2.74.62-.81.37-1.5.87-2.06,1.47-.56.6-.99,1.3-1.29,2.09-.3.78-.43,1.62-.4,2.49.03.87.23,1.7.58,2.44.36.76.84,1.42,1.44,1.96.6.55,1.33.98,2.16,1.29.74.27,1.56.41,2.44.41.11,0,.23,0,.34,0,.44-.02.88-.06,1.31-.14.16-.03.33-.06.5-.09l-.15-3.98c-.02-.57.16-1.1.53-1.51.26-.29.73-.64,1.53-.67l5.75-.22s.05,0,.08,0c.41,0,.83.12,1.25.37.6.36.96.95.99,1.63l.34,9.3c.02.47-.11,1.35-1.16,1.98-.7.47-1.49.89-2.34,1.24-.84.34-1.73.64-2.64.88-.9.24-1.83.42-2.76.56-.93.14-1.85.22-2.73.26-.26.01-.52.02-.78.02Z"/>
        <path class="b" d="M87.57,41.63c-.12,0-.23,0-.34-.02l-3.68-.38c-.41-.04-.75-.13-1.04-.28,0,0,0,0,0,0-.33-.17-.6-.4-.8-.68,0,0,0,0,0,0-.13-.18-.24-.38-.32-.6-.5.27-1.04.5-1.61.69-.61.2-1.26.35-1.93.44-.38.05-.78.08-1.17.08-.32,0-.64-.02-.96-.05-1.22-.13-2.4-.39-3.5-.79-1.1-.4-2.13-.92-3.06-1.54-.94-.63-1.78-1.36-2.52-2.19-.74-.83-1.36-1.74-1.86-2.71-.5-.98-.86-2.04-1.08-3.14-.22-1.1-.27-2.25-.16-3.42.17-1.76.69-3.38,1.55-4.82.85-1.42,1.94-2.65,3.26-3.63,1.31-.98,2.82-1.7,4.49-2.16,1.18-.32,2.43-.49,3.69-.49.52,0,1.05.03,1.58.08.86.09,1.67.26,2.4.52.73.26,1.41.58,2,.95.58.37,1.11.79,1.58,1.26.11-.19.21-.36.29-.51.18-.32.39-.56.63-.73.28-.21.6-.33.95-.37.09,0,.19-.01.29-.01.15,0,.33,0,.53.03l2.78.29c.21.02.43.07.69.14.38.11.7.31.97.59.29.27.51.59.63.94.12.34.17.72.13,1.11l-1.85,19.19c-.04.36-.14.71-.31,1.02,0,0,0,0,0,0-.2.36-.5.66-.86.85-.31.2-.65.32-1.02.35-.13,0-.25.01-.36.01ZM76.73,24.2c-.44,0-.86.06-1.25.19-.54.17-1,.43-1.4.77-.4.35-.72.75-.96,1.24-.25.49-.4,1.01-.45,1.58-.06.59-.01,1.15.14,1.67.15.52.37.96.69,1.35.33.4.73.73,1.23,1,.5.27,1.08.44,1.73.51.21.02.41.03.61.03.46,0,.91-.06,1.33-.17.6-.16,1.13-.42,1.59-.75.44-.32.79-.71,1.07-1.19.27-.47.43-.97.49-1.54.05-.55,0-1.06-.19-1.58-.18-.54-.46-1.01-.83-1.45-.38-.44-.85-.8-1.4-1.1-.55-.29-1.17-.47-1.85-.54-.18-.02-.36-.03-.53-.03Z"/>
        <path class="b" d="M93.82,40.13c-.73,0-1.3-.21-1.71-.64-.41-.43-.64-1.01-.66-1.73l-.86-23.58c-.02-.62.15-1.2.49-1.66.5-.68,1.29-.85,1.86-.87l4.25-.16s.05,0,.07,0c.26,0,.52.05.78.16,0,0,0,0,0,0,.25.1.49.25.7.44.22.19.4.43.55.69.18.32.28.68.29,1.06l.86,23.58c.04.99-.39,1.58-.76,1.91-.45.4-1.02.62-1.7.65l-4.02.16c-.05,0-.1,0-.15,0Z"/>
        <path class="b" d="M107.4,41.27s-.08,0-.12,0l-5.04-.15c-.91-.03-1.6-.31-2.06-.85-.43-.51-.64-1.18-.61-2.01l.85-29.57c.02-.71.25-1.34.68-1.84.46-.55,1.14-.83,2.02-.83.04,0,.09,0,.13,0,0,0,5.33.16,5.33.16.31.01.62.09.93.24,0,0,0,0,0,0,.28.14.54.32.76.56.23.23.42.51.57.83.17.37.26.77.25,1.2l-.85,29.58c-.03,1.12-.55,1.75-.98,2.08-.51.4-1.14.6-1.86.6Z"/>
        <path class="b" d="M121.52,39.67c-.95,0-1.88-.09-2.78-.28-1.08-.22-2.1-.57-3.04-1.02-.95-.46-1.82-1.02-2.61-1.69-.79-.67-1.48-1.43-2.06-2.26-.58-.84-1.05-1.76-1.39-2.75-.34-.99-.54-2.05-.58-3.14-.04-1.09.08-2.16.35-3.18.27-1.01.67-1.97,1.19-2.85.52-.87,1.15-1.68,1.89-2.41.74-.72,1.57-1.35,2.48-1.88.91-.52,1.9-.94,2.95-1.24,1.05-.31,2.17-.48,3.33-.53.19,0,.39-.01.58-.01,1.5,0,2.95.24,4.31.7,1.53.52,2.9,1.29,4.07,2.27,1.18.99,2.13,2.19,2.85,3.56.73,1.4,1.12,2.94,1.18,4.59.04,1.09-.08,2.16-.35,3.18-.27,1.01-.67,1.96-1.18,2.85-.52.88-1.15,1.69-1.89,2.42-.73.72-1.57,1.35-2.48,1.88-.91.53-1.89.95-2.94,1.25-1.05.31-2.15.48-3.3.53-.19,0-.39.01-.58.01ZM121.67,24.24c-.06,0-.13,0-.19,0-.61.02-1.15.15-1.61.37-.46.22-.84.5-1.15.86-.31.36-.55.77-.71,1.24-.16.47-.23.96-.22,1.47.02.54.12,1.02.32,1.47.19.44.45.81.78,1.12.33.31.74.56,1.21.74.42.16.9.24,1.43.24.07,0,.14,0,.22,0,.59-.02,1.12-.14,1.57-.35.45-.21.82-.48,1.11-.82.29-.33.51-.72.66-1.17.15-.47.22-.98.2-1.51-.02-.53-.12-1.01-.31-1.47-.19-.45-.44-.84-.77-1.17-.32-.33-.7-.58-1.17-.76-.41-.16-.87-.25-1.38-.25Z"/>
      </g>
      <g>
        <path class="g" d="M50.69,40.59c-1.31,0-2.6-.13-3.83-.38-1.48-.3-2.88-.77-4.18-1.38-1.3-.61-2.51-1.37-3.58-2.26-1.08-.88-2.03-1.89-2.82-2.98-.8-1.1-1.43-2.3-1.89-3.59-.46-1.28-.71-2.65-.77-4.06-.05-1.41.1-2.8.46-4.11.36-1.31.9-2.57,1.61-3.74.71-1.16,1.58-2.25,2.59-3.21,1.01-.97,2.15-1.82,3.41-2.52,1.25-.7,2.62-1.27,4.06-1.69,1.45-.42,2.99-.66,4.57-.72.27-.01.54-.02.81-.02,1.5,0,2.96.17,4.33.49,1.61.38,3.15.97,4.59,1.75.3.15.54.35.72.6.15.22.26.59-.06,1.09,0,0,0,0,0,.01l-3.42,4.73s-.01.01-.02.02c-.22.25-.45.43-.68.53-.1.04-.21.06-.32.06-.21,0-.45-.07-.73-.21,0,0,0,0-.01,0-.74-.43-1.55-.75-2.38-.98-.72-.19-1.49-.29-2.28-.29-.13,0-.26,0-.39,0-1.18.04-2.27.29-3.23.72-.96.43-1.79,1.01-2.47,1.71-.67.7-1.2,1.52-1.56,2.44-.36.92-.52,1.9-.49,2.93.04,1.02.28,1.99.7,2.87.43.88,1.01,1.66,1.74,2.3.73.64,1.6,1.15,2.59,1.5.88.31,1.85.47,2.88.47.13,0,.26,0,.4,0,.5-.02,1.01-.07,1.5-.15.42-.07.88-.16,1.35-.26l-.18-4.87c-.01-.33.09-.62.3-.85.22-.23.53-.36.95-.37l6.04-.23s.03,0,.05,0c.27,0,.55.08.84.25.45.26.55.62.56.88l.36,9.49c.02.59-.4.96-.76,1.17-.69.45-1.47.85-2.32,1.19-.84.34-1.74.62-2.65.86-.92.23-1.86.42-2.8.55-.95.13-1.88.22-2.77.25-.26,0-.53.01-.78.01Z"/>
        <path class="g" d="M87.72,39.93c-.09,0-.18,0-.26-.01l-3.87-.39c-.31-.03-.57-.09-.77-.19-.21-.1-.38-.24-.5-.41-.11-.16-.2-.34-.27-.54-.06-.18-.11-.37-.17-.58,0,0,0-.01,0-.02l-.08-.35c-.29.19-.61.37-.94.55-.5.26-1.04.49-1.62.68-.59.19-1.21.33-1.86.41-.36.05-.74.07-1.11.07-.3,0-.61-.02-.92-.05-1.21-.12-2.38-.38-3.46-.76-1.08-.38-2.1-.88-3.02-1.47-.92-.6-1.75-1.3-2.47-2.08-.72-.78-1.33-1.65-1.81-2.57-.48-.92-.83-1.91-1.04-2.95-.21-1.03-.26-2.11-.15-3.2.16-1.65.67-3.17,1.49-4.52.82-1.35,1.89-2.5,3.17-3.43,1.28-.93,2.76-1.62,4.41-2.06,1.17-.31,2.39-.47,3.64-.47.51,0,1.04.03,1.57.08.83.08,1.61.25,2.31.48.7.24,1.35.54,1.92.88.57.35,1.09.75,1.54,1.21.31.31.59.64.84.97l.49-1.04s0-.01.01-.02c.15-.27.29-.49.4-.68.13-.21.26-.36.4-.47.15-.11.33-.18.54-.2.06,0,.13,0,.21,0,.13,0,.28,0,.46.03l2.92.29c.16.02.35.05.56.11.24.07.45.19.62.37.2.18.35.38.43.59.08.21.11.45.08.71l-1.95,19.58c-.02.24-.1.47-.21.68-.13.22-.31.39-.55.51-.2.14-.42.21-.67.23-.11,0-.21.01-.31.01ZM76.32,22.15c-.56,0-1.1.08-1.59.23-.68.21-1.29.54-1.81.97-.51.43-.93.96-1.25,1.56-.32.6-.51,1.26-.58,1.96-.07.72-.01,1.41.18,2.06.19.65.5,1.23.92,1.73.42.5.95.92,1.58,1.26.63.33,1.36.54,2.17.62.25.02.49.04.73.04.57,0,1.12-.07,1.64-.21.74-.2,1.4-.5,1.98-.91.57-.4,1.03-.91,1.39-1.5.35-.59.57-1.25.64-1.96.07-.69-.01-1.37-.24-2.03-.23-.66-.59-1.26-1.07-1.79-.48-.53-1.07-.98-1.75-1.33-.68-.35-1.45-.57-2.29-.65-.22-.02-.44-.03-.65-.03Z"/>
        <path class="g" d="M94.28,38.41c-.5,0-.88-.12-1.13-.37-.26-.26-.4-.64-.42-1.13l-.91-24.07c-.02-.42.09-.78.32-1.09.24-.32.66-.5,1.23-.52l4.46-.17s.03,0,.04,0c.15,0,.31.03.47.1.17.07.33.17.47.29.15.13.27.28.37.46.11.19.17.41.18.64l.91,24.07c.02.51-.14.91-.47,1.19-.31.27-.71.41-1.2.43l-4.23.16s-.08,0-.12,0Z"/>
        <path class="g" d="M108.57,39.56s-.06,0-.1,0l-5.3-.16c-.68-.02-1.18-.2-1.47-.54-.29-.33-.43-.8-.41-1.39l.9-30.18c.01-.5.17-.93.48-1.28.3-.34.77-.52,1.41-.52.04,0,.07,0,.11,0l5.6.17c.2,0,.4.06.6.16.2.09.38.22.55.39.17.16.3.36.41.58.12.24.17.5.16.78l-.9,30.18c-.02.61-.24,1.08-.65,1.39-.37.28-.84.42-1.38.42Z"/>
        <path class="g" d="M123.41,37.93c-.93,0-1.85-.09-2.73-.27-1.06-.21-2.06-.54-2.98-.97-.92-.43-1.78-.97-2.54-1.59-.77-.63-1.44-1.34-2-2.13-.56-.78-1.01-1.65-1.34-2.57-.33-.92-.51-1.91-.55-2.92-.04-1.02.07-2.01.33-2.96.26-.95.64-1.84,1.14-2.66.5-.82,1.11-1.58,1.83-2.26.71-.68,1.53-1.28,2.42-1.77.89-.49,1.86-.89,2.9-1.18,1.04-.29,2.14-.46,3.28-.5.19,0,.38-.01.57-.01,1.47,0,2.9.22,4.23.66,1.5.5,2.84,1.22,3.98,2.15,1.14.93,2.07,2.06,2.76,3.35.69,1.3,1.08,2.73,1.13,4.27.04,1.02-.07,2.01-.33,2.96-.26.94-.64,1.84-1.14,2.66-.5.82-1.12,1.59-1.83,2.27-.71.68-1.53,1.28-2.42,1.78-.89.5-1.86.9-2.88,1.19-1.03.29-2.12.46-3.24.5-.19,0-.38.01-.57.01ZM123.57,22.19c-.08,0-.16,0-.24,0-.77.03-1.46.19-2.06.46-.6.28-1.11.65-1.51,1.11-.41.46-.72.99-.93,1.58-.21.59-.31,1.22-.28,1.86.03.67.17,1.29.42,1.86.25.57.6,1.06,1.04,1.46.44.4.97.72,1.59.94.55.2,1.16.3,1.83.3.09,0,.18,0,.26,0,.74-.03,1.42-.18,2.01-.45.59-.27,1.08-.62,1.48-1.06.39-.43.7-.95.89-1.53.2-.59.29-1.22.26-1.89-.02-.65-.16-1.26-.4-1.84-.24-.57-.58-1.08-1.01-1.5-.43-.42-.95-.76-1.56-.99-.54-.21-1.14-.31-1.79-.31Z"/>
      </g>
    </g>
    <g>
      <g>
        <path class="e" d="M19.52,41.41c-.45.11-.9.07-1.31-.11-.57-.25-1-.79-1.18-1.46l-4.59-17.05c-.16-.61-.1-1.23.19-1.74.19-.33.56-.77,1.25-.97l12.95-3.58s.06-.02.1-.02c.66-.15,1.17.03,1.48.21.51.29.88.8,1.05,1.42l.81,3.02c.14.54.1,1.09-.14,1.61-.25.56-.73.96-1.33,1.13l-1.17.32c.16.01.31.05.46.1.64.22,1.12.75,1.31,1.48l.71,2.64c.14.53.08,1.1-.17,1.6-.15.29-.41.65-.89.88l1.84-.51s.07-.02.1-.03c1.15-.27,2.18.39,2.5,1.61l.83,3.07c.1.37.1.75,0,1.1-.11.66-.53,1.35-1.5,1.62l-13.2,3.65s-.06.02-.1.02Z"/>
        <path class="e" d="M35.61,36.96c-.69.16-1.3.07-1.82-.27-.36-.24-.85-.72-1.09-1.63l-4.92-18.25c-.17-.64-.14-1.27.1-1.84.19-.46.62-1.06,1.59-1.33l3.2-.88s.05-.01.08-.02c.26-.06.53-.07.81-.02.27.05.54.14.79.28.26.15.5.34.7.57.27.3.46.66.57,1.06l4.92,18.25c.22.8.1,1.57-.31,2.18-.34.49-.84.84-1.45,1.01l-3.03.84s-.09.02-.14.04Z"/>
      </g>
      <g>
        <path class="i" d="M15.3,40.53c-.25.06-.48.04-.68-.04-.18-.07-.41-.25-.52-.64l-4.72-17.39c-.08-.29-.05-.56.09-.79.13-.22.35-.38.65-.46l13.89-3.81s.04-.01.06-.01c.28-.07.53-.04.75.08.24.13.41.36.49.65l.84,3.08c.07.24.04.5-.09.75-.09.18-.28.43-.69.54l-8.68,2.38.62,2.28,6.61-1.82s.04-.01.06-.02c.23-.05.44-.05.63.01.27.08.47.3.55.62l.73,2.69c.04.16.06.4-.1.69-.13.24-.34.4-.65.48l-6.63,1.82.65,2.38,9.02-2.48s.04-.01.07-.02c.6-.14,1.06.13,1.21.71l.85,3.13c.03.12.05.28-.04.47-.02.25-.15.63-.77.8l-14.15,3.89s-.04.01-.06.02Z"/>
        <path class="i" d="M32.56,35.79c-.42.1-.77.06-1.04-.11-.28-.18-.49-.48-.6-.9l-5.05-18.61c-.1-.36-.08-.71.06-1.02.15-.34.47-.58.95-.71l3.43-.94s.02,0,.04,0c.13-.03.28-.04.44-.01.16.02.31.08.47.16.15.08.29.19.42.32.14.15.24.33.3.54l5.05,18.61c.15.55,0,.94-.17,1.16-.21.29-.52.49-.92.61l-3.25.89s-.07.02-.1.03Z"/>
      </g>
      <g>
        <path class="h" d="M14.67,40.1c-.25.06-.48.05-.68-.04-.18-.07-.42-.24-.52-.64l-4.73-17.39c-.08-.29-.05-.56.09-.79.13-.23.35-.38.65-.46l14.04-3.85s.04-.01.06-.02c.28-.07.54-.04.76.08.24.13.41.36.49.65l.84,3.08c.07.24.04.5-.09.75-.09.18-.28.43-.7.54l-8.78,2.41.62,2.28,6.68-1.83s.04-.01.06-.02c.23-.05.44-.05.63,0,.27.08.47.3.56.62l.73,2.69c.04.16.06.4-.1.69-.13.24-.35.4-.65.48l-6.7,1.84.65,2.38,9.12-2.5s.04-.01.07-.02c.61-.14,1.07.12,1.23.71l.85,3.13c.03.12.05.28-.04.47-.02.25-.16.63-.78.8l-14.31,3.92s-.04.01-.06.02Z"/>
        <path class="h" d="M32.12,35.32c-.43.1-.78.07-1.05-.1-.29-.18-.49-.48-.61-.9l-5.06-18.61c-.1-.36-.08-.71.07-1.02.15-.34.48-.58.96-.71l3.47-.95s.03,0,.04,0c.14-.03.28-.04.44-.01.16.02.32.08.47.15.15.08.29.19.42.32.14.15.24.33.3.54l5.06,18.61c.15.55-.01.94-.17,1.16-.21.29-.53.5-.94.61l-3.28.9s-.07.02-.11.03Z"/>
      </g>
      <g>
        <path class="g" d="M13.01,39.42c-.26.06-.49.05-.7-.03-.18-.07-.43-.24-.53-.64l-4.74-17.39c-.08-.29-.04-.56.1-.79.14-.23.37-.38.68-.47l14.47-3.95s.04-.01.06-.02c.29-.07.56-.04.78.07.25.13.42.35.5.65l.84,3.08c.07.24.03.5-.1.75-.09.18-.3.43-.72.54l-9.05,2.47.62,2.28,6.89-1.88s.04-.01.06-.02c.23-.05.45-.05.65,0,.28.08.48.3.57.61l.73,2.69c.04.16.06.4-.11.7-.13.24-.36.4-.68.49l-6.9,1.88.65,2.38,9.4-2.56s.05-.01.07-.02c.63-.15,1.1.12,1.26.7l.85,3.13c.03.12.05.28-.04.47-.02.25-.17.63-.81.81l-14.75,4.02s-.04.01-.06.02Z"/>
        <path class="g" d="M30.99,34.51c-.44.1-.81.07-1.08-.1-.29-.18-.5-.48-.62-.9l-5.08-18.61c-.1-.36-.07-.71.07-1.02.16-.34.49-.58,1-.72l3.57-.98s.03,0,.04,0c.14-.03.29-.04.45-.02.16.02.33.07.48.15.16.08.3.19.43.32.14.15.25.33.3.54l5.08,18.61c.15.55-.02.94-.19,1.16-.22.29-.55.5-.97.62l-3.38.92s-.07.02-.11.03Z"/>
      </g>
    </g>
    <g>
      <path class="g" d="M138.18,24.33c0-.07.02-.13.06-.18.04-.04.1-.07.17-.07h3.35c.24,0,.47.03.68.1.21.07.41.16.59.28.18.12.34.26.48.42.14.16.26.34.36.53s.18.39.23.59c.05.21.08.42.08.63,0,.31-.06.62-.17.92-.11.3-.28.57-.48.8-.21.23-.46.42-.75.57-.29.15-.62.22-.97.22h-1.59v2.49c0,.15-.08.23-.24.23h-1.56c-.07,0-.13-.02-.17-.06s-.06-.09-.06-.17v-7.32ZM142.13,26.62c0-.1-.02-.21-.05-.31-.04-.1-.09-.2-.16-.28s-.15-.15-.25-.2c-.1-.05-.21-.08-.34-.08h-1.11v1.75h1.11c.13,0,.24-.02.34-.08.1-.05.19-.12.25-.2.07-.08.12-.17.16-.28.04-.1.05-.21.05-.32Z"/>
      <path class="g" d="M144.61,24.31c0-.06.02-.12.06-.16s.1-.07.17-.07h1.55c.06,0,.11.02.16.06s.08.1.08.17v5.7h2.88c.06,0,.12.02.16.06s.07.1.07.17v1.38c0,.06-.02.11-.06.16s-.1.08-.17.08h-4.68c-.15,0-.23-.08-.23-.23v-7.33Z"/>
      <path class="g" d="M152.45,28.77c0,.26.04.48.11.66.07.18.17.33.28.44s.25.2.41.25c.16.05.32.08.49.08s.34-.03.5-.09c.16-.06.29-.15.41-.27s.21-.27.28-.45c.07-.18.1-.38.1-.61v-4.45c0-.06.02-.12.07-.16.04-.05.1-.07.18-.07h1.53c.08,0,.14.02.19.07s.07.1.07.16v4.42c0,.61-.09,1.12-.27,1.54-.18.42-.42.75-.73,1-.3.25-.66.43-1.06.54-.4.11-.82.17-1.26.17s-.86-.06-1.26-.17-.75-.3-1.06-.56c-.3-.26-.55-.59-.73-1.01-.18-.41-.27-.92-.27-1.52v-4.42c0-.06.02-.11.06-.16s.09-.07.15-.07h1.57c.05,0,.11.02.16.07.06.04.09.1.09.17v4.45Z"/>
      <path class="g" d="M159.03,29.35c.06.05.14.11.23.2.09.08.2.16.32.24.18.12.35.21.53.28.17.07.36.1.55.1.18,0,.33-.02.45-.06s.22-.09.29-.16.12-.14.15-.23.04-.18.04-.28c0-.11-.04-.21-.12-.29s-.18-.16-.3-.23-.24-.12-.37-.17c-.13-.05-.24-.09-.34-.12-.42-.15-.79-.3-1.1-.47s-.58-.36-.79-.57c-.21-.21-.37-.44-.47-.69s-.16-.53-.16-.84c0-.32.07-.62.2-.88.13-.27.32-.49.56-.68.24-.19.54-.33.88-.44.34-.1.72-.15,1.15-.15.32,0,.62.04.91.11.29.07.58.19.86.34.12.07.23.14.34.22s.2.15.28.22c.08.07.14.14.19.2.05.06.07.12.07.16s-.01.09-.03.13c-.02.04-.06.08-.1.13l-.8.85c-.06.06-.12.09-.18.09-.05,0-.09-.01-.13-.04-.04-.03-.08-.06-.13-.1l-.05-.04c-.07-.06-.15-.12-.23-.18s-.18-.12-.27-.17c-.1-.05-.2-.09-.31-.13-.11-.03-.22-.05-.33-.05s-.22,0-.32.03c-.1.02-.19.05-.27.09-.08.04-.14.1-.18.17-.05.07-.07.15-.07.25s.02.18.07.25c.05.07.12.14.22.2.1.06.22.12.36.17s.31.11.51.18c.37.12.71.25,1.02.39.31.13.58.29.81.48.23.18.4.4.53.66.13.26.19.56.19.93,0,.38-.08.73-.24,1.05-.16.31-.37.58-.65.8s-.6.39-.97.51c-.37.12-.77.18-1.19.18-.4,0-.8-.07-1.18-.22s-.75-.34-1.08-.58c-.14-.1-.26-.2-.35-.3s-.17-.18-.23-.24l-.02-.02s0-.01-.01-.01c0,0,0,0-.01,0,0,0,0-.01-.01-.01,0,0,0,0-.01,0-.08-.09-.12-.16-.12-.21,0-.06.04-.13.12-.2l.91-.86c.07-.05.13-.08.18-.08.03,0,.06.01.1.03.03.02.08.05.13.09Z"/>
    </g>
  </g>
</svg>