<?xml version="1.0" encoding="UTF-8"?>
<svg id="a" data-name="Layer 1" xmlns="http://www.w3.org/2000/svg" viewBox="0 0 48 36">
  <defs>
    <style>
      .b {
        fill: #01a616;
      }

      .c {
        fill: #ffdb00;
      }

      .d {
        fill: #fff;
      }

      .e {
        fill: #0132bf;
      }
    </style>
  </defs>
  <rect class="b" x="0" y="0" width="48.01" height="36"/>
  <polygon class="c" points="46.48 18 24 32.35 1.52 18 24 3.65 46.48 18"/>
  <path class="d" d="M14.35,15.79h0s0,0,0,0Z"/>
  <path class="e" d="M14.91,15.67c-.19.75-.29,1.53-.29,2.33,0,5.18,4.2,9.38,9.38,9.38,4.2,0,7.76-2.77,8.95-6.58-1.01-.94-4.03-3.44-8.63-4.72-4.28-1.15-8.05-.68-9.41-.42h0ZM24.67,14.81c-4.28-1.21-8.05-.78-9.26-.59,1.45-3.3,4.75-5.61,8.59-5.61,5.18,0,9.38,4.2,9.38,9.38,0,.46-.03.91-.1,1.35-1.3-1.12-3.96-3.21-8.62-4.53Z"/>
  <path class="d" d="M24.67,14.81c-4.28-1.21-8.05-.78-9.26-.59-.2.46-.37.94-.5,1.44,1.37-.26,5.13-.74,9.41.42,4.6,1.28,7.62,3.78,8.63,4.72.15-.47.26-.96.33-1.46-1.3-1.12-3.96-3.21-8.62-4.53Z"/>
  <path class="b" d="M15.93,14.36c.06,0,.13,0,.18.02.06.02.11.05.15.09.04.04.08.09.11.15.03.06.04.12.05.19,0,.07,0,.13-.02.19-.02.06-.04.1-.08.14-.04.04-.08.07-.13.1-.05.03-.11.04-.17.05-.06,0-.12,0-.18,0-.05-.01-.1-.03-.15-.06-.04-.03-.08-.07-.11-.12-.03-.05-.05-.11-.06-.18,0-.07,0-.14,0-.2.01-.06.04-.12.07-.18.03-.05.08-.09.13-.13.05-.03.11-.05.17-.06h0ZM32.85,19.23c-.03-.05-.07-.1-.12-.14-.05-.04-.11-.07-.16-.08-.06-.01-.12-.01-.17,0-.06.01-.11.04-.16.07-.05.04-.1.09-.14.15-.04.06-.07.12-.09.18-.02.06-.02.12-.02.18,0,.06.02.12.05.17s.07.1.12.14c.05.04.1.07.16.08.06.01.11.01.17,0,.06-.01.11-.03.16-.07.05-.03.1-.08.15-.14.04-.06.08-.12.1-.18.02-.06.03-.13.02-.19,0-.06-.02-.12-.05-.18h0ZM32.72,19.54h0s-.04.08-.07.13c-.03.04-.06.08-.1.1-.03.02-.07.04-.11.05-.04,0-.07,0-.11,0-.03,0-.07-.02-.1-.05-.03-.02-.05-.05-.07-.08-.02-.03-.03-.07-.03-.11,0-.04,0-.08.02-.12.01-.04.04-.08.07-.13.03-.04.06-.08.1-.1.03-.03.07-.04.11-.05.04,0,.07,0,.11,0,.03,0,.07.02.1.05.03.02.05.05.07.09.02.03.03.07.03.11,0,.04,0,.08-.02.12h0ZM31.87,18.45s-.06-.07-.11-.11c-.04-.03-.08-.05-.13-.06-.04-.01-.08-.01-.12-.01-.04,0-.07.02-.11.04-.03.02-.06.05-.08.08-.02.03-.03.06-.04.09,0,.03,0,.06,0,.09,0,.03.02.07.05.1.02.04.05.07.09.11.03.03.06.07.08.09.02.03.04.05.05.07,0,.02.01.04.01.06,0,.02,0,.03-.02.05-.01.02-.02.03-.04.04-.02,0-.03.01-.05,0-.02,0-.04,0-.06-.01-.02,0-.04-.02-.07-.04-.02-.02-.04-.04-.06-.06-.02-.02-.03-.04-.04-.07,0-.03,0-.05,0-.08,0-.03.01-.06.03-.09-.05-.04-.08-.06-.14-.1-.03.04-.05.09-.06.14,0,.05-.01.09,0,.14,0,.05.03.09.06.13.03.04.07.08.12.12.04.03.08.05.13.06.04.01.08.02.12.01.04,0,.08-.02.11-.04.03-.02.06-.05.09-.08.02-.03.04-.06.04-.09s0-.06,0-.09c0-.03-.01-.06-.02-.08-.01-.03-.03-.05-.04-.08-.02-.02-.04-.05-.06-.07-.02-.02-.04-.05-.06-.07-.02-.02-.04-.05-.06-.06-.01-.02-.02-.04-.03-.05,0-.02-.01-.03,0-.04,0-.01,0-.02.01-.04.02-.03.05-.04.08-.04.04,0,.08.02.12.05.1.07.12.15.07.25.05.04.08.06.14.1.03-.04.05-.09.05-.13,0-.05,0-.09,0-.13-.01-.04-.03-.08-.06-.12h0ZM30.92,17.81s-.07-.07-.11-.1c-.04-.03-.09-.05-.13-.06-.04,0-.08-.01-.12,0-.04,0-.07.02-.1.04-.03.02-.06.05-.08.08-.02.03-.03.06-.03.09s0,.06,0,.09c0,.03.03.06.05.1.02.03.06.07.09.11.03.03.06.06.08.09.02.02.04.05.05.07.01.02.02.04.02.05s0,.03-.02.05c-.01.02-.02.03-.04.04-.02,0-.03.01-.05.01-.02,0-.04,0-.06-.01s-.04-.02-.07-.03c-.02-.02-.05-.03-.06-.06-.02-.02-.03-.04-.04-.07,0-.02-.01-.05-.01-.08,0-.03,0-.06.02-.09-.06-.04-.08-.05-.14-.09-.03.04-.04.09-.05.14,0,.05,0,.09,0,.14.01.04.03.09.06.13.03.04.08.08.13.12.04.03.08.05.13.06.04.01.09.01.13,0,.04,0,.08-.02.11-.04.03-.02.06-.05.09-.09.02-.03.03-.06.04-.09,0-.03,0-.06,0-.09,0-.03-.01-.05-.03-.08-.01-.03-.03-.05-.05-.07-.02-.02-.04-.05-.06-.07-.02-.02-.04-.04-.06-.06-.02-.02-.04-.04-.06-.06-.01-.02-.03-.03-.03-.05,0-.01-.01-.03-.01-.04,0-.01,0-.02,0-.04.02-.03.04-.04.08-.04.04,0,.08.01.13.04.1.06.12.14.08.24.06.04.08.05.14.09.03-.04.04-.09.05-.13,0-.04,0-.09,0-.13-.01-.04-.03-.08-.06-.12h0ZM29.99,17.44c.03-.06.05-.08.08-.14-.24-.14-.36-.21-.61-.34-.18.33-.27.48-.45.8.24.14.36.21.6.35.03-.06.05-.08.08-.14-.18-.11-.27-.16-.46-.27.05-.08.07-.13.12-.21.17.09.25.14.42.24.03-.05.05-.08.08-.14-.17-.1-.25-.15-.42-.24.04-.07.06-.11.1-.18.18.1.27.15.45.26h0ZM28.98,16.77s-.02-.04-.03-.06c-.01-.02-.03-.03-.04-.04-.02-.01-.03-.02-.05-.04-.02-.01-.04-.02-.06-.03-.15-.08-.23-.11-.38-.18-.16.33-.25.48-.41.81.06.03.09.04.15.07.07-.13.1-.19.17-.32.07.03.1.05.16.08.02,0,.03.02.04.03.01.01.02.03.03.04,0,.02.01.03.01.05,0,.02,0,.03,0,.05-.02.1-.02.15-.04.26.06.03.1.05.16.09.02-.11.03-.17.04-.28,0-.07-.02-.16-.02-.17,0,0,.1,0,.14-.03.04-.02.08-.06.1-.11,0-.02.02-.03.02-.05,0-.02,0-.04.01-.06,0-.02,0-.04,0-.06,0-.02,0-.04-.01-.06h0ZM28.81,16.91h0s-.02.03-.04.05c-.01.01-.03.02-.05.02-.02,0-.04,0-.06,0-.02,0-.05-.02-.07-.03-.08-.04-.12-.06-.21-.1.04-.08.07-.13.11-.21.09.04.13.07.22.11.05.02.08.05.09.08.01.03.01.06,0,.1h0ZM27.83,16.15s-.08-.06-.13-.08c-.06-.03-.12-.04-.18-.04-.06,0-.12,0-.17.03-.05.02-.1.06-.14.1-.04.04-.08.1-.11.16-.03.06-.04.13-.05.19,0,.06,0,.12.02.17.02.05.05.1.09.14.04.04.09.07.15.1.05.02.1.04.14.04.04,0,.09,0,.13,0,0,.03,0,.04,0,.07.05.02.07.03.12.05.09-.18.13-.26.21-.44-.14-.07-.22-.1-.36-.16-.03.06-.04.08-.06.14.08.04.12.05.21.09-.02.03-.02.05-.04.08-.04.02-.08.03-.13.03-.04,0-.09-.01-.14-.03-.04-.02-.07-.04-.09-.06-.02-.03-.04-.06-.05-.09,0-.03-.01-.07,0-.11,0-.04.02-.08.04-.13.02-.05.04-.08.07-.12.03-.03.06-.05.09-.07.03-.02.07-.02.1-.02.04,0,.07,0,.11.02.03.01.06.03.08.05.02.02.04.04.05.06.01.02.02.04.02.07,0,.02,0,.05-.01.08.06.03.1.04.16.07.02-.05.02-.09.02-.14,0-.05-.02-.09-.04-.13-.02-.04-.05-.08-.09-.11h0ZM26.74,15.73s-.1-.07-.16-.09c-.06-.02-.12-.03-.18-.03s-.12.02-.17.04c-.05.03-.1.06-.14.11-.04.05-.07.1-.1.17-.02.07-.03.13-.03.19,0,.06.01.12.03.17.02.05.05.1.1.13.04.04.09.07.15.09.06.02.12.03.18.03.06,0,.11-.02.16-.04.05-.02.1-.06.14-.1.04-.05.07-.1.1-.16.03-.06.04-.13.04-.19,0-.06,0-.12-.03-.17-.02-.05-.05-.1-.1-.14h0ZM26.67,16.16h0s-.04.08-.07.12c-.03.03-.06.06-.09.07-.03.02-.06.03-.1.03-.04,0-.07,0-.11-.02-.04-.01-.07-.03-.09-.06-.02-.02-.04-.05-.06-.09-.01-.03-.02-.07-.02-.11,0-.04.01-.08.03-.13.02-.05.04-.09.06-.12.03-.03.05-.06.09-.07.03-.02.07-.03.1-.03.04,0,.07,0,.11.02.04.01.07.03.09.06.03.02.04.05.06.09.01.03.02.07.02.11,0,.04-.01.08-.03.13h0ZM25.7,15.39s-.03-.03-.04-.05c-.02-.01-.03-.03-.05-.04-.02-.01-.04-.02-.06-.03s-.04-.01-.07-.02c-.16-.05-.24-.07-.4-.12-.1.35-.15.52-.25.87.06.02.1.03.16.05.04-.14.06-.21.1-.35.07.02.11.03.18.05.02,0,.03.01.05.02.01.01.03.02.04.04,0,.01.02.03.02.05,0,.02,0,.03,0,.05,0,.1,0,.16,0,.26.07.02.1.03.17.05,0-.11,0-.17,0-.28,0-.07-.05-.15-.05-.16,0,0,.1-.02.13-.05.04-.03.07-.07.08-.12,0-.02,0-.04.01-.06,0-.02,0-.04,0-.06,0-.02,0-.04-.01-.06,0-.02-.01-.04-.02-.05h0ZM25.55,15.56h0s-.02.04-.03.05c-.01.01-.02.02-.04.03-.02,0-.04,0-.06,0-.02,0-.05,0-.08-.02-.09-.03-.13-.04-.22-.07.03-.09.04-.14.07-.23.1.03.14.04.24.07.05.02.09.04.11.06.02.03.02.06,0,.1h0ZM24.59,15.03s-.04-.04-.07-.05c-.03-.01-.05-.03-.09-.04-.03-.01-.06-.02-.1-.03-.15-.04-.23-.05-.38-.08-.09.35-.13.53-.22.88.07.02.1.02.17.04.03-.13.05-.2.08-.33.08.02.12.03.2.04.12.03.22.03.29,0,.07-.03.13-.09.15-.19,0-.04.01-.07.01-.1,0-.03,0-.06-.02-.08-.01-.02-.03-.05-.05-.06h0ZM24.46,15.23h0s-.01.04-.02.05c-.01.01-.03.02-.04.03-.02,0-.04.01-.06.01s-.05,0-.09-.01c-.08-.02-.12-.03-.2-.05.03-.1.04-.15.06-.25.08.02.12.03.2.05.02,0,.05.01.07.02.02,0,.04.02.05.03.01.01.02.03.03.05,0,.02,0,.04,0,.06h0ZM22.67,15.49c-.25-.05-.38-.07-.63-.11.05-.32.08-.48.13-.79.26.04.39.06.64.11,0,.05-.02.08-.03.14-.19-.03-.29-.05-.48-.08-.01.07-.02.11-.03.18.18.03.27.04.44.07-.01.05-.02.08-.03.13-.17-.03-.26-.05-.44-.07-.01.08-.02.12-.03.21.19.03.29.05.48.08-.01.05-.02.08-.03.14h0ZM20.99,15.24c-.06,0-.1-.01-.16-.02.02-.22.03-.34.05-.57-.1.22-.15.33-.24.55-.06,0-.08,0-.14-.01-.06-.23-.09-.34-.15-.58-.02.23-.02.34-.04.57-.06,0-.1,0-.16-.01.02-.34.03-.52.05-.9.09,0,.13.01.22.02.07.27.1.4.16.66.1-.24.16-.37.26-.62.09,0,.13.01.22.02-.03.36-.05.54-.09.89h0ZM19.76,15.16c-.27-.01-.41-.02-.68-.03,0-.34,0-.51.02-.9.28,0,.41.01.69.03,0,.07,0,.1,0,.16-.2-.01-.31-.02-.51-.02,0,.09,0,.13,0,.21.19,0,.29,0,.48.02,0,.06,0,.09,0,.15-.19,0-.28-.01-.47-.02,0,.09,0,.14,0,.23.21,0,.31,0,.52.02,0,.06,0,.09,0,.15h0ZM18.67,14.69c0,.3-.16.44-.46.44-.12,0-.18,0-.3,0,0-.33-.01-.5-.02-.91.12,0,.18,0,.31,0,.32,0,.47.17.47.47h0ZM18.5,14.69h0s0-.09-.01-.12c0-.04-.03-.07-.05-.09-.02-.03-.05-.05-.09-.06-.04-.01-.09-.02-.14-.02-.05,0-.08,0-.13,0,0,.25,0,.37.01.59.05,0,.08,0,.13,0,.06,0,.1,0,.14-.02.04-.01.07-.03.09-.06.02-.02.04-.06.05-.09,0-.04.01-.08.01-.13h0ZM17.55,15.15c-.07,0-.11,0-.18,0-.04-.09-.06-.13-.1-.22,0-.02-.02-.03-.03-.04-.01-.01-.02-.02-.04-.03-.01,0-.03-.02-.05-.02-.02,0-.03,0-.05,0-.07,0-.11,0-.18.01,0,.14.01.21.02.34-.07,0-.1,0-.17.01-.02-.31-.04-.49-.06-.91.17-.01.25-.02.42-.03.02,0,.05,0,.07,0,.02,0,.04,0,.06,0,.02,0,.04,0,.06.02.02,0,.04.02.06.03.02.01.03.03.04.05.01.02.02.03.03.05,0,.02.01.04.02.06,0,.02,0,.04,0,.06,0,.06,0,.11-.03.15-.03.04-.11.1-.11.1,0,0,.07.07.1.13.04.1.06.15.11.24h0ZM16.91,14.7h0c.09,0,.14-.01.23-.02.03,0,.06,0,.08-.01.02,0,.04-.01.05-.02.01-.01.02-.02.03-.04,0-.02,0-.04,0-.06,0-.04-.02-.07-.04-.09-.03-.02-.07-.03-.12-.02-.1,0-.15,0-.25.02,0,.1,0,.15.02.25h0ZM16.02,15.16h0s.07-.02.1-.03c.03-.02.06-.04.08-.07.02-.03.04-.06.04-.1,0-.04.01-.08,0-.13,0-.05-.02-.1-.03-.14-.02-.04-.04-.07-.06-.1-.03-.03-.06-.05-.09-.06-.03-.01-.07-.02-.11-.01-.04,0-.07.02-.11.04-.03.02-.06.05-.08.08-.02.03-.03.07-.04.11,0,.04,0,.09,0,.14,0,.05.02.09.04.13.02.04.04.06.07.09.03.02.06.04.09.05.03,0,.07.01.11,0Z"/>
  <path class="d" d="M17.17,19.86l.09.28h.3l-.24.17.09.28-.24-.17-.24.17.09-.28-.24-.17h.3l.09-.28h0ZM24,25.2l.03.1h.1l-.08.06.03.1-.08-.06-.08.06.03-.1-.08-.06h.1l.03-.1h0ZM26.07,23l.06.18h.19l-.15.11.06.18-.15-.11-.15.11.06-.18-.15-.11h.19l.06-.18h0ZM27.61,23.24l.06.18h.19l-.15.11.06.18-.15-.11-.15.11.06-.18-.15-.11h.19l.06-.18h0ZM28.65,22.91l.06.18h.19l-.15.11.06.18-.15-.11-.15.11.06-.18-.15-.11h.19l.06-.18h0ZM31.87,21.12l.06.18h.19l-.15.11.06.18-.15-.11-.15.11.06-.18-.15-.11h.19l.06-.18h0ZM28.68,24.78l.06.18h.19l-.15.11.06.18-.15-.11-.15.11.06-.18-.15-.11h.19l.06-.18h0ZM29.63,23.09l.06.18h.19l-.15.11.06.18-.15-.11-.15.11.06-.18-.15-.11h.19l.06-.18h0ZM26.55,17.28l.06.18h.19l-.15.11.06.18-.15-.11-.15.11.06-.18-.15-.11h.19l.06-.18h0ZM23.05,20.09l.06.18h.19l-.15.11.06.18-.15-.11-.15.11.06-.18-.15-.11h.19l.06-.18h0ZM16.03,20.84l.06.18h.19l-.15.11.06.18-.15-.11-.15.11.06-.18-.15-.11h.19l.06-.18h0ZM30.95,21.8l.07.23h.24l-.19.14.07.23-.19-.14-.19.14.07-.23-.19-.14h.24l.07-.23h0ZM30.37,22.56l.07.23h.24l-.19.14.07.23-.19-.14-.19.14.07-.23-.19-.14h.24l.07-.23h0ZM26.8,23.99l.07.23h.24l-.19.14.07.23-.19-.14-.19.14.07-.23-.19-.14h.24l.07-.23h0ZM28.7,23.77l.07.23h.24l-.19.14.07.23-.19-.14-.19.14.07-.23-.19-.14h.24l.07-.23h0ZM18.84,21.8l.07.23h.24l-.19.14.07.23-.19-.14-.19.14.07-.23-.19-.14h.24l.07-.23h0ZM25.08,20.02l.07.23h.24l-.19.14.07.23-.19-.14-.19.14.07-.23-.19-.14h.24l.07-.23h0ZM24,19.18l.07.23h.24l-.19.14.07.23-.19-.14-.19.14.07-.23-.19-.14h.24l.07-.23h0ZM20.43,18.06l.07.23h.24l-.19.14.07.23-.19-.14-.19.14.07-.23-.19-.14h.24l.07-.23h0ZM19.12,20.87l.07.23h.24l-.19.14.07.23-.19-.14-.19.14.07-.23-.19-.14h.24l.07-.23h0ZM23.53,20.82l.04.12h.13l-.11.08.04.12-.11-.08-.11.08.04-.12-.11-.08h.13l.04-.12h0ZM18.09,19.51l.04.12h.13l-.11.08.04.12-.11-.08-.11.08.04-.12-.11-.08h.13l.04-.12h0ZM26.91,14.7l.09.28h.3l-.24.17.09.28-.24-.17-.24.17.09-.28-.24-.17h.3l.09-.28h0ZM30.57,20.89l.09.28h.3l-.24.17.09.28-.24-.17-.24.17.09-.28-.24-.17h.3l.09-.28h0ZM16.34,15.92l.09.28h.3l-.24.17.09.28-.24-.17-.24.17.09-.28-.24-.17h.3l.09-.28h0ZM24,21.8l.09.28h.3l-.24.17.09.28-.24-.17-.24.17.09-.28-.24-.17h.3l.09-.28h0ZM20.23,22.57l.09.28h.3l-.24.17.09.28-.24-.17-.24.17.09-.28-.24-.17h.3l.09-.28Z"/>
</svg>