<?xml version="1.0" encoding="UTF-8"?>
<svg id="a" data-name="Layer 1" xmlns="http://www.w3.org/2000/svg" viewBox="0 0 48 36">
  <defs>
    <style>
      .b {
        fill-rule: evenodd;
      }

      .b, .c {
        fill: #f30004;
      }

      .d {
        fill: #fff;
      }
    </style>
  </defs>
  <rect class="d" x="11.97" y="0" width="24.04" height="36"/>
  <rect class="c" x="0" y="0" width="11.98" height="36"/>
  <rect class="c" x="36.01" y="0" width="11.98" height="36"/>
  <path class="b" d="M14.61,18.26l4.27,4.16c.78.76.18,1.54-.2,2.28l4.9-.68-.15,5.51h1.05l-.23-5.51,4.9.68c-.35-.79-.77-1.75-.04-2.45l4.18-3.99c-.4-.18-.87-.25-.97-.75-.16-.86.44-2.65.74-3.61-.85.39-1.96.68-2.67.6-.39-.05-.62-1.19-.78-1.58l-2.2,2.62c-.59.7-.81.37-.64-.52l1.03-5.58-1.47.94c-.43.28-.58.31-.82-.26l-1.55-3.56-1.59,3.57c-.25.55-.27.57-.73.28l-1.45-.89.89,5.52c.14.87,0,1.19-.62.43l-2.07-2.56c-.2.6-.45,1.36-.83,1.61-.45.17-1.73-.31-2.64-.59.29.95.98,2.58.86,3.47-.08.58-.7.65-1.16.86Z"/>
</svg>