<?xml version="1.0" encoding="UTF-8"?>
<svg id="a" data-name="Layer 1" xmlns="http://www.w3.org/2000/svg" viewBox="0 0 48 36">
  <defs>
    <style>
      .b, .c {
        fill: #231f20;
      }

      .d {
        fill: #9cb127;
      }

      .d, .e, .c, .f, .g, .h, .i, .j, .k, .l, .m, .n, .o, .p, .q, .r, .s, .t, .u, .v, .w, .x, .y {
        fill-rule: evenodd;
      }

      .e {
        fill: #f9a64a;
      }

      .f {
        fill: #ffea81;
      }

      .g {
        fill: #00652e;
      }

      .z {
        fill: #01a616;
      }

      .h {
        fill: #217e5f;
      }

      .i {
        fill: #047e5a;
      }

      .aa {
        fill: #fff;
      }

      .ab {
        fill: #f30004;
      }

      .j {
        fill: #224b8e;
      }

      .k {
        fill: #599f56;
      }

      .l {
        fill: #fff8ad;
      }

      .m {
        fill: #e0851b;
      }

      .n, .y {
        fill: #f6921e;
      }

      .o {
        fill: #8e5630;
      }

      .p {
        fill: #cd181f;
      }

      .q {
        fill: #d0d2d3;
      }

      .r {
        fill: #fff100;
      }

      .s {
        fill: #00753d;
      }

      .t {
        fill: #f05845;
      }

      .u {
        fill: #5f3100;
      }

      .v {
        fill: #e6ba64;
      }

      .w {
        fill: #854a00;
      }

      .x {
        fill: #00a9dc;
      }

      .y {
        stroke: #231f20;
        stroke-miterlimit: 22.93;
        stroke-width: .22px;
      }
    </style>
  </defs>
  <rect class="aa" x="14.59" y="0" width="33.41" height="35.97"/>
  <rect class="z" x="0" y="0" width="16" height="35.97"/>
  <rect class="ab" x="32.15" y="0" width="15.85" height="35.97"/>
  <g>
    <path class="x" d="M22.84,21.33l-.36-.09-.44-.49-.1.25s-.41-.07-.6-.22c-.19-.15-.72-.19-.72-.19,0,0,.49.29.56.47.06.18-.11.28-.11.28,0,0,.23.13.53.13.3,0,.58.23.58.23l-.32.37s.23.08.44.1c.22.01.7.01.7.01l-.16-.85Z"/>
    <polygon class="x" points="25.09 21.49 26.59 21.38 25.84 21.81 26.08 22.05 25.77 22.23 24.6 22.23 25.09 21.49"/>
    <path class="i" d="M25.85,20.47c.07.02.37.16.49.05.12-.11.17-.42.44-.52.28-.1.32-.18.47-.13.14.06.34.52.32.66-.02.14-.2.35-.44.42-.23.07-.79.13-.96.07-.17-.06-.61-.35-.61-.35l.29-.2Z"/>
    <path class="b" d="M25.85,20.45s.03,0,.05.02c.11.04.33.12.43.04.04-.04.07-.1.11-.17.07-.13.15-.29.34-.36.09-.03.16-.06.21-.09.11-.05.16-.08.26-.04.07.03.15.15.21.28.07.15.12.32.11.4-.01.08-.07.17-.16.25-.08.07-.18.14-.29.17-.12.04-.34.07-.54.09-.18.01-.34.01-.43-.02-.17-.06-.61-.35-.61-.35h-.01s.01-.02.01-.02l.29-.2h0s0,0,0,0h0ZM25.89,20.49h0s-.03-.01-.04-.01l-.27.19c.08.05.44.28.59.33.08.03.24.03.42.01.2-.01.41-.05.54-.08.11-.03.21-.1.28-.17.08-.08.14-.17.15-.24.01-.07-.04-.24-.11-.38-.06-.13-.14-.24-.2-.27-.09-.04-.14-.01-.24.04-.05.02-.12.06-.21.09-.18.06-.26.22-.33.35-.04.07-.07.14-.12.17-.11.09-.34,0-.45-.03Z"/>
    <path class="i" d="M20.81,19.35c-.11-.25-.05-.54-.25-.66-.2-.12-.52-.4-.64-.33-.12.07-.41.11-.4.32,0,.21-.09.4.16.56.25.17,1.02.37,1.02.37l.11-.27Z"/>
    <path class="b" d="M20.8,19.36c-.04-.1-.06-.2-.08-.29-.03-.15-.05-.28-.16-.35-.05-.03-.11-.08-.18-.12-.17-.12-.36-.26-.44-.21-.03.02-.07.03-.12.05-.13.05-.28.11-.28.25,0,.05,0,.1,0,.14-.01.15-.03.29.16.41.24.16.91.34,1,.37l.1-.25h0ZM20.75,19.06h0c.02.1.03.2.08.29h0s0,0,0,0l-.11.27h0s-.01,0-.01,0c0,0-.76-.21-1.02-.38-.2-.13-.19-.28-.17-.43,0-.05,0-.09,0-.14,0-.16.16-.23.29-.28.04-.02.09-.03.11-.05.09-.06.29.08.47.21.06.05.12.09.18.12.13.08.15.22.18.37Z"/>
    <path class="i" d="M22.42,19.79c-.17-.11-.18-.18-.4-.37-.22-.18-.37-.39-.56-.39s-.51-.06-.63.12c-.12.18-.4.42-.22.61.18.19.49.5.7.51.21.01,1.16-.11,1.16-.11l-.06-.39Z"/>
    <path class="b" d="M22.4,19.79c-.09-.06-.14-.11-.19-.17-.05-.05-.11-.11-.21-.2-.06-.05-.11-.1-.16-.15-.14-.13-.25-.24-.39-.24-.04,0-.08,0-.12,0-.18-.01-.4-.02-.5.12-.03.04-.06.08-.09.12-.12.16-.26.33-.13.48.09.09.21.22.33.32.12.1.25.18.36.19.2.01,1.04-.09,1.15-.1l-.05-.37h0ZM22.23,19.61h0c.06.06.1.11.19.17h0s0,0,0,0l.06.39h0s-.01.01-.01.01c0,0-.95.12-1.17.11-.11,0-.24-.09-.37-.19-.13-.1-.25-.23-.34-.33-.15-.16,0-.34.13-.51.03-.04.07-.08.09-.12.1-.15.33-.14.52-.13.04,0,.08,0,.12,0,.14,0,.26.11.41.25.05.05.1.1.16.15.1.08.16.15.21.2Z"/>
    <path class="i" d="M24.69,20.19l-.42-.23s-.44-.41-.76-.49c-.32-.08-.78-.19-.95-.04-.17.16-.37.38-.31.56.06.18.08.44.37.55.28.11.64.23.93.16.3-.07.99-.29.99-.29l.15-.23Z"/>
    <path class="b" d="M24.67,20.2l-.41-.22h0s-.44-.41-.76-.49c-.16-.04-.35-.09-.53-.11-.17-.02-.33,0-.41.07-.08.08-.18.17-.24.27-.06.1-.1.19-.07.28.01.03.02.07.03.1.05.17.1.36.33.44.14.05.3.11.46.14.16.03.32.05.47.01.28-.07.93-.27.98-.29l.14-.21h0ZM24.28,19.96h0l.42.22h.01s0,.02,0,.02l-.15.23h0s0,0,0,0c0,0-.69.22-.99.29-.15.04-.31.02-.48-.01-.16-.03-.32-.09-.46-.14-.24-.09-.29-.29-.34-.46,0-.04-.02-.07-.03-.1-.03-.1,0-.2.07-.3.07-.1.16-.2.24-.27.09-.08.25-.09.43-.07.18.02.37.07.53.11.31.08.74.47.77.5Z"/>
    <path class="r" d="M21,13.38c.09.05.17.32.15.35-.02.04.08-.21-.01-.34-.1-.13-.09-.16-.09-.16l-.05.15Z"/>
    <path class="i" d="M21.16,13.42s.06-.32-.08-.25c-.14.07-.58.37-.65.46-.07.09-.17.22-.13.32.04.1.14.24.15.25.01,0,0,.25.04.34.05.09.09.17.21.18.12,0,.53,0,.53,0,0,0,.35.11.4.19.05.08.11.17.03.23-.08.07-1.13.81-1.07,1.51.06.71.53.83,1.02.79,0,0-.75-.1-.64-.69.11-.59.83-.99.95-1.09.12-.1.28-.65-.22-.98-.5-.33-.41-.4-.41-.4,0,0-.05-.02-.17-.02s-.25.01-.23-.15c0,0,.01-.01.01-.01,0,0,.3-.09.36-.15.06-.06.07-.21.07-.21,0,0-.16.17-.26.19-.1.01-.28.06-.2-.05.08-.11.11-.12.11-.12l.09-.34h.1Z"/>
    <path class="w" d="M21.71,15.76s.16-.06.23-.11c.07-.05.31-.36.31-.55s-.13-.52-.23-.62c-.1-.1-.6-.18-.6-.18l-.18-.02-.12.2.55.4.16.32-.13.56Z"/>
    <path class="i" d="M21.17,18.05c-.11,0-.16.01-.23-.11-.07-.12-.11-.3-.16-.46-.05-.16-.42-.32-.45-.5-.05-.34.42-1.08-.33-1.24-.48-.1-.16.32-.16.32,0,0,.27.17.22.31-.06.14-.28.45-.22.74.06.29.42.37.54.61.06.1.12.2.14.3.09.57.44.8.97.38.48-.38-.3-.37-.33-.36Z"/>
    <path class="n" d="M19.73,16.16s.21-.06.26-.18c.07-.15.08-.47-.19-.33,0,0-.01-.1-.18-.02,0,0-.08-.16-.31,0-.23.16,0,.23.06.2,0,0-.02.39.23.23,0,0,.02.13.12.11Z"/>
    <polygon class="f" points="19.37 15.72 19.47 15.64 19.35 15.64 19.37 15.72"/>
    <polygon class="f" points="19.51 15.73 19.51 15.83 19.63 15.82 19.61 15.72 19.51 15.73"/>
    <path class="f" d="M19.79,15.82s.02.12.03.12c0,0,.15-.02.15-.02l-.19-.1Z"/>
    <path class="f" d="M20.06,15.96s.23-.06.23-.06l-.06.15-.19.08.16-.15-.13-.02Z"/>
    <polygon class="f" points="20.15 16.3 20.34 16.26 20.37 16.11 20.24 16.17 20.29 16.2 20.15 16.3"/>
    <polygon class="f" points="20.18 16.46 20.08 16.41 20.22 16.32 20.16 16.39 20.24 16.42 20.18 16.46"/>
    <polygon class="f" points="20.07 16.48 20.23 16.51 20.33 16.58 20.19 16.57 20.07 16.48"/>
    <polygon class="f" points="20.28 16.68 20.17 16.61 19.98 16.6 20.14 16.67 20.28 16.68"/>
    <polygon class="f" points="19.93 16.72 20.14 16.75 20.29 16.82 20.11 16.83 19.93 16.72"/>
    <polygon class="f" points="20.28 16.93 20.04 16.92 20.21 17.01 20.28 16.93"/>
    <polygon class="f" points="19.94 17.1 20.01 16.97 19.86 17.08 19.94 17.1"/>
    <polygon class="f" points="20.19 17.18 20.09 17.39 20.24 17.25 20.41 17.19 20.19 17.18"/>
    <path class="f" d="M20.35,17.59s.2-.08.2-.08h-.23s.06-.17.06-.17l-.12.14.02.09.07.03Z"/>
    <polygon class="f" points="20.45 17.33 20.56 17.3 20.63 17.36 20.45 17.33"/>
    <polygon class="f" points="20.44 17.69 20.45 17.76 20.58 17.68 20.44 17.69"/>
    <polygon class="f" points="20.7 18.03 20.61 18.24 20.75 18.25 20.69 18.19 20.7 18.03"/>
    <polygon class="f" points="21.14 18.36 21.07 18.53 20.94 18.58 20.91 18.33 20.95 18.2 20.99 18.49 21.14 18.36"/>
    <polygon class="f" points="20.7 18.31 20.72 18.45 20.88 18.4 20.75 18.38 20.7 18.31"/>
    <path class="f" d="M21.59,15.23s.07.17.07.17.32-.04.32-.04l-.26-.05-.07-.13-.07.05Z"/>
    <polygon class="f" points="21.49 15.37 21.57 15.65 21.82 15.64 21.79 15.55 21.61 15.55 21.49 15.37"/>
    <polygon class="f" points="21.23 15.55 21.3 15.83 21.63 15.81 21.38 15.72 21.3 15.56 21.49 15.53 21.3 15.49 21.23 15.55"/>
    <polygon class="f" points="21.04 15.92 21.03 15.75 21.11 15.7 21.25 15.81 21.4 15.98 21.13 15.84 21.04 15.92"/>
    <polygon class="f" points="20.88 15.94 20.92 16.08 20.96 16.04 20.96 15.96 21.15 15.99 21.24 16.12 21.22 15.96 20.98 15.88 20.88 15.94"/>
    <path class="f" d="M20.57,14.54s.24,0,.24,0l-.26.07.02-.07Z"/>
    <polygon class="f" points="20.99 14.51 21.06 14.31 20.97 14.38 20.99 14.51"/>
    <polygon class="f" points="20.89 14.29 20.82 14.51 20.8 14.31 20.62 14.37 20.81 14.15 20.85 14.3 20.89 14.29"/>
    <path class="f" d="M20.5,14.24s.13-.14.13-.14l.13.07-.16.05v.13s-.1-.09-.1-.09Z"/>
    <polygon class="c" points="20.79 13.42 20.79 13.54 20.9 13.42 20.79 13.42"/>
    <polygon class="d" points="21.12 13.22 21.13 13.35 20.97 13.47 21.12 13.22"/>
    <path class="d" d="M20.65,13.48l-.23.21s-.09.18-.07.17c.02,0,.2,0,.2,0l.15-.23-.05-.15Z"/>
    <polygon class="d" points="20.92 13.6 20.7 13.87 20.73 14.02 20.85 13.8 20.92 13.6"/>
    <path class="d" d="M20.88,14.01v.07s-.12,0-.11,0c.01-.01.09-.1.09-.1l.02.03Z"/>
    <polygon class="c" points="21.67 14.69 21.85 14.51 21.82 14.66 21.67 14.69"/>
    <path class="c" d="M21.88,14.82s.19-.15.19-.15l-.07.15h-.12Z"/>
    <polygon class="c" points="22.08 15.03 22.2 15 22.21 15.1 22.08 15.03"/>
    <polygon class="c" points="22.05 15.33 22.13 15.35 22.09 15.43 22.01 15.43 22.05 15.33"/>
    <path class="i" d="M23.97,21.48s.04-.73.23-.98.5-.56.5-.56l.63-.2.49.1s.25.16.24.34c0,.18-.04.35-.2.45-.16.1-.97.4-.97.4l-.25.47-.66-.02Z"/>
    <path class="b" d="M23.96,21.48s.04-.73.23-.99c.19-.25.5-.56.5-.56h0s0,0,0,0l.63-.2h0s0,0,0,0l.49.1h0s0,0,0,0c0,0,.25.17.24.35,0,.09-.01.18-.04.26-.03.08-.08.15-.16.2h0c-.15.1-.91.38-.97.4l-.24.46h0s0,0,0,0l-.66-.02h-.01s0-.01,0-.01h0ZM24.21,20.51h0c-.17.23-.22.87-.22.96l.64.02.24-.46h0s0,0,0,0c0,0,.82-.3.97-.4.07-.05.12-.11.15-.19.03-.08.04-.16.04-.25,0-.16-.21-.31-.23-.33l-.48-.1-.62.2s-.32.31-.5.55Z"/>
    <polygon class="c" points="23.77 20.18 23.61 20.16 23.53 20.27 23.68 20.29 23.77 20.18"/>
    <path class="c" d="M23.06,19.99c.05.01.22.08.22.08l-.12.16-.1-.25Z"/>
    <path class="c" d="M22.62,20.22s.25.03.25.03l-.17.13-.08-.16Z"/>
    <path class="c" d="M22.99,19.59s.19.19.19.19l.04-.12-.23-.07Z"/>
    <path class="c" d="M23.56,19.66s.11.2.11.2l.05-.11-.16-.09Z"/>
    <path class="c" d="M22.66,19.25s.12.24.15.23c.04-.01.13-.15.13-.15l-.28-.07Z"/>
    <path class="c" d="M22.47,20.39h-.3s.02.23.04.21.26-.21.26-.21Z"/>
    <path class="c" d="M22.88,20.81s.3-.18.3-.18c0,0-.12-.04-.18-.06-.08-.03-.13.24-.12.24Z"/>
    <path class="c" d="M23.66,20.64c.05.05.13.13.13.13v-.24s-.13.1-.13.1Z"/>
    <path class="c" d="M24.39,21.04s.08-.24.08-.24c0,0,.27.01.25.03-.01.02-.16.18-.16.18l-.18.03Z"/>
    <polygon class="c" points="24.93 20.48 24.92 20.64 25.08 20.53 24.93 20.48"/>
    <path class="c" d="M25.33,20.59s.15.06.15.06l.05-.12-.21.07Z"/>
    <path class="c" d="M25.61,20.36s.14-.1.14-.1l.13.03-.1.12-.18-.05Z"/>
    <polygon class="c" points="25.22 20.83 25.39 21.02 25.32 20.76 25.22 20.83"/>
    <path class="c" d="M24.21,20.61s.2.02.2.02l-.19.12v-.14Z"/>
    <path class="c" d="M26.02,20.89s.1.23.1.23v-.2s-.1-.02-.1-.02Z"/>
    <polygon class="c" points="26.2 20.67 26.2 20.78 26.34 20.69 26.2 20.67"/>
    <polygon class="c" points="26.62 20.67 26.63 20.78 26.79 20.68 26.62 20.67"/>
    <polygon class="c" points="27.02 20.41 27.2 20.41 27.19 20.3 27.02 20.41"/>
    <polygon class="c" points="26.75 20.25 26.89 20.18 26.86 20.06 26.78 20.14 26.75 20.25"/>
    <path class="c" d="M26.97,20.89s.2.14.2.14l-.06-.14h-.14Z"/>
    <polygon class="c" points="27.45 20.59 27.62 20.61 27.73 20.73 27.57 20.72 27.45 20.59"/>
    <path class="c" d="M27.03,20.67s.19-.12.19-.12l.09.06-.11.09-.17-.04Z"/>
    <polygon class="c" points="27.09 19.74 27.02 19.98 27.15 19.92 27.09 19.74"/>
    <polygon class="c" points="22.54 19.9 22.64 19.84 22.76 19.95 22.54 19.9"/>
    <polygon class="c" points="21.86 20.17 21.77 20.35 21.93 20.29 21.86 20.17"/>
    <path class="c" d="M21.45,20.08s.19.09.19.09v-.1s-.19,0-.19,0Z"/>
    <path class="c" d="M20.96,19.81s.18.12.18.12l.07-.12h-.25Z"/>
    <polygon class="c" points="21.15 20.31 21.31 20.21 21.33 20.27 21.28 20.31 21.15 20.31"/>
    <polygon class="c" points="20.85 19.49 21.02 19.59 21 19.49 20.85 19.49"/>
    <path class="c" d="M21.2,19.25s.1.15.1.15l.06-.09-.16-.06Z"/>
    <path class="c" d="M20.63,19.93s.19-.07.19-.07l-.03.12-.16-.05Z"/>
    <path class="c" d="M19.78,18.87s.02.11.02.11h.1s-.12-.11-.12-.11Z"/>
    <path class="c" d="M19.35,18.88s.21.11.21.11l.05-.06-.26-.05Z"/>
    <path class="c" d="M19.7,19.3s.16-.04.16-.04l-.02.1-.14-.07Z"/>
    <path class="c" d="M20.33,19.45s-.08.1-.07.1.18-.06.18-.06l-.11-.04Z"/>
    <polygon class="c" points="20.35 19.19 20.45 19.31 20.45 19.2 20.35 19.19"/>
    <path class="c" d="M20.45,18.81s-.01.1,0,.1.12.01.12.01l-.11-.11Z"/>
    <polygon class="c" points="20.16 18.61 20.14 18.73 20.28 18.71 20.16 18.61"/>
    <polygon class="c" points="20.76 18.88 20.64 19.01 20.77 19.04 20.76 18.88"/>
    <polygon class="c" points="21.08 18.89 21.09 19.05 21.24 19.08 21.08 18.89"/>
    <path class="t" d="M19.2,18.21s-.12.11.01.22c.13.11.46.19.46.19l.29-.18s-.02-.3-.13-.39c-.11-.09-.1-.11-.1-.11l.06-.25h-.18s-.12.14-.12.14l-.04-.13s-.12-.12-.19-.28c-.07-.17-.07-.2-.13-.15-.06.05-.04.18.02.24s.11.27.11.27l-.13.07-.15.2.17.04h.12s-.07.11-.07.11Z"/>
    <path class="l" d="M19.11,17.98s.1-.1.12-.08c.02.02.13.18.13.18l-.16-.02-.08-.08Z"/>
    <polygon class="l" points="19.3 17.82 19.45 17.78 19.53 17.97 19.42 18 19.31 17.92 19.3 17.82"/>
    <polygon class="l" points="19.63 17.72 19.75 17.74 19.67 17.92 19.59 17.92 19.63 17.72"/>
    <polygon class="l" points="19.46 18.05 19.65 18.01 19.8 18.16 19.76 18.39 19.58 18.46 19.3 18.29 19.29 18.19 19.46 18.05"/>
    <path class="t" d="M21.48,19.63s-.13-.25-.03-.43c.09-.18.15-.24.15-.24,0,0-.07-.19-.03-.23.05-.04.24.05.24.05v.1s.1-.08.1-.08h.06s-.01-.19.12-.24c.13-.05.09.11.09.11l-.11.19.04.03-.11.22s.21-.12.22-.12.07.19.07.19l-.25.06-.07-.06s.07.22.01.3c-.05.08-.25.26-.25.26l-.26-.1Z"/>
    <polygon class="l" points="21.63 18.82 21.67 19 21.75 19.01 21.77 18.84 21.63 18.82"/>
    <polygon class="l" points="21.89 18.85 21.86 18.97 21.94 19.05 22.04 18.94 21.98 18.83 21.89 18.85"/>
    <polygon class="l" points="22.06 19.13 22.23 19.07 22.21 19.16 22.03 19.18 22.06 19.13"/>
    <polygon class="l" points="21.55 19.14 21.47 19.43 21.6 19.65 21.75 19.53 21.92 19.22 21.77 19.11 21.55 19.14"/>
    <polygon class="l" points="22.05 18.62 22.02 18.78 22.14 18.62 22.05 18.62"/>
    <path class="t" d="M27.2,20.22c.01-.12.09-.29.21-.37.13-.08.24-.13.24-.13l.03.04s0-.21.08-.26c.07-.05.25.19.25.19,0,0,.03.04.1-.05.06-.09.24-.21.31-.19.07.03.16.08.04.17-.11.09-.31.18-.31.18,0,0-.07.13-.1.14-.03,0,.14.06.14.06l-.07.18-.21-.04v-.07s-.29.34-.43.34-.24-.05-.28-.19Z"/>
    <polygon class="l" points="27.73 19.78 27.75 19.6 27.9 19.59 27.89 19.65 27.73 19.78"/>
    <path class="l" d="M27.81,19.89s.13-.15.13-.15l.07.08-.14.08-.06-.02Z"/>
    <polygon class="l" points="27.96 20.03 28.11 20.01 28.07 20.12 27.97 20.09 27.96 20.03"/>
    <path class="l" d="M27.27,20.24c.04-.09.07-.25.14-.3s.29-.09.29-.09l.05.11v.13s-.04.1-.14.13c-.1.03-.25.1-.25.1l-.1-.07Z"/>
    <path class="l" d="M28.14,19.7c.07-.09.23-.19.23-.19l.09.03s-.13.12-.14.12-.18.03-.18.03Z"/>
    <path class="m" d="M23.19,21.11c.54-.04.74-.02.94-.01.2,0,.75.1.75.1,0,0,.19-.15.32-.02.13.13.02.4.02.4,0,0,.1.29.02.43,0,0,.23.43-.17.42,0,0-.43.17-.94.12-.51-.06-1.01-.15-1.01-.15,0,0-.36.15-.42-.05-.06-.19.15-.29.15-.29,0,0-.23-.19-.18-.35.05-.15.09-.27.09-.27,0,0-.24-.32.03-.39.26-.07.4.07.4.07Z"/>
    <path class="v" d="M20.25,20.38c.11-.07.36-.11.47,0,.11.11.14.29.14.29l-.18.13s-.24.03-.31-.13c-.07-.15-.11-.29-.11-.29Z"/>
    <path class="v" d="M21.36,22.16c.1-.14.23-.27.4-.27.17,0,.28.15.28.15,0,0,.04.14-.12.24-.16.09-.5.05-.5.05l-.05-.17Z"/>
    <path class="v" d="M26.32,21.45c0-.06,0-.14.07-.21.07-.07.52-.08.6,0,.08.08-.09.2-.09.2l-.07.09s-.33.25-.51-.07Z"/>
    <path class="h" d="M17.85,18.43l-.28-.18-.03-.14s-.25-.11-.24-.38l.25.04-.08-.28.09-.23s.16.1.19.09c.02-.01-.07-.12.07-.24.13-.13.4-.18.4-.18,0,0,.02.21-.04.28-.07.07.18.05.18.05,0,0-.11.37-.25.4-.14.03.25.01.25.01,0,0-.04.29-.19.33-.14.04-.11.29-.11.29l-.13.23-.08-.09Z"/>
    <path class="h" d="M18.25,19.24l-.25.15s-.06.19.02.29c.07.1.06.22.06.22l-.27-.11.11.36s.18.01.22.11c.04.09-.07.08-.07.08l-.15.08s.28.2.39.18.43.16.43.16h.18s-.07-.34-.07-.34c0,0-.14,0-.11-.17.03-.16,0-.4,0-.4l-.24.12s.26-.36,0-.59l-.17.17v-.3s-.09-.01-.09-.01Z"/>
    <path class="h" d="M19.26,21.17c-.09.13-.23.25-.13.36.11.11.23.13.23.24l-.27.1.21.28h.24s-.06.14-.06.14l-.13.04.08.08.46-.05.47-.09-.12-.25h-.08s-.02-.46-.15-.5-.23.28-.23.28c0,0-.01-.5-.14-.57l-.14.26s0-.29-.25-.31Z"/>
    <path class="h" d="M21.02,22.49l-.04.16s.07.2.06.3c-.01.1.03.23.22.26.18.03.31.11.31.11l-.23.16s0,.17.21.17.4-.08.4-.08h.16s-.12.12-.12.12v.2s.43-.12.48-.29c.05-.17.66-.52.66-.52,0,0-.34-.03-.39-.11-.05-.08-.29-.13-.29-.13,0,0-.19-.28-.29-.28-.1,0-.15.33-.15.33,0,0-.16-.34-.36-.35-.2-.01-.21.05-.21.05l.05.14s-.13,0-.22-.1c-.09-.11-.25-.14-.25-.14Z"/>
    <path class="e" d="M17.6,18.73s.2-.02.2-.02v.22s-.19.16-.19.16l-.21-.14.12-.16-.06-.08.03-.12.12.05v.09Z"/>
    <polygon class="e" points="18.24 18.85 18.07 18.64 18.2 18.51 18.41 18.57 18.41 18.47 18.52 18.45 18.58 18.6 18.5 18.63 18.58 18.81 18.37 18.88 18.24 18.85"/>
    <polygon class="e" points="19 20.52 19.2 20.48 19.15 20.32 19.31 20.32 19.35 20.5 19.44 20.68 19.26 20.74 18.98 20.67 19 20.52"/>
    <polygon class="e" points="18.66 20.8 18.74 20.96 18.73 21.08 18.65 21.16 18.5 21.18 18.4 21.1 18.44 20.92 18.4 20.92 18.44 20.75 18.53 20.81 18.66 20.8"/>
    <path class="e" d="M20.62,22.28l.18.1.18-.09.05-.16-.07-.18-.11-.07-.13.07.02.06s-.11.15-.11.19,0,.1,0,.1Z"/>
    <polygon class="e" points="20.64 22.7 20.4 22.49 20.4 22.63 20.18 22.72 20.26 22.86 20.45 22.95 20.66 22.87 20.64 22.7"/>
    <polygon class="o" points="20.86 22.31 21.07 22.65 20.92 22.26 20.86 22.31"/>
    <path class="o" d="M20.58,22.71s.36-.06.36-.06l-.34.15-.02-.08Z"/>
    <path class="o" d="M18.66,21s.45.1.45.1l-.42-.05-.03-.05Z"/>
    <polygon class="o" points="19.15 20.68 19.08 21.04 19.08 20.63 19.15 20.68"/>
    <polygon class="o" points="17.72 18.91 18.09 19.14 17.71 18.95 17.72 18.91"/>
    <polygon class="o" points="18.29 18.81 18.11 19.2 18.35 18.82 18.29 18.81"/>
    <polygon class="g" points="17.89 18.4 18.13 19.52 18.22 19.38 17.89 18.4"/>
    <polygon class="g" points="19.23 21.35 18.8 20.66 19.29 21.27 19.23 21.35"/>
    <polygon class="g" points="21.05 22.66 20.24 22.19 20.16 22.23 21.1 22.78 21.05 22.66"/>
    <polygon class="g" points="22.71 23.01 23.56 23.09 22.78 23.12 22.71 23.01"/>
    <path class="k" d="M29.86,19.17s.04-.3-.08-.54c-.12-.24-.09-.49-.09-.49l-.04-.51.35.4s-.07-.25.04-.45.26-.36.26-.36l.15.54.14-.13s.18.37.11.65c-.07.28-.55.65-.55.65l-.22.28-.06-.04Z"/>
    <path class="s" d="M29.72,17.89s-.07.23.03.46c.1.23.1.25.1.25l-.06-.52-.07-.19Z"/>
    <path class="s" d="M30.22,17.4c-.14.13-.17.24-.17.32,0,.08-.06.7-.06.7l.16-.63.02-.2.05-.19Z"/>
    <path class="s" d="M30.53,17.77c-.1.14-.13.24-.14.38-.01.14-.24.64-.24.64l.31-.47.08-.3v-.25Z"/>
    <path class="k" d="M29.4,19.46c-.23.24-.4.35-.42.49s-.07.48-.06.68c.01.2.04.47.04.47,0,0,.51-.21.62-.3s.38-.17.48-.48c.1-.31.25-.68.25-.68l-.49.18.05-.48s-.22.1-.29.25c-.07.16-.22.4-.22.4,0,0,0-.25.03-.34.04-.09,0-.18,0-.18Z"/>
    <path class="s" d="M29.21,19.8s-.19.36-.2.55c-.01.18.02.45.02.45,0,0,.24.04.35-.04.11-.08.7-.79.7-.79l-.25-.08-.13.4-.53.43.13-.44.42-.5-.42.34-.21.46.07-.53.04-.23Z"/>
    <path class="k" d="M27.16,22.55c.18-.13.26-.39.31-.5.05-.11.15-.37.3-.47.15-.11.42-.53.42-.53h.08s-.21.55-.2.64c0,0,.42-.46.77-.41l-.23.51.18-.08s-.08.68-.39.74c-.31.06-.98.04-.98.04l-.2.16-.05-.1Z"/>
    <path class="s" d="M28.03,21.35l-.32.38-.23.56s.32-.5.33-.51c0-.02.23-.43.23-.43Z"/>
    <polygon class="s" points="28.66 21.35 28.26 21.58 28.07 21.82 27.73 22.08 28.22 21.83 28.39 21.59 28.66 21.35"/>
    <polygon class="s" points="28.6 21.89 27.71 22.4 28.21 22.26 28.6 21.89"/>
    <path class="k" d="M24.33,23s.48,0,.48,0c0,0,.37,0,.4-.01.03-.01.36-.29.36-.29l.87-.24-.78.42s.21-.11.65-.11.67.07.67.07l-.65.37.47.09s-.31.06-.55.21c-.24.15-.53.31-.83.11-.3-.2-.88-.49-.88-.49l-.22-.02v-.1Z"/>
    <path class="s" d="M25.41,23.49s.02,0,.03,0c.23-.02.79-.07.82-.08.03-.02.1-.11.1-.11,0,0-.77.03-.85.04-.08,0-.41-.03-.41-.03l.32.19Z"/>
    <path class="s" d="M26.41,22.82c-.26.06-.85.13-.85.13l-.16.18s-.65-.04-.57-.02c.07.01.58.1.58.1h.33s.09-.14.09-.14l.58-.25Z"/>
    <path class="j" d="M23.81,22.87c-.02.26,0,.45,0,.45,0,0-.15.02-.19-.16-.04-.18.19-.29.19-.29Z"/>
    <path class="p" d="M24.06,22.89c.01.22-.03.44,0,.43.03-.02.23-.06.17-.22-.06-.16-.17-.21-.17-.21Z"/>
    <path class="j" d="M23.65,23.38s.15.07.15.07c0,0-.25.07-.44.24-.19.18-.32.31-.32.31l.04-.27.57-.35Z"/>
    <path class="p" d="M24.03,23.43c-.08.07-.46.37-.46.37l-.13.2.11.16s.21-.18.38-.31c.17-.13.27-.3.27-.3,0,0,.05.17.18.22.14.05.37.19.37.19h.26s-.42-.16-.52-.26c-.1-.1-.27-.36-.27-.36l-.19.1Z"/>
    <polygon class="e" points="26.93 22.04 26.87 22.34 26.98 22.42 27.15 22.27 26.93 22.04"/>
    <polygon class="e" points="27.29 22.81 27.37 23.05 27.61 22.84 27.42 22.76 27.29 22.81"/>
    <path class="e" d="M28.56,20.58c-.07.1-.08.23-.02.34l.19-.08v-.17s-.17-.09-.17-.09Z"/>
    <polygon class="e" points="29.16 21.24 29.22 21.14 29.36 21.15 29.41 21.31 29.29 21.42 29.12 21.36 29.16 21.24"/>
    <polygon class="e" points="29.59 18.8 29.65 18.89 29.62 19.09 29.45 19.11 29.38 19.04 29.4 18.83 29.59 18.8"/>
    <path class="e" d="M30.44,19.03v.2s-.19.15-.19.15c0,0-.17-.32.19-.35Z"/>
    <g>
      <path class="c" d="M21.67,14.89s-1.09.2-.31-.92c0,0,.04-.26.29-.4.25-.14.37-.46.23-.56,0,0,.2.02.21.11,0,0,.14-.19.13-.36,0,0,.14.31.15.4,0,0,.13-.29.16-.46,0,0,.06.16.07.28,0,0,.21-.05.15-.28,0,0,.28.14.24.3,0,0,.13-.06.43.09.3.14.41.06.41.06,0,0-.03.09-.07.11,0,0,.3.18.4.34,0,0,.14-.26-.1-.44-.24-.18-.8-.29-.73-.54.07-.25.28-.35.47-.3,0,0,.04-.28.38-.25.35.02,1.28.12,1.83.45.56.33.75.46,1.07.36,0,0,0,.19-.07.25,0,0,.85.67,1.16,1.32.24.51.29,1.06.81,1.38,0,0-.03.06-.19.09,0,0,.13.96-.1,1.71,0,0-.08,1.25-.27,1.58,0,0,.06-2.29-.24-2.51,0,0,.12,1.79-.02,2.21,0,0-.08-1.26-.23-1.47,0,0,.03,1.02-.11,1.26,0,0-.17-1.36-.35-1.53,0,0,.08.48,0,.71,0,0-.15-.75-.35-.9,0,0,.08.49.07.71,0,0-.35-.78-.55-.89,0,0,.16.51.18.64,0,0-.44-.82-.54-.85,0,0,.15.55.25.7,0,0-.4-.55-.57-.61-.18-.06-.16.06-.25-.06-.1-.12-.21-.27-.35-.21,0,0,.32.76.24,1.03,0,0,1.95,1.35,2.17,1.59.23.25-.18.28-.29.3-.11.03-.27-.03-.27-.03,0,0-.07.19-.39.18,0,0-.3.16-.49-.05,0,0-.27.1-.49-.14-.22-.24-.34-.33-.34-.33,0,0-.09.11,0,.25l-.17-.08s-.01.11.01.17.18.22.28.26c.1.04.33,0,.38.11.05.11.01.16.01.16l-.17.26s-.23.14-.31-.17h-.53s-.25.23-.25.23h-.18s-.15-.18-.15-.18v-.14h-.21s-.08-.27-.08-.27c0,0-.04-.1.05-.1s.29.06.41.02.18-.22.16-.3l-.14.16-.37-.57-.04.14-.39-.52s.04.37-.06.43c-.1.06-.21-.2-.21-.2,0,0-.37.11-.5.13s-.37.05-.19-.13l-.67-.17.17-.16-.2-.02s.13.1-.04.11c-.16.01-.2-.03-.24-.03-.04,0-.22.01-.22.01,0,0-.3.13-.41.1-.11-.04-.27-.4-.24-.5.03-.1.11-.12.14-.1,0,0-.04-.3.18-.18,0,0,.01-.31.32-.17l.16-.06s.58.14.66.21c.08.07.14.11.12.28h.27s-.29-.26-.27-.4c0,0,.12-.05.17-.03.05.01-.24-.26-.16-.57,0,0-.09-.12-.09-.18l-.16.07s-.12-.51-.21-.85c-.08-.34.2-.6.2-.6,0,0-.09-.02-.04-.11.05-.09.28-.43.3-.48h-.09s.09-.14.17-.27c.08-.13.1-.18.1-.18h-.08s-.1-.06-.1-.06c0,0-.42.24-.51.24s-.13.01-.19-.07c-.13-.17-.33-.13-.42-.03-.11.12-.09.33.17.46Z"/>
      <path class="r" d="M21.78,13.93l.34-.17s.05-.07-.04-.14c-.09-.07-.15-.12-.15-.12l.08.22-.09-.06-.09.1.04.04-.09.13Z"/>
      <path class="n" d="M21.52,13.95c.17.1.84.22.99.17.07.14.02.17-.02.2,0,0-.3.18-.38.18,0,0,.01-.06.08-.07.07-.01.15-.05.16-.07,0-.02.01-.07.01-.07,0,0-.21-.1-.35-.05-.14.05-.21.07-.32.09-.12.01-.24.06-.27.14-.03.08-.05.31.08.41,0,0-.37,0-.4-.24-.03-.24.31-.72.42-.67Z"/>
      <path class="r" d="M21.95,14.44s.11-.11.15-.14c.03-.03.05-.03.09-.03s.13.01.13.01l-.37.16Z"/>
      <path class="n" d="M24.16,19.53c.03.05.08.26.08.28,0,.02.2,0,.23,0,.03-.01.31-.13.36-.18.05-.05.16-.09.14-.14-.01-.05-.2-.15-.2-.15,0,0-.03.1-.09.14-.06.05-.17.07-.27.06-.1-.01-.26-.07-.25,0Z"/>
      <path class="n" d="M25.93,19.64c-.07,0-.15.02-.24-.01s-.28-.19-.32-.22c-.04-.03-.19-.1-.19-.1l-.15.26s.11.1.18.1c.07,0,.28.03.31.08.03.05.06.21.1.24.04.03.1.11.2.08l.2-.28s0-.14-.08-.15Z"/>
      <path class="n" d="M24.51,19.83c.05-.02.47-.24.47-.24,0,0,.11.15.15.15s.27,0,.3,0c.03.01.08.14.08.14h-.5s-.25.24-.25.24h-.15s-.14-.13-.14-.15c0-.02,0-.13.04-.13Z"/>
      <path class="b" d="M24.11,19.55s.08.25.08.27c0,.03-.01.04-.05.06-.05.02-.15.06-.15.19v.13s-.06-.12-.06-.12c0,0-.2-.34.13-.56l.03-.02v.04h.01ZM24.13,19.83h0s-.05-.15-.07-.23c-.14.11-.13.25-.11.34.04-.08.12-.12.17-.14,0,0,.02.04.01.02Z"/>
      <path class="q" d="M24.08,19.56s.08.25.08.27c0,.02-.21.04-.2.24,0,0-.19-.31.11-.51Z"/>
      <path class="b" d="M24.43,20.01l.13.17.02.03h-.04s-.14.07-.12.3v.13s-.06-.11-.06-.11c0,0-.23-.34.02-.53l.03-.02.02.03h0ZM24.48,20.19h0l-.08-.11c-.09.09-.07.22-.04.31.02-.11.08-.17.12-.2Z"/>
      <path class="q" d="M24.41,20.03l.13.17s-.17.06-.14.32c0,0-.21-.32.01-.49Z"/>
      <path class="b" d="M25.89,20.07l.15-.23.02-.04.03.04s.17.22.03.47l-.05.08v-.09s-.04-.21-.14-.19l-.08.02.05-.07h0ZM26.07,19.92h0l-.09.13c.06.02.1.09.12.15.04-.12,0-.23-.03-.28Z"/>
      <path class="q" d="M25.92,20.08l.15-.23s.16.21.02.44c0,0-.04-.25-.17-.21Z"/>
      <path class="y" d="M21.05,18c.02.08.11.37.21.43.09.06.16-.07.16-.07l-.22-.45s-.14-.07-.14.09Z"/>
      <path class="y" d="M21.23,17.7s-.04.13-.03.18c.01.05.21.46.24.47.03.02.03.05.06.05s.09-.03.11-.04c.02-.01-.08-.21-.11-.27-.02-.06-.03-.19-.05-.22-.02-.04-.06-.02-.07-.08-.01-.06-.11-.09-.17-.08Z"/>
      <path class="y" d="M21.47,17.52s-.08.1-.09.14c0,.04.05.12.09.15.04.03.01.18.05.26.04.08.08.24.13.26.06.02.13.03.14.01,0-.02-.09-.23-.11-.3-.02-.07-.03-.24-.01-.32.01-.08.01-.15-.01-.16-.02-.01-.09-.07-.2-.03Z"/>
      <path class="y" d="M21.97,17.98s.15.18.15.23c0,.05.06.07.05.12-.01.04-.2.06-.28.02-.08-.04-.1-.12-.11-.17,0-.05-.05-.14-.05-.14,0,0,.13-.05.17-.06.05,0,.08.02.08.02Z"/>
      <path class="w" d="M21.55,13.92c.12,0,.15.02.17,0,.01,0,.09-.09.14-.21.06-.14.1-.33.11-.43,0,0-.05.18-.19.26-.14.08-.19.09-.22.17-.03.07-.07.12-.07.12v.1s.05,0,.05,0h0ZM24.1,12.51h0l-.11-.28.11-.11h.4s.72.13.72.13l.64.24s.4.23.43.26c.03.03.31.15.31.15l.44.07-.13.16-.24.12-.36-.04-.1-.44-.05.37-.27-.09-.08-.08-.38-.53.07.41-.37-.37-.3-.08.32.35-.29-.12h-.31s-.43-.11-.43-.11h0ZM25.5,12.94h0l.05.29h.28s-.14-.28-.14-.28c0,0-.17-.01-.18-.01h0ZM25.83,13.35h0l.25.04.14.22.19-.03v-.23s-.36-.18-.36-.18l-.23.19h0ZM25.56,13.34h0l.14.06.32.09.27.24v.26s-.16-.19-.16-.19l-.6-.21.03-.26h0ZM25.56,13.89h0l.17.36.25.18.15.14.18-.15-.11-.34-.25-.15-.39-.05h0ZM25.54,14.48h0l.11-.03.2.09.19.21-.08.17h-.24s-.19-.21-.19-.21v-.23h0ZM25.29,15.06h0l-.06.12.19.17.24.02v-.26s-.21-.19-.21-.19l-.16.14h0ZM25.49,15.6h0l.14-.11.14.17-.07.16-.22-.09v-.13h0ZM26.55,13.69h0l.12-.13.31.23.19.29.09.35.29.65-.4-.61-.13-.28-.39-.34-.08-.16h0ZM26.38,14.17h0l.07.29.31.46.38.35.07-.09-.04-.29-.21-.34-.43-.48-.16.11h0ZM26.18,14.74h0l.16.34.34.23-.22-.36-.13-.28-.15.07h0ZM25.8,15.18h0l.37-.14.05.31-.04.4-.32-.34-.07-.23h0ZM28.26,15.66h0l.51.05-.24-.33-.3-.72-.2-.42-.3-.4-.44-.45-.31-.19-.31.16.66.25-.23.1.42.25-.21.06.61.3-.21.05.41.31-.17.04.02.2.4.44.05.22-.14.09h0ZM27.67,15.48h0l.15.19.19-.05-.04-.48-.53-.67.33.85-.1.15h0ZM27.27,15.74h.27s0-.27,0-.27l-.25-.57.06.41-.05.18-.15.05-.02.15.14.05h0ZM26.69,15.64h0l.26.02v-.36s-.37-.49-.37-.49l.16.45.02.22-.06.16h0ZM26.18,15.89h0l.14-.16v-.27l-.08-.4.29.52-.03.29s-.29.02-.32.02h0ZM25.66,16.13h0l.23.04.09-.21-.17-.44.04.31-.19.3h0ZM25.6,16.25h.22s.02.09.02.09l.47.45-.5-.28-.21-.27h0ZM25.96,16.2h0l.14-.08.15.24.25.22-.36-.14-.18-.24h0ZM28.16,15.75h0l.25.08v.42s-.04.08-.04.08l-.11-.05-.05-.22-.06-.31h0ZM28.56,15.84h0l.17.07s.08.64.08.66-.01.69-.01.69l-.28-.82.05-.6h0ZM27.93,15.77h0l.09.45.37.44-.26-.51-.07-.35-.13-.03h0ZM26.34,15.98h0l.1.37.57.49-.23-.37-.15-.48h-.29ZM26.81,15.82h0l.19-.02.16.58.3.47-.12.11-.3-.41-.23-.73h0ZM27.44,15.89h0v.41s.21.42.21.42l.23.48-.02-.38-.24-.51.05-.42h-.22ZM25.36,15.87h0l.02.44h.12l.04-.29-.18-.15h0ZM25.09,15.83h0l.09-.11v-.22s-.1-.14-.1-.14l.05-.1.18.15.07.23-.18.32-.11-.12h0ZM24.72,14.68h0s.1-.34.1-.34l-.22-.43.2.12.07-.04-.05-.22-.38-.25h.19s.23.16.23.16l-.23-.4-.26-.12.23-.02-.35-.22h-.26s.1-.1.1-.1l-.16-.11-.27.03.3-.14-.13-.07-.16-.03.18-.06-.04-.07-.18.02-.12.1-.07.14.06.14.2.09.3.14.17.12.09.16.05.26v.17s.25.54.25.54c0,0,.17.43.17.44h0ZM24.73,14.8h0l.19-.14.12-.28.03-.43-.09-.48-.16-.26-.28-.37-.25-.1.27.24.28.39.12.38v.51s-.07.3-.07.3c0,0-.16.24-.16.24h0ZM24.96,14.88h-.24l-.02.52.34-.11.15-.24-.24-.18h0ZM25.12,14.5h0l.32.12-.06.25h-.12l-.29-.16.15-.22h0ZM25.2,14.02h0l.27.12v.31h-.21s-.14-.1-.14-.1l.08-.32h0ZM25.14,13.43h0l.32.13-.02.31-.06.12-.24-.08v-.34s0-.14,0-.14h0ZM24.66,12.83h0l.26.45.25.08.24.06-.06-.46-.27-.12-.42-.02h0ZM21.95,18.28h0l.2-.09.04.08-.02.09h-.14s-.07-.08-.07-.08h0ZM22.28,18.03h0l-.13.08.04.04.08.09.2-.12-.08-.09h-.11ZM22.59,17.81h0l.03.15-.06.1-.15-.08.16-.24.03.07h0ZM22.36,18.26h0l.17-.11.13.13-.3-.02h0ZM23.25,18.34h0l-.14-.29-.19-.05-.36.12.19.17.38.15.13-.09h0ZM22.37,18.45h0l.02-.08.08-.06.59.15-.13.13-.56-.14h0ZM23.44,18.26h0l.14.34-.4.11h-.25s.16-.19.16-.19l.28-.18.08-.08h0ZM23.93,18.31h0l.18.19.1.17h-.08s-.2-.27-.2-.27v-.08h0ZM23.53,17.89h.16s.12.29.12.29l-.29-.2v-.09h0ZM23.51,18.06h0l.02.16.08.25.16.31.06-.33v-.1s-.31-.28-.31-.28h0ZM25.58,18.56h0l1.04.93-.15-.03-.91-.85v-.08s.02.02.02.02h0ZM25.68,18.15h0l-.02.13,1.25,1.14.19-.03-1.43-1.24h0ZM25.74,17.82h0l-.03-.03v.13s1.58,1.33,1.58,1.33l.14.04.14-.04-1.83-1.44h0ZM25.76,17.59h0v.1s2.07,1.51,2.07,1.51l-.04-.13-2.03-1.47h0ZM25.27,18.41h0v.2s.05.07.05.07l.03.2.11.23.04-.39.03-.34-.06-.08-.09.25-.11-.13h0ZM25,18.74h0v-.13s.25.12.25.12l.05.16v.32s-.12-.15-.12-.15l-.18-.32h0ZM24.66,18.53h0l.04.29.13.27.23.29.11-.17-.13-.26-.37-.42h0ZM24.33,18.74h0l.25.07.13.23-.03.23s-.35-.51-.36-.52h0ZM22.79,17.56h0l.26.13-.04.24-.17-.13-.1-.17.04-.07h0ZM23.1,17.53h0l.21.26.13.08-.03.27-.12.16-.12-.23-.07-.08v-.46h.01ZM25.4,16.6h0l-.08.55.13.29.07.51-.02.19.07.11.07-.36-.02-.38-.02-.13v-.26s-.2-.53-.2-.53h0ZM24.98,17.02h0l.26.16.15.33.05.45-.04.39-.13-.11-.3-.93v-.29h0ZM24.57,17.13h0l.34.22.13.38.18.6-.05.27-.13-.1-.46-.89-.02-.47h0ZM24.14,17.45h0v.29s.39.46.39.46l.39.48.05-.12-.24-.49-.21-.41-.37-.21h0ZM23.78,17.61h0l-.03.3.11.26.29.3.47.26-.13-.45-.31-.42-.4-.25h0ZM22.73,17.03h0l-.04.12.1.22.18.23.02-.14-.14-.32-.13-.1h0ZM22.66,16.59h0l-.03.13.06.15.2.13.15.33.36.43.26.1-.07-.41-.4-.47-.17-.11-.37-.28h0ZM24.73,15.53h0l.06.32-.06.3.17.44.09.31.27.16.08-.43-.04-.39-.19-.28-.1-.15v-.14l-.28-.16h0ZM24.44,16.22h0l-.06.29.15.46.35.29-.06-.55-.13-.42-.25-.07h0ZM23.95,16.43h0l.32.13.22.52.02.5-.4-.25-.07-.31-.19-.22.09-.37h0ZM23.27,16.48h0l-.02.39.31.45.49.34s-.07-.53-.08-.55c-.01-.02-.26-.28-.26-.28l-.22-.1-.21-.24h0ZM24.32,15.48h0s.23,0,.23,0l.12.39-.03.35-.19-.16-.06-.22-.06-.26v-.1h-.01ZM24.03,15.36h0l-.08.12-.06.27.04.31.02.26.26.14.14-.34v-.18l-.08-.38-.24-.2h0ZM22.66,15.38h0l-.1.58.04.48-.03.26-.12.07-.13-.49-.08-.41.06-.22.12-.2.06-.08.2-.03v.04h0ZM22.69,15.63h0l.35-.1.13-.11v.6s.02.31.02.31l-.07.53s-.41-.27-.42-.34c-.01-.07-.1-.51-.1-.51l.09-.38h0ZM23.26,15.58h0l.19.23.17-.02.21-.15.04.44-.05.41-.07.25-.32-.27-.18-.47v-.43h0ZM22.15,13.81h0l.25.18.29.02.19.1-.11.17-.13-.07-.04-.13h-.32s-.44-.06-.44-.06l.31-.2h0ZM22.27,13.71h0l-.07.03.23.19.18-.03.22.11.15-.05-.12-.2-.14-.03-.29.04-.17-.08h0ZM22.73,14.84h0l.05.05-.11.41h-.26s.32-.45.32-.45h0ZM23.12,14.66h0l-.27.14-.17.76.39-.13.2-.4-.02-.21-.13-.15h0ZM22.96,14.11h0l-.06.21-.14.4.24-.07.13-.18v-.25s-.16-.12-.16-.12h0ZM23.36,14.06h0l.07.14h.08s-.01.31-.01.31l-.13.28-.18-.23v-.37s.17-.13.17-.13h0ZM23.56,14.62h0l.36.18.03.32-.07.34-.26.26-.11.02-.21-.28-.03-.18.09-.29.12-.27.09-.1h0ZM23.96,14.39h0l.23.23.15-.28.13-.1.09.58.07.21v.17s-.1.17-.1.17l-.11.06-.3-.11-.13-.5-.07-.13.03-.3h0ZM22.27,13.64h0l.3-.29.18-.09.51.02.26.07h.25s.24.13.24.13l.21.23.12.3-.02.25-.12.26-.27-.29-.1-.37-.16-.24h-.29s.26.13.26.13l.13.29.09.23v.42l-.24-.16-.07-.4-.11-.11v-.13s-.19-.28-.19-.28l-.31-.16h-.1l.07-.07-.09.03-.07.11h-.1s-.16.17-.16.17l.21-.07.13-.07.27.08.14.16v.31s-.18-.06-.18-.06l-.15-.26.11-.07h-.43s-.15.06-.15.06l-.18-.11h0ZM23.01,13.18h-.02s0-.14,0-.14l.13-.02.13.03.15.06.31.12-.38-.03-.32-.03h0ZM22.83,12.82h0l-.13.2-.09.21.3-.05.03-.13-.03-.16-.09-.08h0ZM22.54,12.89h0l-.12.35-.07.18.07-.02.08-.09.09-.18-.05-.23h0ZM22.03,13.19h0v.1s.02.12.02.12v.09s.1.1.1.1h.07s.09-.19.09-.19l.04-.23-.1-.23-.04.16-.1.11-.09-.02Z"/>
    </g>
    <path class="u" d="M21.14,16.19c-.02.15-.18.57.17.68.35.11.4.01.62.02.22.01.53.26.58.43.05.17-.02.54-.12.61-.1.07-.28.17-.28.17,0,0-.08-.15-.15-.17-.07-.02-.25.05-.25.05,0,0-.04-.12-.02-.23.02-.11.02-.22.02-.24,0-.02.11-.06.14-.08.03-.02-.22.01-.37-.01-.15-.02-.56-.19-.6-.32s-.14-.38-.09-.49c.05-.11.34-.43.34-.43Z"/>
    <polygon class="f" points="20.7 17.53 20.63 17.69 20.75 17.57 20.7 17.53"/>
    <path class="f" d="M20.88,17.96s-.01-.09-.01-.09h-.24s-.06.17-.06.17l.1-.11.21.03Z"/>
    <polygon class="f" points="21 18.09 20.77 18.07 21.01 18.17 21 18.09"/>
    <polygon class="f" points="20.76 16.14 20.87 16.31 20.98 16.3 20.85 16.19 21.14 16.14 20.76 16.14"/>
    <polygon class="f" points="20.71 16.42 20.69 16.3 20.92 16.38 20.75 16.36 20.71 16.42"/>
    <polygon class="f" points="20.63 16.47 20.71 16.62 20.73 16.47 20.63 16.47"/>
    <polygon class="f" points="20.64 16.76 20.82 16.84 20.91 16.93 21.03 16.93 20.88 16.76 20.64 16.76"/>
    <polygon class="c" points="20.76 16.63 21 16.77 20.89 16.58 20.76 16.63"/>
    <polygon class="f" points="20.66 16.93 20.74 17.1 20.76 16.96 20.66 16.93"/>
    <polygon class="c" points="20.84 17.1 21.04 17.08 20.94 17.12 20.84 17.1"/>
    <path class="c" d="M22.05,16.99l.04.2s-.06.28-.06.27c0,0,.17-.26.17-.26l-.15-.21Z"/>
    <path class="c" d="M21.61,16.99s.19.29.19.29v-.18s-.19-.1-.19-.1Z"/>
    <polygon class="c" points="21.3 16.94 21.36 17.21 21.34 17.34 21.48 17.21 21.3 16.94"/>
    <polygon class="c" points="21.13 16.86 21.05 17 21.19 16.97 21.13 16.86"/>
    <path class="c" d="M22.39,17.61l-.2.04s-.28-.07-.27-.06c0,0,.26.17.26.17l.21-.15Z"/>
    <polygon class="c" points="21.85 17.71 21.77 17.86 21.91 17.83 21.85 17.71"/>
    <polygon class="c" points="21.88 19.82 22.05 19.93 22.03 19.82 21.88 19.82"/>
    <path class="k" d="M18.06,17.21l-.2.47v.65s-.16-.13-.16-.13l-.17-.23.18-.05-.06-.4s.16.02.16,0,.06-.3.06-.3h.19Z"/>
    <polygon class="k" points="18.23 19.6 18.69 20.63 18.2 20.42 18.34 20.28 17.95 20.03 18.22 19.93 18.23 19.6"/>
    <path class="k" d="M19.38,21.5l.32.38.33.32-.38.04s-.02-.22-.05-.22-.34-.07-.34-.07l.22-.17-.1-.28Z"/>
    <polygon class="k" points="21.21 22.82 21.85 23.17 22.76 23.16 22.24 23.47 22.06 23.3 21.65 23.48 21.72 23.27 21.29 23.04 21.21 22.82"/>
  </g>
</svg>