<?xml version="1.0" encoding="UTF-8"?>
<svg id="a" data-name="Layer 1" xmlns="http://www.w3.org/2000/svg" xmlns:xlink="http://www.w3.org/1999/xlink" viewBox="0 0 48 36">
  <defs>
    <style>
      .c {
        fill: #007446;
      }

      .c, .d, .e, .f, .g, .h {
        fill-rule: evenodd;
      }

      .i {
        fill: #000001;
      }

      .d {
        fill: #ad7952;
      }

      .j {
        fill: #ffdb00;
      }

      .k {
        fill: #f30004;
      }

      .l {
        fill: #174899;
      }

      .m {
        fill: #0132bf;
      }

      .n, .g {
        fill: #ca2026;
      }

      .o {
        clip-rule: evenodd;
      }

      .o, .p, .f {
        fill: none;
      }

      .p {
        stroke: #000001;
        stroke-width: .34px;
      }

      .p, .f {
        stroke-miterlimit: 22.93;
      }

      .q, .h {
        fill: #ffd101;
      }

      .e {
        fill: #fff100;
      }

      .f {
        stroke: #ffd101;
        stroke-width: .85px;
      }

      .r {
        clip-path: url(#b);
      }
    </style>
    <clipPath id="b">
      <path class="o" d="M24,20.97c-.28-.48-2.76-1.14-2.76-1.74v-4.75c0-.08-.05-.16-.11-.25h5.74c-.05.09-.11.17-.11.25v4.75c0,.6-2.49,1.26-2.76,1.74Z"/>
    </clipPath>
  </defs>
  <rect class="k" x="32" y=".02" width="16.02" height="35.97"/>
  <rect class="m" x="-.04" y=".02" width="16.02" height="35.97"/>
  <rect class="j" x="15.98" y=".02" width="16.02" height="35.97"/>
  <path class="i" d="M21.72,20.87c-.14.22-.34.54-.45.68,0,.01,0,.02,0,.03.02-.02.04-.05.06-.07.1-.11.28-.36.41-.56l-.03-.08h0ZM20.32,11.79c.05.06.17.15.3.26.19.15.4.29.44.31.08.04.12.12.12.2v.72s.01.02.01.03c.04,0,.09,0,.14,0,.05,0,.11,0,.16.02.15.03.36.13.55.22.13.06.25.12.3.13.08.02.15.03.21.04.07,0,.13.01.18.01.03,0,.06,0,.09.02.01-.03.03-.05.05-.07.07-.07.14-.21.21-.38.07-.17.11-.35.12-.5v-.02c.02-.35.04-.83-.05-.97,0,0-.01-.02-.02-.02,0,0-.01-.01-.01-.02,0,0-.01-.02-.02-.02,0,0-.02-.01-.02-.02h0s-.08-.07-.12-.09c-.08-.06-.14-.1-.18-.19-.02-.06-.02-.12,0-.17-.03,0-.06,0-.08.02-.1.05-.22.01-.27-.09-.04-.07-.03-.16.02-.21.06-.09.21-.22.58-.22,0,0,0-.02,0-.02h0c.08-.16.26-.23.46-.25.23-.02.52.03.65.07.11.03.25.1.37.16.06.03.12.06.16.07.12.05.26.1.26.1.09.04.14.13.13.23.04.04.08.08.1.14.03.07.02.14-.02.19.02.04.03.09.04.15.01.1-.06.2-.16.22.01.1.01.2,0,.25-.01.05-.04.11-.07.17-.04.08-.09.19-.09.24,0,.09,0,.36.07.62.03.14.08.27.14.34.05.06.09.11.13.15.03.03.05.06.07.07,0,0,.02.02.02.02.01,0,.03,0,.04,0h0s.1,0,.16,0c.07,0,.15-.03.22-.06.04-.01.1-.05.17-.1.19-.11.42-.26.66-.25.07,0,.13,0,.17,0,.05,0,.09,0,.13,0,0-.03,0-.05,0-.08h0s0-.02,0-.03c0-.01,0-.02,0-.04,0-.21.02-.65.02-.65,0-.07.04-.13.1-.17.07-.05.7-.45.74-.54.04-.1.16-.15.27-.11.02,0,.03.02.04.03.05.04.58.43.84.84.02.03.03.06.03.09.03.02.05.05.06.08h0s.03.07.04.11c.01.04.02.08.03.12,0,.04.01.14.02.28,0,.13,0,.31,0,.53,0,.03,0,.06-.02.09.01.03.02.06.02.09,0,.06,0,.13,0,.19,0,.07,0,.14,0,.22,0,.03,0,.06-.02.09.01.03.02.06.02.09h0c.02,2.62,0,7.56,0,7.57,0,.11-.09.2-.2.2-.05,0-.09-.02-.13-.05h0s-.29-.24-.47-.5c-.03.01-.05.02-.08.02-.06,0-.12-.03-.15-.07-.03-.03-.11-.12-.2-.22-.1-.13-.23-.29-.33-.46-.02-.03-.03-.07-.03-.1h0v-.15c-.06-.02-.11-.07-.13-.13-.07-.1-.27-.41-.36-.71-.03-.11-.08-.33-.13-.57-.1-.45-.22-1-.28-1.1,0-.01-.56.29-.85.44.17.37.56,1.25.61,1.32.03.05.06.1.09.14.02.03.04.05.04.05.09.06.12.19.06.28-.02.03-.05.06-.09.07.15.25.43.72.46.73.01,0,.04.01.08.02.05,0,.1,0,.14,0,.02,0,.05,0,.07,0,.08,0,.19.05.28.1.11.06.21.15.22.24h0s0,.03,0,.05c0,.07-.03.13-.07.17,0,.01,0,.03,0,.04h0s0,0,0,0c.05.06.07.12.07.17,0,.06-.02.09-.04.12h0s0,0,0,0h0s-.06.06-.09.08c0,.02-.02.04-.03.06-.03.04-.06.07-.1.08,0,.02-.02.05-.05.07h0s-.09.07-.15.08c-.05,0-.1,0-.15-.03-.06-.03-.24-.2-.24-.2l-.02-.02v-.02s-.03-.04-.04-.06l-.08.07-.08-.21s-.09-.25-.25-.44c-.18-.22-.62-.85-.62-.85l-.04-.06h0s0-.01-.01-.01c-.2-.13-.37-.38-.41-.41-.07-.05-.17-.13-.3-.26l-.26.43c.16.4.85,2.05,1.6,2.64.09.07.1.2.03.28-.02.03-.05.05-.08.06l-.6.24c-.09.04-.19,0-.24-.08-.06-.08-.45-.58-.78-1.15.08.38.22.81.48,1.22.06.09.03.22-.07.28,0,0,0,0-.01,0h0s-.78.42-.86.55c-.06.09-.18.12-.28.06,0,0-.02-.01-.03-.02h0s-.59-.54-.78-.56c-.11-.01-.19-.12-.17-.23,0-.02,0-.04.02-.06.02-.05.2-.47.36-.97-.18.3-.4.61-.66.89-.06.06-.14.08-.21.05h0l-.62-.21c-.11-.04-.16-.15-.13-.26.01-.04.04-.07.06-.09.09-.08,1.04-.99,1.61-2.86l-.51.02c-.13.14-.43.45-.47.5-.06.06-.14.07-.22.05-.11.15-.43.62-.58.8-.16.19-.25.44-.25.44l-.08.21-.08-.07s-.02.04-.03.06v.02s-.03.02-.03.02c0,0-.18.17-.24.2-.05.03-.1.04-.15.03-.05,0-.1-.03-.15-.08h0s-.04-.05-.05-.07c-.03-.01-.07-.04-.1-.08-.02-.02-.03-.04-.03-.06-.03-.01-.07-.04-.09-.07h0s0,0,0,0h0s-.04-.07-.04-.13c0-.06.01-.11.07-.17h0s0,0,0,0c0-.01,0-.03,0-.04-.04-.04-.06-.09-.07-.17,0-.02,0-.03,0-.05h0c.01-.09.11-.18.22-.24.09-.05.2-.09.28-.1.02,0,.05,0,.07,0,.04,0,.09,0,.14,0,.03,0,.06,0,.08-.02.03-.02.39-.61.51-.81-.02-.03-.03-.07-.03-.11,0-.06.02-.11.06-.15.04-.04.22-.26.25-.45.02-.12-.26-.58-.48-.92-.15.68-.42,1.87-.52,2.03-.02.02-.03.05-.06.08-.02.03-.05.06-.07.09-.02.03-.06.05-.09.06,0,.04-.03.08-.06.11-.09.1-.2.2-.3.29-.1.09-.2.17-.27.21-.06.04-.12.04-.18.02-.03.06-.07.11-.11.17-.1.13-.21.25-.34.33-.1.06-.22.03-.28-.07-.02-.03-.03-.07-.03-.11,0-.21-.05-5.03-.05-7.58,0-.03,0-.07.02-.09-.02-.03-.02-.07-.02-.1v-.34s0-.06.02-.09c-.02-.03-.02-.06-.02-.1,0-.24,0-.43,0-.57,0-.16,0-.26.02-.29,0-.03.02-.07.05-.12.02-.04.04-.08.06-.12h0c.03-.06.06-.1.1-.12,0-.03.02-.06.05-.09.08-.1.18-.21.32-.35.12-.12.26-.25.43-.39h0s.07-.07.15-.06c.1,0,.12.03.17.08,0,0,0,0,0,0h0,0ZM26.69,21.55c-.12-.14-.32-.45-.45-.68l-.03.08c.14.2.32.44.41.56.02.02.04.05.06.07,0-.01,0-.02,0-.03h0ZM23.97,11.52h0s0,0,0,0c0,0,0,0,0,0-.02.01-.04.03-.06.04.02.05.02.08.02.08h0c0,.05,0,.11-.04.16-.07.09-.19.11-.28.04,0,0-.02-.01-.04-.03.03.14.05.3.05.47h.04s.07.01.1.03c.03-.02.07-.03.11-.03h.08s.07.01.1.03c.03-.02.07-.03.1-.03h.08s0,0,0,0c.04,0,.07,0,.1.03.03-.02.07-.03.12-.03h.08c.02-.06.05-.12.08-.17.02-.05.04-.09.05-.1.01-.04-.04-.29-.05-.35,0-.04,0-.07,0-.11,0,0,0,0,0,0-.03,0-.17-.04-.32-.15-.04-.03-.07-.05-.1-.07-.03-.02-.04-.04-.04-.04-.01,0-.02,0-.03,0,0,.03-.01.07-.02.1-.02.05-.06.1-.11.14h0ZM25.85,19.93l-.57.04c-.09-.17-.18-.32-.18-.32-.08-.08-.2-.08-.29,0-.02.01-.03.03-.04.05l-.44.73c-.03.06-.04.12-.02.17h0s.68,1.8,1.52,2.68l-.16.07c-.26-.35-.99-1.37-1.1-2.01-.02-.11-.12-.19-.23-.17-.09.02-.16.09-.17.18,0,.06-.12,1.28.51,2.45-.19.11-.48.28-.66.43-.15-.13-.41-.33-.63-.45.19-.48.66-1.78.54-2.43-.02-.11-.13-.18-.24-.16-.08.01-.14.07-.16.15-.03.1-.37,1.19-1.09,2.01l-.2-.07c.38-.43,1.13-1.44,1.58-3.08.03-.11-.03-.22-.14-.25-.03,0-.05,0-.08,0l-.86.03c-.06,0-.1.03-.14.06h0s-.16.16-.3.31c-.04-.06-.12-.1-.2-.08,0-.01-.01-.02-.02-.03.06-.11.12-.24.14-.38.05-.36-.81-1.59-.81-1.59-.06-.09-.19-.11-.28-.05-.04.03-.07.08-.08.12h0s-.16.74-.31,1.39v-4.75c.06.01.13,0,.18-.04l.03-.02.52-.38c.09-.06.11-.19.05-.28.02-.01.04-.03.06-.05.01-.01.04-.04.06-.08.05.07.12.13.18.15.09.03.18,0,.23-.08.01-.02.07-.1.07-.1.04,0,.08-.02.1-.03h0s.02,0,.02,0c0,.03,0,.05,0,.08.03.09.11.14.2.14h0s.28,0,.58-.11c.04.07.12.11.2.1h0s.32-.03.58-.21c.03.04.05.07.08.09.08.07.21.06.28-.02,0,0,.01-.02.02-.02,0-.01.02-.03.04-.06.15.11.36.23.6.23.07,0,.13-.04.17-.1.18.08.41.13.66.1.11-.01.19-.11.18-.23,0,0,0,0,0,0,.01,0,.02,0,.03-.01h0s.03,0,.05,0c.02.01.04.03.04.04,0,.11.11.19.22.18.04,0,.08-.02.11-.05.02-.02.08-.06.14-.12.01.01.02.02.02.03,0,.04.03.07.05.1h0c-.07.09-.05.22.04.28l.55.41.04.03c.06.04.13.05.19.03v4.69c-.03-.11-.06-.24-.09-.39-.11-.48-.24-1.07-.33-1.22-.21-.35-1.54.39-1.55.39-.1.05-.13.17-.08.27.04.09.35.78.55,1.2h0ZM20.37,12.37c-.08-.06-.16-.13-.23-.19-.02.02-.03.03-.05.05,0,0,.01.01.02.02l.05.06h0s0,0,0,0c.07.09.06.21-.03.28,0,0,0,0-.02.02,0,0,0,0,0,0,0,0,0,.01-.01.02h0s0,0,0,0c0,0,0,.01,0,.02l.1.15.05-.04s0-.03.01-.05c0-.04.02-.08.04-.12.02-.04.04-.08.08-.12.02-.02.04-.04.06-.05-.02-.02-.05-.03-.07-.05h0ZM20.77,12.82v-.08s-.01.02-.02.03c0,0,0,.01-.01.02l.03.03h0ZM20.09,12.64s0,0,0,0h0s0,0,0,0h0ZM20.32,11.79s0,0,0,0h0ZM27.04,13.98s-.08.09-.11.13l.11.08v-.22h0ZM21.03,14.2l.12-.09s-.04-.05-.06-.08c-.02-.03-.04-.06-.07-.09v.25h0ZM25.03,11.56h0s0,0,0,0h0ZM20.07,21.16s.09-.09.14-.14v-6.04s-.09,0-.14-.01v6.19h0ZM19.43,21.59c.03-.06.07-.11.09-.16v-6.48s-.09.02-.14,0c0,2.13.03,5.38.05,6.63h0ZM27.99,14.97s-.07,0-.1,0v5.93c.03.05.07.1.1.15v-6.07h0ZM28.68,14.98c-.05.01-.11,0-.16-.02v6.42l.02.05h0c.02.07.07.14.13.21,0-1.22.02-4.5,0-6.66h0ZM27.3,12.74v.06s.01-.02.02-.03c0,0-.01-.02-.02-.03h0ZM27.95,12.17c-.09.08-.2.17-.31.25.01,0,.03.02.04.03.03.03.06.06.08.1.02.04.03.07.04.11,0,.03.01.06.02.08h0l.05.04.08-.13s0-.01,0-.02c0-.01,0-.02,0-.03,0,0,0,0,0,0h0c-.08-.08-.1-.2-.02-.29l.05-.06s.02-.03.04-.04c-.02-.02-.04-.03-.05-.04Z"/>
  <g>
    <path class="p" d="M22.78,10.22h-.28s-.12-.02-.16-.07c0,0-.04.17,0,.26,0,0,.08-.07.15-.08.08,0,.29,0,.29,0v1.12s0,.13-.08.17c0,0,.12.06.14.16,0,0,.05-.14.13-.16,0,0-.09-.06-.09-.16,0-.1,0-1.12,0-1.12h.27s.13,0,.18.08c.04-.07.02-.23,0-.26,0,0-.06.09-.18.09h-.26v-.29s0-.12.08-.16c0,0-.16-.05-.26,0,0,0,.08.07.08.16,0,.08,0,.28,0,.28Z"/>
    <path class="h" d="M22.78,10.22h-.28s-.12-.02-.16-.07c0,0-.04.17,0,.26,0,0,.08-.07.15-.08.08,0,.29,0,.29,0v1.12s0,.13-.08.17c0,0,.12.06.14.16,0,0,.05-.14.13-.16,0,0-.09-.06-.09-.16,0-.1,0-1.12,0-1.12h.27s.13,0,.18.08c.04-.07.02-.23,0-.26,0,0-.06.09-.18.09h-.26v-.29s0-.12.08-.16c0,0-.16-.05-.26,0,0,0,.08.07.08.16,0,.08,0,.28,0,.28Z"/>
  </g>
  <path class="d" d="M19.73,21.48c-.11.22-.28.5-.49.62,0,0-.05-4.99-.05-7.58l.22.21.04.04.05-.03.24-.16v6.9h0ZM20.76,14.58l-.22-.18h0s0-.42,0-.42h0s.2-.2.2-.2l.02.8h0ZM20.41,21.1c-.19.19-.42.41-.54.49v-7.03l.25.19.04.03.04-.03.22-.15v6.5h0ZM27.69,14.59l.22.16.04.03.04-.03.21-.15v7s-.33-.33-.5-.65v-6.36h0ZM20.18,13.25h0s.26-.21.26-.21c0,.18,0,.49,0,.78l-.27-.19v-.38h0ZM27.64,13.03l.27.19h.02s0,.38,0,.38l-.03.02-.25.21c0-.11,0-.23,0-.34,0-.18,0-.35,0-.45h0ZM19.51,13.13h.02s.27-.22.27-.22c0,.18-.01.57-.02.9l-.26-.21v-.47h0ZM27.14,13.41c.19-.08.34-.27.42-.39,0,.1,0,.27,0,.46,0,.1,0,.2,0,.31-.11-.09-.28-.25-.43-.38h0ZM21.18,13.51c.02.13.22.39.22.39.16-.2.39-.21.39-.21-.01.08.07.3.1.27.12-.11.34-.07.22-.06-.09.01-.22.2-.22.2-.08-.03-.21-.28-.21-.28-.06.03-.26.28-.26.28-.09-.05-.34-.42-.43-.56l-.17.17.03.88.44-.32.08.11-.52.38-.04.03-.04-.03-.21-.18v6.38c.05-.06.09-.11.11-.15.12-.19.6-2.43.6-2.43,0,0,.81,1.17.78,1.45-.04.28-.31.57-.31.57.08,0,.21-.04.21-.04l.06.2c.08-.02.16-.1.16-.1l.08.26c.06-.06.52-.55.52-.55l.87-.03c-.6,2.2-1.75,3.23-1.75,3.23l.62.21c.86-.91,1.23-2.19,1.23-2.19.15.75-.6,2.5-.6,2.5.25.03.89.62.89.62.11-.18.94-.62.94-.62-.74-1.19-.59-2.51-.59-2.51.14.83,1.23,2.22,1.23,2.22l.6-.24c-.91-.71-1.7-2.82-1.7-2.82l.44-.74s.9.95.9.93c0-.01.07-.25.07-.25.02.05.19.08.19.08l.05-.2c.05.05.21.04.21.04-.06-.04-.13-.16-.19-.27-.06-.1-.69-1.51-.69-1.51,0,0,1.17-.65,1.28-.46.11.19.34,1.38.44,1.72.09.34.35.69.35.69,0,0,0,.01,0,.02v-6.02l-.23.18-.04.03-.04-.03-.55-.41.08-.11.47.35v-.91s-.08-.08-.13-.13c-.08.16-.43.54-.43.54-.03-.11-.27-.27-.27-.27,0,.1-.22.25-.22.25,0-.05-.24-.22-.24-.22.05,0,.27.1.27.1.06-.03.13-.3.13-.3.07,0,.36.25.36.25.07-.05.16-.26.21-.38-.06,0-.18,0-.34,0-.26,0-.58.27-.75.33-.17.07-.37.1-.5.07h0s.35.17.35.17c-.53.07-.95-.32-.95-.32,0,.1.15.32.15.32-.37,0-.66-.35-.66-.35-.03.1-.16.28-.16.28-.07-.06-.16-.28-.16-.28-.17.3-.65.35-.65.35.08-.04.18-.33.18-.33-.31.31-.95.33-.95.33.05-.02.19-.09.25-.16-.12,0-.25-.01-.43-.06-.18-.04-.62-.32-.84-.35-.09-.01-.18-.02-.26-.01h0ZM28.65,13.78l.23.18c0,.13,0,.27,0,.42l-.22.2c0-.17,0-.49-.02-.79h0ZM20.17,11.92s-.01-.02-.04,0c-.35.3-.57.53-.72.71-.05.06.07.26.1.33l.29-.23h0c0-.09,0-.18.04-.23.04-.07.11-.13.11-.13l.05.06s-.06.05-.09.11c-.02.03-.02.11-.02.18l.02.02.25.35.28-.23s0-.07.01-.11c.01-.05.04-.11.08-.16l.06.05s-.06.09-.07.13c0,.03,0,.06-.01.09h0s.46.41.46.41v-.74c-.1-.04-.67-.45-.82-.62h0ZM23.44,11.21s.06-.14.19-.15c-.08-.04-.26-.15-.34-.08-.09.07.08.2.15.22h0ZM28.31,13.97l.25-.18c0,.31.01.63.02.8l-.26-.19c0-.07,0-.18,0-.31v-.12h0ZM20.52,13.04c0,.17,0,.47,0,.75l.4-.39-.41-.36h0ZM19.19,13.81c0-.48,0-.78.01-.81.01-.05.04-.11.09-.18.02-.03.01-.02.02,0l.11.28v.02s0,.48,0,.48h-.01s-.12.11-.23.21h0ZM19.88,12.93l.21.3h0s0,.37,0,.37l-.02.02-.22.18c0-.32.01-.68.02-.87h0ZM19.42,14.56v-.79c-.06.06-.16.14-.24.21v.35l.24.23h0ZM28.01,13.2l.18-.3s0,.02,0,.03c.01.06.02.48.03.87l-.23-.17v-.43h0ZM27.07,13.29c.24-.09.43-.44.43-.44l.04-.06s0-.04-.01-.06c-.01-.04-.03-.07-.04-.09l.05-.06s.05.07.06.12c.01.05.02.1.03.14l.3.21.21-.34.02-.03v-.02c0-.05-.01-.1-.02-.11,0-.02-.01-.04-.02-.06-.01-.02-.03-.04-.05-.06l.05-.06s.05.05.07.08c.02.03.02.05.03.08,0,.02.01.07.02.12,0,.02,0,.03,0,.05l.3.28.18-.3c-.25-.4-.79-.78-.79-.78-.07.15-.82.63-.82.63,0,0-.02.45-.02.66,0,.04,0,.07-.01.1h0ZM22.99,13.84c.17-.16.38-.67.4-1.02.02-.38.05-.91-.08-1.11-.01-.02-.03-.04-.04-.06,0-.03.02-.05.03-.07.02-.05.06-.05.15-.05.09,0,.28.15.28.15,0,0-.02-.13-.1-.19-.08-.05-.06-.1-.06-.1.36.09.42-.2.25-.29,0,0,.19-.01.3-.03.11-.02.15.06.28.15.13.09.25.11.25.11,0,0-.04-.02-.09-.05-.04-.03-.28-.25-.43-.28s-.28.01-.38,0c-.09,0-.18-.07-.28-.09-.1-.03-.21,0-.23-.03,0,0-.01-.02-.01-.03.11-.22.68-.13.86-.07.14.05.39.17.51.23.12.05.27.11.27.11,0,0-.07.07-.08.11,0,0,.15.03.2.15,0,0-.14.03-.15.09,0,0,.13-.01.16.2l-.2-.06s.08.36.05.46c-.03.09-.17.31-.17.46,0,.15.03.83.26,1.1.11.13.17.2.22.24-.18-.08-.58-.29-.61-.5-.03-.26-.02-.88-.02-.88h-.09s0,.9,0,.9c0,0,.14.52.24.62,0,0-.44-.23-.45-.42,0-.19,0-1.09,0-1.09h-.08v1.05s0,.09.02.12c.01.03-.12.14-.12.14,0,0-.11-.11-.12-.13,0-.03.02-.07.02-.1v-.03s-.01-1.04-.01-1.04h-.08s0,1.04,0,1.08c0,.04-.13.29-.44.44,0,0,.22-.44.23-.58.01-.14,0-.94,0-.94h-.08s0,.75,0,.81c0,.06-.21.4-.41.48-.06.03-.11.04-.16.06h0ZM27.65,14c0,.17,0,.32,0,.4l.25.18v-.81s-.24.21-.24.21h-.02ZM28.64,13.1c0,.09,0,.28.01.5h.02s.21.18.21.18c0-.43-.01-.71-.02-.79,0-.06-.03-.11-.05-.17l-.17.28h0ZM28.28,12.93c.01.1.03.5.03.88l.25-.18c0-.18,0-.34,0-.45l-.04-.04-.24-.22h0ZM27.32,13.75v.85s.25-.2.25-.2h0c0-.1,0-.25,0-.43-.03-.03-.13-.11-.25-.22h0ZM28.33,14.56v6.85l.03.09c.1.28.52.62.52.62,0,0,.03-4.95,0-7.57l-.21.2-.04.04-.04-.03-.26-.19h0ZM19.76,14.39c0-.08,0-.23,0-.41h0s-.26-.2-.26-.2v.79s.25-.17.25-.17h0ZM20.11,14.58v-.81s-.26.21-.26.21h0c0,.17,0,.31,0,.4h0s.26.2.26.2h0ZM20.46,14.4v-.41s0,0,0,0l-.27-.19v.79s.28-.19.28-.19h0ZM28,13.8v.77s.24-.18.24-.18h0c0-.08,0-.18,0-.31v-.12s0,0,0,0l-.23-.17Z"/>
  <path class="g" d="M23.21,11.59c-.11-.1-.22-.14-.24-.2,0,0,.23.08.34.05-.01.02-.03.05-.06.08-.02.03-.04.05-.04.07h0ZM23.36,11.39c.02-.09-.18-.21-.24-.23-.06-.02-.33-.12-.5-.03,0,0,.01-.18.57-.14.05.07.13.19.15.22.03.03.05.13.04.15,0,0,0,.02-.02.03Z"/>
  <path class="g" d="M21.73,20.53s-.53.9-.61.94c-.08.04-.22.04-.32.03-.09-.01-.39.14-.39.22,0,.08.03.1.14.04.11-.06.1-.07.26-.08.16,0,.26-.05.28-.08.02-.02-.17.23-.17.28s.14-.02.17-.04c.03-.02.02.21.08.26,0,0,.1-.28.28-.48.17-.21.61-.84.61-.84l-.03-.15-.18.12s-.05-.17-.05-.22c0,0-.04.03-.06.01h0ZM26.96,22.27s.17.15.21.17c.04.02.07.02.1-.01.03-.03.01-.07,0-.09-.02-.02-.19-.16-.21-.18-.02-.02-.07-.02-.1.01-.02.03-.01.07,0,.1h0ZM27.37,22.19s.05.06.02.1c-.03.04-.07.03-.1.01-.02-.01-.19-.17-.21-.18-.02-.02-.02-.04,0-.08.02-.05.08-.04.1-.01.02.02.14.13.19.17h0ZM27.51,22.05s.03.07,0,.1c-.02.03-.08.02-.09.01-.02-.01-.2-.17-.22-.19-.02-.02-.01-.06,0-.08.01-.03.07-.04.1-.02.03.02.17.14.21.18h0ZM27.42,21.91c.07.02.05-.04.04-.05-.01,0-.04-.04-.08-.07-.04-.02-.05.02-.04.04,0,.01.05.05.09.08h0ZM26.22,20.53s-.06-.01-.06-.01c0,.06-.05.22-.05.22l-.18-.12-.03.15s.43.63.61.84c.17.21.28.48.28.48.06-.05.05-.28.08-.26.03.02.17.09.17.04s-.19-.3-.17-.28c.02.02.12.07.28.08.16,0,.15.02.26.08.11.06.13.04.14-.04,0-.08-.29-.23-.39-.22-.09.02-.24.01-.32-.03-.08-.04-.61-.94-.61-.94h0ZM21,22.27s-.17.15-.21.17c-.04.02-.07.02-.1-.01s-.01-.07,0-.09c.02-.02.19-.16.21-.18.02-.02.07-.02.09.01.02.03.01.07,0,.1h0ZM20.58,22.19s.17-.14.19-.17c.02-.02.08-.03.1.01.02.05.02.06,0,.08-.02.02-.19.17-.21.18-.02.01-.07.03-.1-.01-.03-.04-.01-.08.02-.1h0ZM20.45,22.05s.18-.16.21-.18c.03-.02.08-.01.1.02.01.03.02.07,0,.08-.02.02-.2.18-.22.19-.02.01-.08.02-.09-.01-.02-.03-.03-.06,0-.1h0ZM20.54,21.91c-.07.02-.05-.04-.04-.05.01,0,.04-.04.08-.07.04-.02.05.02.04.04,0,.01-.05.05-.09.08Z"/>
  <path class="q" d="M23.68,11.08s.08.02.1.04h0s.04.06.04.1-.02.08-.04.1c-.03.03-.06.04-.1.04s-.08-.02-.1-.04h0s-.04-.06-.04-.1.02-.08.04-.1h0s.06-.04.1-.04h0ZM23.73,11.18s-.03-.02-.05-.02-.04,0-.05.02h0s-.02.03-.02.05,0,.04.02.05h0s.03.02.05.02.04,0,.05-.02.02-.03.02-.05,0-.04-.02-.05h0Z"/>
  <path class="i" d="M18.93,17.74c-.03-.06-.05-.11-.07-.14h0s0,0,0,0c-.01-.03-.02-.06-.02-.09l-.08-.15h-.06c-.16,0-.28-.07-.37-.16-.08-.08-.13-.18-.17-.25l-.09-.17h.19s.07.01.11.02c-.08-.13-.07-.27-.07-.37,0-.01,0-.02,0-.03v-.17s.15.07.15.07c.12.06.2.12.26.2,0-.03.02-.06.03-.08l.06-.18.12.15c.3.36.06.74.05.74l-.03.06.03.07s.03-.07.05-.09c.03-.03.08-.06.13-.06s.1.02.13.06c.03.03.06.08.06.13,0,.01,0,.03,0,.04l.02.02c.05.06.08.13.1.2h0s.09-.18.09-.18l.1.17c.31.52-.1.84-.1.84l-.03.03.07.16s.03-.06.05-.09c.03-.03.08-.06.13-.06s.1.02.13.06c.03.03.06.08.06.13h0s.09-.11.09-.11l.08.12c.05.07.07.15.08.22,0,0,0,0,0,0l.13-.16.05.2c.17.6-.23.85-.23.85l-.03.02s.03.04.04.06c0,0,0,0,0,.02,0-.04.03-.08.05-.11.03-.03.08-.06.13-.06s.1.02.13.06c.03.03.06.08.06.13s-.02.1-.06.13c-.03.03-.08.06-.13.06-.04,0-.07,0-.1-.03.04.09.09.19.13.28.04-.17.15-.28.21-.34,0,0,.01-.01.02-.02l.1-.11.07.13c.07.14.1.28.11.38.02-.01.03-.02.05-.03.01-.01.01,0,.02-.02l.18-.13v.22c-.01.54-.35.64-.41.66.02.04.03.07.04.09,0-.03.02-.05.04-.07.03-.03.08-.06.13-.06s.1.02.13.06c.03.03.06.08.06.13s-.02.1-.06.13-.08.06-.13.06-.1-.02-.13-.06c0,.02-.01.04-.03.06h0s-.08.05-.13.03c-.02,0-.04-.02-.06-.04,0,0,0,0,0,.01,0,.05-.02.1-.06.13-.03.03-.08.06-.13.06s-.1-.02-.13-.06c-.03-.03-.06-.08-.06-.13,0-.04.01-.08.03-.11-.13.02-.24,0-.34-.03-.14-.06-.24-.15-.3-.22l-.15-.16.22-.02s0,0,.01,0c-.05-.05-.09-.1-.12-.15-.01-.01-.02-.03-.03-.04l-.13-.17h.22c.25-.01.43.04.57.11-.05-.11-.1-.23-.15-.34-.02-.05-.04-.09-.06-.13h0c0,.06-.02.11-.06.14-.03.03-.08.06-.13.06s-.1-.02-.13-.06c-.03-.03-.06-.08-.06-.13s.02-.1.06-.13c.03-.03.08-.06.13-.06s.1.02.13.06c0,0,0,0,0,0-.02-.06-.04-.1-.05-.13h0s0-.06,0-.08h-.02c-.56.2-.8-.12-.8-.12l-.08-.11.12-.06s.07-.03.1-.04c-.02-.02-.03-.04-.05-.06-.04-.06-.08-.12-.1-.17l-.04-.13.13-.02c.15-.02.28.01.38.07h0c-.05-.11-.1-.21-.13-.29,0,.04-.03.07-.05.1-.03.03-.08.06-.13.06s-.1-.02-.13-.06c-.03-.03-.06-.08-.06-.13s.02-.1.06-.13c.03-.03.08-.06.13-.06.05,0,.09.02.13.05,0,0,0-.02,0-.03l-.09-.23h-.16c-.46.05-.58-.14-.66-.26h0s-.11-.17-.11-.17h.19s-.08-.08-.12-.12l-.15-.16h.22c.19-.03.34.02.45.09-.02-.03-.03-.06-.05-.1h0ZM19.15,18.21h0s0,0,.01,0h0ZM19.15,17.49s-.02,0-.03,0h0s0,.02.02.04c0-.01,0-.02,0-.03h0ZM20.53,21.22h-.01s.01,0,.02.01h0ZM20.09,21.08s.03,0,.05,0c-.02,0-.03,0-.05,0h0ZM18.53,16.62s.02.06.04.08c0-.02-.01-.04-.02-.05,0,0-.01-.02-.02-.03h0ZM19.55,17.87c-.02.05-.02.11-.02.18.02-.05.03-.11.02-.18h0ZM19.98,19.59l.05.09h0s-.02-.08-.03-.11c0,.01-.01.02-.02.03h0ZM19.78,18.9s.03-.06.05-.09c-.01,0-.03,0-.04,0-.02,0-.04,0-.05,0,.02.03.03.06.05.09h0ZM19.43,19.36s.02.02.03.03c.01,0,.03,0,.04,0-.02-.01-.05-.02-.07-.03h0ZM20.02,18.91s-.04.08-.05.14c.01-.02.02-.04.04-.05,0-.02,0-.05,0-.08h0ZM20.24,19.2c-.02.05-.04.12-.04.19.02-.05.04-.11.04-.19h0ZM19.93,20.74c.06.04.14.08.25.09-.06-.04-.14-.07-.25-.09h0ZM20.7,20.23c-.04.07-.08.17-.05.29.02-.03.05-.06.07-.09,0-.05,0-.12-.03-.2h0ZM20.48,21.39l-.02.02v-.02s-.01,0-.02,0l.02.02-.02.02s.01,0,.02,0v-.02h-.02s0,.01,0,.02l.03-.03h0ZM20.48,21.4h-.02l.02.02s0-.01,0-.02h0ZM20.44,21.39v.02s0-.01,0-.02h0ZM20.48,21.39h-.02s.01,0,.02,0h0ZM20.48,21.4v-.02s0,.01,0,.02h0ZM20.46,21.43h.02s-.01,0-.02,0h0ZM19.87,20.14l-.02.02v-.02s-.01,0-.02,0l.02.02-.02.02s.01,0,.02,0v-.02h-.02s0,.01,0,.02l.03-.03h0ZM19.88,20.16h-.02l.02.02s0-.01,0-.02h0ZM19.83,20.14v.02s0-.01,0-.02h0ZM19.87,20.14h-.02s.01,0,.02,0h0ZM19.88,20.16v-.02s0,.01,0,.02h0ZM19.85,20.18h.02s-.01,0-.02,0h0ZM18.64,17.34c-.05,0-.1.02-.13.06-.03.03-.06.08-.06.13s.02.1.06.13.08.06.13.06.1-.02.13-.06c.03-.03.06-.08.06-.13s-.02-.1-.06-.13-.08-.06-.13-.06h0ZM18.66,17.52l-.02.02v-.02s-.01,0-.02,0l.02.02-.02.02s.01,0,.02,0v-.02h-.02s0,.01,0,.02l.03-.03h0ZM18.66,17.53h-.02l.02.02s0-.01,0-.02h0ZM18.62,17.52v.02s0-.01,0-.02h0ZM18.66,17.52h-.02s.01,0,.02,0h0ZM18.66,17.53v-.02s0,.01,0,.02h0ZM18.64,17.56h.02s-.01,0-.02,0h0ZM19.18,17.28l-.02.02v-.02s-.01,0-.02,0l.02.02-.02.02s.01,0,.02,0v-.02h-.02s0,.01,0,.02l.03-.03h0ZM19.19,17.3h-.02l.02.02s0-.01,0-.02h0ZM19.15,17.28v.02s0-.01,0-.02h0ZM19.18,17.28h-.02s.01,0,.02,0h0ZM19.19,17.3v-.02s0,.01,0,.02h0ZM19.16,17.32h.02s-.01,0-.02,0h0ZM21.02,21.19l-.02.02v-.02s-.01,0-.02,0l.02.02-.02.02s.01,0,.02,0v-.02h-.02s0,.01,0,.02l.03-.03h0ZM21.02,21.21h-.02l.02.02s0-.01,0-.02h0ZM20.98,21.19v.02s0-.01,0-.02h0ZM21.02,21.19h-.02s.01,0,.02,0h0ZM21.02,21.21v-.02s0,.01,0,.02h0ZM21,21.23h.02s-.01,0-.02,0h0ZM20.41,19.85l-.02.02v-.02s-.01,0-.02,0l.02.02-.02.02s.01,0,.02,0v-.02h-.02s0,.01,0,.02l.03-.03h0ZM20.42,19.87h-.02l.02.02s0-.01,0-.02h0ZM20.38,19.85v.02s0-.01,0-.02h0ZM20.41,19.85h-.02s.01,0,.02,0h0ZM20.42,19.87v-.02s0,.01,0,.02h0ZM20.4,19.89h.02s-.01,0-.02,0h0ZM19.28,18.85l-.02.02v-.02s-.01,0-.02,0l.02.02-.02.02s.01,0,.02,0v-.02h-.02s0,.01,0,.02l.03-.03h0ZM19.29,18.86h-.02l.02.02s0-.01,0-.02h0ZM19.25,18.85v.02s0-.01,0-.02h0ZM19.28,18.85h-.02s.01,0,.02,0h0ZM19.29,18.86v-.02s0,.01,0,.02h0ZM19.26,18.89h.02s-.01,0-.02,0h0ZM21.64,22.5l-.02.08-.07.34-.03.15-.13-.08-.3-.18-.07-.04.02-.08c.03-.14.04-.16.06-.24-.31-.22-.05-.29.15-.23l.39.27h0ZM21.3,22.58l-.02.1.1.06.02-.11s-.06-.03-.1-.05h0ZM19.8,18.6l-.02.02v-.02s-.01,0-.02,0l.02.02-.02.02s.01,0,.02,0v-.02h-.02s0,.01,0,.02l.03-.03h0ZM19.8,18.62h-.02l.02.02s0-.01,0-.02h0ZM19.76,18.6v.02s0-.01,0-.02h0ZM19.8,18.6h-.02s.01,0,.02,0h0ZM19.8,18.62v-.02s0,.01,0,.02h0ZM19.78,18.65h.02s-.01,0-.02,0Z"/>
  <path class="c" d="M19.74,20.97c.12.13.35.33.71.17,0,0-.14-.23-.71-.17h0ZM18.26,16.89c.07.12.19.35.44.34,0,0-.04-.33-.44-.34h0ZM18.41,16.4c.23.11.31.24.29.51-.33-.11-.29-.39-.29-.51h0ZM18.84,16.45c-.05.14-.1.36.05.62,0,0,.2-.32-.05-.62h0ZM18.53,17.84c.12.13.22.25.58.26,0,0-.18-.29-.58-.26h0ZM18.58,18.14c.06.1.16.27.56.23,0,0-.14-.24-.56-.23h0ZM19.29,17.43c-.05.12-.12.29.03.54,0,0,.14-.34-.03-.54h0ZM19.56,17.61c.26.44-.08.7-.08.7-.16-.39,0-.57.08-.7h0ZM19.22,19.23c.02.08.14.22.2.27,0,0,.28-.04.46.11,0,0-.23-.43-.66-.38h0ZM20.05,18.69c.12.17.05.36.05.36-.12.12-.1.31-.1.31-.32-.32-.03-.56.05-.67h0ZM20.32,18.91c-.1.11-.31.3-.18.73,0,0,.33-.2.18-.73h0ZM19.88,19.73c-.49.17-.68-.09-.68-.09.33-.16.56,0,.68.09h0ZM19.68,20.61c.57-.02.77.33.77.33-.56.07-.69-.22-.77-.33h0ZM20.74,20.03c-.08.08-.37.32-.08.75,0,0,.06-.24.18-.28,0,0,.02-.24-.1-.46h0ZM21.07,20.39c-.01.51-.32.56-.32.56-.07-.29.23-.48.32-.56Z"/>
  <path class="e" d="M18.96,17.55c.07.14.18.4.24.47.06.07.09.05.07-.02-.02-.07-.21-.4-.24-.47-.03-.07-.1-.07-.07.02h0ZM19.51,18.75c.02.07.26.6.32.68.06.09.09.12.07-.01-.03-.14-.29-.62-.32-.67-.03-.05-.09-.08-.07,0h0ZM20.46,21.32s.08.04.08.08-.04.08-.08.08-.08-.04-.08-.08.04-.08.08-.08h0ZM19.85,20.08s.08.04.08.08-.04.08-.08.08-.08-.04-.08-.08.04-.08.08-.08h0ZM18.64,17.45s.08.04.08.08-.04.08-.08.08-.08-.04-.08-.08.04-.08.08-.08h0ZM19.16,17.21s.08.04.08.08-.04.08-.08.08-.08-.04-.08-.08.04-.08.08-.08h0ZM20.05,19.87c.05.15.3.71.41.96.12.25.17.37.24.46.07.09.07.02.03-.08-.04-.1-.28-.59-.36-.77-.08-.18-.26-.56-.27-.59-.01-.03-.08-.1-.05.01h0ZM21,21.13s.08.04.08.08-.04.08-.08.08-.08-.04-.08-.08.04-.08.08-.08h0ZM20.4,19.78s.08.04.08.08-.04.08-.08.08-.08-.04-.08-.08.04-.08.08-.08h0ZM19.26,18.78s.08.04.08.08-.04.08-.08.08-.08-.04-.08-.08.04-.08.08-.08h0ZM21.23,22.41l-.08.32.3.18.07-.34s-.3-.15-.29-.15h0ZM19.78,18.54s.08.04.08.08-.04.08-.08.08-.08-.04-.08-.08.04-.08.08-.08Z"/>
  <path class="i" d="M26.79,22.64v.2s.16-.12.16-.12c-.03-.03-.08-.07-.16-.08h0ZM26.67,22.95v-.36s.03-.05.06-.05c.03,0,.06,0,.08,0,0,0,0,0,0-.01-.01-.03-.01-.06,0-.08,0,0,0,0,0-.01,0,0,0,0,0,0,.02-.02.04-.04.08-.04.02,0,.05,0,.09.02,0,0,0,0,0,0h0s.05.04.07.06c.03.03.04.06.02.1,0,0,0,.01,0,.02-.01.03-.04.04-.07.05,0,0,0,0,0,0,.04.04.06.07.06.07h0s0,.05-.02.07l-.29.22h0s-.02.01-.03.01c-.03,0-.05-.03-.05-.06h0ZM29.75,17.02s-.05.01-.07.02c-.03,0-.05.01-.06.02,0,0,0,0,0,.02,0,.02-.02.12-.03.2-.01.06-.02.11-.03.13,0,0,0,0,0,.02,0-.01.01-.02.02-.03,0,0,.03-.03.06-.06.06-.07.15-.16.18-.19,0-.02-.03-.09-.05-.13h0ZM29.29,17.73s0,0,0,0c0,0,0,0,0,0,0,0,0,0-.01,0h0s-.07-.07-.07-.07c-.02-.02-.02-.06,0-.08,0,0,0,0,.01,0,.06-.04.1-.09.13-.16.03-.08.04-.17.03-.25,0-.05-.01-.1-.01-.14,0-.05,0-.08,0-.1.01-.03.04-.04.07-.05h0s.05,0,.09,0c.06,0,.19,0,.21,0,0,0,0,0,0-.02-.02-.04-.03-.09,0-.14h0s0,0,0,0c0,0,0,0,0,0,.02-.04.05-.06.09-.07h0s0,0-.01-.01c-.02-.02-.01-.06.01-.07l.2-.15h0s.02,0,.03,0c.03,0,.05.02.05.05v.25h0s0,.02,0,.02c-.01.03-.04.04-.07.03.02.04.02.08,0,.13,0,0,0,0,0,0-.03.04-.06.06-.09.07-.01,0-.02,0-.03,0,0,0,0,0,0,0,.02.03.16.21.17.23,0,.01.02.03.02.05,0,.02,0,.05-.03.06,0,0,0,0,0,0,0,0-.02.02-.05.03-.07.05-.22.15-.26.19-.03.03-.05.05-.06.07-.01.02-.02.03-.03.06,0,.02-.02.05-.02.07,0,.02,0,.05,0,.07,0,.03-.01.06-.04.06,0,0-.01,0-.02,0l-.1-.02s-.02,0-.03-.01h0s0,0,0,.01c.05.08-.03.18-.08.24,0,.01-.02.02-.02.03-.02.03-.26.51-.38.74,0,.02-.01.02-.05.11,0,0,0,0,0,0-.03.04-.05.06-.08.08,0,0,0,0,0,0,0,0,.01.01.02.02.02.03.03.07,0,.11-.02.05-.06.07-.11.07.02.03.03.06.04.09,0,.02,0,.05-.01.07-.01.02-.03.04-.05.05-.02.01-.05.02-.08.02.02.03.03.07.01.1-.02.06-.07.07-.13.07h0s0,.06-.02.11c-.01.03-.1.2-.2.39-.14.27-.3.58-.31.61,0,.03,0,.12-.01.19,0,.04,0,.07,0,.09,0,.04-.02.1-.07.16-.03.04-.07.08-.13.09-.07.02-.13.02-.18,0,0,0,0,0,0,0,0,0,0,0,.01.01.03.02.06.06.07.09.02.04.02.09,0,.13,0,0,0,0,0,0-.03.04-.07.06-.12.07-.04,0-.09,0-.13-.03-.01,0-.02-.01-.03-.02-.03-.03-.05-.07-.06-.1-.01-.04,0-.08.02-.11,0,0,0-.01.01-.01.03-.03.06-.05.11-.06.03,0,.06,0,.1.01-.02-.02-.05-.04-.06-.06-.02-.04-.04-.09-.04-.14,0-.07.02-.16.08-.24h0s0,0,0,0c.04-.05.08-.07.12-.1.02-.01.04-.02.05-.03h0q.05-.04.08-.09s.12-.23.23-.45c.12-.23.24-.48.26-.51.02-.04.05-.06.08-.07-.04-.04-.05-.09-.02-.14.02-.03.05-.05.09-.05-.02-.02-.03-.05-.03-.07,0-.03,0-.05,0-.07.01-.02.03-.04.05-.05.02-.01.05-.02.09-.02,0,0,0-.01-.01-.02-.02-.04-.02-.09.02-.12.03-.03.07-.04.11-.04-.01-.04,0-.08.02-.11,0,0,0-.01,0-.01h0s0,0,0,0c0-.01.11-.21.21-.41.1-.2.2-.4.21-.41,0-.01.01-.03.02-.06,0-.03.02-.06.03-.09.01-.04.04-.07.06-.08.02-.01.04-.02.06-.02h0ZM29.46,17h0s0-.03,0-.04c0,0,0,0,0,0,0,0,0,.02,0,.04h0ZM28.53,19.5s.02,0,.02,0c0,0,0,0-.01-.02,0,0-.02-.02-.04-.03-.01,0-.03-.01-.04-.01-.01,0-.02,0-.02,0s0,.01,0,.02c0,.01.02.02.04.03.01,0,.03.01.04.01h0ZM28.73,19.1s.02,0,.02,0c0,0,0,0,0,0,0,0-.02-.02-.03-.03-.01,0-.03-.01-.05-.02-.01,0-.02,0-.03,0,0,0,.02.02.03.03.02.01.04.02.05.02h0ZM28.68,19.31s-.02-.04-.06-.07c-.04-.02-.07-.02-.09,0,0,0,0,0,0,0,0,0,0,0,0,0,0,.02.02.04.06.06.04.02.07.02.08.01,0,0,0,0,0,0,0,0,0,0,0,0h0ZM26.97,22.52s-.01,0-.02-.01c0,0-.01,0-.02,0,0,0,.01,0,.02.01,0,0,.01,0,.02,0h0ZM28.82,18.88s0-.02.05-.11c.12-.23.36-.71.39-.75,0,0,.02-.02.03-.04.03-.04.08-.1.07-.11-.02-.03-.04-.04-.05-.04h0s-.01,0-.02,0c0,0-.01.01-.02.03-.01.04-.02.07-.03.09,0,.03-.02.05-.03.07,0,.02-.11.22-.21.42-.1.2-.2.39-.2.41,0,0,0,0,0,0h0s0,0,0,.01c0,.01-.02.04-.01.04.01,0,.02,0,.02,0,0,0,.01-.01.03-.03h0ZM27.56,21.34s0,0-.01,0c-.02,0-.04-.01-.06-.01-.02,0-.03,0-.04.02,0,0,0,0,0,0,0,0,0,.02,0,.03,0,.02.01.03.03.05,0,0,.01,0,.02.01.02.01.04.02.06.01.02,0,.04-.02.06-.03,0,0,0,0,0,0,0,0,0,0,0-.02,0-.02-.02-.04-.04-.05h0ZM27.64,20.85c-.04.06-.06.12-.06.17,0,.03,0,.06.02.08.01.02.03.04.06.04.03,0,.07,0,.11,0,.03-.01.06-.03.08-.06.03-.04.04-.08.05-.1,0-.01,0-.04,0-.08,0-.07,0-.17.01-.22.01-.04.17-.36.31-.63.1-.19.18-.35.19-.38.01-.02.01-.04.01-.04,0,0,0,0,0,0,0,0-.02,0-.02,0h0s0,0-.02.03c-.02.03-.14.27-.26.51-.11.21-.21.42-.23.45q-.04.07-.11.12h0s-.04.03-.06.04c-.03.02-.06.03-.09.07h0ZM29.95,16.58l.04.02v-.05s-.04.03-.04.03h0ZM29.89,16.74s0,0,0,0c0,0-.03,0-.05,0,0,0-.02,0-.02.02,0,0,0,0,0,0,0,0,0,0,0,0h0s0,.03,0,.04c0,.02.02.03.03.03h0s.03,0,.04,0c.01,0,.02,0,.03-.02,0,0,0,0,0,0,0,0,0-.02,0-.03,0-.01-.02-.03-.04-.04h0ZM29.96,17.21s0,.01-.01.02h.02s0-.02,0-.02Z"/>
  <path class="e" d="M26.74,22.58v.36s.29-.22.29-.22c0,0-.07-.15-.29-.15h0ZM29.79,16.96c-.09.01-.19.04-.2.05-.02.01-.02.03-.02.06s-.04.27-.06.32c-.02.05-.08.19-.11.23-.03.04-.05.09-.05.09l.1.05s.03-.07.05-.11c.02-.04.09-.19.12-.21.03-.03.21-.23.23-.24.02-.01.03-.04.02-.06,0-.02-.07-.17-.07-.17h0ZM29.3,17.68l-.07-.07c.16-.09.21-.29.19-.46-.01-.1-.02-.2,0-.21,0-.02.05-.02.11-.02s.21,0,.21,0c0,0-.2.04-.21.06,0,.02-.05.31-.06.35-.02.11-.11.25-.16.35h0ZM28.61,19.52c-.04.1-.27-.02-.21-.1.05-.08.24.03.21.1h0ZM28.81,19.12c-.04.1-.27-.04-.2-.11.07-.06.24.03.2.11h0ZM28.64,19.19c-.17-.07-.25.08-.08.17.16.08.25-.07.08-.17h0ZM26.97,22.46c.05.03.08.06.07.09,0,.04-.07.04-.12,0-.05-.03-.08-.07-.06-.1.02-.02.05-.03.11,0h0ZM28.87,18.91c.05-.09.41-.81.44-.85.03-.04.14-.15.1-.21-.04-.06-.07-.06-.09-.07-.02,0-.08,0-.1.07-.02.07-.04.12-.06.16-.01.03-.4.8-.41.82-.01.03-.05.1,0,.12s.07.02.12-.05h0ZM27.58,21.29c.06.04.11.12.07.16-.04.05-.12.08-.19.03-.07-.05-.09-.13-.05-.17.04-.04.09-.05.17-.02h0ZM27.6,20.82c-.15.22-.04.45.19.38.11-.04.16-.16.16-.21,0-.05,0-.23.01-.28.02-.06.48-.93.51-1.01.03-.07.02-.09-.02-.11-.04-.02-.07-.02-.1.04-.04.06-.46.9-.49.96s-.03.06-.09.1c-.06.05-.11.06-.16.12h0ZM29.85,16.59l.2.1v-.25s-.2.15-.2.15h0ZM29.91,16.69c.05.03.1.09.06.15-.04.06-.11.05-.14.04-.03-.02-.1-.08-.06-.15.04-.07.12-.05.14-.04h0ZM29.48,17.77s.08-.18.1-.22c.02-.04.1-.14.14-.18.04-.03.16-.16.18-.17.02-.02,0-.02,0-.04,0-.02-.06-.17-.06-.17,0,0,.16.21.17.22.01.02.01.03,0,.04-.01.01-.25.17-.32.23s-.08.1-.1.14c-.02.05-.04.11-.02.17l-.1-.02Z"/>
  <path class="f" d="M24,20.97c-.28-.48-2.76-1.14-2.76-1.74v-4.75c0-.08-.05-.16-.11-.25h5.74c-.05.09-.11.17-.11.25v4.75c0,.6-2.49,1.26-2.76,1.74Z"/>
  <g class="r">
    <g>
      <g>
        <rect class="l" x="20.63" y="17.16" width="6.74" height="4.23"/>
        <rect class="n" x="20.63" y="13.19" width="6.74" height="3.97"/>
      </g>
      <path class="i" d="M22.62,15.02c-.14.16-.25.34-.31.52-.06.16-.08.32-.06.47.02.15.08.3.19.43.15.19.39.35.74.48l.11.04-.05.11-.17.37c.22.06.64.24.67.75,0,.11.01.21.02.31.02.41.03.64,0,.8-.02.1-.04.18-.07.24-.04.07-.08.12-.15.15,0,0,.02,0,.03,0,.09,0,.17.01.21.06.02.02.03.05.04.07.01.04.01.08,0,.11,0,.04-.03.08-.06.1-.02.02-.04.03-.06.04,0,0-.01,0-.02,0,.02.01.03.02.05.03.07.05.15.11.25.11.11,0,.19-.06.26-.11.01-.01.03-.02.04-.03,0,0,0,0-.01,0-.02,0-.04-.02-.06-.04-.03-.03-.05-.06-.06-.1,0-.04,0-.08,0-.11,0-.03.02-.05.04-.07.05-.05.13-.07.21-.06,0,0,.01,0,.02,0-.01,0-.02-.02-.03-.02-.16-.13-.17-.27-.18-.37,0-.01,0-.03,0-.04,0-.05,0-.32,0-.58,0-.23.02-.45.03-.51,0,0,0-.02,0-.03.03-.16.1-.57.66-.7l-.15-.38-.04-.1.11-.04c.3-.11.53-.26.68-.45.12-.14.19-.3.22-.47.03-.17.01-.34-.05-.51-.05-.14-.13-.28-.24-.41.07.2.13.43.14.65,0,.21-.03.41-.13.57-.09.15-.24.27-.43.33-.04,0-.07.02-.11.02-.04,0-.07.01-.1.03-.02,0-.05.02-.07.03-.11.05-.21.1-.34.02-.05-.03-.08-.05-.1-.06,0,0-.02,0-.03,0-.02,0-.04.02-.07.04-.06.05-.12.1-.22.09-.09,0-.16-.05-.22-.1-.03-.02-.06-.05-.07-.05,0,0-.01.01-.03.02-.04.04-.09.09-.19.09-.09,0-.13-.02-.18-.05-.02-.01-.04-.03-.09-.03-.3-.04-.5-.17-.62-.35-.15-.22-.18-.49-.15-.73.03-.23.11-.42.18-.6h0ZM22.11,15.47c.11-.32.35-.64.68-.9l.2-.15-.02.25c-.01.14-.07.28-.14.43-.07.16-.15.35-.17.55-.02.19,0,.41.11.58.09.13.24.22.47.26.09.01.13.04.17.06.01,0,.03.02.05.02.02,0,.03-.02.05-.03.04-.04.08-.08.17-.09.09,0,.15.04.21.09.04.03.07.06.1.06.02,0,.05-.02.08-.04.05-.04.09-.07.17-.09.01,0,.02,0,.03,0h0c.08-.01.09,0,.15.04.02.01.04.03.08.05.03.02.09,0,.14-.03.03-.01.05-.02.08-.03.05-.02.09-.03.14-.04.03,0,.06-.01.09-.02.14-.04.24-.12.3-.23.08-.13.11-.28.1-.45-.02-.53-.29-.8-.37-1.26.18.08.21.09.36.22.24.24.4.37.52.71.07.21.09.42.06.62s-.13.4-.27.57c-.16.19-.38.35-.67.47l.05.13.28-.09c.09-.03.23-.1.35-.17h0c.08-.05.14-.09.14-.11l.05-.14.11.09s.32.25.5.3l.26.08-.24.12s-.4.2-.46.33l-.06.13-.11-.1s-.33-.29-.54-.34l-.27-.07.1.23.05.13-.14.02c-.52.06-.59.41-.61.54,0,.02,0,.03,0,.04-.01.05-.02.25-.02.47,0,.25,0,.5,0,.54,0,.02,0,.04,0,.06,0,.07.02.16.1.23.04.03.08.06.12.08.12.08.21.14.23.28.01.11-.08.2-.2.27-.09.05-.19.09-.24.11-.01,0-.04.03-.07.05-.09.07-.21.16-.39.16s-.27-.07-.38-.15c-.04-.03-.09-.06-.13-.08-.08-.03-.17-.07-.23-.11-.08-.06-.14-.13-.15-.23,0-.1.05-.18.12-.24.06-.05.13-.09.2-.12.04-.02.06-.04.08-.07.02-.04.04-.1.05-.18.02-.14.01-.36-.01-.75,0-.09,0-.19-.02-.31-.03-.51-.61-.58-.62-.58l-.15-.02.06-.13.18-.39c-.33-.13-.57-.31-.73-.51-.13-.16-.21-.35-.23-.53-.02-.19,0-.38.07-.57h0ZM24.3,16.67h0s0,0,0,0h0,0ZM25.34,19.27s-.01-.05-.02-.08c0-.09.02-.19.08-.26h0c.04-.06.1-.09.19-.09.02,0,.04,0,.06,0-.08.05-.14.11-.2.18-.06.08-.1.17-.13.25h0ZM25.64,19.14c-.11.15-.12.32-.11.39l.05.28-.22-.18s-.01,0-.02-.02c-.14-.12-.22-.27-.23-.42s.03-.29.13-.41c0,0,.01-.01.01-.02.08-.09.19-.15.35-.16.12,0,.27.02.44.1l.29.13-.31.07c-.18.04-.3.13-.37.22h0ZM22.35,19.03s.03.04.03.07-.01.05-.03.07-.04.03-.07.03-.05-.01-.07-.03-.03-.04-.03-.07.01-.05.03-.07.04-.03.07-.03.05.01.07.03h0ZM22.81,19.13c.05.06.09.14.09.22s-.04.17-.09.23c-.06.06-.14.09-.23.09-.06,0-.12-.02-.17-.05-.01.02-.03.04-.05.06-.06.06-.14.09-.23.09s-.17-.04-.23-.09-.1-.14-.1-.23c0-.02,0-.05,0-.07-.06-.01-.11-.04-.15-.09-.06-.06-.09-.14-.09-.23s.04-.17.09-.23c.05-.05.12-.09.2-.09,0,0,0-.02,0-.03,0-.09.04-.17.1-.23s.14-.09.23-.09.17.04.23.09c.03.03.05.06.07.09.04-.02.08-.03.13-.03.09,0,.17.04.23.1.06.06.09.14.09.23s-.04.17-.09.23c0,0-.01.01-.02.02h0ZM22.69,19.35s-.01.06-.03.08c-.02.02-.05.03-.08.03-.02,0-.04,0-.06-.02.03-.02.06-.05.08-.07.02-.03.04-.06.06-.09.02.02.03.05.03.08h0ZM22.68,18.81s.03.05.03.08-.01.06-.03.08c0,0,0,0,0,0-.01-.03-.03-.07-.05-.1-.02-.03-.04-.06-.07-.08.01,0,.03-.01.05-.01.03,0,.06.01.08.03h0ZM22.26,18.65s.02.03.03.04h0c-.06,0-.12.01-.17.03-.01,0-.02.01-.04.02,0,0,0-.01,0-.02,0-.03.01-.06.03-.08.02-.02.05-.03.08-.03s.06.01.08.03h0ZM21.88,18.97h0s-.06,0-.07.03c-.02.02-.03.05-.03.08s.01.06.03.08c.02.02.04.03.06.03,0-.02,0-.05,0-.07,0-.05,0-.09.02-.14h0ZM22.2,19.53s0-.01.01-.02c-.05,0-.1-.02-.14-.05-.02-.01-.04-.02-.06-.04,0,0,0,.02,0,.02,0,.03.01.06.03.08.02.02.05.03.08.03s.06-.01.08-.03h0ZM24.6,17.98l.13-.12.08-.07.07.07.13.13.08.08-.08.08-.13.13-.07.07h.04s.19-.05.19-.05l-.07.18c-.02.06-.05.24-.06.43-.02.23-.04.47-.03.53l.03.21-.19-.11s-.23-.13-.25-.39v-.03h0c-.01-.21-.03-.52.08-.68l.02-.04h.04s.19-.05.19-.05l-.07-.07-.13-.13-.08-.08.08-.08h0ZM22.99,17.98l.13-.12.08-.07.07.07.13.13.08.08-.08.08-.13.13-.07.07.19.04h.04s.02.05.02.05c.1.16.09.47.08.68h0v.03c-.01.26-.25.39-.25.39l-.19.11.03-.21c0-.06,0-.3-.03-.53-.02-.19-.04-.37-.06-.43l-.07-.18.19.04h.03s-.07-.06-.07-.06l-.13-.13-.08-.08.08-.08h0ZM24.68,18.87s0,.09-.01.14c0-.15,0-.33.03-.43h.02c-.01.08-.03.19-.04.3h0ZM23.27,18.57h.02c.04.1.04.28.03.44,0-.04,0-.09-.01-.14-.01-.11-.02-.21-.04-.3h0ZM25.8,17.12h0c.06-.03.11-.07.15-.11.07.05.17.12.28.18-.1.06-.21.14-.29.22-.07-.06-.18-.14-.3-.21.06-.03.11-.06.16-.09h0ZM21.5,17.11c.09-.03.22-.09.34-.17.08-.05.14-.09.14-.11l.05-.14.12.09s.34.27.49.3l.32.07-.3.14s-.4.18-.46.31l-.06.13-.11-.1s-.31-.27-.52-.32l-.35-.09.35-.12h0ZM21.95,17.13c.06-.03.11-.07.15-.11.07.05.17.12.27.18-.1.06-.21.13-.29.21-.07-.05-.17-.13-.28-.19.05-.03.1-.06.15-.09h0ZM24.09,14.72l.08.19.19-.08.24-.1-.1.24-.08.19.19.08.24.1-.24.1-.19.08.08.19.1.24-.24-.1-.19-.08-.08.19-.1.24-.1-.24-.08-.19-.19.08-.24.1.1-.24.08-.19-.19-.08-.24-.1.24-.1.19-.08-.08-.19-.1-.24.24.1.19.08.08-.19.1-.24.1.24h0ZM24.02,15.09l.04.1.1-.04.05-.02-.02.06-.04.1.1.04.05.02-.05.02-.1.04.04.1.02.05-.06-.02-.1-.04-.04.1-.02.05-.02-.05-.04-.1-.1.04-.05.02.02-.06.04-.1-.1-.04-.05-.02.05-.02.1-.04-.04-.1-.02-.05.06.02.1.04.04-.1.02-.05.02.05Z"/>
      <path class="h" d="M22.85,14.66c-.92.73-1.08,1.88.29,2.36l-.22.5s.68.07.71.68c.03.61.06.91.02,1.09-.03.18-.07.27-.19.33-.12.06-.27.14-.26.26,0,.12.16.18.31.25.15.06.25.22.47.22s.33-.17.43-.2.38-.14.36-.26c-.02-.12-.15-.17-.3-.29s-.13-.27-.15-.35c-.02-.09,0-.93.03-1.05s.05-.59.71-.67l-.21-.5c1.13-.4,1.31-1.49.43-2.23,0,0-.14-.11-.16-.14,0,0,.32.56.34,1.09.02.36-.14.69-.48.79-.08.02-.16.03-.22.05-.12.05-.21.12-.31.06-.12-.07-.1-.09-.16-.08,0,0-.02,0-.04,0-.1.01-.15.14-.27.13s-.2-.15-.3-.15c-.1,0-.1.11-.22.12s-.1-.06-.24-.08c-.61-.09-.73-.57-.68-.96.05-.4.29-.71.31-.98h0ZM25.42,19.55c-.26-.2-.26-.51-.09-.71.11-.13.33-.18.66-.03-.54.13-.59.59-.56.74h0ZM22.28,18.89c.11,0,.21.09.21.21s-.09.21-.21.21-.21-.09-.21-.21.09-.21.21-.21h0ZM22.58,19.13c.12,0,.21.1.21.22s-.1.22-.22.22c-.1,0-.19-.07-.21-.17.12-.04.21-.14.22-.26h0ZM22.6,18.67c.12,0,.22.1.22.22s-.1.22-.22.22c0,0-.01,0-.02,0,0-.13-.08-.23-.19-.28.03-.09.11-.15.21-.15h0ZM22.18,18.51c.12,0,.22.1.22.22,0,.03,0,.06-.02.09-.03-.01-.07-.02-.1-.02-.09,0-.17.04-.23.1-.05-.04-.08-.1-.08-.17,0-.12.1-.22.22-.22h0ZM21.89,18.85c.06,0,.11.02.15.06-.04.05-.07.12-.07.19,0,.05.01.1.04.15-.03.02-.08.04-.12.04-.12,0-.22-.1-.22-.22s.1-.22.22-.22h0ZM22.34,19.4s0,.03,0,.05c0,.12-.1.22-.22.22s-.22-.1-.22-.22c0-.08.04-.15.11-.19.06.09.15.14.26.14.02,0,.04,0,.06,0h0ZM24.67,18.05l.13-.12.13.13-.13.13-.13-.13h0ZM23.06,18.05l.13-.12.13.13-.13.13-.13-.13h0ZM24.86,18.43c-.06.15-.11.88-.1,1.01,0,0-.18-.1-.19-.3-.01-.2-.03-.51.06-.65l.23-.05h0ZM23.13,18.43l.23.05c.09.14.07.45.06.65-.01.2-.19.3-.19.3.02-.12-.04-.85-.1-1.01h0ZM25.36,17.21c.17-.06.52-.23.56-.34,0,0,.34.26.53.32,0,0-.43.21-.51.39,0,0-.35-.31-.58-.37h0ZM21.54,17.21c.17-.06.51-.23.55-.34,0,0,.36.29.53.32,0,0-.44.19-.52.37,0,0-.33-.29-.56-.35h0ZM23.99,14.76l.12.29.29-.12-.12.29.29.12-.29.12.12.29-.29-.12-.12.29-.12-.29-.29.12.12-.29-.29-.12.29-.12-.12-.29.29.12.12-.29h0ZM23.39,19.82c.11-.02.27-.04.31,0,.04.05.03.13-.02.15-.05.02-.24.02-.31-.01-.07-.04-.11-.12.02-.14h0ZM24.6,19.82c.13.02.09.11.02.14-.07.04-.26.03-.31.01-.05-.02-.06-.1-.02-.15.04-.05.2-.02.31,0Z"/>
    </g>
  </g>
</svg>