<?xml version="1.0" encoding="UTF-8"?>
<svg id="a" data-name="Layer 1" xmlns="http://www.w3.org/2000/svg" viewBox="0 0 48 36">
  <defs>
    <style>
      .b, .c, .d, .e {
        fill-rule: evenodd;
      }

      .b, .f {
        fill: #fff;
      }

      .c {
        fill: #0132bf;
      }

      .d, .g {
        fill: #f30004;
      }

      .e {
        fill: none;
        stroke: #fff;
        stroke-miterlimit: 22.93;
        stroke-width: 1px;
      }
    </style>
  </defs>
  <polygon class="c" points="-.03 0 23.99 0 48.01 0 48.01 36.02 23.99 36.02 -.03 36.02 -.03 0"/>
  <polygon class="f" points="26.99 15.78 16.83 9 26.99 2.22 26.99 0 23.65 0 13.48 6.77 3.32 0 -.03 0 -.03 2.22 10.14 9 -.03 15.78 -.03 18.01 3.32 18.01 13.48 11.23 23.65 18.01 26.99 18.01 26.99 15.78"/>
  <polygon class="g" points="26.99 17.17 14.74 9 26.99 .83 26.99 0 25.74 0 13.48 8.16 1.23 0 -.03 0 -.03 .83 12.23 9 -.03 17.17 -.03 18.01 1.23 18.01 13.48 9.84 25.74 18.01 26.99 18.01 26.99 17.17"/>
  <polygon class="b" points="11.25 0 13.48 0 15.72 0 15.72 6.02 26.99 6.02 26.99 11.98 15.72 11.98 15.72 18.01 13.48 18.01 11.25 18.01 11.25 11.98 -.03 11.98 -.03 6.02 11.25 6.02 11.25 0"/>
  <polygon class="d" points="14.88 0 14.88 7.14 26.99 7.14 26.99 10.86 14.88 10.86 14.88 18.01 13.48 18.01 12.09 18.01 12.09 10.86 -.03 10.86 -.03 7.14 12.09 7.14 12.09 0 13.48 0 14.88 0"/>
  <path class="e" d="M37.96,24.01l.35,1.09h1.14s-.92.67-.92.67l.35,1.08-.92-.67-.92.67.35-1.08-.92-.67h1.14s.35-1.08.35-1.08h0ZM43.88,11.9l.35,1.09h1.14s-.92.67-.92.67l.35,1.08-.92-.67-.92.67.35-1.08-.92-.67h1.14s.35-1.08.35-1.08h0ZM31.4,13.61l.35,1.09h1.14s-.92.67-.92.67l.35,1.08-.92-.67-.92.67.35-1.08-.92-.67h1.14s.35-1.08.35-1.08h0ZM38.08,6.93l.35,1.09h1.14s-.92.67-.92.67l.35,1.08-.92-.67-.92.67.35-1.08-.92-.67h1.14s.35-1.08.35-1.08Z"/>
  <path class="d" d="M37.96,24.01l.35,1.09h1.14s-.92.67-.92.67l.35,1.08-.92-.67-.92.67.35-1.08-.92-.67h1.14s.35-1.08.35-1.08h0ZM43.88,11.9l.35,1.09h1.14s-.92.67-.92.67l.35,1.08-.92-.67-.92.67.35-1.08-.92-.67h1.14s.35-1.08.35-1.08h0ZM31.4,13.61l.35,1.09h1.14s-.92.67-.92.67l.35,1.08-.92-.67-.92.67.35-1.08-.92-.67h1.14s.35-1.08.35-1.08h0ZM38.08,6.93l.35,1.09h1.14s-.92.67-.92.67l.35,1.08-.92-.67-.92.67.35-1.08-.92-.67h1.14s.35-1.08.35-1.08Z"/>
</svg>