<?xml version="1.0" encoding="UTF-8"?>
<svg id="a" data-name="Layer 1" xmlns="http://www.w3.org/2000/svg" xmlns:xlink="http://www.w3.org/1999/xlink" viewBox="0 0 48 36">
  <defs>
    <style>
      .d {
        stroke-width: .22px;
      }

      .d, .e, .f, .g, .h, .i, .j, .k {
        fill-rule: evenodd;
      }

      .d, .e, .f, .h {
        stroke-miterlimit: 22.93;
      }

      .d, .e, .f, .h, .l {
        fill: none;
        stroke: #231f20;
      }

      .e {
        stroke-width: .27px;
      }

      .f {
        stroke-width: .27px;
      }

      .m {
        fill: #231f20;
      }

      .n {
        fill: #dd1f26;
      }

      .g {
        fill: #fdcd06;
      }

      .o {
        fill: #fff;
      }

      .p {
        fill: #f30004;
      }

      .q {
        fill: #0132bf;
      }

      .h, .l {
        stroke-width: .1px;
      }

      .l {
        stroke-linecap: round;
        stroke-linejoin: round;
      }

      .i {
        fill: url(#b);
      }

      .j {
        fill: url(#c);
      }

      .k {
        fill: #196131;
      }

      .r {
        fill: #ffe500;
      }
    </style>
    <linearGradient id="b" data-name="GradientFill 55" x1="22.24" y1="17.51" x2="25.77" y2="18.13" gradientUnits="userSpaceOnUse">
      <stop offset="0" stop-color="#3567b0"/>
      <stop offset=".53" stop-color="#468ecc"/>
      <stop offset="1" stop-color="#3567b0"/>
    </linearGradient>
    <linearGradient id="c" data-name="GradientFill 14" x1="6.18" y1="11.85" x2="70.73" y2="34.07" gradientUnits="userSpaceOnUse">
      <stop offset="0" stop-color="#d22027"/>
      <stop offset=".47" stop-color="#ec1c24"/>
      <stop offset=".6" stop-color="#ec1c24"/>
      <stop offset="1" stop-color="#d22027"/>
    </linearGradient>
  </defs>
  <rect class="o" x="0" y="12" width="47.99" height="11.99"/>
  <rect class="q" x="0" y="23.99" width="47.99" height="11.99"/>
  <rect class="p" x="0" y="0" width="47.99" height="11.99"/>
  <g>
    <path class="m" d="M24.86,15.77l.03.02h0s0,0,0,0h0s0,.02,0,.02h0s0,.02,0,.02h0s0,.03,0,.03v.02s.02.02.02.02v.02s.02.02.02.02v.02s.02.02.02.02v.02s.03.02.03.02v.02s.03.02.03.02v.02s.03.02.03.02h.01s.01.03.01.03h.01s.01.02.01.02h.01s.01.02.01.02h.01s.01.01.01.01h0s0,0,0,0h0s0,0,0,0v.03s0,0,0,0h-.01s-.01,0-.01,0h-.01s-.01-.01-.01-.01h-.01s-.01-.02-.01-.02h-.01s-.01-.02-.01-.02h-.02s-.01-.03-.01-.03h-.02s-.01-.03-.01-.03v-.02s-.03-.02-.03-.02v-.02s-.03-.02-.03-.02v-.02s-.03-.02-.03-.02v-.02s-.02-.02-.02-.02v-.02s-.02-.02-.02-.02v-.02s-.02-.02-.02-.02v-.02s-.01-.01-.01-.01h0s0-.03,0-.03h0s0-.02,0-.02h0ZM25.2,16.18v-.03s-.02,0-.02,0h0s0-.01,0-.01h0s0-.02,0-.02h0s0-.02,0-.02h0s0-.03,0-.03v-.02s-.02-.02-.02-.02v-.02s-.02-.02-.02-.02v-.02s-.03-.02-.03-.02l-.02-.02-.02-.02-.02-.02-.02-.02-.02-.02-.02-.02h-.02s-.02-.03-.02-.03h-.01s-.01-.02-.01-.02h-.01s-.01-.02-.01-.02h-.01s0,0,0,0h0s0,0,0,0h0s-.03-.02-.03-.02h0s.01-.01.01-.01h.01s.01,0,.01,0h.01s.01.01.01.01h.01s.01.02.01.02h.01s.02.02.02.02h.02s.02.03.02.03l.02.02.02.02.02.02.02.02.02.02.02.02v.02s.03.02.03.02v.02s.03.02.03.02v.02s.02.02.02.02v.02s.01.02.01.02v.02s0,.02,0,.02h0s0,.03,0,.03h0s0,.03,0,.03h0ZM25.21,16.18h0s0,0,0,0h0Z"/>
    <path class="k" d="M25.2,16.17c-.1.03-.37-.32-.32-.39.04-.06.4.31.32.39Z"/>
  </g>
  <g>
    <path class="m" d="M24.69,16.06h.03s0,0,0,0h0s0,.01,0,.01h0s0,.01,0,.01h.01s.01.01.01.01h.01s.02.01.02.01h.02s.02.01.02.01h.02s.02.01.02.01h.02s.02.01.02.01h.02s.02,0,.02,0h.02s.02,0,.02,0h.02s.02,0,.02,0h.02s.02,0,.02,0h.02s.02,0,.02,0h.02s.01,0,.01,0h.01s.01,0,.01,0h0s0,0,0,0h0s.03.01.03.01h0s-.01.02-.01.02h-.01s-.01.01-.01.01h-.01s-.02,0-.02,0h-.02s-.02,0-.02,0h-.02s-.02,0-.02,0h-.02s-.02,0-.02,0h-.02s-.02,0-.02,0h-.02s-.02,0-.02,0h-.02s-.02-.01-.02-.01h-.02s-.02-.01-.02-.01h-.02s-.02-.01-.02-.01h-.02s-.02-.02-.02-.02h-.02s-.01-.02-.01-.02h-.01s-.01-.02-.01-.02h0s0-.02,0-.02h0s0-.02,0-.02h0ZM25.21,16.18l-.03-.02h0s0,0,0,0h0s0-.01,0-.01h0s0-.01,0-.01h-.01s-.01-.02-.01-.02h-.02s-.02-.01-.02-.01h-.02s-.02-.01-.02-.01h-.02s-.02-.01-.02-.01h-.02s-.02,0-.02,0h-.02s-.02,0-.02,0h-.02s-.02,0-.02,0h-.02s-.02,0-.02,0h-.02s-.02,0-.02,0h-.03s-.01,0-.01,0h-.01s0,0,0,0h0s0,0,0,0h0s-.03,0-.03,0h0s0-.02,0-.02h0s.01-.01.01-.01h.01s.01,0,.01,0h.02s.02,0,.02,0h.02s.02,0,.02,0h.02s.02,0,.02,0h.02s.02,0,.02,0h.02s.02,0,.02,0h.02s.02,0,.02,0h.02s.02.01.02.01h.02s.02.01.02.01h.02s.02.01.02.01h.02s.02.02.02.02h.01s.01.02.01.02h.01s0,.02,0,.02h0s0,.03,0,.03h0ZM25.21,16.17h0s0,0,0,0h0Z"/>
    <path class="k" d="M25.2,16.17c-.06.08-.49-.03-.49-.11,0-.07.5,0,.49.11Z"/>
  </g>
  <g>
    <path class="m" d="M24.76,15.9h.03s0,.01,0,.01h0s0,.01,0,.01h0s0,.02,0,.02h0s0,.02,0,.02h.01s.01.02.01.02h.01s.01.02.01.02h.02s.02.02.02.02h.02s.02.02.02.02h.02s.02.02.02.02h.02s.02.02.02.02h.02s.02.02.02.02h.02s.02.02.02.02h.02s.02.01.02.01h.01s.01,0,.01,0h.01s.01,0,.01,0h0s0,0,0,0h0s.02.02.02.02h-.01s-.01,0-.01,0h-.01s-.01,0-.01,0h-.02s-.02,0-.02,0h-.02s-.02-.01-.02-.01h-.02s-.02-.01-.02-.01h-.02s-.02-.02-.02-.02h-.02s-.02-.02-.02-.02h-.02s-.02-.02-.02-.02h-.02s-.02-.02-.02-.02h-.02s-.02-.03-.02-.03h-.02s-.02-.03-.02-.03h-.01s-.01-.03-.01-.03h-.01s-.01-.02-.01-.02h0s0-.02,0-.02h0s0-.02,0-.02h0s0-.02,0-.02h0ZM25.21,16.18l-.02-.03h0s0,0,0,0h0s0-.01,0-.01h0s0-.02,0-.02h0s0-.02,0-.02h-.01s-.01-.03-.01-.03h-.02s-.02-.03-.02-.03h-.02s-.02-.03-.02-.03h-.02s-.02-.02-.02-.02h-.02s-.02-.02-.02-.02h-.02s-.02-.02-.02-.02h-.02s-.02-.02-.02-.02h-.02s-.02-.01-.02-.01h-.02s-.02,0-.02,0h-.01s-.01,0-.01,0h0s0,0,0,0h0s0,0,0,0h-.03s0-.02,0-.02h.01s.01-.01.01-.01h.03s.01,0,.01,0h.02s.02,0,.02,0h.02s.02.01.02.01h.02s.02.02.02.02h.02s.02.02.02.02h.02s.02.02.02.02h.02s.02.02.02.02h.02s.02.03.02.03h.02s.02.03.02.03h.02s.01.03.01.03h.01s.01.03.01.03h0s0,.03,0,.03h0s0,.03,0,.03h0s0,.03,0,.03h0ZM25.21,16.18h0s0,0,0,0h0Z"/>
    <path class="k" d="M25.2,16.17c-.08.06-.45-.19-.43-.27.02-.07.47.17.43.27Z"/>
  </g>
  <g>
    <path class="m" d="M25.67,16.31h0s0,0,0,0h0s0,0,0,0h0s0,0,0,0h0s0,0,0,0h0s0,0,0,0h0s0,0,0,0h0s0,0,0,0h0s0,0,0,0h0s0,0,0,0h0v-.02h0s0,0,0,0h0s0,0,0,0h0s0,0,0,0h0s0,0,0,0h.03s0-.01,0-.01h0s0,0,0,0h0s0,0,0,0h0s0,0,0,0h0s0,.01,0,.01h0s0,.01,0,.01h0s0,0,0,0h0s0,0,0,0h0s0,0,0,0h0s0,0,0,0h0s0,0,0,0h0s0,0,0,0h0s0,0,0,0h0s0,0,0,0h0s0,0,0,0h0s-.03-.02-.03-.02h0ZM25.58,16.44h-.03s0,0,0,0h0s0,0,0,0h0s0,0,0,0h0s0,0,0,0h0s0,0,0,0h0s0,0,0,0h0s0,0,0,0h0s0,0,0,0h0s0,0,0,0h0s0,0,0,0h0s0,0,0,0h0s0,0,0,0h0s0,0,0,0h0s0,0,0,0h0s0,0,0,0h0s0,0,0,0h0s.03.02.03.02h0s0,0,0,0h0s0,0,0,0h0s0,0,0,0h0s0,0,0,0h0s0,0,0,0h0s0,0,0,0h0s0,0,0,0h0s0,.01,0,.01h0s0,0,0,0h0s0,0,0,0h0s0,0,0,0h0s0,0,0,0h0s0,0,0,0h0s0,0,0,0h0s0,0,0,0h0s-.03,0-.03,0l.03-.02h0ZM25.58,16.45v.03s-.03-.03-.03-.03h.03ZM25.58,16.31h0s0,.01,0,.01h0s0,.01,0,.01h0s0,.01,0,.01h0s0,.01,0,.01h0v.02h0s0,.01,0,.01h0s0,0,0,0h0s0,0,0,0h0s0,0,0,0h0s0,0,0,0h0s0,0,0,0h0s0,0,0,0h0s0,0,0,0h0s0,0,0,0h0s0,0,0,0h0l-.03.02h0s0,0,0,0h0s0,0,0,0h0s0,0,0,0h0s0,0,0,0h0s0,0,0,0h0s0,0,0,0h0s0-.01,0-.01h0s0-.01,0-.01h0s0-.01,0-.01h0s0-.01,0-.01h0s0-.01,0-.01h0s0-.01,0-.01h0s0-.01,0-.01h0s0-.01,0-.01h0s0-.01,0-.01h0s.03.01.03.01h0ZM25.69,16.21h0s0,0,0,0h0s0,0,0,0h0s0,0,0,0h0s0,0,0,0h0s0,0,0,0h0s0,0,0,0h0s0,0,0,0h0s0,0,0,0h0s0,0,0,0h0s0,0,0,0h0s0,.01,0,.01h0s0,.01,0,.01h0s0,.01,0,.01h0s0,.01,0,.01h0s0,.01,0,.01l-.03-.02h0s0-.01,0-.01h0s0-.01,0-.01h0s0-.01,0-.01h0s0-.01,0-.01h0s0-.01,0-.01h0s0-.01,0-.01h0s0,0,0,0h0s0,0,0,0h0s0,0,0,0h0s0,0,0,0h0s0,0,0,0h0s0,0,0,0h0s0,0,0,0h0s0,0,0,0h0s0,0,0,0h0s0,0,0,0h0s-.03.02-.03.02h0ZM25.72,16.2h0s0,0,0,0Z"/>
    <path class="k" d="M25.7,16.21s0,.08-.02.11-.11.11-.11.13c0,0-.05-.08,0-.15.05-.07.12-.13.14-.1Z"/>
  </g>
  <g>
    <path class="m" d="M25.33,16.58v.03h.01,0s0,0,0,0h0s0,0,0,0h0s0,0,0,0h0s0,0,0,0h0s0,0,0,0h0s0,0,0,0h0s0,0,0,0h0s0,0,0,0h0s0,0,0,0h0s0,0,0,0h0s0,0,0,0h0s0,0,0,0h0s0,0,0,0h0s0,0,0,0h0s0,0,0,0h0s.02-.03.02-.03h0s0,0,0,0h0s0,0,0,0h0s0,0,0,0h0s0,0,0,0h0s0,0,0,0h0s0,0,0,0h0s0,0,0,0h.02s0,0,0,0h0s0,0,0,0h0s0,0,0,0h0s0,0,0,0h0s0,0,0,0h0s0,0,0,0h0ZM25.48,16.52l.02-.02v.03h0s0,0,0,0h0s0,0,0,0h0s0,0,0,0h0s0,0,0,0h0s0,0,0,0h0s0,0,0,0h0s0,0,0,0h0s0,0,0,0h0s0,0,0,0h0s0,0,0,0h0s0,0,0,0h0s0,0,0,0h0s0,0,0,0h0s0,0,0,0h0s0,0,0,0h0s-.01-.03-.01-.03h0s0,0,0,0h0s0,0,0,0h0s0,0,0,0h0s0,0,0,0h0s0,0,0,0h0s0,0,0,0h0s0,0,0,0h0s0,0,0,0h0s0,0,0,0h0s0,0,0,0h0s0,0,0,0h0s0,0,0,0h0s0,0,0,0h0s0,0,0,0h0s0,0,0,0h0s0,0,0,0v.03h0ZM25.5,16.5l.02.02h-.03s0-.02,0-.02h0ZM25.35,16.49v-.03h-.01,0s0,0,0,0h0s0,0,0,0h0s0,0,0,0h.01s0,0,0,0h0s0,0,0,0h0s0,0,0,0h0s0,0,0,0h0s0,0,0,0h0s0,0,0,0h0s0,0,0,0h0s0,0,0,0h0s0,0,0,0h0s0,0,0,0h0s0,0,0,0h0s0,0,0,0h0l-.02.02h0s0,0,0,0h0s0,0,0,0h0s0,0,0,0h0s0,0,0,0h0s0,0,0,0h0s0,0,0,0h0s0,0,0,0h0s0,0,0,0h0s0,0,0,0h0s0,0,0,0h0s0,0,0,0h0s0,0,0,0h-.02s0,0,0,0h0s0,0,0,0h0ZM25.24,16.58l-.02.03h0s0,0,0,0h0s0-.01,0-.01h0s0-.01,0-.01h0s0-.01,0-.01h0s0-.01,0-.01h0s0,0,0,0h0s0,0,0,0h0s0,0,0,0h0s0,0,0,0h0s0,0,0,0h0s0,0,0,0h0s0,0,0,0h0s0,0,0,0h0s0,0,0,0h0s0,0,0,0h0s0,0,0,0h0s.01.03.01.03h0s0,0,0,0h0s0,0,0,0h0s0,0,0,0h0s0,0,0,0h0s0,0,0,0h0s0,0,0,0h0s0,0,0,0h0s0,0,0,0h0s0,0,0,0h0s0,0,0,0h0s0,0,0,0h0s0,0,0,0h0s0,0,0,0h0s0,0,0,0h0ZM25.22,16.61h0s0,0,0,0Z"/>
    <path class="k" d="M25.23,16.59s.07.02.11,0,.13-.08.15-.09c0,0-.07-.07-.14-.03-.08.03-.15.09-.12.12Z"/>
  </g>
  <g>
    <path class="m" d="M25.42,15.97v.03h.01,0s0,0,0,0h0s0,.02,0,.02h0s0,.02,0,.02h0s0,.03,0,.03v.02s0,.02,0,.02v.02s0,.02,0,.02v.02s0,.02,0,.02v.02s0,.02,0,.02v.02s0,.02,0,.02v.02s0,.02,0,.02v.02s.01.02.01.02v.02s.01.02.01.02h0s0,.03,0,.03h0s0,.02,0,.02h0s0,.01,0,.01h0s0,0,0,0v.03s-.02,0-.02,0h-.01s-.01-.02-.01-.02h0s0-.02,0-.02h0s0-.03,0-.03v-.02s-.01-.02-.01-.02v-.02s-.01-.02-.01-.02v-.02s-.01-.02-.01-.02v-.02s0-.02,0-.02v-.02s0-.02,0-.02v-.02s0-.02,0-.02v-.02s0-.02,0-.02v-.02s0-.02,0-.02v-.02s0-.02,0-.02v-.02s0-.01,0-.01h0s0-.03,0-.03h0s0-.02,0-.02h0ZM25.52,16.49v-.03s0,0,0,0h0s0,0,0,0h0s0-.02,0-.02h0s0-.03,0-.03v-.02s0-.02,0-.02v-.04s0-.02,0-.02v-.02s0-.02,0-.02v-.02s0-.02,0-.02v-.02s-.01-.02-.01-.02v-.02s-.01-.02-.01-.02v-.02s-.01-.02-.01-.02v-.02s-.01-.02-.01-.02v-.02s-.01-.01-.01-.01h0s0-.02,0-.02h0s0-.01,0-.01h0s0,0,0,0v-.03s0,0,0,0h.01s.01,0,.01,0h0s0,.02,0,.02h0s0,.03,0,.03v.02s.02.02.02.02v.02s.01.02.01.02v.02s.01.02.01.02v.02s.01.02.01.02v.02s.01.02.01.02v.02s0,.02,0,.02v.02s0,.02,0,.02v.02s0,.02,0,.02v.04s0,.02,0,.02v.02s0,.02,0,.02h0s0,.03,0,.03h-.01s-.01.02-.01.02h0ZM25.53,16.49h0s0,0,0,0h0Z"/>
    <path class="k" d="M25.52,16.47c-.1-.02-.17-.46-.1-.49.06-.03.2.46.1.49Z"/>
  </g>
  <g>
    <path class="m" d="M25.31,16l.02.02h0s0,0,0,0h0s0,.02,0,.02h0s0,.02,0,.02h0s0,.03,0,.03v.02s0,.02,0,.02v.02s.01.02.01.02v.02s.01.02.01.02v.02s.02.02.02.02v.02s.02.02.02.02v.02s.02.02.02.02v.02s.02.02.02.02v.02s.02.01.02.01h.01s0,.03,0,.03h0s0,.02,0,.02h0s0,.01,0,.01h0s0,0,0,0v.03h-.01s-.01,0-.01,0h-.01s-.01-.02-.01-.02h-.01s-.01-.02-.01-.02h-.01s-.01-.03-.01-.03v-.02s-.02-.02-.02-.02v-.02s-.02-.02-.02-.02v-.02s-.02-.02-.02-.02v-.02s-.02-.02-.02-.02v-.02s-.02-.02-.02-.02v-.02s-.01-.02-.01-.02v-.02s-.01-.02-.01-.02v-.02s0-.02,0-.02v-.02s0-.02,0-.02h0v-.03h0s0-.03,0-.03h0s0-.02,0-.02h0ZM25.52,16.49v-.03h0s0,0,0,0h0s0-.01,0-.01h0s0-.02,0-.02h0s0-.03,0-.03v-.02s0-.02,0-.02v-.02s-.01-.02-.01-.02v-.02s-.02-.02-.02-.02v-.02s-.02-.02-.02-.02v-.02s-.02-.02-.02-.02v-.02s-.02-.02-.02-.02v-.02s-.02-.02-.02-.02v-.02s-.02-.02-.02-.02h-.01s-.01-.03-.01-.03h0s0-.02,0-.02h0s0,0,0,0h0s0,0,0,0l-.02-.02h.01s.01,0,.01,0h.01s.01,0,.01,0h0s.01.02.01.02h.01s.01.03.01.03v.02s.02.02.02.02v.02s.02.02.02.02v.02s.02.02.02.02v.02s.02.02.02.02v.02s.02.02.02.02v.02s.02.02.02.02v.02s.01.02.01.02v.02s.01.02.01.02v.02s0,.02,0,.02v.02s0,.02,0,.02h0s0,.03,0,.03h0s-.01.02-.01.02h0ZM25.53,16.49h0s0,0,0,0h0Z"/>
    <path class="k" d="M25.52,16.47c-.1,0-.26-.41-.2-.46.05-.04.3.41.2.46Z"/>
  </g>
  <g>
    <path class="m" d="M25.03,16.32h.03s0,0,0,0h0s0,.01,0,.01h0s.01.02.01.02h.01s.01.02.01.02h.01s.02.02.02.02h.02s.02.02.02.02h.02s.02.02.02.02h.02s.02.01.02.01h.02s.02.01.02.01h.02s.02.01.02.01h.02s.02,0,.02,0h.02s.02,0,.02,0h.02s.02,0,.02,0h.01s.01,0,.01,0h.01s0,0,0,0h0s0,0,0,0l.02.02h0s-.01.02-.01.02h-.01s-.01,0-.01,0h-.02s-.02,0-.02,0h-.04s-.02,0-.02,0h-.02s-.02,0-.02,0h-.02s-.02,0-.02,0h-.02s-.02-.01-.02-.01h-.02s-.02-.01-.02-.01h-.02s-.02-.02-.02-.02h-.02s-.02-.02-.02-.02h-.02s-.02-.02-.02-.02h-.02s-.01-.02-.01-.02h-.01s-.01-.02-.01-.02h-.01s0-.02,0-.02h0s0-.02,0-.02h0ZM25.53,16.48l-.02-.02h0s0,0,0,0h0s0-.01,0-.01h0s0-.02,0-.02h-.01s-.01-.02-.01-.02h-.01s-.02-.02-.02-.02h-.02s-.02-.02-.02-.02h-.02s-.02-.02-.02-.02h-.02s-.02-.01-.02-.01h-.02s-.02-.01-.02-.01h-.02s-.02,0-.02,0h-.02s-.02,0-.02,0h-.02s-.02,0-.02,0h-.02s-.02,0-.02,0h-.03s0,0,0,0h0s0,0,0,0h0s-.03,0-.03,0h0s0-.02,0-.02h.01s.01,0,.01,0h.01s.01,0,.01,0h.02s.02,0,.02,0h.02s.02,0,.02,0h.02s.02,0,.02,0h.02s.02,0,.02,0h.02s.02.01.02.01h.02s.02.01.02.01h.02s.02.01.02.01h.02s.02.02.02.02h.02s.02.02.02.02h.02s.02.02.02.02h.01s.01.02.01.02h0s0,.02,0,.02h0s0,.03,0,.03h0ZM25.54,16.48h0s0,0,0,0h0Z"/>
    <path class="k" d="M25.52,16.47c-.07.07-.48-.07-.48-.15,0-.07.5.04.48.15Z"/>
  </g>
  <g>
    <path class="m" d="M25.1,16.18h.03s0,.01,0,.01h0s0,.01,0,.01h0s0,.02,0,.02h0s0,.02,0,.02h.01s.01.02.01.02h.01s.01.03.01.03h.01s.02.03.02.03h.02s.02.03.02.03h.02s.02.03.02.03h.02s.02.02.02.02h.02s.02.02.02.02h.02s.02.02.02.02h.02s.02.01.02.01h.01s.01,0,.01,0h.01s.01,0,.01,0h.02s0,0,0,0l.02.03h-.01s-.01,0-.01,0h-.01s-.01,0-.01,0h-.02s-.02,0-.02,0h-.02s-.02-.01-.02-.01h-.02s-.02-.02-.02-.02h-.02s-.02-.02-.02-.02h-.02s-.02-.02-.02-.02h-.02s-.02-.03-.02-.03h-.02s-.02-.03-.02-.03h-.02s-.02-.03-.02-.03h-.02s-.01-.03-.01-.03h-.01s-.01-.03-.01-.03h-.01s0-.03,0-.03h0s0-.03,0-.03h0s0-.02,0-.02h0s0-.02,0-.02h0ZM25.53,16.49l-.02-.03h0s0,0,0,0h0s0-.01,0-.01h0s0-.02,0-.02h0s0-.02,0-.02h-.01s-.01-.03-.01-.03h-.01s-.02-.03-.02-.03h-.02s-.02-.03-.02-.03h-.02s-.02-.03-.02-.03h-.02s-.02-.03-.02-.03h-.02s-.02-.02-.02-.02h-.02s-.02-.02-.02-.02h-.02s-.02-.02-.02-.02h-.02s-.02-.01-.02-.01h-.01s-.01,0-.01,0h0s0,0,0,0h0s0,0,0,0h-.03s0-.02,0-.02h.01s.01,0,.01,0h.03s.01,0,.01,0h.02s.02.01.02.01h.02s.02.01.02.01h.02s.02.02.02.02h.02s.02.02.02.02h.02s.02.02.02.02h.02s.02.03.02.03h.02s.02.03.02.03h.02s.02.03.02.03h.02s.01.03.01.03h.01s.01.03.01.03h0s0,.03,0,.03h0s0,.03,0,.03h0s0,.03,0,.03h0ZM25.54,16.48h0s0,0,0,0h0Z"/>
    <path class="k" d="M25.52,16.47c-.09.05-.44-.21-.41-.29.02-.07.46.19.41.29Z"/>
  </g>
  <g>
    <path class="m" d="M25.19,16.08l.03.02h0s0,0,0,0h0s0,.02,0,.02h0s0,.02,0,.02h0s0,.03,0,.03h0s0,.03,0,.03v.02s.02.02.02.02v.02s.02.02.02.02v.02s.03.02.03.02v.02s.03.02.03.02v.02s.03.02.03.02h.01s.01.03.01.03h.01s.01.02.01.02h.01s.01.02.01.02h.01s.01.01.01.01h.01s0,0,0,0h.01s0,.03,0,.03h-.01s-.01,0-.01,0h-.01s-.01,0-.01,0h-.01s-.01-.01-.01-.01h-.01s-.01-.02-.01-.02h-.01s-.01-.03-.01-.03h-.02s-.01-.03-.01-.03l-.02-.02v-.02s-.03-.02-.03-.02v-.02s-.03-.02-.03-.02v-.02s-.03-.02-.03-.02v-.02s-.02-.02-.02-.02v-.02s-.02-.02-.02-.02v-.02s-.02-.02-.02-.02h0s0-.03,0-.03h0s0-.03,0-.03h0s0-.02,0-.02h0ZM25.53,16.49v-.03s-.02,0-.02,0h0s0,0,0,0h0s0-.02,0-.02h0s0-.03,0-.03h0s0-.03,0-.03v-.02s-.02-.02-.02-.02v-.02s-.02-.02-.02-.02v-.02s-.03-.02-.03-.02v-.02s-.03-.02-.03-.02l-.02-.02-.02-.02-.02-.02h-.02s-.02-.03-.02-.03h-.02s-.01-.03-.01-.03h-.01s-.01-.02-.01-.02h-.01s-.01-.01-.01-.01h0s0,0,0,0h0,0s-.03-.02-.03-.02h0s.01-.01.01-.01h.01s.01,0,.01,0h.01s.01.01.01.01h.01s.01.02.01.02h.01s.02.02.02.02h.02s.02.03.02.03l.02.02.02.02.02.02.02.02.02.02.02.02v.02s.03.02.03.02v.02s.03.02.03.02v.02s.02.02.02.02v.02s.02.02.02.02v.02s0,.02,0,.02h0s0,.03,0,.03h0s0,.03,0,.03h0ZM25.53,16.48h0s0,0,0,0h0Z"/>
    <path class="k" d="M25.52,16.47c-.1.03-.37-.32-.32-.39.04-.06.4.31.32.39Z"/>
  </g>
  <g>
    <path class="d" d="M26.22,16.73s-.01.09-.06.13c-.05.04-.16.11-.18.12,0,0-.04-.11.04-.18.08-.07.18-.13.2-.08Z"/>
    <path class="k" d="M26.22,16.73s-.01.09-.06.13c-.05.04-.16.11-.18.12,0,0-.04-.11.04-.18.08-.07.18-.13.2-.08Z"/>
  </g>
  <g>
    <path class="d" d="M25.55,17.05s.08.05.14.04c.06-.01.19-.06.21-.06,0,0-.06-.1-.16-.08-.1.02-.21.06-.18.11Z"/>
    <path class="k" d="M25.55,17.05s.08.05.14.04c.06-.01.19-.06.21-.06,0,0-.06-.1-.16-.08-.1.02-.21.06-.18.11Z"/>
  </g>
  <g>
    <path class="m" d="M25.31,16.56h.03s0,.02,0,.02h0s0,.02,0,.02h0s0,.03,0,.03v.02s.02.02.02.02l.02.02.02.02.02.02.02.02.02.02.02.02.02.02.03.02.03.02.03.02.03.02.03.02.03.02.03.02h.03s.03.03.03.03h.02s.02.02.02.02h.02s.02.01.02.01h.02s.02,0,.02,0h.01s.01,0,.01,0h0s.02.02.02.02h-.02s-.02.01-.02.01h-.02s-.02,0-.02,0h-.02s-.02-.01-.02-.01h-.02s-.02-.02-.02-.02h-.03s-.03-.03-.03-.03h-.03s-.03-.03-.03-.03l-.03-.02-.03-.02-.03-.02-.03-.02-.03-.02-.03-.02-.03-.02-.02-.02-.02-.02-.02-.02-.02-.02-.02-.02-.02-.02v-.02s-.03-.02-.03-.02v-.02s-.02-.02-.02-.02v-.02s0-.02,0-.02v-.02h0ZM25.94,17.02l-.02-.03h0s0,0,0,0h0s0-.02,0-.02h0s0-.03,0-.03v-.02s-.03-.02-.03-.02l-.02-.02-.02-.02-.02-.02-.02-.02-.03-.02-.03-.02-.03-.02-.03-.02-.03-.02-.03-.02-.03-.02-.03-.02-.03-.02h-.03s-.03-.03-.03-.03h-.03s-.02-.02-.02-.02h-.02s-.02-.01-.02-.01h-.02s-.02,0-.02,0h-.02s0,0,0,0h0s-.03,0-.03,0h0s.01-.02.01-.02h.02s.02,0,.02,0h.02s.02,0,.02,0h.02s.02.02.02.02h.03s.03.02.03.02h.03s.03.03.03.03l.03.02.03.02.03.02.03.02.03.02.03.02.03.02.03.02.03.02.02.02.02.02.02.02.02.02.02.02v.02s.02.02.02.02v.02s0,.02,0,.02v.02s0,.02,0,.02h0ZM25.94,17.01h0s0,0,0,0h0Z"/>
    <path class="k" d="M25.93,17.01c-.13.07-.65-.32-.61-.44.03-.1.69.29.61.44Z"/>
  </g>
  <g>
    <path class="m" d="M25.95,16.25v.03h0,0s0,0,0,0h0s0,.02,0,.02v.02s-.02.02-.02.02v.02s-.01.02-.01.02v.03s-.01.03-.01.03v.03s0,.03,0,.03v.03s0,.03,0,.03v.03s0,.03,0,.03v.03s0,.03,0,.03v.03s0,.03,0,.03v.03s0,.03,0,.03v.03s0,.03,0,.03v.02s.01.02.01.02v.02s.01.02.01.02h0s0,.03,0,.03h0s0,.01,0,.01v.03s-.03,0-.03,0h-.01s-.01-.03-.01-.03v-.02s-.02-.02-.02-.02v-.02s-.01-.02-.01-.02v-.03s0-.03,0-.03v-.03s0-.03,0-.03v-.03s0-.03,0-.03v-.03s0-.03,0-.03v-.03s0-.03,0-.03v-.03s0-.03,0-.03v-.03s0-.03,0-.03v-.03s.01-.03.01-.03v-.03s.01-.03.01-.03v-.02s.02-.02.02-.02v-.02s.02-.02.02-.02h.01s.01-.02.01-.02h.01ZM25.92,17.02v-.03s0,0,0,0h0s0,0,0,0h0s0-.02,0-.02v-.02s.02-.02.02-.02v-.02s.01-.03.01-.03v-.03s.01-.03.01-.03v-.03s0-.03,0-.03v-.03s0-.03,0-.03v-.03s0-.04,0-.04v-.03s0-.03,0-.03v-.03s0-.03,0-.03v-.03s0-.03,0-.03v-.03s0-.03,0-.03v-.02s-.01-.02-.01-.02v-.02s-.01-.01-.01-.01h0s0-.01,0-.01h0s0,0,0,0v-.03s0,0,0,0h.01s.01.02.01.02h0s0,.03,0,.03v.02s.01.02.01.02v.02s.01.03.01.03v.03s0,.03,0,.03v.03s0,.03,0,.03v.03s0,.03,0,.03v.04s0,.04,0,.04v.04s0,.04,0,.04v.03s0,.03,0,.03v.03s0,.03,0,.03v.03s-.01.03-.01.03v.02s-.02.02-.02.02v.02s-.02.02-.02.02h-.01s-.02.02-.02.02h-.02s0,0,0,0h0ZM25.93,17.03h0s0,0,0,0Z"/>
    <path class="k" d="M25.93,17.01c-.13-.07-.09-.72.02-.75.1-.03.14.74-.02.75Z"/>
  </g>
  <g>
    <path class="m" d="M25.44,16.42l.03.02h0s0,.02,0,.02h0s0,.03,0,.03v.02s.01.02.01.02v.02s.02.02.02.02v.02s.03.02.03.02l.02.02.02.03.02.03.02.03.02.03.02.02.02.03.02.02.02.02.02.02.02.02.02.02.02.02.02.02.02.02h.02s.02.02.02.02h.02s.02.01.02.01h.01s.01,0,.01,0h.01s0,.03,0,.03h-.02s-.02,0-.02,0h-.02s-.02-.01-.02-.01h-.02s-.02-.02-.02-.02h-.02s-.02-.03-.02-.03l-.02-.02-.02-.02-.02-.02-.02-.02-.02-.02-.02-.02-.02-.02-.02-.03-.02-.03-.02-.03-.02-.03-.02-.03-.02-.03-.02-.03v-.02s-.03-.02-.03-.02v-.02s-.02-.02-.02-.02v-.02s-.01-.02-.01-.02v-.02s0-.02,0-.02v-.02s0-.01,0-.01h0ZM25.93,17.02v-.03s-.02,0-.02,0h0s0-.02,0-.02h0s0-.03,0-.03v-.02s-.01-.02-.01-.02v-.02s-.02-.02-.02-.02v-.02s-.03-.03-.03-.03l-.02-.03-.02-.03-.02-.03-.02-.03-.02-.03-.02-.03-.02-.03-.02-.02-.02-.02-.02-.02-.02-.02-.02-.02-.02-.02-.02-.02h-.02s-.02-.02-.02-.02h-.02s-.01-.01-.01-.01h-.01s0,0,0,0h0s0,0,0,0l-.03-.02h.01s.02-.02.02-.02h.02s.02,0,.02,0h.02s.02.02.02.02h.02s.02.03.02.03l.02.02.02.02.02.02.02.02.02.02.02.02.02.03.02.03.02.03.02.03.02.03.02.03.02.03.02.03.02.03v.03s.03.02.03.02v.02s.02.02.02.02v.02s0,.02,0,.02v.02s0,.02,0,.02v.02s-.02,0-.02,0h0ZM25.94,17.02h0s0,0,0,0h0Z"/>
    <path class="k" d="M25.93,17.01c-.14.04-.54-.48-.48-.58.06-.09.59.46.48.58Z"/>
  </g>
  <g>
    <path class="m" d="M25.79,16.26v.03h.01,0s0,.01,0,.01h0s0,.02,0,.02v.02s0,.02,0,.02v.02s0,.02,0,.02v.03s0,.03,0,.03v.03s0,.03,0,.03v.03s0,.03,0,.03v.03s0,.03,0,.03v.03s.01.03.01.03v.03s.01.03.01.03v.03s.02.03.02.03v.03s.02.03.02.03v.02s.02.02.02.02v.02s.02.02.02.02h.01s.01.02.01.02h.01s0,.01,0,.01v.03s-.02,0-.02,0h-.02s-.01-.02-.01-.02v-.02s-.03-.02-.03-.02v-.02s-.02-.02-.02-.02v-.02s-.02-.03-.02-.03v-.03s-.02-.03-.02-.03v-.03s-.02-.03-.02-.03v-.03s-.01-.03-.01-.03v-.03s-.01-.03-.01-.03v-.03s0-.03,0-.03v-.03s0-.03,0-.03v-.03s0-.03,0-.03v-.03s0-.03,0-.03v-.02s0-.02,0-.02v-.02s.01-.02.01-.02h0s0-.03,0-.03h.01ZM25.93,17.02v-.03s0,0,0,0h0s0-.01,0-.01h0s0-.03,0-.03v-.02s0-.02,0-.02v-.02s0-.03,0-.03v-.06s0-.03,0-.03v-.03s0-.03,0-.03v-.03s-.01-.03-.01-.03v-.03s-.02-.03-.02-.03v-.03s-.02-.03-.02-.03v-.03s-.02-.03-.02-.03v-.03s-.02-.03-.02-.03v-.02s-.02-.02-.02-.02v-.02s-.02-.02-.02-.02h0s0-.02,0-.02h0s0,0,0,0h0v-.03s0,0,0,0h.02s.01.01.01.01h.01s.01.03.01.03v.02s.02.02.02.02v.02s.02.03.02.03v.03s.02.03.02.03v.03s.02.03.02.03v.03s.02.03.02.03v.03s.02.04.02.04v.03s.01.03.01.03v.03s0,.03,0,.03v.03s0,.03,0,.03v.06s0,.03,0,.03v.02s-.01.02-.01.02v.02s-.02.02-.02.02h-.01s-.02.02-.02.02h0ZM25.93,17.02h0s0,0,0,0h0Z"/>
    <path class="k" d="M25.93,17.01c-.14-.04-.24-.68-.13-.74.09-.05.29.69.13.74Z"/>
  </g>
  <g>
    <path class="m" d="M25.6,16.32l.02.02h0s0,.01,0,.01h0s0,.03,0,.03v.04s0,.02,0,.02v.02s0,.03,0,.03v.03s.01.03.01.03v.03s.02.03.02.03v.03s.02.03.02.03v.03s.03.03.03.03v.03s.03.03.03.03v.03s.03.03.03.03l.02.03.02.02.02.02.02.02.02.02v.02s.03.01.03.01h.01s.01.02.01.02h.01s.01,0,.01,0v.03s-.02,0-.02,0h-.02s-.02-.01-.02-.01h-.02s-.02-.03-.02-.03l-.02-.02-.02-.02-.02-.02-.02-.02-.02-.02-.02-.03-.02-.03-.02-.03v-.03s-.03-.03-.03-.03v-.03s-.03-.03-.03-.03v-.03s-.02-.03-.02-.03v-.03s-.02-.03-.02-.03v-.03s-.02-.03-.02-.03v-.03s-.01-.03-.01-.03v-.02s0-.02,0-.02v-.04s0-.02,0-.02h0s0-.03,0-.03h0ZM25.93,17.02v-.03s0,0,0,0h0s0-.02,0-.02h0s0-.03,0-.03v-.02s0-.02,0-.02v-.02s0-.03,0-.03v-.03s-.02-.03-.02-.03v-.03s-.02-.03-.02-.03v-.03s-.03-.03-.03-.03v-.03s-.03-.03-.03-.03l-.02-.03-.02-.03-.02-.03-.02-.03-.02-.03-.02-.02-.02-.02-.02-.02-.02-.02v-.02s-.03-.01-.03-.01h-.01s-.01-.01-.01-.01h0s0,0,0,0h0s-.02-.02-.02-.02h.01s.02,0,.02,0h.02s.01.01.01.01h.01s.02.03.02.03l.02.02.02.02.02.02.02.02.02.03.02.03.02.03.02.03.02.03.02.03.02.03.02.03v.03s.03.03.03.03v.03s.02.03.02.03v.03s.02.03.02.03v.03s0,.03,0,.03v.02s0,.02,0,.02v.02s-.01.02-.01.02v.02s-.03.01-.03.01h0ZM25.94,17.02h0s0,0,0,0h0Z"/>
    <path class="k" d="M25.93,17.01c-.15,0-.4-.6-.31-.68.08-.07.45.59.31.68Z"/>
  </g>
  <g>
    <path class="d" d="M25.71,17.67s.07.06.13.06c.06,0,.19-.04.21-.03,0,0-.05-.11-.15-.1-.1,0-.22.03-.2.08Z"/>
    <path class="k" d="M25.71,17.67s.07.06.13.06c.06,0,.19-.04.21-.03,0,0-.05-.11-.15-.1-.1,0-.22.03-.2.08Z"/>
  </g>
  <g>
    <path class="d" d="M26.5,17.54s-.05.08-.1.1c-.06.02-.19.04-.21.05,0,0,0-.12.1-.15.1-.03.22-.05.21,0Z"/>
    <path class="k" d="M26.5,17.54s-.05.08-.1.1c-.06.02-.19.04-.21.05,0,0,0-.12.1-.15.1-.03.22-.05.21,0Z"/>
  </g>
  <g>
    <path class="m" d="M26.32,16.95v.03h0,0s0,0,0,0h0s-.01.02-.01.02h-.01s-.01.03-.01.03v.02s-.02.02-.02.02v.02s-.02.03-.02.03v.03s-.02.03-.02.03v.03s-.02.03-.02.03v.03s-.02.03-.02.03v.03s-.01.03-.01.03v.03s-.01.03-.01.03v.03s0,.03,0,.03v.03s0,.03,0,.03v.05s0,.02,0,.02v.02s0,.02,0,.02h0s0,.02,0,.02h0s-.02.03-.02.03h-.01s0-.03,0-.03v-.02s-.01-.02-.01-.02v-.02s0-.02,0-.02v-.03s0-.03,0-.03v-.03s0-.03,0-.03v-.03s0-.03,0-.03v-.03s.01-.03.01-.03v-.03s.02-.03.02-.03v-.03s.02-.03.02-.03v-.03s.02-.03.02-.03v-.03s.02-.03.02-.03v-.03s.02-.02.02-.02v-.02s.02-.02.02-.02v-.02s.03-.02.03-.02h.01s.01-.02.01-.02h.01s.02-.01.02-.01h0ZM26.13,17.71l.02-.03h0s.01,0,.01,0h.01s.01,0,.01,0h.01s.01-.02.01-.02v-.02s.02-.02.02-.02v-.02s.02-.03.02-.03v-.03s.02-.03.02-.03v-.03s.02-.03.02-.03v-.03s.02-.03.02-.03v-.03s.01-.03.01-.03v-.03s.01-.03.01-.03v-.03s0-.03,0-.03v-.03s0-.03,0-.03v-.05s0-.02,0-.02v-.02s0-.01,0-.01h0s0-.02,0-.02h0s0,0,0,0v-.03s.01,0,.01,0h.01s0,.02,0,.02v.02s.01.02.01.02v.02s0,.02,0,.02v.03s0,.03,0,.03v.03s0,.03,0,.03v.03s0,.03,0,.03v.03s-.01.03-.01.03v.04s-.01.03-.01.03v.03s-.02.03-.02.03v.03s-.02.03-.02.03v.03s-.02.03-.02.03v.03s-.03.02-.03.02v.02s-.03.02-.03.02l-.02.02h-.02s-.02.02-.02.02h-.02s-.02,0-.02,0h0ZM26.14,17.71h0s0,0,0,0h0Z"/>
    <path class="k" d="M26.14,17.7c-.12-.09.06-.72.18-.73.1,0-.02.75-.18.73Z"/>
  </g>
  <g>
    <path class="m" d="M26.15,16.93v.03h0,0s0,0,0,0h0s0,.02,0,.02v.02s-.02.02-.02.02v.02s-.01.02-.01.02v.03s-.01.03-.01.03v.03s0,.03,0,.03v.03s0,.03,0,.03v.03s0,.03,0,.03v.03s0,.03,0,.03v.03s0,.03,0,.03v.03s0,.03,0,.03v.03s0,.03,0,.03v.03s.01.02.01.02v.02s.01.02.01.02v.02s.02.01.02.01h0s0,.01,0,.01v.03s-.03,0-.03,0h-.01s-.01-.03-.01-.03v-.02s-.02-.02-.02-.02v-.02s-.01-.02-.01-.02v-.03s-.01-.03-.01-.03v-.03s0-.03,0-.03v-.03s0-.03,0-.03v-.03s0-.03,0-.03v-.03s0-.03,0-.03v-.03s0-.03,0-.03v-.03s0-.03,0-.03v-.03s.01-.03.01-.03v-.03s.01-.02.01-.02v-.02s.02-.02.02-.02v-.02s.02-.02.02-.02h.01s.01-.02.01-.02h.01ZM26.13,17.71v-.03s0,0,0,0h0s0,0,0,0h0s0-.02,0-.02v-.02s.02-.02.02-.02v-.02s.01-.03.01-.03v-.03s.01-.03.01-.03v-.03s0-.03,0-.03v-.03s0-.03,0-.03v-.03s0-.04,0-.04v-.03s0-.03,0-.03v-.03s0-.03,0-.03v-.03s0-.03,0-.03v-.03s-.01-.03-.01-.03v-.02s-.01-.02-.01-.02v-.02s-.01-.01-.01-.01h0s0-.01,0-.01h0s0,0,0,0v-.03s0,0,0,0h.01s.01.02.01.02h0s0,.03,0,.03v.02s.01.02.01.02v.02s.01.03.01.03v.03s0,.03,0,.03v.03s0,.03,0,.03v.03s0,.04,0,.04v.04s0,.04,0,.04v.04s0,.04,0,.04v.03s0,.03,0,.03v.03s0,.03,0,.03v.03s-.01.03-.01.03v.03s-.02.02-.02.02v.02s-.02.02-.02.02h-.01s-.02.02-.02.02h-.02s0,0,0,0h0ZM26.14,17.71h0s0,0,0,0h0Z"/>
    <path class="k" d="M26.14,17.7c-.13-.06-.1-.72.02-.75.1-.03.15.73-.02.75Z"/>
  </g>
  <g>
    <path class="m" d="M25.61,17.14l.03.02h0,0s0,.02,0,.02h0s0,.03,0,.03v.02s.01.02.01.02v.02s.02.02.02.02v.02s.03.02.03.02l.02.02.02.02.02.02.02.02.02.02.02.02.02.02.02.02.02.02.02.02.02.02.02.02.02.02.02.02h.02s.02.03.02.03h.02s.02.02.02.02h.02s.01,0,.01,0h.02s.01.03.01.03h-.02s-.02,0-.02,0h-.02s-.02,0-.02,0h-.02s-.02-.02-.02-.02h-.02s-.02-.03-.02-.03l-.02-.02-.02-.02-.02-.02-.02-.02-.02-.02-.02-.02-.02-.02-.02-.02-.02-.02-.02-.03-.02-.02-.02-.03-.02-.02-.02-.02-.02-.02v-.02s-.03-.02-.03-.02v-.02s-.02-.02-.02-.02v-.02s0-.02,0-.02v-.02s0-.02,0-.02h0ZM26.14,17.71v-.03s-.02,0-.02,0h0s0-.02,0-.02h0s0-.03,0-.03v-.02s-.01-.02-.01-.02v-.02s-.02-.02-.02-.02l-.02-.02-.02-.02-.02-.02-.02-.03-.02-.03-.02-.03-.02-.02-.02-.03-.03-.02-.03-.02-.03-.02-.02-.02-.02-.02-.02-.02-.02-.02h-.02s-.02-.03-.02-.03h-.02s-.02-.02-.02-.02h-.01s-.01,0-.01,0h-.01s0,0,0,0l-.03-.02h.01s.02-.02.02-.02h.03s.02,0,.02,0h.02s.02.02.02.02h.02s.02.03.02.03l.02.02.02.02.03.02.03.02.03.02.03.02.03.02.02.03.02.03.02.03.02.03.02.03.02.03.02.03.02.03v.02s.03.02.03.02v.02s.01.02.01.02v.02s0,.02,0,.02v.02s-.02.02-.02.02h0ZM26.15,17.7h0s0,0,0,0h0Z"/>
    <path class="k" d="M26.14,17.69c-.14.05-.57-.45-.51-.55.05-.09.62.42.51.55Z"/>
  </g>
  <g>
    <path class="m" d="M25.77,17.02l.02.02h0s0,.01,0,.01h0s0,.03,0,.03v.02s0,.02,0,.02v.02s0,.02,0,.02v.02s.02.03.02.03v.03s.02.03.02.03v.03s.03.03.03.03v.03s.03.03.03.03l.02.03.02.03.02.03.02.03.02.03.02.02.02.02.02.02.02.02.02.02h.02s.02.03.02.03h.01s.01.01.01.01h.01s.01,0,.01,0v.03s-.02,0-.02,0h-.02s-.02-.01-.02-.01h-.02s-.02-.02-.02-.02l-.02-.02-.02-.02-.02-.02-.02-.02-.02-.02-.02-.03-.02-.03-.02-.03-.02-.03-.02-.03-.02-.03v-.03s-.03-.03-.03-.03v-.03s-.03-.03-.03-.03v-.03s-.02-.03-.02-.03v-.03s-.02-.03-.02-.03v-.02s-.01-.02-.01-.02v-.02s0-.02,0-.02v-.02s0-.02,0-.02v-.02s.01-.01.01-.01h0ZM26.14,17.71v-.03s-.01,0-.01,0h0s0-.02,0-.02h0s0-.03,0-.03v-.04s0-.02,0-.02v-.03s-.02-.03-.02-.03v-.03s-.02-.03-.02-.03v-.03s-.03-.03-.03-.03l-.02-.03-.02-.03-.02-.03-.02-.03-.02-.03-.02-.03-.02-.03-.02-.03-.02-.02-.02-.02-.02-.02-.02-.02h-.02s-.01-.03-.01-.03h-.01s-.01-.01-.01-.01h0s0,0,0,0h0s-.02-.02-.02-.02h.01s.02,0,.02,0h.02s.01.01.01.01h.02s.02.02.02.02l.02.02.02.02.02.02.02.02.02.02.02.03.02.03.02.03.02.03.02.03.02.03.02.03.02.03v.03s.03.03.03.03v.03s.02.03.02.03v.03s.02.03.02.03v.03s0,.02,0,.02v.04s0,.02,0,.02v.02s-.02.01-.02.01h0ZM26.15,17.71h0s0,0,0,0h0Z"/>
    <path class="k" d="M26.14,17.69c-.15.01-.44-.57-.36-.66.07-.07.49.56.36.66Z"/>
  </g>
  <g>
    <path class="m" d="M25.95,16.96l.02.03h0s0,.01,0,.01h0s0,.03,0,.03v.02s0,.02,0,.02v.02s0,.02,0,.02v.03s0,.03,0,.03v.03s0,.03,0,.03v.03s.01.03.01.03v.03s.01.03.01.03v.03s.02.03.02.03v.03s.02.03.02.03v.03s.02.03.02.03v.03s.02.02.02.02v.02s.02.02.02.02v.02s.02.01.02.01h.01s.01.02.01.02h.01s0,0,0,0v.03s-.02,0-.02,0h-.02s-.02-.02-.02-.02h-.01s-.01-.03-.01-.03v-.02s-.03-.02-.03-.02v-.02s-.02-.03-.02-.03v-.03s-.02-.03-.02-.03v-.03s-.02-.03-.02-.03v-.03s-.02-.03-.02-.03v-.03s-.01-.03-.01-.03v-.03s-.01-.03-.01-.03v-.03s0-.03,0-.03v-.03s0-.03,0-.03v-.03s0-.03,0-.03v-.02s0-.02,0-.02v-.02s0-.02,0-.02v-.02s.02-.01.02-.01h.01ZM26.14,17.71v-.03s0,0,0,0h0s0-.01,0-.01h0s0-.03,0-.03v-.02s0-.02,0-.02v-.02s0-.03,0-.03v-.03s0-.03,0-.03v-.03s-.01-.03-.01-.03v-.03s-.01-.03-.01-.03v-.03s-.02-.03-.02-.03v-.03s-.02-.03-.02-.03v-.03s-.02-.03-.02-.03v-.03s-.02-.03-.02-.03v-.03s-.02-.02-.02-.02v-.02s-.02-.02-.02-.02v-.02s-.02-.01-.02-.01h0s0-.01,0-.01h0s0,0,0,0l-.02-.03h.02s.02,0,.02,0h.01s.01.02.01.02h.01s.01.03.01.03v.02s.03.02.03.02v.02s.03.03.03.03v.03s.02.03.02.03v.03s.02.03.02.03v.03s.02.03.02.03v.03s.02.03.02.03v.03s.01.03.01.03v.03s.01.03.01.03v.03s0,.03,0,.03v.05s0,.02,0,.02v.02s-.01.02-.01.02v.02s-.02.01-.02.01h-.02s0,0,0,0h0ZM26.14,17.71h0s0,0,0,0h0Z"/>
    <path class="k" d="M26.14,17.69c-.15-.03-.29-.67-.18-.73.09-.05.34.67.18.73Z"/>
  </g>
  <g>
    <path class="d" d="M24.35,19.99c-.08-.17.46-.78.6-.72.12.05-.43.83-.6.72Z"/>
    <path class="k" d="M24.35,19.99c-.08-.17.46-.78.6-.72.12.05-.43.83-.6.72Z"/>
  </g>
  <g>
    <path class="d" d="M24.34,19.99c.07-.17.89-.15.93,0,.04.12-.91.21-.93,0Z"/>
    <path class="k" d="M24.34,19.99c.07-.17.89-.15.93,0,.04.12-.91.21-.93,0Z"/>
  </g>
  <g>
    <path class="m" d="M25.78,17.7l.02.03h0s0,.01,0,.01h0s0,.03,0,.03v.02s0,.02,0,.02v.02s0,.02,0,.02v.03s0,.03,0,.03v.03s.01.03.01.03v.03s.02.03.02.03v.03s.02.03.02.03v.03s.02.03.02.03v.03s.03.03.03.03v.03s.03.03.03.03v.02s.03.02.03.02v.02s.03.02.03.02v.02s.03.01.03.01h.01s.01.02.01.02h.01s.01,0,.01,0v.03s-.02,0-.02,0h-.02s-.02-.02-.02-.02h-.02s-.02-.03-.02-.03l-.02-.02-.02-.02-.02-.02-.02-.02v-.03s-.03-.03-.03-.03v-.03s-.03-.03-.03-.03v-.03s-.03-.03-.03-.03v-.03s-.02-.03-.02-.03v-.03s-.02-.03-.02-.03v-.03s-.02-.03-.02-.03v-.03s-.01-.03-.01-.03v-.03s0-.03,0-.03v-.02s0-.02,0-.02v-.02s0-.02,0-.02v-.02s.01-.01.01-.01h.01ZM26.07,18.42v-.03s0,0,0,0h0s0-.01,0-.01h0s0-.03,0-.03v-.02s0-.02,0-.02v-.02s0-.03,0-.03v-.03s-.01-.03-.01-.03v-.03s-.02-.03-.02-.03v-.03s-.02-.03-.02-.03v-.03s-.03-.03-.03-.03v-.03s-.03-.03-.03-.03l-.02-.03-.02-.03-.02-.03-.02-.03-.02-.02v-.02s-.03-.02-.03-.02v-.02s-.03-.01-.03-.01h-.01s0-.02,0-.02h0s0,0,0,0h0s-.02-.02-.02-.02h.01s.02,0,.02,0h.01s.01.01.01.01h.01s.01.03.01.03l.02.02.02.02.02.02.02.02.02.03.02.03.02.03.02.03.02.03v.03s.03.03.03.03v.03s.03.03.03.03v.03s.02.03.02.03v.03s.02.03.02.03v.03s0,.03,0,.03v.03s0,.02,0,.02v.02s0,.02,0,.02v.02s-.02.02-.02.02h-.02s0,.01,0,.01h0ZM26.08,18.42h0s0,0,0,0h0Z"/>
    <path class="k" d="M26.07,18.41c-.15,0-.37-.62-.28-.69.08-.06.42.62.28.69Z"/>
  </g>
  <g>
    <path class="m" d="M25.99,17.65v.03h.01,0s0,.01,0,.01h0s0,.02,0,.02v.02s-.01.02-.01.02v.02s0,.02,0,.02v.03s0,.03,0,.03v.03s0,.03,0,.03v.06s0,.03,0,.03v.03s0,.03,0,.03v.03s0,.03,0,.03v.03s.01.03.01.03v.03s.01.03.01.03v.03s.02.02.02.02v.02s.02.02.02.02v.02s.02.01.02.01h0s0,.02,0,.02h0s0,.04,0,.04h-.02s-.01-.02-.01-.02h-.01s-.01-.03-.01-.03v-.02s-.02-.02-.02-.02v-.02s-.02-.03-.02-.03v-.03s-.02-.03-.02-.03v-.03s-.01-.03-.01-.03v-.03s0-.03,0-.03v-.03s0-.03,0-.03v-.03s0-.03,0-.03v-.03s0-.03,0-.03v-.03s0-.03,0-.03v-.03s0-.03,0-.03v-.02s0-.02,0-.02v-.02s.01-.02.01-.02v-.02s.02-.01.02-.01h.01s.01-.02.01-.02h0ZM26.07,18.42v-.03s0,0,0,0h0s0-.01,0-.01h0s0-.02,0-.02v-.02s.01-.02.01-.02v-.02s0-.03,0-.03v-.03s0-.03,0-.03v-.06s0-.03,0-.03v-.03s0-.03,0-.03v-.03s0-.03,0-.03v-.03s-.01-.03-.01-.03v-.03s-.01-.03-.01-.03v-.03s-.02-.03-.02-.03v-.03s-.02-.02-.02-.02v-.02s-.02-.02-.02-.02h0s0-.02,0-.02h0s0,0,0,0h0v-.03s0,0,0,0h.02s.01.01.01.01h.01s.01.03.01.03v.02s.02.02.02.02v.02s.02.03.02.03v.03s.02.03.02.03v.03s.02.03.02.03v.03s.01.03.01.03v.04s0,.04,0,.04v.04s0,.04,0,.04v.03s0,.03,0,.03v.06s0,.03,0,.03v.03s0,.03,0,.03v.02s-.01.02-.01.02v.02s-.02.02-.02.02h-.02s-.02.02-.02.02h0ZM26.07,18.43h0s0,0,0,0h0Z"/>
    <path class="k" d="M26.07,18.41c-.14-.05-.18-.7-.07-.74.09-.04.23.71.07.74Z"/>
  </g>
  <g>
    <path class="m" d="M26.52,17.79v.03s-.01,0-.01,0h0s0,0,0,0h-.01s-.01,0-.01,0h-.02s-.02.02-.02.02h-.02s-.02.03-.02.03l-.02.02-.02.02-.02.02-.02.02-.02.02-.02.02-.02.02-.02.03-.02.03-.02.03-.02.03-.02.03-.02.03v.03s-.03.03-.03.03v.02s-.02.02-.02.02v.02s-.01.02-.01.02v.02s0,.02,0,.02h0s0,.03,0,.03h0s-.03.03-.03.03v-.02s0-.02,0-.02v-.02s0-.02,0-.02v-.02s.01-.02.01-.02v-.02s.02-.02.02-.02v-.03s.03-.03.03-.03v-.03s.03-.03.03-.03l.02-.03.02-.03.02-.03.02-.03.02-.03.02-.03.02-.02.02-.02.02-.02.02-.02.02-.02.02-.02.02-.02h.02s.02-.03.02-.03h.02s.02-.02.02-.02h.02s.02,0,.02,0h.02ZM26.05,18.42l.03-.02h0s0,0,0,0h.01s.01,0,.01,0h.02s.02-.01.02-.01h.02s.02-.03.02-.03l.02-.02.02-.02.02-.02.02-.02.02-.02.02-.03.02-.03.02-.03.02-.03.02-.03.02-.03.02-.03.02-.03v-.03s.03-.03.03-.03v-.03s.02-.02.02-.02v-.02s.02-.02.02-.02v-.02s0-.01,0-.01h0s0-.02,0-.02h0s0,0,0,0v-.03s.03,0,.03,0h0s0,.03,0,.03v.04s0,.02,0,.02v.02s-.02.02-.02.02v.03s-.02.03-.02.03v.03s-.03.03-.03.03l-.02.03-.02.03-.02.03-.02.03-.02.03-.02.03-.02.03-.02.03-.02.03-.02.02-.02.02-.02.02-.02.02-.02.02h-.02s-.02.02-.02.02h-.02s-.02,0-.02,0h-.02s-.02,0-.02,0h0ZM26.06,18.43h0s0,0,0,0h0Z"/>
    <path class="k" d="M26.07,18.41c-.07-.13.33-.64.44-.6.1.03-.3.68-.44.6Z"/>
  </g>
  <g>
    <path class="m" d="M26.35,17.7v.03h0s0,0,0,0h-.01s-.01.01-.01.01h-.01s-.01.03-.01.03v.02s-.03.02-.03.02v.02s-.03.02-.03.02v.02s-.03.03-.03.03v.03s-.03.03-.03.03v.03s-.03.03-.03.03v.03s-.02.03-.02.03v.03s-.02.03-.02.03v.03s-.02.03-.02.03v.03s-.01.03-.01.03v.03s0,.02,0,.02v.02s0,.02,0,.02v.02s0,.01,0,.01h0s0,.02,0,.02l-.02.02h-.01s0-.03,0-.03v-.02s0-.02,0-.02v-.02s0-.02,0-.02v-.03s0-.03,0-.03v-.03s.01-.03.01-.03v-.03s.02-.03.02-.03v-.03s.02-.03.02-.03v-.03s.02-.03.02-.03v-.03s.03-.03.03-.03v-.03s.03-.03.03-.03v-.03s.03-.03.03-.03l.02-.02v-.02s.03-.02.03-.02l.02-.02v-.02s.03-.01.03-.01h.01s.02-.02.02-.02h.02s.02,0,.02,0h0ZM26.06,18.42l.02-.02h0s0,0,0,0h.01s.01,0,.01,0h.01s.01-.02.01-.02v-.02s.03-.02.03-.02v-.02s.03-.02.03-.02v-.03s.03-.03.03-.03v-.03s.03-.03.03-.03v-.03s.03-.03.03-.03v-.03s.02-.03.02-.03v-.03s.02-.03.02-.03v-.03s.02-.03.02-.03v-.03s.01-.03.01-.03v-.03s0-.02,0-.02v-.02s0-.02,0-.02v-.02s0-.01,0-.01h0s0,0,0,0h0s0-.03,0-.03h.02s.01.02.01.02h0s0,.03,0,.03v.02s0,.02,0,.02v.02s0,.03,0,.03v.03s0,.03,0,.03v.03s-.01.03-.01.03v.03s-.02.03-.02.03v.03s-.02.03-.02.03v.03s-.03.03-.03.03v.03s-.03.03-.03.03v.03s-.03.03-.03.03l-.02.03-.02.02-.02.02-.02.02-.02.02h-.02s-.02.03-.02.03h-.02s-.02.01-.02.01h-.02s0,0,0,0h0ZM26.06,18.43h0s0,0,0,0h0Z"/>
    <path class="k" d="M26.07,18.41c-.1-.11.17-.7.28-.69.1,0-.13.74-.28.69Z"/>
  </g>
  <g>
    <path class="m" d="M26.16,17.65v.03h0,0s0,0,0,0h0s0,.02,0,.02v.02s-.02.02-.02.02v.02s-.02.02-.02.02v.02s-.02.03-.02.03v.03s-.01.03-.01.03v.03s-.01.03-.01.03v.03s0,.03,0,.03v.03s0,.03,0,.03v.03s0,.03,0,.03v.03s0,.03,0,.03v.03s0,.03,0,.03v.03s0,.02,0,.02v.02s.01.02.01.02v.02s.01.01.01.01h0s0,.02,0,.02l-.02.03h-.01s-.01-.03-.01-.03v-.02s-.02-.02-.02-.02v-.02s-.01-.02-.01-.02v-.03s0-.03,0-.03v-.03s0-.03,0-.03v-.06s0-.03,0-.03v-.03s0-.03,0-.03v-.03s0-.03,0-.03v-.03s.01-.03.01-.03v-.03s.01-.03.01-.03v-.03s.02-.03.02-.03v-.03s.02-.02.02-.02v-.02s.02-.02.02-.02v-.02s.02-.01.02-.01h.01s.01-.02.01-.02h.02ZM26.06,18.42l.02-.03h0s.01,0,.01,0h0s.01-.01.01-.01h.01s.01-.03.01-.03v-.02s.02-.02.02-.02v-.02s.02-.03.02-.03v-.03s.01-.03.01-.03v-.03s.01-.03.01-.03v-.03s0-.03,0-.03v-.03s0-.03,0-.03v-.03s0-.03,0-.03v-.06s0-.03,0-.03v-.03s0-.03,0-.03v-.02s0-.02,0-.02v-.02s-.01-.01-.01-.01h0s0-.02,0-.02h0s0,0,0,0v-.03s.01,0,.01,0h.01s.01.02.01.02h0s0,.03,0,.03v.02s0,.02,0,.02v.03s0,.03,0,.03v.03s0,.03,0,.03v.03s0,.03,0,.03v.03s0,.04,0,.04v.04s0,.04,0,.04v.04s0,.03,0,.03v.03s-.01.03-.01.03v.03s-.01.03-.01.03v.03s-.02.03-.02.03v.02s-.02.02-.02.02v.02s-.03.02-.03.02h-.02s-.02.02-.02.02h-.02s0,0,0,0h0ZM26.07,18.43h0s0,0,0,0h0Z"/>
    <path class="k" d="M26.07,18.41c-.13-.08-.03-.72.09-.74.1-.02.07.74-.09.74Z"/>
  </g>
  <g>
    <path class="h" d="M24.93,19.27s-.02.09,0,.14c.03.05.12.16.12.18,0,0,.07-.09.03-.18-.05-.09-.13-.18-.16-.14Z"/>
    <path class="k" d="M24.93,19.27s-.02.09,0,.14c.03.05.12.16.12.18,0,0,.07-.09.03-.18-.05-.09-.13-.18-.16-.14Z"/>
  </g>
  <g>
    <path class="d" d="M25.41,19.94s-.1,0-.14-.05c-.04-.04-.12-.15-.14-.16,0,0,.11-.05.18.02.08.07.14.17.09.19Z"/>
    <path class="k" d="M25.41,19.94s-.1,0-.14-.05c-.04-.04-.12-.15-.14-.16,0,0,.11-.05.18.02.08.07.14.17.09.19Z"/>
  </g>
  <g>
    <path class="d" d="M26.16,19.24s-.08.05-.14.04c-.06-.01-.19-.06-.21-.06,0,0,.06-.1.16-.08.1.02.21.06.18.11Z"/>
    <path class="k" d="M26.16,19.24s-.08.05-.14.04c-.06-.01-.19-.06-.21-.06,0,0,.06-.1.16-.08.1.02.21.06.18.11Z"/>
  </g>
  <g>
    <path class="d" d="M25.37,18.7s0,.1.04.14c.04.04.15.13.16.15,0,0,.05-.1-.01-.18s-.16-.15-.18-.1Z"/>
    <path class="k" d="M25.37,18.7s0,.1.04.14c.04.04.15.13.16.15,0,0,.05-.1-.01-.18s-.16-.15-.18-.1Z"/>
  </g>
  <g>
    <path class="d" d="M26.46,18.4s-.07.07-.13.07c-.06,0-.19-.02-.22-.02,0,0,.04-.11.14-.11.1,0,.22.02.2.07Z"/>
    <path class="k" d="M26.46,18.4s-.07.07-.13.07c-.06,0-.19-.02-.22-.02,0,0,.04-.11.14-.11.1,0,.22.02.2.07Z"/>
  </g>
  <g>
    <path class="d" d="M25.68,18.27s.05.08.11.09c.06.01.19.03.21.04,0,0-.01-.12-.11-.15-.1-.03-.22-.04-.21.02Z"/>
    <path class="k" d="M25.68,18.27s.05.08.11.09c.06.01.19.03.21.04,0,0-.01-.12-.11-.15-.1-.03-.22-.04-.21.02Z"/>
  </g>
  <g>
    <path class="h" d="M23.38,20.22c.12.06.16.11.29.09.13-.02.71-.42.71-.42l.05.15s-.52.37-.67.41c-.15.04-.39.03-.45-.11-.06-.14,0-.16.07-.11Z"/>
    <path class="k" d="M23.38,20.22c.12.06.16.11.29.09.13-.02.71-.42.71-.42l.05.15s-.52.37-.67.41c-.15.04-.39.03-.45-.11-.06-.14,0-.16.07-.11Z"/>
  </g>
  <g>
    <path class="h" d="M24.7,20.21c-.11.06-.16.11-.29.09-.13-.02-.71-.42-.71-.42l-.09.12s.56.39.71.44c.15.04.39.03.45-.11.06-.14,0-.16-.07-.11Z"/>
    <path class="k" d="M24.7,20.21c-.11.06-.16.11-.29.09-.13-.02-.71-.42-.71-.42l-.09.12s.56.39.71.44c.15.04.39.03.45-.11.06-.14,0-.16-.07-.11Z"/>
  </g>
  <path class="i" d="M24.01,19.3c.81,0,1.47-.66,1.47-1.47s-.66-1.47-1.47-1.47-1.47.66-1.47,1.47.66,1.47,1.47,1.47Z"/>
  <g>
    <polygon class="f" points="24.01 16.57 24.29 17.44 25.21 17.44 24.47 17.98 24.75 18.86 24.01 18.32 23.26 18.86 23.55 17.98 22.8 17.44 23.72 17.44 24.01 16.57"/>
    <path class="g" d="M24.01,16.57l.28.88h.92s-.75.54-.75.54l.29.88-.75-.54-.75.54.29-.88-.75-.54h.92s.28-.88.28-.88Z"/>
  </g>
  <g>
    <path class="e" d="M24.03,14.06c2.17,0,3.93,1.76,3.93,3.93s-1.76,3.93-3.93,3.93-3.93-1.76-3.93-3.93,1.76-3.93,3.93-3.93h0ZM24.03,15.06c1.62,0,2.94,1.31,2.94,2.94s-1.31,2.93-2.94,2.93-2.94-1.31-2.94-2.93,1.31-2.94,2.94-2.94Z"/>
    <path class="j" d="M24.03,14.06c2.17,0,3.93,1.76,3.93,3.93s-1.76,3.93-3.93,3.93h0v-.99h0c1.62,0,2.94-1.31,2.94-2.93s-1.31-2.94-2.94-2.94h0v-.99h0ZM24.03,21.92c-2.17,0-3.93-1.76-3.93-3.93s1.76-3.93,3.93-3.93v.99c-1.62,0-2.94,1.31-2.94,2.94s1.31,2.93,2.94,2.93v.99Z"/>
  </g>
  <path class="r" d="M27.08,18.75l.26.07.42-.14-.03.1-.22.07s-.08.02-.12.04c.03.03.06.06.09.1l.15.17-.03.1-.29-.34-.26-.07.02-.08Z"/>
  <polygon class="r" points="27.18 17.98 27.81 18.27 27.8 18.36 27.14 18.58 27.15 18.48 27.35 18.42 27.37 18.15 27.18 18.07 27.18 17.98"/>
  <path class="r" d="M27.82,17.73v.08s-.36.05-.36.05c-.06,0-.12,0-.16,0s-.07-.03-.1-.07c-.03-.03-.05-.08-.06-.14,0-.06,0-.11.01-.15.01-.04.04-.07.08-.09.04-.02.09-.04.16-.05l.37-.05v.08s-.36.05-.36.05c-.06,0-.1.02-.12.03-.02.01-.04.03-.05.06-.01.03-.01.06,0,.09,0,.06.03.1.06.13.03.02.09.03.17.02l.37-.05Z"/>
  <path class="r" d="M27.26,16.93l.07-.03.09.26-.22.08s-.08-.06-.11-.1c-.03-.04-.05-.08-.07-.12-.02-.06-.03-.12-.02-.18,0-.06.03-.11.07-.15.04-.04.09-.07.15-.1.06-.02.12-.03.18-.02.06,0,.11.03.15.07.04.04.07.09.1.15.02.04.02.09.02.13,0,.04-.01.08-.03.1-.02.03-.05.06-.08.08l-.05-.07s.05-.04.06-.06c.01-.02.02-.04.02-.07,0-.03,0-.06-.01-.09-.01-.04-.03-.07-.05-.09-.02-.02-.04-.04-.07-.05-.02,0-.05-.02-.07-.02-.04,0-.09,0-.13.02-.05.02-.1.05-.13.08-.03.03-.05.07-.05.11,0,.04,0,.08.01.12.01.04.03.07.06.09.02.03.05.05.07.06l.11-.04-.06-.18Z"/>
  <polygon class="r" points="26.59 16.14 27.27 16.03 27.32 16.1 26.9 16.66 26.85 16.58 26.98 16.41 26.84 16.18 26.64 16.22 26.59 16.14"/>
  <path class="r" d="M26.21,15.71l.49-.42.19.22s.06.08.07.11c.01.03.01.06,0,.09-.01.03-.03.06-.06.08-.03.03-.07.04-.12.04-.04,0-.09-.02-.14-.06,0,.02,0,.04,0,.06,0,.03,0,.07-.02.11l-.06.2-.07-.08.05-.15s.02-.08.03-.1c0-.03,0-.05,0-.06,0-.02,0-.03-.01-.04,0,0-.01-.02-.03-.04l-.07-.07-.22.19-.06-.06Z"/>
  <polygon class="r" points="25.68 15.3 26.26 14.93 26.33 14.99 26.16 15.66 26.08 15.6 26.14 15.4 25.92 15.24 25.75 15.35 25.68 15.3"/>
  <path class="r" d="M25.26,15.1l.28-.58.22.11s.07.03.09.05c.03.02.05.04.06.06.01.02.02.05.02.08s0,.06-.02.09c-.02.05-.06.08-.11.1s-.11,0-.19-.03l-.15-.07-.11.24-.08-.04Z"/>
  <polygon class="r" points="24.57 14.89 24.72 14.26 24.8 14.28 24.67 14.84 24.98 14.91 24.96 14.98 24.57 14.89"/>
  <polygon class="r" points="23.98 14.84 24.02 14.2 24.49 14.23 24.48 14.3 24.1 14.28 24.09 14.47 24.44 14.5 24.44 14.57 24.08 14.55 24.07 14.77 24.46 14.8 24.46 14.87 23.98 14.84"/>
  <path class="r" d="M23.34,14.91l-.08-.64.22-.03s.09,0,.12,0c.04,0,.07.01.1.03.04.02.07.06.09.1.02.04.04.09.04.15,0,.05,0,.09,0,.13,0,.04-.02.07-.03.1-.01.03-.03.05-.05.07-.02.02-.04.03-.07.04-.03.01-.06.02-.1.02l-.23.03Z"/>
  <polygon class="r" points="22.52 15.22 22.48 14.53 22.57 14.49 23.07 14.98 22.98 15.01 22.83 14.87 22.59 14.98 22.6 15.18 22.52 15.22"/>
  <path class="r" d="M22.28,15.09l.08-.03c.03.07.03.13.01.19-.02.06-.05.1-.11.14-.06.04-.11.06-.16.06-.05,0-.1-.01-.15-.04-.05-.03-.09-.07-.13-.12-.04-.05-.06-.11-.07-.17,0-.06,0-.11.02-.16.02-.05.06-.09.11-.12.05-.04.11-.06.16-.05.05,0,.11.02.15.06l-.06.06s-.08-.05-.11-.05c-.04,0-.07.01-.11.04-.04.03-.07.06-.08.1-.01.04-.01.08,0,.12.01.04.03.08.05.11.03.05.07.08.1.1.04.02.07.04.11.03.04,0,.07-.02.11-.04.04-.03.06-.06.08-.1.01-.04,0-.09-.02-.14Z"/>
  <rect class="r" x="21.63" y="15.12" width=".09" height=".64" transform="translate(-4.71 18.91) rotate(-42.97)"/>
  <polygon class="r" points="21.51 16.09 21.03 15.67 21.08 15.6 21.51 15.97 21.72 15.73 21.78 15.78 21.51 16.09"/>
  <path class="r" d="M21.2,16.59l-.56-.32.12-.21s.05-.07.08-.09c.03-.02.06-.03.09-.03.03,0,.06,0,.09.02.02.01.04.03.06.06.01.03.02.05.02.09.03-.03.06-.04.1-.05.03,0,.07,0,.1.02.03.01.05.03.06.06.02.02.03.05.03.07,0,.02,0,.05,0,.08,0,.03-.02.06-.04.09l-.12.21Z"/>
  <path class="r" d="M20.5,16.59l.03-.08.35.12c.06.02.11.05.14.07.03.03.05.06.06.11.01.04,0,.09-.01.15-.02.06-.05.1-.08.13-.03.03-.07.05-.11.05-.04,0-.1,0-.16-.03l-.35-.12.03-.08.35.12c.05.02.09.03.12.03.03,0,.05-.01.07-.03.02-.02.04-.05.05-.08.02-.06.02-.11,0-.14-.02-.03-.07-.06-.14-.09l-.35-.12Z"/>
  <path class="r" d="M20.87,17.8l-.64-.09.03-.24s.01-.07.02-.1c0-.03.02-.06.04-.07.02-.02.04-.03.07-.04.03,0,.06-.01.09,0,.05,0,.1.03.13.07.03.04.04.1.03.19l-.02.16.26.04v.08Z"/>
  <polygon class="r" points="20.9 18.39 20.25 18.43 20.22 17.97 20.3 17.96 20.32 18.34 20.52 18.33 20.5 17.97 20.57 17.97 20.6 18.32 20.81 18.31 20.79 17.91 20.86 17.91 20.9 18.39"/>
  <path class="r" d="M21.04,19.03l-.62.17-.07-.28c-.01-.06-.02-.1-.02-.13,0-.03.02-.06.04-.08.02-.02.05-.04.09-.05.04-.01.08,0,.12.01.04.02.07.06.09.12,0-.02.01-.04.02-.06.02-.03.04-.06.06-.09l.14-.15.03.1-.11.12s-.05.06-.07.08c-.02.02-.03.04-.03.05,0,.01,0,.03,0,.04,0,.01,0,.03,0,.05l.03.1.28-.07.02.08Z"/>
  <path class="m" d="M24.03,13.3c1.3,0,2.47.53,3.32,1.38.85.85,1.38,2.02,1.38,3.32s-.53,2.47-1.38,3.32c-.85.85-2.02,1.38-3.32,1.38s-2.47-.53-3.32-1.38c-.85-.85-1.38-2.02-1.38-3.32s.53-2.47,1.38-3.32c.85-.85,2.02-1.38,3.32-1.38h0ZM27.13,14.88c-.8-.8-1.89-1.29-3.11-1.29s-2.31.49-3.11,1.29c-.8.8-1.29,1.89-1.29,3.11s.49,2.31,1.29,3.11c.8.8,1.89,1.29,3.11,1.29s2.31-.49,3.11-1.29c.8-.8,1.29-1.89,1.29-3.11s-.49-2.31-1.29-3.11Z"/>
  <g>
    <polygon class="l" points="23.66 19.98 23.1 20.2 23.36 19.99 22.91 20.15 23.16 19.98 22.59 20.16 22.96 19.91 22.44 20.04 22.85 19.86 22.57 19.84 22.77 19.78 22.22 19.86 22.57 19.72 22.06 19.73 22.47 19.62 21.99 19.61 22.24 19.55 21.81 19.44 22.15 19.44 21.73 19.34 22.19 19.36 21.66 19.16 22.09 19.24 21.6 18.98 22.01 19.07 21.53 18.82 21.88 18.89 21.46 18.59 21.9 18.78 21.44 18.42 21.8 18.6 21.44 18.3 21.68 18.41 21.4 18.15 21.72 18.33 21.34 17.93 21.68 18.17 21.36 17.8 21.63 17.99 21.38 17.61 21.66 17.91 21.33 17.31 21.56 17.57 21.37 17.13 21.66 17.51 21.45 16.98 21.71 17.33 21.5 16.77 21.71 17.07 21.61 16.58 21.78 16.96 21.73 16.47 21.85 16.82 21.84 16.28 21.94 16.64 21.95 16.13 22.02 16.55 22.15 15.96 22.12 16.41 22.31 15.77 22.25 16.3 22.43 15.76 22.36 16.27 22.57 15.67 22.52 16.17 22.72 15.61 22.64 16.05 22.9 15.54 22.8 15.93 23.09 15.47 22.97 15.81 23.26 15.45 23.1 15.81 23.44 15.55 23.21 15.85 23.62 15.57 23.41 15.83 23.9 15.65 23.51 15.91 23.83 15.85 23.63 15.95 24.09 15.94 23.64 16.02 23.93 16.09 23.57 16.08 23.92 16.24 23.47 16.19 23.67 16.31 23.27 16.27 23.41 16.36 23.08 16.37 23.21 16.42 22.94 16.46 23.18 16.5 22.81 16.58 22.99 16.62 22.63 16.7 22.86 16.7 22.47 16.87 22.65 16.86 22.31 17.04 22.53 17 22.17 17.29 22.39 17.18 22.15 17.56 22.35 17.34 22.18 17.71 22.32 17.57 22.2 17.89 22.3 17.8 22.23 18.1 22.31 17.97 22.27 18.36 22.34 18.15 22.33 18.52 22.4 18.31 22.43 18.75 22.47 18.59 22.5 18.91 22.53 18.79 22.62 19.07 22.63 18.95 22.86 19.31 22.83 19.14 23.06 19.41 23.03 19.28 23.26 19.59 23.24 19.44 23.67 19.81 23.73 19.88 23.66 19.98"/>
    <path class="k" d="M23.66,19.98l-.55.22.26-.21-.45.16.25-.16-.57.17.36-.24-.52.12.41-.18h-.28s.2-.08.2-.08l-.56.08.35-.14h-.51s.42-.11.42-.11h-.48s.25-.07.25-.07l-.43-.11h.34s-.42-.1-.42-.1l.47.02-.53-.19.43.08-.49-.26.42.09-.48-.25.35.07-.42-.3.44.19-.47-.36.36.17-.36-.3.24.12-.29-.26.33.18-.38-.4.34.23-.31-.36.26.19-.25-.38.28.3-.34-.6.24.26-.19-.44.29.38-.21-.54.26.36-.21-.56.22.3-.11-.5.17.38-.05-.49.12.35v-.54s.09.36.09.36v-.51s.08.42.08.42l.13-.59-.03.45.18-.64-.06.53.18-.54-.06.51.21-.59-.06.49.2-.56-.07.44.26-.51-.1.39.28-.46-.11.34.29-.36-.15.36.34-.26-.23.31.41-.28-.21.26.49-.17-.39.25.33-.06-.2.1.46-.02-.45.08.29.07h-.36s.35.15.35.15l-.45-.05.2.12-.4-.04.15.1h-.33s.13.06.13.06l-.27.04.24.04-.37.08.18.04-.35.08h.23s-.39.18-.39.18h.19s-.34.17-.34.17l.22-.04-.36.29.22-.11-.24.38.2-.21-.17.37.14-.14-.12.32.1-.09-.07.3.08-.13-.04.39.08-.21v.38s.05-.22.05-.22l.03.44.04-.16.03.32.04-.12.08.28.02-.12.23.36-.03-.17.23.27-.03-.13.23.31-.02-.16.43.37.07.07-.08.1Z"/>
  </g>
  <g>
    <path class="m" d="M25.67,18.26v.03h0,0s0,.01,0,.01h0s0,.03,0,.03v.02s-.02.02-.02.02v.03s-.01.03-.01.03v.03s-.01.03-.01.03v.03s0,.04,0,.04v.04s0,.04,0,.04v.04s0,.04,0,.04v.04s0,.04,0,.04v.04s0,.04,0,.04v.04s0,.04,0,.04v.03s.01.03.01.03v.03s.02.03.02.03v.02s.02.02.02.02v.02s.02.01.02.01h.01s.01.02.01.02v.03s-.03-.01-.03-.01h-.02s-.01-.03-.01-.03v-.02s-.02-.02-.02-.02v-.03s-.02-.03-.02-.03v-.03s-.02-.03-.02-.03v-.03s-.01-.04-.01-.04v-.04s0-.04,0-.04v-.04s0-.04,0-.04v-.04s0-.04,0-.04v-.04s0-.04,0-.04v-.04s0-.04,0-.04v-.04s0-.03,0-.03v-.03s.01-.03.01-.03v-.03s.02-.02.02-.02v-.02s.02-.02.02-.02v-.02s.03-.01.03-.01h.02ZM25.69,19.18v-.03s0,0,0,0h.01s.01-.01.01-.01h.01s.01-.03.01-.03v-.02s.02-.02.02-.02v-.03s.01-.03.01-.03v-.03s0-.04,0-.04v-.04s0-.04,0-.04v-.04s0-.04,0-.04v-.04s0-.04,0-.04v-.04s0-.04,0-.04v-.04s-.01-.04-.01-.04v-.04s-.01-.04-.01-.04v-.03s-.02-.03-.02-.03v-.03s-.02-.02-.02-.02v-.02s-.02-.02-.02-.02h0s0-.02,0-.02h0s0,0,0,0v-.03s0,0,0,0h.02s.01.02.01.02v.02s.02.02.02.02v.02s.02.03.02.03v.03s.02.03.02.03v.03s.01.04.01.04v.04s.01.04.01.04v.04s0,.04,0,.04v.04s0,.04,0,.04v.04s0,.04,0,.04v.04s0,.04,0,.04v.04s0,.04,0,.04v.03s-.01.03-.01.03v.03s-.02.03-.02.03v.02s-.03.02-.03.02l-.02.02h-.02s-.02.02-.02.02h0ZM25.7,19.18h0s0,0,0,0h0Z"/>
    <path class="k" d="M25.7,19.17c-.16-.07-.16-.85-.02-.89.12-.04.21.87.02.89Z"/>
  </g>
  <g>
    <path class="m" d="M25.89,18.28v.03h0,0s-.01,0-.01,0h-.01s-.01.02-.01.02v.02s-.03.02-.03.02v.02s-.03.03-.03.03v.03s-.03.03-.03.03v.03s-.02.03-.02.03v.03s-.02.04-.02.04v.04s-.02.04-.02.04v.04s-.02.04-.02.04v.04s-.01.04-.01.04v.04s0,.04,0,.04v.03s0,.03,0,.03v.06s0,.03,0,.03v.02s.01.02.01.02v.02s.02.01.02.01h0s-.02.04-.02.04h-.01s-.01-.03-.01-.03v-.02s-.02-.02-.02-.02v-.03s0-.03,0-.03v-.03s0-.03,0-.03v-.03s0-.03,0-.03v-.04s0-.04,0-.04v-.04s.01-.04.01-.04v-.04s.02-.04.02-.04v-.04s.02-.04.02-.04v-.04s.02-.04.02-.04v-.03s.02-.03.02-.03v-.03s.03-.03.03-.03v-.03s.03-.02.03-.02v-.02s.03-.02.03-.02v-.02s.03-.01.03-.01h.02s.02-.01.02-.01h0ZM25.69,19.18l.02-.03h0s.01,0,.01,0h.01s.01-.01.01-.01h.01s.01-.03.01-.03v-.02s.03-.03.03-.03v-.03s.03-.03.03-.03v-.03s.02-.04.02-.04v-.04s.02-.04.02-.04v-.04s.02-.04.02-.04v-.04s.01-.04.01-.04v-.04s.01-.04.01-.04v-.04s0-.04,0-.04v-.04s0-.03,0-.03v-.03s0-.03,0-.03v-.03s0-.02,0-.02v-.02s-.01-.01-.01-.01h0s0-.01,0-.01h0s0-.03,0-.03h.02s.01.01.01.01h.01s0,.03,0,.03v.02s0,.02,0,.02v.03s0,.03,0,.03v.03s0,.04,0,.04v.04s0,.04,0,.04v.04s0,.04,0,.04v.04s-.01.04-.01.04v.04s-.02.04-.02.04v.04s-.02.04-.02.04v.04s-.02.04-.02.04v.03s-.03.03-.03.03v.03s-.03.03-.03.03l-.02.02-.02.02-.02.02h-.02s-.02.02-.02.02h-.02s0,0,0,0h0ZM25.69,19.18h0s0,0,0,0h0Z"/>
    <path class="k" d="M25.7,19.17c-.14-.11.05-.86.19-.87.12,0,0,.89-.19.87Z"/>
  </g>
  <g>
    <path class="m" d="M26.1,18.35v.03h-.03s-.01,0-.01,0h-.02s-.02.02-.02.02l-.02.02-.02.02-.02.02-.02.02-.02.03-.02.03-.02.03-.02.03-.02.03-.02.03-.02.03-.02.03-.02.04-.02.03v.03s-.03.03-.03.03v.03s-.02.03-.02.03v.03s-.02.03-.02.03v.03s0,.03,0,.03v.02s0,.02,0,.02v.02s0,.01,0,.01h0s-.02.03-.02.03v-.02s-.02-.02-.02-.02v-.02s0-.02,0-.02v-.03s0-.03,0-.03v-.03s.01-.03.01-.03v-.03s.02-.03.02-.03v-.03s.03-.03.03-.03v-.04s.03-.04.03-.04l.02-.04.02-.04.02-.03.02-.03.02-.03.02-.03.02-.03.02-.03.02-.03.02-.03.02-.02.02-.02.02-.02h.02s.02-.03.02-.03h.02s.02-.01.02-.01h.02ZM25.68,19.18l.02-.02h0s.01,0,.01,0h.01s.02,0,.02,0h.02s.02-.02.02-.02l.02-.02.02-.02.02-.02.02-.03.02-.03.02-.03.02-.03.02-.04.02-.04.02-.04.02-.04.02-.04.02-.04v-.04s.03-.04.03-.04v-.04s.02-.03.02-.03v-.03s.02-.03.02-.03v-.03s0-.03,0-.03v-.02s0-.02,0-.02h0s0-.02,0-.02h0s0,0,0,0v-.03s.02,0,.02,0h.01s0,.03,0,.03v.02s0,.02,0,.02v.02s0,.03,0,.03v.03s-.01.03-.01.03v.03s-.02.04-.02.04v.04s-.03.04-.03.04v.04s-.03.04-.03.04l-.02.04-.02.04-.02.04-.02.04-.02.04-.02.03-.02.03-.02.03-.02.03-.02.03-.02.02-.02.02-.02.02h-.02s-.02.02-.02.02h-.02s-.02,0-.02,0h0ZM25.69,19.18h0s0,0,0,0h0Z"/>
    <path class="k" d="M25.69,19.17c-.11-.14.26-.82.4-.8.12.02-.22.86-.4.8Z"/>
  </g>
  <g>
    <path class="m" d="M26.29,18.48v.03h-.02s-.01,0-.01,0h-.01s-.02,0-.02,0h-.02s-.02.02-.02.02h-.02s-.02.03-.02.03l-.03.02-.03.02-.03.02-.03.02-.03.03-.03.03-.03.03-.03.03-.03.03-.02.03-.02.03-.02.03-.02.03-.02.03-.02.03-.02.03v.03s-.03.03-.03.03v.02s-.02.02-.02.02v.02s0,.02,0,.02v.02s0,.01,0,.01h-.03s0,0,0,0v-.02s0-.02,0-.02v-.02s.01-.02.01-.02v-.03s.02-.03.02-.03v-.03s.03-.03.03-.03l.02-.03.02-.03.02-.03.02-.03.02-.03.03-.03.03-.03.03-.03.03-.03.03-.03.03-.03.03-.02.03-.02.03-.02.03-.02.03-.02h.02s.02-.03.02-.03h.02s.02-.02.02-.02h.02s.02,0,.02,0h.02ZM25.68,19.17h.03s0-.02,0-.02h.01s.01,0,.01,0h.02s.02,0,.02,0h.02s.02-.02.02-.02l.02-.02.03-.02.03-.02.03-.02.03-.03.03-.03.03-.03.03-.03.03-.03.03-.03.03-.03.02-.03.02-.03.02-.03.02-.03.02-.03.02-.03v-.03s.03-.03.03-.03v-.02s.02-.02.02-.02v-.02s0-.01,0-.01h0s0-.01,0-.01h0s.01-.03.01-.03h.01s0,.03,0,.03v.02s0,.02,0,.02v.02s-.01.02-.01.02v.03s-.02.03-.02.03l-.02.03-.02.03-.02.03-.02.03-.02.03-.02.03-.02.03-.03.03-.03.03-.03.03-.03.03-.03.03-.03.03-.03.03-.03.02-.03.02-.03.02-.03.02h-.03s-.02.02-.02.02h-.02s-.02,0-.02,0h-.02s-.02-.01-.02-.01h0ZM25.68,19.18h0s0,0,0,0h0Z"/>
    <path class="k" d="M25.69,19.17c-.07-.16.46-.73.59-.67.11.05-.43.78-.59.67Z"/>
  </g>
  <g>
    <path class="m" d="M26.43,18.64l-.02.03h0s-.01,0-.01,0h-.01s-.02,0-.02,0h-.02s-.02.01-.02.01h-.03s-.03.02-.03.02h-.03s-.03.03-.03.03l-.03.02-.03.02-.03.02-.03.02-.03.02-.03.02-.03.02-.03.02-.03.02-.03.02-.03.02-.03.02-.02.02-.02.02-.02.02-.02.02v.02s-.03.02-.03.02v.02s-.01.02-.01.02v.02s0,.01,0,.01h-.03s0-.01,0-.01v-.02s0-.02,0-.02v-.02s.02-.02.02-.02l.02-.02.02-.02.02-.02.02-.02.02-.02.03-.02.03-.02.03-.02.03-.02.03-.02.03-.02.03-.02.03-.02.03-.02.03-.02.03-.02.03-.02h.03s.03-.03.03-.03h.03s.03-.02.03-.02h.03s.02-.01.02-.01h.02s.02,0,.02,0h.02s.02.01.02.01h0ZM25.68,19.17h.03s0-.01,0-.01h.01s.01.01.01.01h.02s.02,0,.02,0h.02s.03,0,.03,0h.03s.03-.02.03-.02h.03s.03-.03.03-.03l.03-.02.03-.02.03-.02.03-.02.03-.02.03-.03.03-.03.03-.03.03-.03.03-.03.03-.03.03-.03.02-.02.02-.02.02-.02.02-.02v-.02s.02-.02.02-.02h0s0-.02,0-.02h0s0,0,0,0l.02-.03h.01s0,.03,0,.03v.02s0,.02,0,.02v.02s-.02.02-.02.02l-.02.02-.02.02-.02.02-.02.03-.03.03-.03.03-.03.03-.03.03-.03.03-.03.03-.03.03-.03.02-.03.02-.03.02-.03.02-.03.02-.03.02-.03.02h-.03s-.03.02-.03.02h-.03s-.03.01-.03.01h-.02s-.02,0-.02,0h-.02s-.02-.02-.02-.02h0ZM25.68,19.18h0s0,0,0,0h0Z"/>
    <path class="k" d="M25.69,19.17c-.04-.17.61-.61.72-.52.1.07-.59.67-.72.52Z"/>
  </g>
  <g>
    <path class="h" d="M24.34,19.99c0-.19.76-.49.85-.38.08.1-.75.56-.85.38Z"/>
    <path class="k" d="M24.34,19.99c0-.19.76-.49.85-.38.08.1-.75.56-.85.38Z"/>
  </g>
  <g>
    <path class="d" d="M25.1,19.64c-.12-.14.25-.87.4-.85.13.02-.2.91-.4.85Z"/>
    <path class="k" d="M25.1,19.64c-.12-.14.25-.87.4-.85.13.02-.2.91-.4.85Z"/>
  </g>
  <g>
    <path class="d" d="M25.1,19.64c.06-.18.87-.25.93-.11.05.12-.88.31-.93.11Z"/>
    <path class="k" d="M25.1,19.64c.06-.18.87-.25.93-.11.05.12-.88.31-.93.11Z"/>
  </g>
  <g>
    <path class="d" d="M25.1,19.64c-.08-.17.48-.76.61-.7.12.05-.45.82-.61.7Z"/>
    <path class="k" d="M25.1,19.64c-.08-.17.48-.76.61-.7.12.05-.45.82-.61.7Z"/>
  </g>
  <g>
    <path class="d" d="M25.1,19.64c0-.18.78-.45.87-.34.08.1-.78.52-.87.34Z"/>
    <path class="k" d="M25.1,19.64c0-.18.78-.45.87-.34.08.1-.78.52-.87.34Z"/>
  </g>
  <g>
    <path class="d" d="M25.1,19.64c-.04-.18.64-.64.76-.55.1.08-.62.7-.76.55Z"/>
    <path class="k" d="M25.1,19.64c-.04-.18.64-.64.76-.55.1.08-.62.7-.76.55Z"/>
  </g>
  <path class="m" d="M23.59,19.95l-.18.09h-.01s0,0,0,0l.02-.12-.19.09h-.01s0,0,0,0l.02-.12-.31.14-.04.02.03-.03.18-.17-.26.08h-.03s.03-.01.03-.01l.1-.09-.19.03h-.03s.02-.01.02-.01l.12-.09-.3.04h-.03s.03-.01.03-.01l.14-.1-.29.03h-.04s.03-.01.03-.01l.17-.09h-.3s-.04,0-.04,0h.04s.14-.06.14-.06l-.26-.02h-.04s.04-.01.04-.01l.13-.04-.14-.04h-.03s.03-.01.03-.01l.17-.04-.19-.06h-.03s.03-.01.03-.01l.21-.03-.34-.11h-.04s.04-.01.04-.01h.26s-.41-.18-.41-.18l-.04-.02h.05s.28.03.28.03l-.27-.12-.05-.02h.05s.22.04.22.04l-.28-.2-.03-.02h.03s.22.05.22.05l-.29-.21-.03-.02h.04s.16.05.16.05l-.19-.12-.03-.02h.04s.16.03.16.03l-.19-.16-.02-.02h.03s.19.05.19.05l-.23-.2-.03-.03.04.02.21.09-.21-.18-.03-.02h.03s.21.07.21.07l-.28-.32-.03-.03.04.02.22.13-.23-.27-.03-.03.04.02.22.12-.14-.24v-.02s0,0,0,0l.16.06-.15-.27v-.02s.01.01.01.01l.14.08-.09-.21v-.03s.01.02.01.02l.15.12-.1-.25v-.03s.01.02.01.02l.13.12-.07-.31v-.03s.01.02.01.02l.13.15-.04-.23v-.02s.01.02.01.02l.16.17-.07-.27v-.03s.01.03.01.03l.11.14.05-.3v-.04s.01.04.01.04l.04.21.11-.32v-.03s.01.03.01.03l.02.18.09-.26v-.02s.01.02.01.02l.04.15c.02-.07.08-.27.1-.26.02,0,.02.11.02.16l.15-.29.02-.03v.03s-.01.17-.01.17l.15-.2v-.02s.01.02.01.02v.15s.24-.14.24-.14h.02s0,0,0,0l-.05.12.23-.06h.05s-.04.01-.04.01l-.17.11h.13s.04.02.04.02h-.04s-.34.11-.34.11l.08.06h.02s-.02.01-.02.01h-.28s.13.1.11.1c-.01,0-.19.02-.26.03l.11.07h.01s-.02.01-.02.01l-.29.08s.05.02.07.03c.02,0,.04.02.05.02.01,0,.02.01.02.02h0s0,0-.01,0c0,0,0,0,0,0h0c-.06.01-.25.07-.31.08l.09.04h.01s-.01.01-.01.01l-.2.12.06.02h.02s-.02.01-.02.01l-.18.08.08.05h0s0,.01,0,.01l-.19.21.11.03h.01s0,.01,0,.01l-.16.19.1-.04h.02s0,0,0,0l-.11.29.11-.13.03-.03v.04s-.13.35-.13.35l.12-.17.02-.03v.03s-.08.37-.08.37l.1-.08h.02s0,0,0,0l-.06.32.11-.06h.01s0,0,0,0l-.05.23.14-.06h.01s0,0,0,0v.41s.07-.19.07-.19v-.03s.01.03.01.03l.03.4.07-.15v-.02s.01.02.01.02l.12.38.03-.23v-.02s.01.02.01.02l.19.4.07-.24v-.02s.01.02.01.02l.17.33.02-.12h0s0,0,0,0l.16.16.02-.1h0s0,0,0,0c0,0,.21.18.22.19,0,0,0,.11,0,.11h0s0,0,0,0h0ZM23.41,20.02l.16-.08s0-.1,0-.1c0,0-.16-.14-.2-.18l-.02.1h0s0,0,0,0l-.16-.16-.02.13v.02s-.01-.02-.01-.02l-.17-.33-.07.24v.02s-.01-.02-.01-.02l-.19-.39-.03.24v.03s-.01-.03-.01-.03l-.12-.4-.07.16v.03s-.01-.03-.01-.03l-.03-.4-.08.19-.02.04v-.04s0-.44,0-.44l-.15.06h-.01s0,0,0,0l.05-.23-.11.06h-.01s0,0,0,0l.06-.31-.1.07h-.02s0,0,0,0l.07-.35-.13.18-.03.04.02-.05.12-.35-.11.13-.03.04.02-.04.12-.32-.12.05h-.03s.02-.01.02-.01l.17-.21-.11-.03h-.01s0-.01,0-.01l.2-.21-.08-.05h-.01s.01-.01.01-.01l.18-.07-.06-.02h-.01s.01-.01.01-.01l.2-.12-.1-.05h-.02s.02-.01.02-.01c0,0,.25-.07.33-.09-.01,0-.03-.01-.04-.02-.03-.01-.06-.03-.08-.03h0s-.01,0-.01-.01h0s0,0,.01,0h0s.28-.08.28-.08l-.11-.07h-.02s.02-.01.02-.01c0,0,.26-.03.28-.03,0,0-.13-.08-.13-.08h-.02s.03-.01.03-.01h.29s-.08-.07-.08-.07h-.01s.01-.01.01-.01l.32-.09h-.12s-.02-.01-.02-.01h.02s.15-.11.15-.11l-.2.05h-.01s0,0,0,0l.05-.11-.22.13h-.01s0,0,0,0v-.14s-.15.21-.15.21l-.02.02v-.03s.01-.16.01-.16l-.15.28v.03s-.01-.03-.01-.03c0,0,0-.18,0-.18,0,0-.09.28-.09.28v.03s-.01-.03-.01-.03l-.04-.15-.1.27v.03s-.01-.03-.01-.03l-.02-.18-.11.32v.03s-.01-.03-.01-.03l-.03-.2-.05.28v.02s-.01-.01-.01-.01l-.1-.12.07.27v.03s-.01-.02-.01-.02l-.16-.17.04.23v.03s-.01-.02-.01-.02l-.13-.15.07.31v.02s-.01-.02-.01-.02l-.12-.12.1.24v.03s-.01-.02-.01-.02l-.15-.12.09.2v.02s0-.01,0-.01l-.14-.08.14.27v.02s0,0,0,0l-.15-.06.14.25v.02s0-.01,0-.01l-.21-.11.23.27.03.03-.04-.02-.22-.13.27.3.02.02h-.02s-.2-.07-.2-.07l.22.19.03.03-.04-.02-.21-.09.22.19.02.02h-.03s-.19-.05-.19-.05l.18.15.02.02h-.03s-.15-.03-.15-.03l.19.13.04.02h-.04s-.16-.05-.16-.05l.29.21.03.02h-.03s-.22-.05-.22-.05l.28.19.03.02h-.03s-.19-.03-.19-.03l.26.11.04.02h-.04s-.27-.03-.27-.03l.39.16h.03s-.04.01-.04.01h-.26s.33.12.33.12h.03s-.03.01-.03.01l-.2.03.19.06h.03s-.03.01-.03.01l-.17.04.13.04h.03s-.03.01-.03.01l-.11.03.25.02h.03s-.03.01-.03.01l-.13.05h.29s.03,0,.03,0h-.02s-.16.1-.16.1l.28-.03h.03s-.02.01-.02.01l-.13.09.3-.04h.03s-.02.01-.02.01l-.12.09.18-.02h.02s-.02.01-.02.01l-.09.08.26-.08h.03s-.02.01-.02.01l-.17.17.28-.13h.01s0,0,0,0l-.02.12.19-.09h.01s0,0,0,0l-.02.12h0ZM22.56,16.58s0,0,0,0c0,0,0,0,0,0h0ZM22.7,16.64s0,0,0,0h0s0,0,0,0h0Z"/>
  <path class="n" d="M26.91,16.17l.11.19.12-.15s.07-.08.09-.11c-.04.01-.08.03-.12.03l-.2.04Z"/>
  <path class="n" d="M26.54,15.54l.12.14s.05.05.07.06c.02.01.04.02.06.01.02,0,.04-.01.05-.02.02-.02.03-.04.03-.07,0-.03-.01-.06-.05-.1l-.13-.15-.16.14Z"/>
  <path class="n" d="M27.43,18.18l-.02.22.18-.05c.06-.02.1-.03.14-.04-.04-.01-.08-.03-.12-.04l-.18-.08Z"/>
  <path class="n" d="M25.98,15.2l.17.13.05-.18c.02-.06.03-.1.04-.13-.03.03-.07.05-.1.08l-.17.11Z"/>
  <path class="n" d="M25.48,14.83l.15.07s.09.03.12.02c.03,0,.05-.03.07-.06.01-.02.02-.05.01-.07,0-.02-.01-.04-.03-.06-.01,0-.03-.02-.07-.04l-.15-.07-.1.21Z"/>
  <path class="n" d="M23.41,14.82l.14-.02s.08-.01.1-.02c.02-.01.04-.02.05-.04.02-.02.03-.05.04-.09,0-.03,0-.08,0-.13,0-.07-.03-.12-.05-.15-.03-.03-.06-.05-.09-.06-.02,0-.06,0-.11,0l-.13.02.06.49Z"/>
  <path class="n" d="M22.58,14.9l.2-.09-.13-.14s-.07-.08-.1-.1c0,.04.01.08.02.13v.2Z"/>
  <path class="n" d="M21.18,16.48l.08-.14s.02-.04.03-.05c0-.02,0-.04,0-.05,0-.02,0-.03-.01-.05,0-.02-.02-.03-.04-.04-.02-.01-.04-.02-.06-.01-.02,0-.04,0-.06.03-.02.01-.04.04-.06.08l-.07.13.19.11Z"/>
  <path class="n" d="M20.92,16.33l.07-.12s.03-.06.03-.07c0-.02,0-.04,0-.06s-.02-.03-.04-.04c-.02-.01-.04-.02-.06-.01-.02,0-.04,0-.05.02-.01.01-.03.04-.06.08l-.06.11.17.1Z"/>
  <path class="n" d="M20.55,17.66l.02-.16c0-.05,0-.09-.01-.12-.02-.03-.04-.04-.08-.05-.03,0-.05,0-.07.01-.02.01-.04.03-.05.05,0,.01-.01.04-.02.08l-.02.16.23.03Z"/>
  <path class="n" d="M20.67,19.04l-.05-.18s-.02-.07-.04-.08c-.01-.02-.03-.03-.05-.04-.02,0-.04,0-.06,0-.03,0-.05.03-.06.05-.01.03-.01.06,0,.11l.05.2.21-.06Z"/>
</svg>