<?xml version="1.0" encoding="UTF-8"?>
<svg id="a" data-name="Layer 1" xmlns="http://www.w3.org/2000/svg" xmlns:xlink="http://www.w3.org/1999/xlink" viewBox="0 0 48 36">
  <defs>
    <style>
      .h {
        fill: url(#f);
      }

      .i {
        fill: url(#e);
      }

      .j {
        fill: url(#d);
      }

      .k {
        fill: url(#c);
      }

      .l {
        fill: url(#b);
      }

      .m {
        fill: #fff;
      }

      .m, .n, .o, .p, .q, .r {
        fill-rule: evenodd;
      }

      .s, .o {
        fill: #231f20;
      }

      .n {
        fill: #253d97;
      }

      .t {
        fill: #000001;
      }

      .p {
        fill: #fffa00;
      }

      .u {
        fill: #f30004;
      }

      .v {
        fill: #006906;
      }

      .q {
        fill: url(#g);
      }

      .r, .w {
        fill: #fff100;
      }

      .x {
        fill: #f6eb00;
      }
    </style>
    <linearGradient id="b" data-name="GradientFill 52" x1="18.97" y1="11.18" x2="18.26" y2="24.82" gradientUnits="userSpaceOnUse">
      <stop offset="0" stop-color="#fff100"/>
      <stop offset=".47" stop-color="#fff584"/>
      <stop offset="1" stop-color="#fff100"/>
    </linearGradient>
    <linearGradient id="c" data-name="GradientFill 52" x1="25.28" y1="16.81" x2="11.75" y2="18.24" xlink:href="#b"/>
    <linearGradient id="d" data-name="GradientFill 52" x1="24.54" y1="12.66" x2="12.51" y2="13.92" xlink:href="#b"/>
    <linearGradient id="e" data-name="GradientFill 52" x1="16.51" y1="20.86" x2="11.5" y2="22.3" xlink:href="#b"/>
    <linearGradient id="f" data-name="GradientFill 52" x1="55.07" y1="-2.14" x2="-18.1" y2="38.42" xlink:href="#b"/>
    <linearGradient id="g" data-name="GradientFill 43" x1="28.04" y1="9.9" x2="9.59" y2="23.3" gradientUnits="userSpaceOnUse">
      <stop offset="0" stop-color="#ec1c24"/>
      <stop offset=".24" stop-color="#ec1c24"/>
      <stop offset=".64" stop-color="#d61f26"/>
      <stop offset=".84" stop-color="#ec1c24"/>
      <stop offset="1" stop-color="#ec1c24"/>
    </linearGradient>
  </defs>
  <rect class="u" x="19.19" y="0" width="28.83" height="35.99"/>
  <rect class="v" x="-.03" y="0" width="19.22" height="35.99"/>
  <path class="p" d="M18.59,26.95c4.93,0,8.95-4.02,8.95-8.95s-4.02-8.95-8.95-8.95-8.95,4.02-8.95,8.95,4.02,8.95,8.95,8.95Z"/>
  <path class="t" d="M18.59,9.01c2.48,0,4.73,1.01,6.36,2.63,1.63,1.63,2.63,3.88,2.63,6.36s-1.01,4.73-2.63,6.36c-1.63,1.63-3.88,2.63-6.36,2.63s-4.73-1.01-6.36-2.63-2.63-3.88-2.63-6.36,1.01-4.73,2.63-6.36c1.63-1.63,3.88-2.63,6.36-2.63h0ZM24.89,11.7c-1.61-1.61-3.84-2.61-6.3-2.61s-4.69,1-6.3,2.61c-1.61,1.61-2.61,3.84-2.61,6.3s1,4.69,2.61,6.3c1.61,1.61,3.84,2.61,6.3,2.61s4.69-1,6.3-2.61c1.61-1.61,2.61-3.84,2.61-6.3s-1-4.69-2.61-6.3Z"/>
  <path class="s" d="M18.59,9.29c2.41,0,4.58.97,6.16,2.55,1.58,1.58,2.55,3.75,2.55,6.16s-.98,4.58-2.55,6.16c-1.58,1.58-3.75,2.55-6.16,2.55s-4.58-.98-6.16-2.55c-1.58-1.58-2.55-3.75-2.55-6.16s.98-4.58,2.55-6.16c1.58-1.58,3.75-2.55,6.16-2.55h0ZM24.69,11.9c-1.56-1.56-3.72-2.53-6.1-2.53s-4.54.97-6.1,2.53-2.53,3.72-2.53,6.1.97,4.54,2.53,6.1c1.56,1.56,3.72,2.53,6.1,2.53s4.54-.97,6.1-2.53c1.56-1.56,2.53-3.72,2.53-6.1s-.97-4.54-2.53-6.1Z"/>
  <path class="s" d="M18.59,9.76c2.27,0,4.33.92,5.82,2.41,1.49,1.49,2.41,3.55,2.41,5.82s-.92,4.33-2.41,5.82c-1.49,1.49-3.55,2.41-5.82,2.41s-4.33-.92-5.82-2.41c-1.49-1.49-2.41-3.55-2.41-5.82s.92-4.33,2.41-5.82c1.49-1.49,3.55-2.41,5.82-2.41h0ZM24.36,12.23c-1.48-1.48-3.51-2.39-5.77-2.39s-4.29.91-5.77,2.39c-1.48,1.48-2.39,3.51-2.39,5.77s.91,4.29,2.39,5.77c1.48,1.48,3.51,2.39,5.77,2.39s4.29-.91,5.77-2.39c1.48-1.48,2.39-3.51,2.39-5.77s-.91-4.29-2.39-5.77Z"/>
  <path class="s" d="M18.59,10.02c2.2,0,4.2.89,5.64,2.34,1.44,1.44,2.34,3.44,2.34,5.64s-.89,4.2-2.34,5.64c-1.44,1.44-3.44,2.34-5.64,2.34s-4.2-.89-5.64-2.34c-1.44-1.44-2.34-3.44-2.34-5.64s.89-4.2,2.34-5.64c1.44-1.44,3.44-2.34,5.64-2.34h0ZM24.17,12.41c-1.43-1.43-3.4-2.31-5.58-2.31s-4.16.88-5.58,2.31c-1.43,1.43-2.31,3.4-2.31,5.58s.88,4.16,2.31,5.58c1.43,1.43,3.4,2.31,5.58,2.31s4.16-.88,5.58-2.31c1.43-1.43,2.31-3.4,2.31-5.58s-.88-4.16-2.31-5.58Z"/>
  <path class="t" d="M11.08,12.93s.04.02.04.04c0,.02-.01.03-.03.04l-.09.16v.03s-.05.03-.07.02c-.02,0-.03-.03-.02-.06v-.03s.02,0,.02,0l.11-.18h0s.02-.02.04-.02h.01ZM10.92,13.13h0s0,0,0,0Z"/>
  <rect class="l" x="18.23" y="9.08" width=".77" height="17.85"/>
  <path class="x" d="M18.88,8.98h.19v18.03s-.19,0-.19,0V8.98h0ZM18.12,8.98h.2v18.03h-.2V8.98Z"/>
  <path class="k" d="M9.69,17.61c1.11-1.02,5.22-1.69,8.86-1.67,3.64.02,7.95.77,8.89,1.65v.76c-.78-.74-4.13-1.62-8.88-1.63-4.76,0-8.21.9-8.87,1.65v-.76Z"/>
  <path class="w" d="M18.59,16.62c2.09,0,4.13.2,5.74.51,1.66.33,2.83.75,3.23,1.22v.23c-.48-.58-2.06-1.01-3.27-1.25-1.6-.31-3.62-.51-5.7-.51-2.2,0-4.25.21-5.82.52-1.27.25-2.95.75-3.16,1.24v-.24c.12-.34,1.37-.85,3.13-1.2,1.59-.31,3.64-.51,5.85-.52h0ZM18.59,15.86c-2.21,0-4.26.21-5.85.52-1.74.34-3.02.87-3.13,1.2v.24c.2-.49,1.95-1.01,3.17-1.24,1.58-.31,3.61-.52,5.81-.52,2.08,0,4.1.2,5.7.51,1.21.24,2.79.67,3.27,1.25v-.23c-.4-.47-1.57-.88-3.23-1.22-1.61-.31-3.65-.52-5.74-.51h0Z"/>
  <path class="t" d="M18.59,15.81h0c1.02,0,2.02.05,2.97.13,1.01.09,1.95.22,2.78.38h0c.85.17,1.57.36,2.13.57.53.2.92.42,1.12.65.01,0,.02.02.02.04v.23s-.02.04-.04.04h0s-.02,0-.03-.01c0-.01-.02-.02-.03-.03v.42s.06.06.09.09h0s0,0,0,0h0s0,0,0,0h0s0,0,0,0h0s0,0,0,0h0s0,0,0,0h0s0,0,0,0h0s0,0,0,0h0s0,0,0,0h0s0,0,0,0h0s0,0,0,0h0s0,.24,0,.24h0s0,.01,0,.01h0s0,0,0,0h0s0,0,0,0h0s0,0,0,0h0s0,0,0,0h0s0,0,0,0h0s0,0,0,0h0s0,0,0,0h0s0,0,0,0h0s0,0,0,0h0s0,0,0,0h0s0,0,0,0h0s0,0,0,0h0s0,0,0,0h0s0,0,0,0h0s0,0,0,0h0s0,0,0,0h0s0,0,0,0h0s0,0,0,0h0s0,0,0,0h0s0,0,0,0h0s0,0,0,0h0s0,0,0,0h0s0,0,0,0h0s0,0,0,0h0s0,0,0,0h0s0,0,0,0h0s0,0,0,0h0s0,0,0,0h0s0,0,0,0h0s0,0,0,0h0s0,0,0,0h0s0,0,0,0h0s0,0,0,0h0s0,0,0,0h0s0,0,0,0h0c-.2-.24-.61-.46-1.1-.65-.65-.25-1.46-.45-2.14-.58h0c-.82-.16-1.76-.29-2.75-.38-.94-.08-1.93-.13-2.94-.13-1.06,0-2.08.05-3.04.14-1.02.09-1.96.22-2.78.38h0c-.71.14-1.54.36-2.18.61-.49.19-.86.4-.95.61,0,.02-.02.03-.04.03-.02,0-.04-.02-.04-.04v-.24s0-.01,0-.02c.01-.04.04-.07.07-.11v-.37s-.02.02-.03.02c-.02,0-.04-.02-.04-.04v-.24h0s0,0,0,0h0s0,0,0,0h0c.07-.19.44-.42,1.03-.64.55-.21,1.29-.42,2.13-.58.82-.16,1.76-.29,2.79-.38.96-.08,1.99-.13,3.07-.14h0ZM27.42,17.73c-.22-.2-.58-.38-.99-.54-.65-.25-1.46-.45-2.14-.58h0c-.82-.16-1.75-.29-2.75-.38-.94-.08-1.93-.13-2.94-.13-1.06,0-2.08.05-3.03.14-1.02.09-1.96.22-2.78.38h0c-.68.13-1.53.35-2.18.6-.4.16-.73.33-.88.5v.42c.17-.14.46-.29.85-.44.55-.21,1.29-.42,2.15-.59h0c.82-.16,1.76-.29,2.79-.38h0c.96-.08,1.99-.13,3.06-.14h0c1.02,0,2.02.05,2.97.13,1,.09,1.95.22,2.78.38h0c.85.17,1.57.36,2.13.57.41.15.74.32.95.49v-.43h0ZM18.6,16.66h0c-1.07,0-2.1.05-3.06.14h0c-1.02.09-1.96.22-2.78.38h0c-.86.17-1.6.38-2.14.59-.55.21-.9.42-.96.58v.1c.16-.19.5-.37.92-.53.64-.25,1.49-.47,2.2-.61h0c.82-.16,1.76-.29,2.79-.38.96-.08,1.98-.13,3.04-.14,1.01,0,2.01.04,2.95.13,1,.09,1.94.22,2.76.38h0c.69.14,1.5.34,2.16.59.45.17.84.37,1.07.6v-.11c-.19-.22-.57-.43-1.08-.62-.55-.21-1.27-.4-2.12-.57h0c-.83-.16-1.77-.29-2.77-.38-.95-.08-1.95-.13-2.96-.13h0ZM27.53,17.6c-.19-.22-.57-.43-1.09-.63-.55-.21-1.27-.4-2.12-.57h0c-.83-.16-1.77-.29-2.77-.38-.94-.08-1.95-.13-2.96-.13h0c-1.07,0-2.1.05-3.06.14-1.02.09-1.96.22-2.78.38-.84.16-1.58.37-2.12.58-.56.22-.92.43-.98.59v.09c.16-.19.5-.37.93-.53.65-.26,1.51-.48,2.2-.61h0c.82-.16,1.76-.29,2.78-.38.95-.08,1.98-.13,3.04-.14,1.01,0,2.01.04,2.95.13,1,.09,1.93.22,2.76.38h0c.69.14,1.5.34,2.16.59.46.17.84.38,1.07.6v-.11h0ZM12.74,17.09l.05.03s-.02-.04-.05-.03Z"/>
  <path class="j" d="M18.55,11.98c3.3-.02,6.18.46,7.5,1.14l.48.83c-1.14-.62-4.25-1.26-7.97-1.16-3.03.02-6.27.33-7.9,1.2l.57-.96c1.33-.69,4.48-1.04,7.32-1.05h0Z"/>
  <polygon class="t" points="26.17 13.22 26.49 13.75 26.43 13.79 26.1 13.27 26.17 13.22"/>
  <path class="w" d="M18.59,12.66c1.88,0,3.7.1,5.15.36,1.35.25,2.63.63,2.82.83l.14.25c-.45-.29-1.56-.62-2.99-.89-1.43-.27-3.25-.36-5.12-.35-2.13,0-3.78.1-5.19.35-1.5.28-2.54.68-2.79.87l.14-.27c.5-.25,1.29-.56,2.62-.8,1.47-.27,3.13-.35,5.23-.36h0ZM18.59,11.9c-1.9,0-3.66.12-5.03.37-.99.19-1.78.43-2.27.68l-.18.28c.35-.23,1.19-.52,2.48-.77,1.36-.25,3.1-.36,4.99-.37,1.8.01,3.51.11,4.88.35,1.18.21,2.51.58,2.86.98l-.21-.33c-.4-.3-1.48-.63-2.57-.84-1.39-.25-3.17-.35-4.97-.34h0Z"/>
  <path class="t" d="M26.74,14.13s-.04.02-.06.01c-.22-.14-.6-.29-1.1-.44-.51-.15-1.15-.3-1.87-.44-.71-.13-1.53-.22-2.39-.28-.87-.06-1.79-.08-2.72-.07-1.06,0-2,.02-2.86.08-.85.06-1.62.15-2.33.27h0c-.65.12-1.22.27-1.67.41-.58.18-.96.35-1.1.46-.02.01-.04,0-.06,0-.01-.02,0-.04,0-.06.15-.11.54-.28,1.13-.47.45-.14,1.02-.29,1.68-.41h0c.71-.12,1.48-.21,2.34-.27.86-.06,1.8-.08,2.87-.08.94,0,1.86.02,2.73.07.87.06,1.68.15,2.4.28.72.14,1.36.29,1.88.44.42.12.75.25.98.37l-.06-.1s0,0,0,0c-.19-.13-.53-.28-.95-.41-.46-.15-1.03-.28-1.59-.38h0c-.66-.11-1.42-.18-2.22-.23-.87-.05-1.8-.06-2.74-.05-.02,0-.04-.02-.04-.03s.02-.04.04-.04c.94-.02,1.87,0,2.74.05.81.04,1.56.12,2.23.23h0c.57.1,1.13.24,1.6.38.44.14.79.29.99.43,0,0,.01.02.01.03.04.06.16.23.14.26Z"/>
  <path class="t" d="M10.64,14.11s-.04.03-.06.02-.03-.04-.02-.06l.14-.27s.03-.03.06-.02c.02.01.03.04.02.06l-.14.27Z"/>
  <path class="t" d="M10.76,13.86s-.05,0-.06-.02c0-.02,0-.04.02-.06.25-.13.58-.27,1-.41.43-.14.96-.28,1.63-.4h0c.73-.13,1.52-.22,2.38-.28.86-.06,1.81-.08,2.86-.08.02,0,.04.02.04.04s-.02.04-.04.04c-1.05,0-1.99.03-2.85.08-.86.05-1.64.14-2.37.28h0c-.66.12-1.19.25-1.61.39-.42.14-.74.28-.99.4Z"/>
  <path class="t" d="M18.59,11.94s-.04-.02-.04-.04.02-.04.04-.04c.94,0,1.87.02,2.74.08.81.06,1.56.14,2.23.26h0c.57.11,1.13.25,1.6.41.44.14.79.3.99.44.02.01.02.03,0,.05-.01.02-.03.02-.05,0-.19-.14-.54-.29-.97-.43-.46-.15-1.03-.29-1.59-.4h0c-.66-.12-1.42-.2-2.22-.26-.87-.06-1.8-.09-2.74-.08Z"/>
  <path class="t" d="M26.37,13.39s.01.04,0,.06c-.02.01-.04.01-.06,0-.16-.17-.52-.35-.97-.5-.55-.19-1.23-.35-1.87-.46h0c-.69-.12-1.45-.2-2.28-.26-.82-.06-1.7-.08-2.6-.09-.97,0-1.89.03-2.75.1-.82.06-1.57.15-2.23.27h0c-.61.12-1.11.24-1.51.36-.45.14-.77.28-.96.4-.02.01-.04,0-.06-.01-.01-.02,0-.04.01-.06.19-.12.52-.26.98-.4.4-.12.91-.25,1.52-.37h0c.66-.12,1.42-.21,2.24-.27.86-.06,1.79-.09,2.76-.1h0c.9,0,1.78.03,2.6.09.82.06,1.6.14,2.28.26h0c.64.11,1.33.28,1.88.46.34.11.62.24.82.37l-.08-.12s0-.04.01-.05c.02-.01.04,0,.05.01l.19.3s0,0,0,0h.01Z"/>
  <path class="t" d="M11.15,13.25s-.04.02-.06.01c-.02-.01-.02-.04-.01-.06l.18-.28s.04-.02.06-.01c.02.01.02.04.01.06l-.18.28Z"/>
  <path class="t" d="M11.32,12.99s-.04,0-.06-.02c-.01-.02,0-.04.02-.06.24-.13.56-.25.94-.37.38-.12.83-.22,1.33-.32h0c.67-.12,1.42-.21,2.24-.27.87-.06,1.81-.09,2.79-.1.02,0,.04.02.04.04s-.02.04-.04.04c-.98,0-1.91.03-2.78.1-.82.06-1.57.15-2.24.27h0c-.5.1-.94.2-1.33.32-.38.11-.69.23-.93.36Z"/>
  <path class="i" d="M17.2,21.38c-4.42.21-5.91,1.12-6.11,1.41l-.41-.67c1.21-.88,3.61-1.42,6.52-1.52v.77Z"/>
  <path class="w" d="M17.2,21.48c-1.57.06-3.12.27-4.51.67-.56.16-1.5.52-1.59.82l-.1-.17c.03-.18.59-.54,1.65-.84,1.57-.45,3.07-.61,4.56-.67v.2h0ZM17.2,20.71v-.2c-1.61.07-3.25.25-4.77.7-.85.25-1.8.62-1.82.91l.1.18c.04-.32,1.13-.72,1.77-.9,1.51-.44,3.13-.63,4.73-.69Z"/>
  <path class="t" d="M17.2,21.51c-.6.02-1.21.07-1.79.14-.94.11-1.85.28-2.71.53h0c-.32.09-.76.25-1.09.42-.24.13-.43.26-.47.38h0s0,0,0,0h0s0,0,0,0h0s0,0,0,0h0s0,0,0,0h0s0,0,0,0h0s0,0,0,0h0s0,0,0,0h0s0,0,0,0h0s0,0,0,0h0s0,0,0,0h0s0,0,0,0h0s0,0,0,0h0s0,0,0,0h0s0,0,0,0h0s0,0,0,0h0s0,0,0,0h0s0,0,0,0h0s0,0,0,0h0s0,0,0,0h0s0,0,0,0h0s0,0,0,0h0s0,0,0,0h0s0,0,0,0h-.01s0,0,0,0h0s0,0,0,0h0s0,0,0,0h0s0,0,0,0h0s0,0,0,0h0s0,0,0,0h0s0,0,0,0h0s0,0,0,0h0s0,0,0,0h0s0,0,0,0h0s0,0,0,0h0s0,0,0,0h0s0,0,0,0h0s0,0,0,0h0s0,0,0,0h0s0,0,0,0h0s-.1-.17-.1-.17c0,0,0-.02,0-.03,0-.03.02-.06.04-.09l-.24-.42s0,.02,0,.03c0,.02-.02.04-.04.03-.01,0-.02,0-.03-.02h0s-.1-.18-.1-.18c0,0,0-.02,0-.03.01-.14.22-.3.52-.45.36-.18.86-.36,1.33-.49.99-.29,2.03-.47,3.08-.58.57-.06,1.14-.1,1.71-.12v.08c-.56.02-1.13.06-1.7.12-1.04.11-2.08.29-3.07.58-.47.14-.97.31-1.32.49-.27.13-.45.27-.47.38l.06.1c.07-.12.25-.24.48-.36.38-.2.91-.38,1.29-.49.98-.29,2.02-.47,3.06-.57.56-.06,1.12-.1,1.68-.12v.08c-.55.02-1.11.06-1.67.12-1.04.11-2.07.29-3.05.57-.37.11-.89.29-1.27.48-.18.09-.33.19-.41.27l.25.43c.09-.09.24-.19.44-.29.27-.14.65-.29,1.13-.42h0c.79-.23,1.56-.38,2.32-.48.76-.1,1.51-.16,2.25-.19.02,0,.04.02.04.04,0,.02-.02.04-.04.04-.74.03-1.49.08-2.25.19-.75.1-1.52.26-2.3.48h0c-.47.13-.85.28-1.12.42-.3.15-.47.29-.5.38l.06.1c.08-.12.25-.24.47-.35.34-.17.78-.33,1.11-.42h0c.86-.25,1.77-.42,2.72-.53.59-.07,1.2-.11,1.8-.14v.08Z"/>
  <path class="h" d="M11.15,13.01c2.73-.04,15.31,7.69,15.35,9.11l-.78,1.2c-.35-1.65-13.12-9.17-15.23-9.03l.66-1.28Z"/>
  <path class="w" d="M10.41,14.25c.51-.34,4.22,1.31,8.11,3.66,3.88,2.35,7.59,5.01,7.25,5.51l-.11.17-.05.04s.07-.08,0-.26c-.17-.54-2.79-2.64-7.16-5.28-4.25-2.54-7.8-4.06-8.15-3.63l.11-.21h0ZM26.58,22.21h0c.32-.63-3.13-3.23-7.4-5.76-4.37-2.48-7.53-3.94-8.1-3.5l-.13.23s0-.02.03-.04c.1-.09.28-.09.36-.09.99.01,3.82,1.32,7.79,3.59,1.74,1.01,7.35,4.61,7.33,5.63,0,.09,0,.1-.03.15l.14-.22h0Z"/>
  <path class="t" d="M10.38,14.23h0s0,0,0,0h0s0,0,0,0h0s0,0,0,0h0s0,0,0,0h0s0,0,0,0h0s0,0,0,0h0s0,0,0,0h0s0,0,0,0h0s0,0,0,0h0s0,0,0,0h0s0,0,0,0h0s0,0,0,0h0s0,0,0,0h0s0,0,0,0h0s0,0,0,0c.03-.02.06-.03.1-.04l.6-1.11.07.04-.57,1.06c.44-.01,1.41.32,2.66.88,1.47.67,3.36,1.66,5.29,2.82h0c1.13.69,2.25,1.4,3.25,2.08,1.22.82,2.27,1.59,3,2.2.51.43.86.79.99,1.03l.62-.97.07.04-.65,1.01c.02.07.02.12,0,.16h0s0,0,0,0h0s-.11.17-.11.17c0,0,0,0,0,.01h0l-.05.04h0s0,0,0,0h0s0,0,0,0h0s0,0,0,0h0s0,0,0,0h0s0,0,0,0h0s0,0,0,0h0s0,0,0,0h0s0,0,0,0h0s0,0,0,0h0s0,0,0,0h0s0,0,0,0h0s0,0,0,0h0s0,0,0,0h0s0,0,0,0h0s0,0,0,0h0s0,0,0,0h0s0,0,0,0h0s0,0,0,0h0s0,0,0,0h0s0,0,0,0h0s0,0,0,0h0s0,0,0,0h0s0,0,0,0h0s0,0,0,0h0s0,0,0,0h0s0,0,0,0h0s0,0,0,0h0s0,0,0,0h0s0,0,0,0h0s0,0,0,0h0s0,0,0,0h0s0,0,0,0h0s0,0,0,0h0s0,0,0,0h0s0,0,0,0h0s0,0,0,0h0s0,0,0,0h0s0,0,0,0h0s0,0,0,0h0s0,0,0,0h0s0,0,0,0h0s0,0,0,0h0s0,0,0,0h0s0-.01,0-.01h0s0,0,0,0h0s0,0,0,0h0s0,0,0,0h0s0,0,0,0h0s0,0,0,0h0s0,0,0,0h0s0,0,0,0h0s0,0,0,0h0s0,0,0,0h0s0,0,0,0h0s0,0,0,0h0s0,0,0,0h0s0,0,0,0h0s0,0,0,0h0s0,0,0,0h0s0,0,0,0h0s0,0,0,0h0s0,0,0,0h0s0,0,0,0h0s.01-.02.01-.07c0-.03,0-.08-.03-.14h0c-.09-.29-.89-1.03-2.29-2.06-1.2-.89-2.84-1.99-4.85-3.2h0c-2.08-1.24-4-2.24-5.45-2.89-1.49-.66-2.48-.96-2.65-.75h0s-.02.01-.02.01h0s0,0,0,0h0s0,0-.01,0h0s0,0,0,0h0s-.01-.02-.01-.03h0s0,0,0,0h0s0,0,0-.01h0s0,0,0,0l.11-.21h0ZM25.74,23.39h0s0,0,0,0h0c.09-.16-.29-.59-1-1.18-.72-.61-1.78-1.37-2.99-2.19-1.01-.68-2.12-1.39-3.25-2.07h0c-1.93-1.16-3.81-2.16-5.28-2.82-1.47-.66-2.52-1-2.78-.85l-.05.09c.36-.08,1.3.21,2.62.8,1.45.65,3.37,1.65,5.45,2.89h0c2.01,1.22,3.66,2.32,4.86,3.2,1.41,1.04,2.22,1.79,2.32,2.09h0c.02.05.03.1.04.13l.06-.09Z"/>
  <path class="t" d="M11.07,13.05c.09-.03.19-.03.25-.03h.02c.5,0,1.47.34,2.8.96,1.33.61,3.03,1.51,5.01,2.64h0c1.07.62,3.58,2.21,5.36,3.58,1.12.86,1.96,1.64,1.99,2.05l.04-.06c.14-.29-.59-1.05-1.87-2.04-1.36-1.06-3.33-2.37-5.52-3.67h0c-2.27-1.29-4.21-2.3-5.63-2.91-1.29-.56-2.15-.79-2.42-.6l-.04.07h0ZM26.49,22.42s-.01.02-.02.03h0s0,0,0,0h0s0,0,0,0h0s0,0,0,0h0s0,0,0,0h0s0,0,0,0h0s0,0,0,0h0s0,0,0,0h0s0,0,0,0h0s0,0,0,0h0s0,0,0,0h0s0,0,0,0h0s0,0,0,0h0s0,0,0,0h0s0,0,0,0h0s0,0,0,0h0s0,0,0,0h0s0,0,0,0h0s0,0,0,0h0s0,0,0,0h0s0,0,0,0c0,0,0,0,0,0h0s0,0,0,0h0s0,0,0,0h0s0,0,0,0h0s0,0,0,0h0s0,0,0,0h0s0,0,0,0h0s0,0,0,0h0s0,0,0,0h0s0,0,0,0h0s0,0,0,0h0s0,0,0,0h0s0,0,0,0h0s0,0,0,0h0s0,0,0,0h0s0,0,0,0h0s0,0,0,0h0s0,0,0,0h0s0,0,0,0h0s0,0,0,0h0s.01-.02.01-.02c0-.02,0-.04,0-.08h0s0-.03,0-.03h0c0-.38-.83-1.15-1.95-2.02-1.78-1.37-4.29-2.95-5.36-3.57h0c-1.98-1.14-3.68-2.03-5.01-2.64-1.33-.61-2.28-.94-2.77-.95h-.02s0,0,0,0c-.08,0-.22,0-.31.07h0s-.01.02-.02.02h0s-.01.03-.04.03h0s-.04-.02-.04-.04h0s0-.01,0-.02l.13-.23h0s0,0,0,0h0s0,0,0,0h0s0,0,0,0h0s0,0,0,0h0s0,0,0,0h0s0,0,0,0h0s0,0,0,0h0s0,0,0,0h0s0,0,0,0h0s0,0,0,0h0s0,0,0,0h0s0,0,0,0h0s0,0,0,0c.29-.22,1.18.01,2.51.59,1.42.62,3.36,1.63,5.63,2.91h0c2.19,1.3,4.17,2.61,5.53,3.67,1.31,1.02,2.05,1.81,1.89,2.14h0s0,0,0,0h0s0,0,0,0l-.12.19Z"/>
  <path class="t" d="M18.36,9.04h.48v-.06s.02-.04.04-.04h.19s.04.02.04.04h0s0,18.03,0,18.03c0,.02-.02.04-.04.04h-.19s-.04-.02-.04-.04h0v-.08h-.48v.08s-.02.04-.04.04h-.2s-.04-.02-.04-.04h0V8.98s.02-.04.04-.04h.2s.04.02.04.04h0v.06h0ZM18.84,9.12h-.48v17.73h.48V9.12h0ZM18.28,9.02h-.11v17.95h.11V9.02h0ZM19.03,9.02h-.11v17.95h.11V9.02Z"/>
  <path class="s" d="M13.3,11.76h10.63v7.17c0,1.46-.6,2.78-1.57,3.74-.97.96-2.3,1.56-3.77,1.56h0c-1.47,0-2.8-.6-3.77-1.56-.97-.96-1.57-2.29-1.57-3.74v-7.17h.05ZM23.83,11.86h-10.48v7.06c0,1.43.59,2.73,1.54,3.67.95.94,2.26,1.53,3.7,1.53h0c1.44,0,2.75-.59,3.7-1.53.95-.94,1.54-2.24,1.54-3.67v-7.06Z"/>
  <path class="m" d="M13.3,11.81h10.58v7.12c0,2.89-2.38,5.25-5.29,5.25h0c-2.91,0-5.29-2.36-5.29-5.25v-7.12Z"/>
  <path class="s" d="M13.51,11.96h10.23v6.95c0,1.42-.58,2.7-1.51,3.64-.93.93-2.22,1.51-3.64,1.51h0c-1.42,0-2.7-.58-3.64-1.51-.93-.93-1.51-2.22-1.51-3.64v-6.95h.06ZM23.61,12.09h-10.04v6.83c0,1.38.57,2.64,1.48,3.55.91.91,2.17,1.47,3.55,1.47h0c1.38,0,2.64-.57,3.55-1.48.91-.91,1.47-2.17,1.47-3.55v-6.83Z"/>
  <path class="q" d="M13.51,12.03h10.17v6.89c0,2.8-2.29,5.09-5.09,5.09h0c-2.8,0-5.09-2.29-5.09-5.09v-6.89Z"/>
  <path class="s" d="M15.55,14.06h6.14v4.83c0,.85-.35,1.63-.91,2.19-.56.56-1.34.91-2.19.91h0c-.85,0-1.63-.35-2.19-.91-.56-.56-.91-1.34-.91-2.19v-4.83h.06ZM21.56,14.19h-5.94v4.71c0,.82.33,1.56.87,2.1.54.54,1.28.87,2.1.87h0c.82,0,1.56-.33,2.1-.87.54-.54.87-1.28.87-2.1v-4.71Z"/>
  <path class="m" d="M15.55,14.12h6.07v4.77c0,1.67-1.37,3.04-3.04,3.04h0c-1.67,0-3.04-1.37-3.04-3.04v-4.77Z"/>
  <path class="n" d="M16.07,17.17h1.33v1c0,.37-.3.67-.67.67h0c-.37,0-.67-.3-.67-.67v-1Z"/>
  <path class="m" d="M17.11,17.4c.07,0,.13.06.13.13s-.06.13-.13.13-.13-.06-.13-.13.06-.13.13-.13h0ZM16.76,17.77c.07,0,.13.06.13.13s-.06.13-.13.13-.13-.06-.13-.13.06-.13.13-.13h0ZM16.4,17.4c.07,0,.13.06.13.13s-.06.13-.13.13-.13-.06-.13-.13.06-.13.13-.13h0ZM16.4,18.14c.07,0,.13.06.13.13s-.06.13-.13.13-.13-.06-.13-.13.06-.13.13-.13h0ZM17.11,18.14c.07,0,.13.06.13.13s-.06.13-.13.13-.13-.06-.13-.13.06-.13.13-.13Z"/>
  <path class="n" d="M17.92,17.17h1.33v1c0,.37-.3.67-.67.67h0c-.37,0-.67-.3-.67-.67v-1Z"/>
  <path class="m" d="M18.96,17.4c.07,0,.13.06.13.13s-.06.13-.13.13-.13-.06-.13-.13.06-.13.13-.13h0ZM18.61,17.77c.07,0,.13.06.13.13s-.06.13-.13.13-.13-.06-.13-.13.06-.13.13-.13h0ZM18.25,17.4c.07,0,.13.06.13.13s-.06.13-.13.13-.13-.06-.13-.13.06-.13.13-.13h0ZM18.25,18.14c.07,0,.13.06.13.13s-.06.13-.13.13-.13-.06-.13-.13.06-.13.13-.13h0ZM18.96,18.14c.07,0,.13.06.13.13s-.06.13-.13.13-.13-.06-.13-.13.06-.13.13-.13Z"/>
  <path class="n" d="M19.77,17.17h1.33v1c0,.37-.3.67-.67.67h0c-.37,0-.67-.3-.67-.67v-1Z"/>
  <path class="m" d="M20.81,17.4c.07,0,.13.06.13.13s-.06.13-.13.13-.13-.06-.13-.13.06-.13.13-.13h0ZM20.46,17.77c.07,0,.13.06.13.13s-.06.13-.13.13-.13-.06-.13-.13.06-.13.13-.13h0ZM20.1,17.4c.07,0,.13.06.13.13s-.06.13-.13.13-.13-.06-.13-.13.06-.13.13-.13h0ZM20.1,18.14c.07,0,.13.06.13.13s-.06.13-.13.13-.13-.06-.13-.13.06-.13.13-.13h0ZM20.81,18.14c.07,0,.13.06.13.13s-.06.13-.13.13-.13-.06-.13-.13.06-.13.13-.13Z"/>
  <path class="n" d="M17.92,14.81h1.33v1c0,.37-.3.67-.67.67h0c-.37,0-.67-.3-.67-.67v-1Z"/>
  <path class="m" d="M18.96,15.05c.07,0,.13.06.13.13s-.06.13-.13.13-.13-.06-.13-.13.06-.13.13-.13h0ZM18.61,15.42c.07,0,.13.06.13.13s-.06.13-.13.13-.13-.06-.13-.13.06-.13.13-.13h0ZM18.25,15.05c.07,0,.13.06.13.13s-.06.13-.13.13-.13-.06-.13-.13.06-.13.13-.13h0ZM18.25,15.78c.07,0,.13.06.13.13s-.06.13-.13.13-.13-.06-.13-.13.06-.13.13-.13h0ZM18.96,15.78c.07,0,.13.06.13.13s-.06.13-.13.13-.13-.06-.13-.13.06-.13.13-.13Z"/>
  <path class="n" d="M17.92,19.46h1.33v1c0,.37-.3.67-.67.67h0c-.37,0-.67-.3-.67-.67v-1Z"/>
  <path class="m" d="M18.96,19.7c.07,0,.13.06.13.13s-.06.13-.13.13-.13-.06-.13-.13.06-.13.13-.13h0ZM18.61,20.06c.07,0,.13.06.13.13s-.06.13-.13.13-.13-.06-.13-.13.06-.13.13-.13h0ZM18.25,19.7c.07,0,.13.06.13.13s-.06.13-.13.13-.13-.06-.13-.13.06-.13.13-.13h0ZM18.25,20.43c.07,0,.13.06.13.13s-.06.13-.13.13-.13-.06-.13-.13.06-.13.13-.13h0ZM18.96,20.43c.07,0,.13.06.13.13s-.06.13-.13.13-.13-.06-.13-.13.06-.13.13-.13Z"/>
  <path class="s" d="M18.62,13.28h-.58l-.06.56h1.22l-.06-.56h-.52ZM18.56,13.2h.64v.03s.07.64.07.64v.04s-.04,0-.04,0h-1.35v-.04s.08-.64.08-.64v-.03h.59Z"/>
  <polygon class="r" points="18.62 13.24 18.56 13.24 18.01 13.24 17.94 13.88 18.56 13.88 18.62 13.88 19.24 13.88 19.17 13.24 18.62 13.24"/>
  <path class="s" d="M18.47,12.55l-.02.53h.29l-.02-.53h-.24ZM18.37,13.11l.03-.6v-.04s.04,0,.04,0h.35v.04s.03.6.03.6v.04s-.04,0-.04,0h-.41v-.04Z"/>
  <path class="r" d="M18.43,12.51l-.03.6h.37l-.03-.6h-.31Z"/>
  <path class="o" d="M18.59,12.7h0s.05.02.05.05v.12h-.1v-.12s.02-.05.05-.05Z"/>
  <path class="s" d="M18.34,12.23h.13v.07h.01v-.07h.2v.07h.01v-.07h.17v.28h-.56v-.28h.03ZM18.41,12.3h-.04v.15h.43v-.15h-.04v.07h-.14v-.07h-.07v.07h-.14v-.07Z"/>
  <polygon class="r" points="18.34 12.26 18.44 12.26 18.44 12.34 18.52 12.34 18.52 12.26 18.66 12.26 18.66 12.34 18.74 12.34 18.74 12.26 18.84 12.26 18.84 12.47 18.34 12.47 18.34 12.26"/>
  <path class="s" d="M18.05,12.76l-.02.38h.21l-.02-.38h-.18ZM17.98,13.17l.02-.44v-.03h.28v.03s.02.44.02.44v.03s-.03,0-.03,0h-.3v-.03Z"/>
  <path class="r" d="M18.02,12.73l-.02.44h.27l-.02-.44h-.23Z"/>
  <path class="o" d="M18.14,12.87h0s.04.02.04.04v.08h-.07v-.08s.02-.04.04-.04Z"/>
  <path class="s" d="M17.96,12.53h.1v.05h.01v-.05h.15v.05h.01v-.05h.12v.2h-.41v-.2h.02ZM18.01,12.57h-.03v.11h.32v-.11h-.03v.05h-.11v-.05h-.05v.05h-.11v-.05Z"/>
  <polygon class="r" points="17.96 12.55 18.03 12.55 18.03 12.6 18.09 12.6 18.09 12.55 18.19 12.55 18.19 12.6 18.25 12.6 18.25 12.55 18.32 12.55 18.32 12.7 17.96 12.7 17.96 12.55"/>
  <path class="s" d="M18.94,12.76l-.02.38h.21l-.02-.38h-.18ZM18.86,13.17l.02-.44v-.03h.28v.03s.02.44.02.44v.03s-.03,0-.03,0h-.3v-.03Z"/>
  <path class="r" d="M18.91,12.73l-.02.44h.27l-.02-.44h-.23Z"/>
  <path class="o" d="M19.03,12.87h0s.04.02.04.04v.08h-.07v-.08s.02-.04.04-.04Z"/>
  <path class="s" d="M18.84,12.53h.1v.05h.01v-.05h.15v.05h.01v-.05h.12v.2h-.41v-.2h.02ZM18.9,12.57h-.03v.11h.32v-.11h-.03v.05h-.11v-.05h-.05v.05h-.11v-.05Z"/>
  <polygon class="r" points="18.84 12.55 18.92 12.55 18.92 12.6 18.98 12.6 18.98 12.55 19.08 12.55 19.08 12.6 19.13 12.6 19.13 12.55 19.21 12.55 19.21 12.7 18.84 12.7 18.84 12.55"/>
  <path class="s" d="M17.91,13.19s-.04,0-.05-.02c-.01-.01-.02-.03-.02-.05s0-.04.02-.05c.01-.01.03-.02.05-.02h1.36s.04,0,.05.02c.01.01.02.03.02.05s0,.04-.02.05c-.01.01-.03.02-.05.02h-1.36ZM17.91,13.12s0,0,0,0h1.36s0,0,0,0c0,0,0,0,0,0,0,0,0,0,0,0,0,0,0,0,0,0h-1.36s0,0,0,0c0,0,0,0,0,0,0,0,0,0,0,0Z"/>
  <path class="w" d="M17.91,13.15s-.04-.02-.04-.04.02-.04.04-.04h1.36s.04.02.04.04-.02.04-.04.04h-1.36Z"/>
  <path class="s" d="M18.38,13.87c0-.15.04-.25.08-.31.04-.07.09-.1.12-.12h0s0,0,0,0c.03.02.08.05.12.12.04.06.08.16.08.31h-.03c0-.14-.03-.23-.07-.29-.03-.05-.08-.08-.11-.1-.03.02-.07.05-.11.1-.04.06-.07.15-.07.29h-.03Z"/>
  <path class="s" d="M18.22,13.87c0-.22.06-.36.14-.46h0c.07-.1.16-.14.22-.17h0s0,0,0,0c.06.03.14.08.22.17h0c.07.09.13.24.14.46h-.03c0-.21-.06-.35-.13-.44h0c-.07-.09-.14-.13-.2-.16-.05.03-.13.07-.2.16h0c-.07.09-.13.23-.13.44h-.03Z"/>
  <path class="s" d="M17.96,13.3s-.04,0-.05-.02c-.01-.01-.02-.03-.02-.05s0-.04.02-.05c.01-.01.03-.02.05-.02h1.26s.04,0,.05.02c.01.01.02.03.02.05s0,.04-.02.05c-.01.01-.03.02-.05.02h-1.26ZM17.95,13.23s0,0,0,0h1.26s0,0,0,0c0,0,0,0,0,0,0,0,0,0,0,0,0,0,0,0,0,0h-1.26s0,0,0,0c0,0,0,0,0,0,0,0,0,0,0,0Z"/>
  <path class="w" d="M17.96,13.26s-.04-.02-.04-.04.02-.04.04-.04h1.26s.04.02.04.04-.02.04-.04.04h-1.26Z"/>
  <path class="s" d="M17.89,13.96s-.04,0-.05-.02c-.01-.01-.02-.03-.02-.05s0-.04.02-.05c.01-.01.03-.02.05-.02h1.39s.04,0,.05.02.02.03.02.05,0,.04-.02.05c-.01.01-.03.02-.05.02h-1.39ZM17.89,13.89s0,0,0,0h1.39s0,0,0,0c0,0,0,0,0,0,0,0,0,0,0,0,0,0,0,0,0,0h-1.39s0,0,0,0c0,0,0,0,0,0,0,0,0,0,0,0Z"/>
  <path class="w" d="M17.89,13.93s-.04-.02-.04-.04.02-.04.04-.04h1.39s.04.02.04.04-.02.04-.04.04h-1.39Z"/>
  <path class="s" d="M14.54,13.28h-.58l-.06.56h1.22l-.06-.56h-.52ZM14.48,13.2h.64v.03s.07.64.07.64v.04s-.04,0-.04,0h-1.35v-.04s.08-.64.08-.64v-.03h.59Z"/>
  <polygon class="r" points="14.54 13.24 14.48 13.24 13.93 13.24 13.86 13.88 14.48 13.88 14.54 13.88 15.16 13.88 15.09 13.24 14.54 13.24"/>
  <path class="s" d="M14.39,12.55l-.02.53h.29l-.02-.53h-.24ZM14.29,13.11l.03-.6v-.04s.04,0,.04,0h.35v.04s.03.6.03.6v.04s-.04,0-.04,0h-.41v-.04Z"/>
  <path class="r" d="M14.35,12.51l-.03.6h.37l-.03-.6h-.31Z"/>
  <path class="o" d="M14.51,12.7h0s.05.02.05.05v.12h-.1v-.12s.02-.05.05-.05Z"/>
  <path class="s" d="M14.26,12.23h.13v.07h.01v-.07h.2v.07h.01v-.07h.17v.28h-.56v-.28h.03ZM14.33,12.3h-.04v.15h.43v-.15h-.04v.07h-.14v-.07h-.07v.07h-.15v-.07Z"/>
  <polygon class="r" points="14.26 12.26 14.36 12.26 14.36 12.34 14.44 12.34 14.44 12.26 14.58 12.26 14.58 12.34 14.66 12.34 14.66 12.26 14.76 12.26 14.76 12.47 14.26 12.47 14.26 12.26"/>
  <path class="s" d="M13.97,12.76l-.02.38h.21l-.02-.38h-.18ZM13.9,13.17l.02-.44v-.03h.28v.03s.02.44.02.44v.03s-.03,0-.03,0h-.3v-.03Z"/>
  <path class="r" d="M13.94,12.73l-.02.44h.27l-.02-.44h-.23Z"/>
  <path class="o" d="M14.06,12.87h0s.04.02.04.04v.08h-.07v-.08s.02-.04.04-.04Z"/>
  <path class="s" d="M13.88,12.53h.1v.05h.01v-.05h.15v.05h.01v-.05h.12v.2h-.41v-.2h.02ZM13.93,12.57h-.03v.11h.32v-.11h-.03v.05h-.11v-.05h-.05v.05h-.11v-.05Z"/>
  <polygon class="r" points="13.88 12.55 13.95 12.55 13.95 12.6 14.01 12.6 14.01 12.55 14.11 12.55 14.11 12.6 14.17 12.6 14.17 12.55 14.24 12.55 14.24 12.7 13.88 12.7 13.88 12.55"/>
  <path class="s" d="M14.86,12.76l-.02.38h.21l-.02-.38h-.18ZM14.79,13.17l.02-.44v-.03h.28v.03s.02.44.02.44v.03s-.03,0-.03,0h-.3v-.03Z"/>
  <path class="r" d="M14.83,12.73l-.02.44h.27l-.02-.44h-.23Z"/>
  <path class="o" d="M14.95,12.87h0s.04.02.04.04v.08h-.07v-.08s.02-.04.04-.04Z"/>
  <path class="s" d="M14.77,12.53h.1v.05h.01v-.05h.15v.05h.01v-.05h.12v.2h-.41v-.2h.02ZM14.82,12.57h-.03v.11h.32v-.11h-.03v.05h-.11v-.05h-.05v.05h-.11v-.05Z"/>
  <polygon class="r" points="14.77 12.55 14.84 12.55 14.84 12.6 14.9 12.6 14.9 12.55 15 12.55 15 12.6 15.06 12.6 15.06 12.55 15.13 12.55 15.13 12.7 14.77 12.7 14.77 12.55"/>
  <path class="s" d="M13.83,13.19s-.04,0-.05-.02c-.01-.01-.02-.03-.02-.05s0-.04.02-.05c.01-.01.03-.02.05-.02h1.36s.04,0,.05.02c.01.01.02.03.02.05s0,.04-.02.05c-.01.01-.03.02-.05.02h-1.36ZM13.83,13.12s0,0,0,0h1.36s0,0,0,0c0,0,0,0,0,0,0,0,0,0,0,0,0,0,0,0,0,0h-1.36s0,0,0,0,0,0,0,0c0,0,0,0,0,0Z"/>
  <path class="w" d="M13.83,13.15s-.04-.02-.04-.04.02-.04.04-.04h1.36s.04.02.04.04-.02.04-.04.04h-1.36Z"/>
  <path class="s" d="M14.3,13.87c0-.15.04-.25.08-.31.04-.07.09-.1.12-.12h0s0,0,0,0c.03.02.08.05.12.12.04.06.08.16.08.31h-.03c0-.14-.03-.23-.07-.29-.03-.05-.08-.08-.11-.1-.03.02-.07.05-.11.1-.04.06-.07.15-.07.29h-.03Z"/>
  <path class="s" d="M14.15,13.87c0-.22.06-.36.14-.46h0c.07-.1.16-.14.22-.17h0s0,0,0,0c.06.03.14.08.22.17h0c.07.09.13.24.14.46h-.03c0-.21-.06-.35-.13-.44h0c-.07-.09-.14-.13-.2-.16-.05.03-.13.07-.2.16h0c-.07.09-.13.23-.13.44h-.03Z"/>
  <path class="s" d="M13.88,13.3s-.04,0-.05-.02c-.01-.01-.02-.03-.02-.05s0-.04.02-.05c.01-.01.03-.02.05-.02h1.26s.04,0,.05.02c.01.01.02.03.02.05s0,.04-.02.05c-.01.01-.03.02-.05.02h-1.26ZM13.88,13.23s0,0,0,0h1.26s0,0,0,0c0,0,0,0,0,0,0,0,0,0,0,0,0,0,0,0,0,0h-1.26s0,0,0,0c0,0,0,0,0,0,0,0,0,0,0,0Z"/>
  <path class="w" d="M13.88,13.26s-.04-.02-.04-.04.02-.04.04-.04h1.26s.04.02.04.04-.02.04-.04.04h-1.26Z"/>
  <path class="s" d="M13.81,13.96s-.04,0-.05-.02c-.01-.01-.02-.03-.02-.05s0-.04.02-.05c.01-.01.03-.02.05-.02h1.39s.04,0,.05.02c.01.01.02.03.02.05s0,.04-.02.05c-.01.01-.03.02-.05.02h-1.39ZM13.81,13.89s0,0,0,0h1.39s0,0,0,0c0,0,0,0,0,0,0,0,0,0,0,0,0,0,0,0,0,0h-1.39s0,0,0,0c0,0,0,0,0,0,0,0,0,0,0,0Z"/>
  <path class="w" d="M13.81,13.93s-.04-.02-.04-.04.02-.04.04-.04h1.39s.04.02.04.04-.02.04-.04.04h-1.39Z"/>
  <path class="s" d="M22.68,13.28h-.58l-.06.56h1.22l-.06-.56h-.52ZM22.62,13.2h.64v.03s.08.64.08.64v.04s-.04,0-.04,0h-1.35v-.04s.08-.64.08-.64v-.03h.59Z"/>
  <polygon class="r" points="22.68 13.24 22.62 13.24 22.07 13.24 22 13.88 22.62 13.88 22.68 13.88 23.3 13.88 23.23 13.24 22.68 13.24"/>
  <path class="s" d="M22.53,12.55l-.02.53h.29l-.02-.53h-.24ZM22.43,13.11l.03-.6v-.04s.04,0,.04,0h.35v.04s.03.6.03.6v.04s-.04,0-.04,0h-.41v-.04Z"/>
  <path class="r" d="M22.49,12.51l-.03.6h.37l-.03-.6h-.31Z"/>
  <path class="o" d="M22.65,12.7h0s.05.02.05.05v.12h-.1v-.12s.02-.05.05-.05Z"/>
  <path class="s" d="M22.4,12.23h.13v.07h.02v-.07h.2v.07h.01v-.07h.17v.28h-.56v-.28h.03ZM22.47,12.3h-.04v.15h.43v-.15h-.04v.07h-.14v-.07h-.07v.07h-.14v-.07Z"/>
  <polygon class="r" points="22.4 12.26 22.5 12.26 22.5 12.34 22.58 12.34 22.58 12.26 22.72 12.26 22.72 12.34 22.8 12.34 22.8 12.26 22.9 12.26 22.9 12.47 22.4 12.47 22.4 12.26"/>
  <path class="s" d="M22.11,12.76l-.02.38h.21l-.02-.38h-.18ZM22.04,13.17l.02-.44v-.03h.28v.03s.02.44.02.44v.03s-.03,0-.03,0h-.3v-.03Z"/>
  <path class="r" d="M22.09,12.73l-.02.44h.27l-.02-.44h-.23Z"/>
  <path class="o" d="M22.2,12.87h0s.04.02.04.04v.08h-.07v-.08s.02-.04.04-.04Z"/>
  <path class="s" d="M22.02,12.53h.1v.05h.01v-.05h.15v.05h.01v-.05h.12v.2h-.41v-.2h.02ZM22.07,12.57h-.03v.11h.32v-.11h-.03v.05h-.11v-.05h-.05v.05h-.11v-.05Z"/>
  <polygon class="r" points="22.02 12.55 22.09 12.55 22.09 12.6 22.15 12.6 22.15 12.55 22.25 12.55 22.25 12.6 22.31 12.6 22.31 12.55 22.38 12.55 22.38 12.7 22.02 12.7 22.02 12.55"/>
  <path class="s" d="M23,12.76l-.02.38h.21l-.02-.38h-.18ZM22.93,13.17l.02-.44v-.03h.28v.03s.02.44.02.44v.03s-.03,0-.03,0h-.3v-.03Z"/>
  <path class="r" d="M22.97,12.73l-.02.44h.27l-.02-.44h-.23Z"/>
  <path class="o" d="M23.09,12.87h0s.04.02.04.04v.08h-.07v-.08s.02-.04.04-.04Z"/>
  <path class="s" d="M22.91,12.53h.1v.05h.01v-.05h.15v.05h.01v-.05h.12v.2h-.41v-.2h.02ZM22.96,12.57h-.03v.11h.32v-.11h-.03v.05h-.11v-.05h-.05v.05h-.11v-.05Z"/>
  <polygon class="r" points="22.91 12.55 22.98 12.55 22.98 12.6 23.04 12.6 23.04 12.55 23.14 12.55 23.14 12.6 23.2 12.6 23.2 12.55 23.27 12.55 23.27 12.7 22.91 12.7 22.91 12.55"/>
  <path class="s" d="M21.97,13.19s-.04,0-.05-.02-.02-.03-.02-.05,0-.04.02-.05c.01-.01.03-.02.05-.02h1.36s.04,0,.05.02c.01.01.02.03.02.05s0,.04-.02.05c-.01.01-.03.02-.05.02h-1.36ZM21.97,13.12s0,0,0,0h1.36s0,0,0,0c0,0,0,0,0,0,0,0,0,0,0,0,0,0,0,0,0,0h-1.36s0,0,0,0c0,0,0,0,0,0,0,0,0,0,0,0Z"/>
  <path class="w" d="M21.97,13.15s-.04-.02-.04-.04.02-.04.04-.04h1.36s.04.02.04.04-.02.04-.04.04h-1.36Z"/>
  <path class="s" d="M22.44,13.87c0-.15.04-.25.08-.31.04-.07.09-.1.12-.12h0s0,0,0,0c.03.02.08.05.12.12.04.06.08.16.08.31h-.03c0-.14-.03-.23-.07-.29-.03-.05-.08-.08-.11-.1-.03.02-.07.05-.11.1-.04.06-.07.15-.07.29h-.03Z"/>
  <path class="s" d="M22.29,13.87c0-.22.06-.36.14-.46h0c.07-.1.16-.14.22-.17h0s0,0,0,0c.06.03.14.08.22.17h0c.07.09.13.24.14.46h-.03c0-.21-.06-.35-.13-.44h0c-.07-.09-.14-.13-.2-.16-.05.03-.13.07-.2.16h0c-.07.09-.13.23-.13.44h-.03Z"/>
  <path class="s" d="M22.02,13.3s-.04,0-.05-.02c-.01-.01-.02-.03-.02-.05s0-.04.02-.05.03-.02.05-.02h1.26s.04,0,.05.02c.01.01.02.03.02.05s0,.04-.02.05-.03.02-.05.02h-1.26ZM22.02,13.23s0,0,0,0h1.26s0,0,0,0c0,0,0,0,0,0,0,0,0,0,0,0,0,0,0,0,0,0h-1.26s0,0,0,0c0,0,0,0,0,0,0,0,0,0,0,0Z"/>
  <path class="w" d="M22.02,13.26s-.04-.02-.04-.04.02-.04.04-.04h1.26s.04.02.04.04-.02.04-.04.04h-1.26Z"/>
  <path class="s" d="M21.95,13.96s-.04,0-.05-.02c-.01-.01-.02-.03-.02-.05s0-.04.02-.05.03-.02.05-.02h1.39s.04,0,.05.02.02.03.02.05,0,.04-.02.05c-.01.01-.03.02-.05.02h-1.39ZM21.95,13.89s0,0,0,0h1.39s0,0,0,0c0,0,0,0,0,0,0,0,0,0,0,0,0,0,0,0,0,0h-1.39s0,0,0,0c0,0,0,0,0,0,0,0,0,0,0,0Z"/>
  <path class="w" d="M21.95,13.93s-.04-.02-.04-.04.02-.04.04-.04h1.39s.04.02.04.04-.02.04-.04.04h-1.39Z"/>
  <path class="s" d="M14.54,17.08h-.58l-.06.56h1.22l-.06-.56h-.52ZM14.48,17.01h.64v.03s.07.64.07.64v.04s-.04,0-.04,0h-1.35v-.04s.08-.64.08-.64v-.03h.59Z"/>
  <polygon class="r" points="14.54 17.04 14.48 17.04 13.93 17.04 13.86 17.68 14.48 17.68 14.54 17.68 15.16 17.68 15.09 17.04 14.54 17.04"/>
  <path class="s" d="M14.39,16.36l-.02.53h.29l-.02-.53h-.24ZM14.29,16.92l.03-.6v-.04s.04,0,.04,0h.35v.04s.03.6.03.6v.04s-.04,0-.04,0h-.41v-.04Z"/>
  <path class="r" d="M14.35,16.32l-.03.6h.37l-.03-.6h-.31Z"/>
  <path class="o" d="M14.51,16.51h0s.05.02.05.05v.12h-.1v-.12s.02-.05.05-.05Z"/>
  <path class="s" d="M14.26,16.04h.13v.07h.01v-.07h.2v.07h.01v-.07h.17v.28h-.56v-.28h.03ZM14.33,16.1h-.04v.15h.43v-.15h-.04v.07h-.14v-.07h-.07v.07h-.15v-.07Z"/>
  <polygon class="r" points="14.26 16.07 14.36 16.07 14.36 16.14 14.44 16.14 14.44 16.07 14.58 16.07 14.58 16.14 14.66 16.14 14.66 16.07 14.76 16.07 14.76 16.28 14.26 16.28 14.26 16.07"/>
  <path class="s" d="M13.97,16.56l-.02.38h.21l-.02-.38h-.18ZM13.9,16.98l.02-.44v-.03s.03,0,.03,0h.26v.03s.02.44.02.44v.03s-.03,0-.03,0h-.3v-.03Z"/>
  <path class="r" d="M13.94,16.54l-.02.44h.27l-.02-.44h-.23Z"/>
  <path class="o" d="M14.06,16.68h0s.04.02.04.04v.08h-.07v-.08s.02-.04.04-.04Z"/>
  <path class="s" d="M13.88,16.33h.1v.05h.01v-.05h.15v.05h.01v-.05h.12v.2h-.41v-.2h.02ZM13.93,16.38h-.03v.11h.32v-.11h-.03v.05h-.11v-.05h-.05v.05h-.11v-.05Z"/>
  <polygon class="r" points="13.88 16.36 13.95 16.36 13.95 16.41 14.01 16.41 14.01 16.36 14.11 16.36 14.11 16.41 14.17 16.41 14.17 16.36 14.24 16.36 14.24 16.51 13.88 16.51 13.88 16.36"/>
  <path class="s" d="M14.86,16.56l-.02.38h.21l-.02-.38h-.18ZM14.79,16.98l.02-.44v-.03s.03,0,.03,0h.26v.03s.02.44.02.44v.03s-.03,0-.03,0h-.3v-.03Z"/>
  <path class="r" d="M14.83,16.54l-.02.44h.27l-.02-.44h-.23Z"/>
  <path class="o" d="M14.95,16.68h0s.04.02.04.04v.08h-.07v-.08s.02-.04.04-.04Z"/>
  <path class="s" d="M14.77,16.33h.1v.05h.01v-.05h.15v.05h.01v-.05h.12v.2h-.41v-.2h.02ZM14.82,16.38h-.03v.11h.32v-.11h-.03v.05h-.11v-.05h-.05v.05h-.11v-.05Z"/>
  <polygon class="r" points="14.77 16.36 14.84 16.36 14.84 16.41 14.9 16.41 14.9 16.36 15 16.36 15 16.41 15.06 16.41 15.06 16.36 15.13 16.36 15.13 16.51 14.77 16.51 14.77 16.36"/>
  <path class="s" d="M13.83,16.99s-.04,0-.05-.02c-.01-.01-.02-.03-.02-.05s0-.04.02-.05c.01-.01.03-.02.05-.02h1.36s.04,0,.05.02c.01.01.02.03.02.05s0,.04-.02.05c-.01.01-.03.02-.05.02h-1.36ZM13.83,16.93s0,0,0,0h1.36s0,0,0,0c0,0,0,0,0,0,0,0,0,0,0,0,0,0,0,0,0,0h-1.36s0,0,0,0,0,0,0,0c0,0,0,0,0,0Z"/>
  <path class="w" d="M13.83,16.96s-.04-.02-.04-.04.02-.04.04-.04h1.36s.04.02.04.04-.02.04-.04.04h-1.36Z"/>
  <path class="s" d="M14.3,17.68c0-.15.04-.25.08-.31.04-.07.09-.1.12-.12h0s0,0,0,0c.03.02.08.05.12.12.04.06.08.16.08.31h-.03c0-.14-.03-.23-.07-.29-.03-.05-.08-.08-.11-.1-.03.02-.07.05-.11.1-.04.06-.07.15-.07.29h-.03Z"/>
  <path class="s" d="M14.15,17.68c0-.22.06-.36.14-.46h0c.07-.09.16-.14.22-.17h0s0,0,0,0c.06.03.14.08.22.17h0c.07.09.13.24.14.46h-.03c0-.21-.06-.35-.13-.44h0c-.07-.09-.14-.13-.2-.16-.05.03-.13.07-.2.16h0c-.07.09-.13.23-.13.44h-.03Z"/>
  <path class="s" d="M13.88,17.1s-.04,0-.05-.02c-.01-.01-.02-.03-.02-.05s0-.04.02-.05c.01-.01.03-.02.05-.02h1.26s.04,0,.05.02c.01.01.02.03.02.05s0,.04-.02.05c-.01.01-.03.02-.05.02h-1.26ZM13.88,17.04s0,0,0,0h1.26s0,0,0,0c0,0,0,0,0,0,0,0,0,0,0,0s0,0,0,0h-1.26s0,0,0,0c0,0,0,0,0,0,0,0,0,0,0,0Z"/>
  <path class="w" d="M13.88,17.07s-.04-.02-.04-.04.02-.04.04-.04h1.26s.04.02.04.04-.02.04-.04.04h-1.26Z"/>
  <path class="s" d="M13.81,17.77s-.04,0-.05-.02c-.01-.01-.02-.03-.02-.05s0-.04.02-.05c.01-.01.03-.02.05-.02h1.39s.04,0,.05.02c.01.01.02.03.02.05s0,.04-.02.05c-.01.01-.03.02-.05.02h-1.39ZM13.81,17.7s0,0,0,0h1.39s0,0,0,0c0,0,0,0,0,0,0,0,0,0,0,0,0,0,0,0,0,0h-1.39s0,0,0,0c0,0,0,0,0,0,0,0,0,0,0,0Z"/>
  <path class="w" d="M13.81,17.73s-.04-.02-.04-.04.02-.04.04-.04h1.39s.04.02.04.04-.02.04-.04.04h-1.39Z"/>
  <path class="s" d="M22.68,17.08h-.58l-.06.56h1.22l-.06-.56h-.52ZM22.62,17.01h.64v.03s.08.64.08.64v.04s-.04,0-.04,0h-1.35v-.04s.08-.64.08-.64v-.03h.59Z"/>
  <polygon class="r" points="22.68 17.04 22.62 17.04 22.07 17.04 22 17.68 22.62 17.68 22.68 17.68 23.3 17.68 23.23 17.04 22.68 17.04"/>
  <path class="s" d="M22.53,16.36l-.02.53h.29l-.02-.53h-.24ZM22.43,16.92l.03-.6v-.04s.04,0,.04,0h.35v.04s.03.6.03.6v.04s-.04,0-.04,0h-.41v-.04Z"/>
  <path class="r" d="M22.49,16.32l-.03.6h.37l-.03-.6h-.31Z"/>
  <path class="o" d="M22.65,16.51h0s.05.02.05.05v.12h-.1v-.12s.02-.05.05-.05Z"/>
  <path class="s" d="M22.4,16.04h.13v.07h.02v-.07h.2v.07h.01v-.07h.17v.28h-.56v-.28h.03ZM22.47,16.1h-.04v.15h.43v-.15h-.04v.07h-.14v-.07h-.07v.07h-.14v-.07Z"/>
  <polygon class="r" points="22.4 16.07 22.5 16.07 22.5 16.14 22.58 16.14 22.58 16.07 22.72 16.07 22.72 16.14 22.8 16.14 22.8 16.07 22.9 16.07 22.9 16.28 22.4 16.28 22.4 16.07"/>
  <path class="s" d="M22.11,16.56l-.02.38h.21l-.02-.38h-.18ZM22.04,16.98l.02-.44v-.03s.03,0,.03,0h.26v.03s.02.44.02.44v.03s-.03,0-.03,0h-.3v-.03Z"/>
  <path class="r" d="M22.09,16.54l-.02.44h.27l-.02-.44h-.23Z"/>
  <path class="o" d="M22.2,16.68h0s.04.02.04.04v.08h-.07v-.08s.02-.04.04-.04Z"/>
  <path class="s" d="M22.02,16.33h.1v.05h.01v-.05h.15v.05h.01v-.05h.12v.2h-.41v-.2h.02ZM22.07,16.38h-.03v.11h.32v-.11h-.03v.05h-.11v-.05h-.05v.05h-.11v-.05Z"/>
  <polygon class="r" points="22.02 16.36 22.09 16.36 22.09 16.41 22.15 16.41 22.15 16.36 22.25 16.36 22.25 16.41 22.31 16.41 22.31 16.36 22.38 16.36 22.38 16.51 22.02 16.51 22.02 16.36"/>
  <path class="s" d="M23,16.56l-.02.38h.21l-.02-.38h-.18ZM22.93,16.98l.02-.44v-.03s.03,0,.03,0h.26v.03s.02.44.02.44v.03s-.03,0-.03,0h-.3v-.03Z"/>
  <path class="r" d="M22.97,16.54l-.02.44h.27l-.02-.44h-.23Z"/>
  <path class="o" d="M23.09,16.68h0s.04.02.04.04v.08h-.07v-.08s.02-.04.04-.04Z"/>
  <path class="s" d="M22.91,16.33h.1v.05h.01v-.05h.15v.05h.01v-.05h.12v.2h-.41v-.2h.02ZM22.96,16.38h-.03v.11h.32v-.11h-.03v.05h-.11v-.05h-.05v.05h-.11v-.05Z"/>
  <polygon class="r" points="22.91 16.36 22.98 16.36 22.98 16.41 23.04 16.41 23.04 16.36 23.14 16.36 23.14 16.41 23.2 16.41 23.2 16.36 23.27 16.36 23.27 16.51 22.91 16.51 22.91 16.36"/>
  <path class="s" d="M21.97,16.99s-.04,0-.05-.02c-.01-.01-.02-.03-.02-.05s0-.04.02-.05c.01-.01.03-.02.05-.02h1.36s.04,0,.05.02c.01.01.02.03.02.05s0,.04-.02.05c-.01.01-.03.02-.05.02h-1.36ZM21.97,16.93s0,0,0,0h1.36s0,0,0,0c0,0,0,0,0,0,0,0,0,0,0,0,0,0,0,0,0,0h-1.36s0,0,0,0c0,0,0,0,0,0,0,0,0,0,0,0Z"/>
  <path class="w" d="M21.97,16.96s-.04-.02-.04-.04.02-.04.04-.04h1.36s.04.02.04.04-.02.04-.04.04h-1.36Z"/>
  <path class="s" d="M22.44,17.68c0-.15.04-.25.08-.31.04-.07.09-.1.12-.12h0s0,0,0,0c.03.02.08.05.12.12.04.06.08.16.08.31h-.03c0-.14-.03-.23-.07-.29-.03-.05-.08-.08-.11-.1-.03.02-.07.05-.11.1-.04.06-.07.15-.07.29h-.03Z"/>
  <path class="s" d="M22.29,17.68c0-.22.06-.36.14-.46h0c.07-.09.16-.14.22-.17h0s0,0,0,0c.06.03.14.08.22.17h0c.07.09.13.24.14.46h-.03c0-.21-.06-.35-.13-.44h0c-.07-.09-.14-.13-.2-.16-.05.03-.13.07-.2.16h0c-.07.09-.13.23-.13.44h-.03Z"/>
  <path class="s" d="M22.02,17.1s-.04,0-.05-.02c-.01-.01-.02-.03-.02-.05s0-.04.02-.05c.01-.01.03-.02.05-.02h1.26s.04,0,.05.02c.01.01.02.03.02.05s0,.04-.02.05c-.01.01-.03.02-.05.02h-1.26ZM22.02,17.04s0,0,0,0h1.26s0,0,0,0c0,0,0,0,0,0,0,0,0,0,0,0,0,0,0,0,0,0h-1.26s0,0,0,0,0,0,0,0c0,0,0,0,0,0Z"/>
  <path class="w" d="M22.02,17.07s-.04-.02-.04-.04.02-.04.04-.04h1.26s.04.02.04.04-.02.04-.04.04h-1.26Z"/>
  <path class="s" d="M21.95,17.77s-.04,0-.05-.02-.02-.03-.02-.05,0-.04.02-.05.03-.02.05-.02h1.39s.04,0,.05.02.02.03.02.05,0,.04-.02.05-.03.02-.05.02h-1.39ZM21.95,17.7s0,0,0,0h1.39s0,0,0,0c0,0,0,0,0,0,0,0,0,0,0,0,0,0,0,0,0,0h-1.39s0,0,0,0c0,0,0,0,0,0,0,0,0,0,0,0Z"/>
  <path class="w" d="M21.95,17.73s-.04-.02-.04-.04.02-.04.04-.04h1.39s.04.02.04.04-.02.04-.04.04h-1.39Z"/>
  <path class="s" d="M15.31,21.15l-.05.04-.41.31.29.49.46-.35.05-.04.46-.35-.39-.41-.41.31h0ZM15.21,21.12l.05-.03.44-.33.03-.02.02.02.44.47.03.03-.03.03-.5.38-.05.04-.5.38-.03.03-.02-.04-.33-.55-.02-.03.03-.02.44-.33Z"/>
  <polygon class="r" points="15.28 21.12 15.24 21.15 14.8 21.49 15.13 22.04 15.62 21.66 15.67 21.63 16.17 21.25 15.72 20.79 15.28 21.12"/>
  <path class="s" d="M14.75,20.66l.3.43.09-.07h.01s.13-.11.13-.11l-.34-.4-.19.15h0ZM15.01,21.17l-.34-.5-.02-.03.03-.02.25-.19.03-.02.02.03.39.46.03.03-.03.02-.16.12h-.01s-.12.1-.12.1l-.03.02-.02-.03Z"/>
  <path class="r" d="M14.7,20.65l.34.5.12-.09h.01s.16-.13.16-.13l-.39-.46c-.07.05-.18.14-.25.19Z"/>
  <path class="o" d="M14.94,20.71h0s.05-.01.07,0l.07.09-.08.06-.07-.09s-.01-.05,0-.07Z"/>
  <path class="s" d="M14.45,20.49l.08-.06.03-.02.02.03.02.03h.01s-.02-.04-.02-.04l-.02-.03.03-.02.11-.08.03-.02.02.03.02.03h.01s-.02-.04-.02-.04l-.02-.03.03-.02.08-.06.03-.02.02.03.13.17.02.03-.03.02-.4.3-.03.02-.02-.03-.13-.17-.02-.03.03-.02h0ZM14.55,20.5l-.03.02.09.12.35-.26-.09-.12-.03.02.02.03.02.03-.03.02-.06.05-.03.02-.02-.03-.02-.03-.06.04.02.03.02.03-.03.02-.06.05-.03.02-.02-.03-.02-.03Z"/>
  <polygon class="r" points="14.47 20.51 14.56 20.45 14.6 20.51 14.66 20.46 14.62 20.4 14.73 20.32 14.77 20.38 14.83 20.33 14.79 20.27 14.87 20.21 15 20.38 14.6 20.68 14.47 20.51"/>
  <path class="s" d="M14.54,21.08l.22.32.07-.05h.01s.09-.08.09-.08l-.25-.3-.14.11h0ZM14.73,21.45l-.25-.36v-.02s0-.02,0-.02l.18-.14.02-.02.02.02.28.34.02.02-.02.02-.12.09h0s-.09.07-.09.07l-.02.02-.02-.02Z"/>
  <path class="r" d="M14.5,21.08l.25.36.09-.07h0s.12-.1.12-.1l-.28-.34c-.05.04-.13.1-.18.14Z"/>
  <path class="o" d="M14.68,21.12h0s.04,0,.05,0l.05.07-.06.04-.05-.07s0-.04,0-.05Z"/>
  <path class="s" d="M14.33,20.95l.06-.04h.02s.01,0,.01,0l.02.02h0s-.02-.03-.02-.03v-.02s0-.01,0-.01l.08-.06h.02s.01,0,.01,0l.02.02h0s-.02-.03-.02-.03v-.02s0-.01,0-.01l.06-.04h.02s.01,0,.01,0l.09.12v.02s0,.01,0,.01l-.29.22h-.02s-.01,0-.01,0l-.09-.12v-.02s0-.01,0-.01h0ZM14.39,20.96l-.02.02.06.08.25-.19-.06-.08-.02.02.02.02v.02s0,.01,0,.01l-.05.04h-.02s-.01,0-.01,0l-.02-.02-.04.03.02.02v.02s0,.01,0,.01l-.05.04h-.02s-.01,0-.01,0l-.02-.02Z"/>
  <polygon class="r" points="14.34 20.97 14.4 20.93 14.43 20.97 14.48 20.93 14.45 20.89 14.52 20.83 14.56 20.87 14.6 20.84 14.57 20.8 14.63 20.75 14.72 20.87 14.43 21.09 14.34 20.97"/>
  <path class="s" d="M15.25,20.54l.22.32.07-.05h.01s.09-.08.09-.08l-.25-.3-.14.11h0ZM15.44,20.92l-.25-.36v-.02s0-.02,0-.02l.18-.14.02-.02.02.02.28.34.02.02-.02.02-.12.09h0s-.09.07-.09.07l-.02.02-.02-.02Z"/>
  <path class="r" d="M15.21,20.54l.25.36.09-.07h0s.12-.1.12-.1l-.28-.34c-.05.04-.13.1-.18.14Z"/>
  <path class="o" d="M15.39,20.58h0s.04,0,.05,0l.05.07-.06.04-.05-.07s0-.04,0-.05Z"/>
  <path class="s" d="M15.03,20.42l.06-.04h.02s.01,0,.01,0l.02.02h0s-.02-.03-.02-.03v-.02s0-.01,0-.01l.08-.06h.02s.01,0,.01,0l.02.02h0s-.02-.03-.02-.03v-.02s0-.01,0-.01l.06-.04h.02s.01,0,.01,0l.09.12v.02s0,.01,0,.01l-.29.22h-.02s-.01,0-.01,0l-.09-.12v-.02s0-.01,0-.01h0ZM15.1,20.42l-.02.02.06.08.25-.19-.06-.08-.02.02.02.02v.02s0,.01,0,.01l-.05.04h-.02s-.01,0-.01,0l-.02-.02-.04.03.02.02v.02s0,.01,0,.01l-.05.04h-.02s-.01,0-.01,0l-.02-.02Z"/>
  <polygon class="r" points="15.05 20.43 15.11 20.39 15.14 20.43 15.19 20.4 15.15 20.35 15.23 20.29 15.26 20.34 15.31 20.3 15.28 20.26 15.34 20.21 15.43 20.34 15.14 20.56 15.05 20.43"/>
  <path class="s" d="M14.69,21.5s-.03.02-.05.01c-.02,0-.04-.01-.05-.03s-.02-.03-.01-.05c0-.02.01-.03.03-.05l1.08-.82s.03-.02.05-.01c.02,0,.03.01.05.03.01.02.02.03.01.05s-.01.03-.03.05l-1.08.82h0ZM14.64,21.45s0,0,0,0l1.08-.82s0,0,0,0c0,0,0,0,0,0,0,0,0,0,0,0,0,0,0,0,0,0l-1.08.82s0,0,0,0c0,0,0,0,0,0,0,0,0,0,0,0Z"/>
  <path class="w" d="M14.67,21.48s-.04,0-.05,0c-.01-.02,0-.04,0-.05l1.08-.82s.04,0,.05,0c.01.02,0,.04,0,.05l-1.08.82Z"/>
  <path class="s" d="M15.47,21.77c-.09-.12-.12-.22-.12-.29,0-.08.01-.13.03-.17h0s0-.01,0-.01c.04,0,.1,0,.17.02.07.03.16.08.25.2l-.03.02c-.09-.11-.17-.16-.23-.19-.06-.02-.11-.02-.15-.02-.01.03-.03.08-.02.15,0,.07.03.16.12.28l-.03.02Z"/>
  <path class="s" d="M15.35,21.86c-.13-.18-.17-.33-.17-.45h0c0-.12.04-.21.07-.27h0s0,0,0,0c.06,0,.16-.02.28,0h0c.12.03.25.11.39.28l-.03.02c-.13-.17-.26-.24-.37-.27h0c-.1-.03-.19-.02-.25,0-.03.06-.06.14-.06.25h0c0,.11.04.26.16.43l-.03.02Z"/>
  <path class="s" d="M14.79,21.57s-.03.02-.05.01c-.02,0-.03-.01-.05-.03-.01-.02-.02-.03-.01-.05,0-.02.01-.03.03-.05l1.01-.76s.03-.02.05-.01c.02,0,.03.01.05.03.01.02.02.03.01.05,0,.02-.01.03-.03.05l-1.01.76h0ZM14.75,21.51s0,0,0,0l1.01-.76s0,0,0,0c0,0,0,0,0,0,0,0,0,0,0,0,0,0,0,0,0,0l-1.01.76s0,0,0,0c0,0,0,0,0,0,0,0,0,0,0,0Z"/>
  <path class="w" d="M14.77,21.54s-.04,0-.05,0c-.01-.02,0-.04,0-.05l1.01-.76s.04,0,.05,0c.01.02,0,.04,0,.05l-1.01.76Z"/>
  <path class="s" d="M15.14,22.13s-.03.02-.05.01c-.02,0-.03-.01-.05-.03-.01-.02-.02-.03-.01-.05,0-.02.01-.03.03-.05l1.11-.84s.03-.02.05-.01c.02,0,.04.01.05.03.01.02.02.03.01.05,0,.02-.01.04-.03.05l-1.11.84h0ZM15.1,22.08s0,0,0,0l1.11-.84s0,0,0,0c0,0,0,0,0,0,0,0,0,0,0,0,0,0,0,0,0,0l-1.11.84s0,0,0,0c0,0,0,0,0,0,0,0,0,0,0,0Z"/>
  <path class="w" d="M15.12,22.11s-.04,0-.05,0c-.01-.02,0-.04,0-.05l1.11-.84s.04,0,.05,0c.01.02,0,.04,0,.05l-1.11.84Z"/>
  <path class="s" d="M21.82,21.15l.05.04.41.31-.29.49-.46-.35-.05-.04-.46-.35.39-.41.41.31h0ZM21.92,21.12l-.05-.03-.44-.33-.03-.02-.02.02-.44.47-.03.03.03.03.5.38.05.04.5.38.03.03.02-.04.33-.55.02-.03-.03-.02-.44-.33Z"/>
  <polygon class="r" points="21.85 21.12 21.89 21.15 22.33 21.49 22.01 22.04 21.51 21.66 21.46 21.63 20.97 21.25 21.41 20.79 21.85 21.12"/>
  <path class="s" d="M22.38,20.66l-.3.43-.09-.07h-.01s-.13-.11-.13-.11l.34-.4.19.15h0ZM22.12,21.17l.34-.5.02-.03-.03-.02-.25-.19-.03-.02-.02.03-.39.46-.03.03.03.02.16.12h.01s.12.1.12.1l.03.02.02-.03Z"/>
  <path class="r" d="M22.43,20.65l-.34.5-.12-.09h-.01s-.16-.13-.16-.13l.39-.46c.07.05.18.14.25.19Z"/>
  <path class="o" d="M22.19,20.71h0s-.05-.01-.07,0l-.07.09.08.06.07-.09s.01-.05,0-.07Z"/>
  <path class="s" d="M22.68,20.49l-.08-.06-.03-.02-.02.03-.02.03h-.01s.02-.04.02-.04l.02-.03-.03-.02-.11-.08-.03-.02-.02.03-.02.03h-.01s.02-.04.02-.04l.02-.03-.03-.02-.08-.06-.03-.02-.02.03-.13.17-.02.03.03.02.4.3.03.02.02-.03.13-.17.02-.03-.03-.02h0ZM22.58,20.5l.03.02-.09.12-.35-.26.09-.12.03.02-.02.03-.02.03.03.02.06.05.03.02.02-.03.02-.03.06.04-.02.03-.02.03.03.02.06.05.03.02.02-.03.02-.03Z"/>
  <polygon class="r" points="22.66 20.51 22.58 20.45 22.53 20.51 22.47 20.46 22.51 20.4 22.4 20.32 22.36 20.38 22.3 20.33 22.34 20.27 22.26 20.21 22.13 20.38 22.53 20.68 22.66 20.51"/>
  <path class="s" d="M22.59,21.08l-.22.32-.07-.05h-.01s-.09-.08-.09-.08l.25-.3.14.11h0ZM22.4,21.45l.25-.36.02-.02-.02-.02-.18-.14-.02-.02-.02.02-.28.34-.02.02.02.02.12.09h0s.09.07.09.07l.02.02.02-.02Z"/>
  <path class="r" d="M22.63,21.08l-.25.36-.09-.07h-.01s-.12-.1-.12-.1l.28-.34c.05.04.13.1.18.14Z"/>
  <path class="o" d="M22.45,21.12h0s-.04,0-.05,0l-.05.07.06.04.05-.07s0-.04,0-.05Z"/>
  <path class="s" d="M22.81,20.95l-.06-.04h-.02s-.01,0-.01,0l-.02.02h0s.02-.03.02-.03v-.02s0-.01,0-.01l-.08-.06h-.02s-.01,0-.01,0l-.02.02h0s.02-.03.02-.03v-.02s0-.01,0-.01l-.06-.04h-.02s-.01,0-.01,0l-.09.12v.02s0,.01,0,.01l.29.22h.02s.01,0,.01,0l.09-.12v-.02s0-.01,0-.01h0ZM22.74,20.96l.02.02-.06.08-.25-.19.06-.08.02.02-.02.02v.02s0,.01,0,.01l.05.04h.02s.01,0,.01,0l.02-.02.04.03-.02.02v.02s0,.01,0,.01l.05.04h.02s.01,0,.01,0l.02-.02Z"/>
  <polygon class="r" points="22.79 20.97 22.73 20.93 22.7 20.97 22.65 20.93 22.69 20.89 22.61 20.83 22.57 20.87 22.53 20.84 22.56 20.8 22.5 20.75 22.41 20.87 22.7 21.09 22.79 20.97"/>
  <path class="s" d="M21.88,20.54l-.22.32-.07-.05h-.01s-.09-.08-.09-.08l.25-.3.14.11h0ZM21.69,20.92l.25-.36v-.02s0-.02,0-.02l-.18-.14-.02-.02-.02.02-.28.34-.02.02.02.02.12.09h0s.09.07.09.07l.02.02.02-.02Z"/>
  <path class="r" d="M21.92,20.54l-.25.36-.09-.07h-.01s-.12-.1-.12-.1l.28-.34c.05.04.13.1.18.14Z"/>
  <path class="o" d="M21.74,20.58h0s-.04,0-.05,0l-.05.07.06.04.05-.07s0-.04,0-.05Z"/>
  <path class="s" d="M22.1,20.42l-.06-.04h-.02s-.01,0-.01,0l-.02.02h0s.02-.03.02-.03v-.02s0-.01,0-.01l-.08-.06h-.02s-.01,0-.01,0l-.02.02h0s.02-.03.02-.03v-.02s0-.01,0-.01l-.06-.04h-.02s-.01,0-.01,0l-.09.12v.02s0,.01,0,.01l.29.22h.02s.01,0,.01,0l.09-.12v-.02s0-.01,0-.01h0ZM22.03,20.42l.02.02-.06.08-.25-.19.06-.08.02.02-.02.02v.02s0,.01,0,.01l.05.04h.02s.01,0,.01,0l.02-.02.04.03-.02.02v.02s0,.01,0,.01l.05.04h.02s.01,0,.01,0l.02-.02Z"/>
  <polygon class="r" points="22.08 20.43 22.02 20.39 21.99 20.43 21.95 20.4 21.98 20.35 21.9 20.29 21.87 20.34 21.82 20.3 21.85 20.26 21.79 20.21 21.7 20.34 21.99 20.56 22.08 20.43"/>
  <path class="s" d="M22.44,21.5s.03.02.05.01c.02,0,.03-.01.05-.03.01-.02.02-.03.01-.05,0-.02-.01-.03-.03-.05l-1.08-.82s-.03-.02-.05-.01c-.02,0-.04.01-.05.03-.01.02-.02.03-.01.05,0,.02.01.03.03.05l1.08.82h0ZM22.49,21.45s0,0,0,0l-1.08-.82s0,0,0,0,0,0,0,0c0,0,0,0,0,0,0,0,0,0,0,0l1.08.82s0,0,0,0c0,0,0,0,0,0,0,0,0,0,0,0Z"/>
  <path class="w" d="M22.46,21.48s.04,0,.05,0c.01-.02,0-.04,0-.05l-1.08-.82s-.04,0-.05,0c-.01.02,0,.04,0,.05l1.08.82Z"/>
  <path class="s" d="M21.66,21.77c.09-.12.12-.22.13-.29,0-.08-.01-.13-.03-.17h0s0-.01,0-.01c-.04,0-.1,0-.17.02-.07.03-.16.08-.25.2l.03.02c.09-.11.17-.16.24-.19.06-.02.11-.02.15-.02.01.03.03.08.02.15,0,.07-.04.16-.12.28l.03.02Z"/>
  <path class="s" d="M21.78,21.86c.13-.18.17-.33.17-.45h0c0-.12-.04-.21-.07-.27h0s0,0,0,0c-.06,0-.16-.02-.28,0h0c-.12.03-.25.11-.39.28l.03.02c.13-.17.26-.24.37-.27h0c.1-.03.19-.02.25,0,.03.06.06.14.06.25h0c0,.11-.04.26-.16.43l.03.02Z"/>
  <path class="s" d="M22.34,21.57s.03.02.05.01c.02,0,.03-.01.05-.03.01-.02.02-.03.01-.05,0-.02-.01-.03-.03-.05l-1.01-.76s-.03-.02-.05-.01c-.02,0-.03.01-.05.03-.01.02-.02.03-.01.05,0,.02.01.03.03.05l1.01.76h0ZM22.38,21.51s0,0,0,0l-1.01-.76s0,0,0,0c0,0,0,0,0,0,0,0,0,0,0,0,0,0,0,0,0,0l1.01.76s0,0,0,0c0,0,0,0,0,0,0,0,0,0,0,0Z"/>
  <path class="w" d="M22.36,21.54s.04,0,.05,0c.01-.02,0-.04,0-.05l-1.01-.76s-.04,0-.05,0c-.01.02,0,.04,0,.05l1.01.76Z"/>
  <path class="s" d="M21.99,22.13s.03.02.05.01c.02,0,.04-.01.05-.03.01-.02.02-.03.01-.05,0-.02-.01-.03-.03-.05l-1.11-.84s-.03-.02-.05-.01c-.02,0-.03.01-.05.03-.01.02-.02.03-.01.05,0,.02.01.04.03.05l1.11.84h0ZM22.03,22.08s0,0,0,0l-1.11-.84s0,0,0,0c0,0,0,0,0,0,0,0,0,0,0,0,0,0,0,0,0,0l1.11.84s0,0,0,0c0,0,0,0,0,0,0,0,0,0,0,0Z"/>
  <path class="w" d="M22.01,22.11s.04,0,.05,0c.01-.02,0-.04,0-.05l-1.11-.84s-.04,0-.05,0c-.01.02,0,.04,0,.05l1.11.84Z"/>
</svg>