<?xml version="1.0" encoding="UTF-8"?>
<svg id="a" data-name="Layer 1" xmlns="http://www.w3.org/2000/svg" viewBox="0 0 48 36">
  <defs>
    <style>
      .b {
        fill: #fff;
      }

      .b, .c, .d {
        fill-rule: evenodd;
      }

      .c {
        fill: #0132bf;
      }

      .d {
        fill: #f30004;
      }

      .e {
        fill: none;
        stroke: #5b5b5b;
        stroke-miterlimit: 10;
      }
    </style>
  </defs>
  <rect class="e" x=".03" y=".02" width="47.98" height="35.96"/>
  <polygon class="d" points=".03 35.98 48.01 35.98 48.01 .03 .03 .03 .03 35.98 .03 35.98"/>
  <polygon class="b" points=".03 14.41 48.01 14.41 48.01 7.22 .03 7.22 .03 14.41 .03 14.41"/>
  <polygon class="b" points=".03 28.79 48.01 28.79 48.01 21.6 .03 21.6 .03 28.79 .03 28.79"/>
  <polygon class="c" points=".03 .03 .03 35.98 31.16 18 .03 .03 .03 .03"/>
  <polygon class="b" points="10.4 12.61 9.19 16.34 5.28 16.34 8.44 18.64 7.23 22.37 10.4 20.06 13.58 22.37 12.37 18.64 15.53 16.34 11.62 16.34 10.4 12.61 10.4 12.61"/>
</svg>