<?xml version="1.0" encoding="UTF-8"?>
<svg id="a" data-name="Layer 1" xmlns="http://www.w3.org/2000/svg" viewBox="0 0 48 36">
  <defs>
    <style>
      .b, .c, .d {
        fill-rule: evenodd;
      }

      .b, .e {
        fill: #fff;
      }

      .c {
        fill: #0132bf;
      }

      .d, .f {
        fill: #f30004;
      }
    </style>
  </defs>
  <polygon class="c" points="-.02 0 23.99 0 48 0 48 36.01 23.99 36.01 -.02 36.01 -.02 0"/>
  <polygon class="e" points="48 31.55 29.93 18 48 4.45 48 0 42.06 0 23.99 13.55 5.92 0 -.02 0 -.02 4.45 18.05 18 -.02 31.55 -.02 36.01 5.92 36.01 23.99 22.46 42.06 36.01 48 36.01 48 31.55"/>
  <polygon class="f" points="48 34.34 26.22 18 48 1.67 48 0 45.78 0 23.99 16.33 2.21 0 -.02 0 -.02 1.67 21.76 18 -.02 34.34 -.02 36.01 2.21 36.01 23.99 19.67 45.78 36.01 48 36.01 48 34.34"/>
  <polygon class="b" points="20.02 0 23.99 0 27.96 0 27.96 12.05 48 12.05 48 23.95 27.96 23.95 27.96 36.01 23.99 36.01 20.02 36.01 20.02 23.95 -.02 23.95 -.02 12.05 20.02 12.05 20.02 0"/>
  <polygon class="d" points="26.47 0 26.47 14.29 48 14.29 48 21.72 26.47 21.72 26.47 36.01 23.99 36.01 21.51 36.01 21.51 21.72 -.02 21.72 -.02 14.29 21.51 14.29 21.51 0 23.99 0 26.47 0"/>
</svg>