<?xml version="1.0" encoding="UTF-8"?>
<svg id="a" data-name="Layer 1" xmlns="http://www.w3.org/2000/svg" viewBox="0 0 48 36">
  <defs>
    <style>
      .b {
        fill: #fff;
      }

      .c, .d {
        stroke: #793017;
        stroke-miterlimit: 22.93;
        stroke-width: .34px;
      }

      .c, .d, .e {
        fill: #fad007;
      }

      .c, .f, .e {
        fill-rule: evenodd;
      }

      .g {
        fill: #0132bf;
      }

      .f {
        fill: #793017;
      }
    </style>
  </defs>
  <rect class="b" x="0" y=".02" width="47.97" height="35.96"/>
  <rect class="g" x="17.76" y="4.1" width="30.2" height="3.97"/>
  <rect class="g" x="17.76" y="12.04" width="30.2" height="3.97"/>
  <rect class="g" x="0" y="19.98" width="47.97" height="3.97"/>
  <rect class="g" x="0" y="27.93" width="47.97" height="3.97"/>
  <g>
    <path class="c" d="M2.76,14.01c.25.01.52-.04.81-.2.31-.17.53-.35.75-.52.29-.23.58-.46,1.06-.65.63-.24,1.55-.59,2.02-.78-.16.44-.65,1.7-1.01,1.5-.44-.24-1.29-.15-2.08.32-.64.38-1.1.43-1.55.32h0ZM2.55,8.69c.17.18.39.34.71.43.34.1.62.13.9.16.37.04.73.08,1.21.29.61.27,1.51.67,1.98.88-.42.2-1.66.74-1.78.34-.14-.48-.81-1.02-1.7-1.24-.72-.18-1.09-.47-1.32-.87h0ZM15.6,13.51c-.17-.18-.39-.34-.71-.43-.34-.1-.62-.13-.9-.16-.37-.04-.73-.08-1.21-.29-.61-.27-1.52-.67-1.98-.88.43-.2,1.66-.74,1.78-.34.14.48.81,1.02,1.7,1.24.72.18,1.09.47,1.32.87h0ZM10.68,11.8h-.02s.75.79.75.79c.36.38,1.54.84,2.23.83.77,0,1.37-.22,1.87.17-.16-.17-.37-.32-.66-.41-.33-.1-.61-.13-.88-.16-.38-.04-.75-.08-1.24-.3-.62-.28-1.62-.72-2.06-.91h0ZM7.47,10.4h.02s-.75-.79-.75-.79c-.36-.38-1.54-.84-2.23-.83-.78,0-1.37.23-1.87-.17.16.17.37.32.66.41.33.1.61.13.88.16.38.04.75.08,1.24.3.62.28,1.62.72,2.06.91h0ZM6.17,4.79c-.12.44-.06.91.32,1.55.47.79.56,1.64.32,2.08-.19.36,1.06.85,1.5,1.01-.18-.47-.54-1.39-.78-2.02-.18-.49-.41-.77-.64-1.06-.17-.22-.35-.44-.52-.75-.16-.29-.21-.56-.2-.81h0ZM11.99,17.42c.12-.44.06-.91-.32-1.55-.46-.79-.55-1.64-.32-2.08.2-.36-1.06-.85-1.5-1.01.18.47.54,1.39.78,2.02.19.49.41.77.65,1.06.17.22.35.44.52.75.16.29.21.56.2.81h0ZM9.72,12.73h-.02s-.02,1.08-.02,1.08c0,.52.5,1.68.99,2.16.56.54,1.13.81,1.2,1.44,0-.23-.04-.49-.18-.76-.16-.3-.34-.52-.51-.74-.24-.3-.47-.59-.66-1.09-.24-.64-.64-1.66-.81-2.1h0ZM8.44,9.47h.02s.02-1.08.02-1.08c0-.52-.5-1.68-.99-2.16-.56-.54-1.13-.81-1.2-1.44,0,.23.04.49.18.76.16.3.34.52.51.74.24.3.47.59.66,1.09.24.64.64,1.66.81,2.1h0ZM11.48,4.58c-.18.17-.34.39-.43.71-.1.34-.13.62-.16.9-.04.37-.08.73-.29,1.21-.27.61-.67,1.51-.88,1.98-.2-.42-.74-1.66-.34-1.78.48-.14,1.02-.81,1.24-1.7.18-.72.47-1.09.87-1.32h0ZM6.67,17.62c.4-.23.69-.6.87-1.32.23-.89.77-1.55,1.24-1.7.39-.12-.15-1.35-.34-1.78-.2.46-.6,1.36-.88,1.98-.21.47-.25.84-.29,1.21-.03.28-.06.56-.16.9-.1.32-.25.54-.43.71h0ZM8.38,12.71v-.02s-.79.75-.79.75c-.38.36-.84,1.54-.83,2.23,0,.78.23,1.37-.17,1.87.17-.16.32-.37.41-.66.1-.33.13-.61.16-.88.04-.38.08-.75.3-1.24.28-.62.72-1.62.91-2.06h0ZM9.78,9.5v.02s.79-.75.79-.75c.38-.36.84-1.54.83-2.23,0-.78-.23-1.37.17-1.87-.17.16-.32.37-.41.66-.1.33-.13.61-.16.88-.04.38-.08.75-.3,1.24-.28.62-.72,1.62-.91,2.06h0ZM15.39,8.19c-.45-.12-.91-.06-1.55.32-.79.47-1.64.56-2.08.32-.36-.19-.85,1.06-1.01,1.5.47-.18,1.39-.54,2.02-.78.49-.19.77-.41,1.06-.65.22-.17.44-.35.75-.52.29-.16.56-.21.81-.2h0ZM10.71,10.46v.02s1.08.02,1.08.02c.52,0,1.68-.5,2.16-.99.54-.56.81-1.13,1.44-1.2-.23-.01-.49.04-.76.18-.3.16-.52.34-.74.51-.3.24-.59.47-1.09.66-.64.24-1.66.64-2.1.81h0ZM7.45,11.74v-.02s-1.08-.02-1.08-.02c-.52,0-1.68.5-2.16.99-.54.56-.81,1.13-1.44,1.2.23.01.49-.04.76-.18.3-.16.52-.34.74-.51.3-.24.59-.47,1.09-.66.64-.24,1.66-.64,2.1-.81Z"/>
    <path class="c" d="M13.92,15.71l-2.67-3.81,4.57-.8h-4.81v.72l-.48.48,3.4,3.4h0ZM2.45,11.11l4.55.79-2.62,3.84,3.42-3.42-.54-.54v-.68H2.45ZM7.26,11v-.72l.54-.54-3.42-3.42,2.6,3.81-4.55.86h4.83ZM11,11v-.76l-.48-.48,3.4-3.4-2.65,3.78,4.57.86h-4.83ZM9.04,4.34v4.81h-.65l-.52.52-3.4-3.4,3.77,2.65.8-4.58h0ZM10.44,12.38l3.42,3.42-3.85-2.63-.86,4.54v-4.83h.79l.5-.5h0ZM4.47,15.8l3.4-3.4.48.48h.68v4.81l-.79-4.54-3.77,2.65h0ZM9.15,9.15h.76l.54.54,3.42-3.42-3.85,2.62-.87-4.57v4.83Z"/>
    <circle class="d" cx="9.09" cy="11.01" r="2.33" transform="translate(-.56 .49) rotate(-3)"/>
    <path class="f" d="M7.46,10.47c.1-.06.19-.17.27-.21.2-.12.45-.15.67-.09.08.02.17.05.22.11.05.06.06.19.06.19,0,0-.2-.2-.26-.19,0,0,.05.23-.24.37,0,0,.14-.03.25-.1.1-.07.16-.09.18-.04.02.05-.1.15-.2.18-.1.03-.21.07-.34.04-.13-.03-.42-.23-.44-.27,0,0,.1.06.12.07,0,0-.06-.11.01-.2,0,0-.25.16-.3.14h0ZM9.08,12.67c.06,0,.19.02.21.04.02.02-.04.02-.08.02-.03,0-.24,0-.29,0-.04,0-.04-.03,0-.04.04,0,.08-.02.14-.02h0ZM8.07,11.91s-.13.1-.16.15c-.03.05-.08.16-.08.2l.11-.18s.41.19.49.23.31.18.63.16.44-.03.67-.15c.23-.12.51-.24.51-.24l.12.16s-.04-.13-.06-.17c-.02-.04-.16-.16-.16-.16l.1.14s-.15.03-.31-.02c-.16-.05-.37-.14-.46-.13-.09,0-.29.04-.37.04s-.23-.05-.33-.04c-.09,0-.44.14-.59.16-.14.02-.23,0-.23,0l.12-.16h0ZM8.74,11.17c-.11.04-.17.18-.18.23-.01.06-.05.1-.13.12-.07.02-.2.07-.24.2,0,0,.39-.2.55-.15.16.05.3.11.34.11.05,0,.19-.06.34-.11.16-.05.55.15.55.15-.04-.13-.17-.18-.24-.2-.07-.02-.11-.06-.13-.12-.01-.05-.08-.19-.18-.23,0,0,0,.03.01.05.02.03.1.09.06.19-.04.1-.22-.03-.22-.03.06.18-.2.16-.2.16,0,0-.26.02-.2-.16,0,0-.17.13-.22.03-.04-.1.03-.16.06-.19s.01-.05.01-.05h0ZM10.73,10.47c-.1-.06-.19-.17-.27-.21-.2-.12-.45-.15-.67-.09-.08.02-.17.05-.22.11-.05.06-.06.19-.06.19,0,0,.2-.2.26-.19,0,0-.05.23.24.37,0,0-.15-.03-.25-.1-.1-.07-.16-.09-.18-.04-.02.05.1.15.2.18.1.03.21.07.34.04.13-.03.42-.23.44-.27,0,0-.1.06-.12.07,0,0,.06-.11-.01-.2,0,0,.25.16.3.14h0ZM10.85,10.04c-.1.12-.16.05-.41-.06-.25-.11-.46-.02-.61-.03-.16,0-.39.26-.47.23-.08-.03.03-.09.12-.18.1-.09.37-.28.57-.3.2-.02.58.19.8.34h0ZM10.25,10.26l.13.04c.1.13.02.25.02.25-.05.04-.2.07-.2.07,0,0,.09-.11.11-.19s-.06-.18-.06-.18h0ZM7.34,10.04c.1.12.16.05.41-.06.25-.11.46-.02.61-.03.16,0,.39.26.47.23.08-.03-.03-.09-.12-.18-.1-.09-.37-.28-.57-.3-.2-.02-.58.19-.8.34h0ZM7.94,10.26l-.13.04c-.1.13-.02.25-.02.25.05.04.2.07.2.07,0,0-.09-.11-.11-.19-.02-.08.06-.18.06-.18Z"/>
    <path class="e" d="M8.38,12.17c.22-.02.48-.04.72-.04.24,0,.72.04.72.04,0,0-.45.14-.72.13-.27,0-.38-.04-.72-.13Z"/>
  </g>
</svg>