<?xml version="1.0" encoding="UTF-8"?>
<svg id="a" data-name="Layer 1" xmlns="http://www.w3.org/2000/svg" viewBox="0 0 48 36">
  <defs>
    <style>
      .b {
        fill: #fff;
      }

      .c {
        fill: #f30004;
      }

      .d {
        fill: #0132bf;
      }
    </style>
  </defs>
  <rect class="b" x=".03" y=".02" width="47.96" height="36"/>
  <path class="c" d="M.03,33.25h47.96v2.77H.03v-2.77H.03ZM.03.02h47.96v2.77H.03V.02H.03ZM.03,5.56h47.96v2.77H.03v-2.77H.03ZM.03,11.1h47.96v2.77H.03v-2.77H.03ZM.03,16.64h47.96v2.77H.03v-2.77H.03ZM.03,22.18h47.96v2.77H.03v-2.77H.03ZM.03,27.72h47.96v2.77H.03v-2.77Z"/>
  <rect class="d" x=".03" y=".02" width="27.16" height="19.38"/>
  <path class="b" d="M25.11,5.49l-.25-.77-.25.77h-.8l.65.47-.25.77.65-.47.65.47-.25-.77.65-.47h-.8ZM2.75,2.07l.65-.47h-.8l-.25-.77-.25.77h-.8l.65.47-.25.77.65-.47.65.47-.25-.77h0ZM7.25,2.07l.65-.47h-.8l-.25-.77-.25.77h-.8l.65.47-.25.77.65-.47.65.47-.25-.77h0ZM11.76,2.07l.65-.47h-.8l-.25-.77-.25.77h-.8l.65.47-.25.77.65-.47.65.47-.25-.77h0ZM16.26,2.07l.65-.47h-.8l-.25-.77-.25.77h-.8l.65.47-.25.77.65-.47.65.47-.25-.77h0ZM5.12,15.59l.65-.47h-.8l-.25-.77-.25.77h-.8l.65.47-.25.77.65-.47.65.47-.25-.77h0ZM4.72,15.46h0ZM5.03,11.81l.65-.47h-.8l-.25-.77-.25.77h-.8l.65.47-.25.77.65-.47.65.47-.25-.77h0ZM5.06,8.05l.65-.47h-.8l-.25-.77-.25.77h-.8l.65.47-.25.77.65-.47.65.47-.25-.77h0ZM20.76,2.07l.65-.47h-.8l-.25-.77-.25.77h-.8l.65.47-.25.77.65-.47.65.47-.25-.77h0ZM25.26,2.07l.65-.47h-.8l-.25-.77-.25.77h-.8l.65.47-.25.77.65-.47.65.47-.25-.77h0ZM9.56,8.05l.65-.47h-.8l-.25-.77-.25.77h-.8l.65.47-.25.77.65-.47.65.47-.25-.77h0ZM9.54,11.81l.65-.47h-.8l-.25-.77-.25.77h-.8l.65.47-.25.77.65-.47.65.47-.25-.77h0ZM9.62,15.59l.65-.47h-.8l-.25-.77-.25.77h-.8l.65.47-.25.77.65-.47.65.47-.25-.77h0ZM9.22,15.46h0,0ZM14.13,15.59l.65-.47h-.8l-.25-.77-.25.77h-.8l.65.47-.25.77.65-.47.65.47-.25-.77h0ZM14.04,11.81l.65-.47h-.8l-.25-.77-.25.77h-.8l.65.47-.25.77.65-.47.65.47-.25-.77h0ZM14.06,8.05l.65-.47h-.8l-.25-.77-.25.77h-.8l.65.47-.25.77.65-.47.65.47-.25-.77h0ZM5,4.02l.65-.47h-.8l-.25-.77-.25.77h-.8l.65.47-.25.77.65-.47.65.47-.25-.77h0ZM9.5,4.02l.65-.47h-.8l-.25-.77-.25.77h-.8l.65.47-.25.77.65-.47.65.47-.25-.77h0ZM18.56,8.05l.65-.47h-.8l-.25-.77-.25.77h-.8l.65.47-.25.77.65-.47.65.47-.25-.77h0ZM18.54,11.81l.65-.47h-.8l-.25-.77-.25.77h-.8l.65.47-.25.77.65-.47.65.47-.25-.77h0ZM18.63,15.59l.65-.47h-.8l-.25-.77-.25.77h-.8l.65.47-.25.77.65-.47.65.47-.25-.77h0ZM23.13,15.59l.65-.47h-.8l-.25-.77-.25.77h-.8l.65.47-.25.77.65-.47.65.47-.25-.77h0ZM22.73,15.46h0ZM23.04,11.81l.65-.47h-.8l-.25-.77-.25.77h-.8l.65.47-.25.77.65-.47.65.47-.25-.77h0ZM23.06,8.05l.65-.47h-.8l-.25-.77-.25.77h-.8l.65.47-.25.77.65-.47.65.47-.25-.77h0ZM14.01,4.02l.65-.47h-.8l-.25-.77-.25.77h-.8l.65.47-.25.77.65-.47.65.47-.25-.77h0ZM18.51,4.02l.65-.47h-.8l-.25-.77-.25.77h-.8l.65.47-.25.77.65-.47.65.47-.25-.77h0ZM23.01,4.02l.65-.47h-.8l-.25-.77-.25.77h-.8l.65.47-.25.77.65-.47.65.47-.25-.77h0ZM2.87,17.53l.65-.47h-.8l-.25-.77-.25.77h-.8l.65.47-.25.77.65-.47.65.47-.25-.77h0ZM2.78,13.75l.65-.47h-.8l-.25-.77-.25.77h-.8l.65.47-.25.77.65-.47.65.47-.25-.77h0ZM2.8,10l.65-.47h-.8l-.25-.77-.25.77h-.8l.65.47-.25.77.65-.47.65.47-.25-.77h0ZM7.31,10l.65-.47h-.8l-.25-.77-.25.77h-.8l.65.47-.25.77.65-.47.65.47-.25-.77h0ZM7.28,13.75l.65-.47h-.8l-.25-.77-.25.77h-.8l.65.47-.25.77.65-.47.65.47-.25-.77h0ZM7.37,17.53l.65-.47h-.8l-.25-.77-.25.77h-.8l.65.47-.25.77.65-.47.65.47-.25-.77h0ZM11.88,17.53l.65-.47h-.8l-.25-.77-.25.77h-.8l.65.47-.25.77.65-.47.65.47-.25-.77h0ZM11.79,13.75l.65-.47h-.8l-.25-.77-.25.77h-.8l.65.47-.25.77.65-.47.65.47-.25-.77h0ZM11.81,10l.65-.47h-.8l-.25-.77-.25.77h-.8l.65.47-.25.77.65-.47.65.47-.25-.77h0ZM2.75,5.96l.65-.47h-.8l-.25-.77-.25.77h-.8l.65.47-.25.77.65-.47.65.47-.25-.77h0ZM7.25,5.96l.65-.47h-.8l-.25-.77-.25.77h-.8l.65.47-.25.77.65-.47.65.47-.25-.77h0ZM16.31,10l.65-.47h-.8l-.25-.77-.25.77h-.8l.65.47-.25.77.65-.47.65.47-.25-.77h0ZM16.29,13.75l.65-.47h-.8l-.25-.77-.25.77h-.8l.65.47-.25.77.65-.47.65.47-.25-.77h0ZM16.38,17.53l.65-.47h-.8l-.25-.77-.25.77h-.8l.65.47-.25.77.65-.47.65.47-.25-.77h0ZM20.88,17.53l.65-.47h-.8l-.25-.77-.25.77h-.8l.65.47-.25.77.65-.47.65.47-.25-.77h0ZM25.38,17.53l.65-.47h-.8l-.25-.77-.25.77h-.8l.65.47-.25.77.65-.47.65.47-.25-.77h0ZM20.79,13.75l.65-.47h-.8l-.25-.77-.25.77h-.8l.65.47-.25.77.65-.47.65.47-.25-.77h0ZM25.29,13.75l.65-.47h-.8l-.25-.77-.25.77h-.8l.65.47-.25.77.65-.47.65.47-.25-.77h0ZM20.81,10l.65-.47h-.8l-.25-.77-.25.77h-.8l.65.47-.25.77.65-.47.65.47-.25-.77h0ZM25.32,10l.65-.47h-.8l-.25-.77-.25.77h-.8l.65.47-.25.77.65-.47.65.47-.25-.77h0ZM11.76,5.96l.65-.47h-.8l-.25-.77-.25.77h-.8l.65.47-.25.77.65-.47.65.47-.25-.77h0ZM16.26,5.96l.65-.47h-.8l-.25-.77-.25.77h-.8l.65.47-.25.77.65-.47.65.47-.25-.77h0ZM20.76,5.96l.65-.47h-.8l-.25-.77-.25.77h-.8l.65.47-.25.77.65-.47.65.47-.25-.77Z"/>
</svg>